<?xml version="1.0" encoding="utf-8"?>
<!-- Generator: Adobe Illustrator 22.1.0, SVG Export Plug-In . SVG Version: 6.00 Build 0)  -->
<svg version="1.1" id="Layer_1" xmlns="http://www.w3.org/2000/svg" xmlns:xlink="http://www.w3.org/1999/xlink" x="0px" y="0px"
	 viewBox="0 0 382.4 218.9" style="enable-background:new 0 0 382.4 218.9;" xml:space="preserve">
<style type="text/css">
	.st0{fill:url(#SVGID_1_);}
	.st1{fill:#BCBCBC;}
	.st2{fill:#B70000;}
	.st3{fill:#6E6F72;}
</style>
<title>icon</title>
<radialGradient id="SVGID_1_" cx="191.2" cy="-924.9473" r="186.8951" gradientTransform="matrix(1 0 0 -0.58 0 -426.8)" gradientUnits="userSpaceOnUse">
	<stop  offset="0" style="stop-color:#FFFFFF"/>
	<stop  offset="1" style="stop-color:#CFCFCF"/>
</radialGradient>
<rect class="st0" width="382.4" height="218.9"/>
<g>
	<path class="st1" d="M175.4,71.5h10.1c1,0,1.4,0.2,1.4,1.3s-0.1,4.3,0,6.4s-0.3,1.3-1.2,1.2h-5.3c-0.8,0-1.2,0.2-1.1,1.1v5
		c-0.1,1,0.3,1.3,1.3,1.3h15.5c1.1,0,2.2,0.4,2.9,1.2c1.2,1.2,2.6,2.3,3.7,3.5c0.6,0.6,1.5,0.8,2.3,0.5l49.2-15.4
		c0.9-0.4,1.8-0.2,2.5,0.5c2.1,2,4.2,3.8,6.4,5.7c0.6,0.5,0.8,0.9,0.2,1.6s-2.5,3.1-3.6,4.7c-0.3,0.5-1,0.7-1.5,0.4
		c0,0-0.1,0-0.1-0.1l-4.9-2.9c-0.7-0.4-1.5-0.6-2.3-0.4c-4.3,0.7-7,3.1-9.4,6.6c-5.9,8.9-12.3,17.4-18.5,26.1l-1.2,1.7
		c-3.4,4.9-8.2,7.1-14,7.1h-51.3c-1.7,0-3.4-0.1-5-0.5c-3.4-0.7-4.9-2.6-4.9-6s-0.1-5.1-0.1-7.7v-2.6c-0.2-3.9-1.9-6.5-5.7-7.8
		c-5.4-1.9-10.8-4-16.1-6.1c-1.3-0.4-2.6-1-3.8-1.8c-1.7-0.9-2.6-2.9-2.1-4.8c0.9-5.9,2.7-11.6,4.3-17.3c1-3.4,1-3.4,4.3-2.2
		l26.6,9.8c0.8,0.1,1.4,0.9,1.2,1.7c0,0,0,0,0,0.1v3.3c0,0.7,0.2,1.1,1,1.1h13.2c0.7,0,1-0.2,1-0.9c-0.1-1.9-0.1-3.7,0-5.6
		c0-0.8-0.4-0.9-1.1-0.9H165c-0.9,0.1-1.1-0.2-1.1-1c0-2.3,0.1-4.5,0-6.7s0.3-1.2,1.2-1.2L175.4,71.5z M146.2,92.3v-3.9
		c0.1-0.6-0.3-1.2-0.9-1.3c0,0,0,0,0,0l-13.8-5.2c-1-0.5-2.2-0.1-2.7,0.9c-0.1,0.2-0.2,0.4-0.2,0.6c-0.4,1.5-0.7,3-1,4.5
		c-0.3,1,0.3,2.1,1.3,2.5l16.3,6.4c0.9,0.3,1,0,1-0.7L146.2,92.3z"/>
	<path class="st2" d="M129.2,149.6c0.6-2.3,1.1-4.6,1.7-6.9s1.9-7.6,2.8-11.4c0.1-0.5,0.2-1,1-0.8l18.7,4.7c-2.4,1.4-4.5,2.8-6.7,4
		s-1.1,1.2-0.3,2.1c10.1,11.6,22.7,18.5,38,20.2c24.2,2.7,47.6-10.1,58.3-32c0.5-1,0.9-1,1.8-0.6l5.9,2.8c1.1,0.4,1.2,0.9,0.7,2
		c-5,10.2-12.6,18.9-21.9,25.4c-11.9,8.5-26.4,12.8-41,12.1c-20.1-0.9-36.7-9.3-49.6-24.8c-1-1.1-1.6-1.4-2.9-0.5
		c-2,1.3-4,2.6-6.1,3.7H129.2z"/>
	<path class="st2" d="M244,48.8c-0.1,1.7-0.2,3.4-0.4,5.1c-0.3,4.5-0.7,9-1.1,13.5c0,0.6,0,1.1-0.9,1L223.5,67l-0.9-0.2l5.6-4.8
		c1.5-1.4,1.7-1.1,0-2.5c-12.7-10.5-27.3-15.1-43.7-13.3s-30.8,10-41,23.9c-0.5,0.8-0.9,0.9-1.7,0.4s-3.6-2.6-5.5-3.8
		s-1.2-1.1-0.4-2.1c9.4-12.9,21.7-21.8,37.2-25.8c23.3-5.9,44.1-0.9,62.4,14.7c1,0.9,1.6,1,2.6,0s3.6-3.1,5.5-4.7H244z"/>
	<path class="st3" d="M257,96.5c0.1,2.9,1.2,5.8,3.1,8c2.2,2.4,3.5,5.2,2.8,8.7c-0.6,3.2-3.6,5.3-6.7,4.7c-1.1-0.2-2.2-0.7-3-1.5
		c-2.5-2.1-3.5-5.4-2.7-8.5C251.1,104.6,254.3,99,257,96.5z"/>
</g>
</svg>
