<?xml version="1.0" encoding="utf-8"?>
<!-- Generator: Adobe Illustrator 22.1.0, SVG Export Plug-In . SVG Version: 6.00 Build 0)  -->
<svg version="1.1" id="Layer_1" xmlns="http://www.w3.org/2000/svg" xmlns:xlink="http://www.w3.org/1999/xlink" x="0px" y="0px"
	 viewBox="0 0 382.4 218.9" style="enable-background:new 0 0 382.4 218.9;" xml:space="preserve">
<style type="text/css">
	.st0{fill:url(#SVGID_1_);}
	.st1{fill:none;}
	.st2{fill:#6E6F72;}
	.st3{fill:#FFFFFF;}
	.st4{fill:#D62336;}
	.st5{fill:#969799;}
</style>
<title>icon</title>
<g id="Layer_1_1_">
	
		<radialGradient id="SVGID_1_" cx="191.2" cy="-924.9473" r="186.8951" gradientTransform="matrix(1 0 0 -0.58 0 -426.8)" gradientUnits="userSpaceOnUse">
		<stop  offset="0" style="stop-color:#FFFFFF"/>
		<stop  offset="1" style="stop-color:#CFCFCF"/>
	</radialGradient>
	<rect class="st0" width="382.4" height="218.9"/>
</g>
<g id="Layer_2_1_">
	<g>
		<path class="st1" d="M253.8,125.3h1.2l7.9-0.7c0.5-0.1,1.4-0.5,1.6,0.2s-0.6,1.1-1.2,1.4c-2.5,1.4-5.4,1.4-8.1,1.6h-1.3
			c-0.5,0-1.5,0.4-1.5-0.4c-0.2-0.9,0.3-1.8,1.2-2.1C253.7,125.3,253.7,125.3,253.8,125.3z"/>
		<path class="st1" d="M241.5,130.1c4.6-0.6,6.7-2.7,7.7-7.3l-8.5,0.6c-2.6,0.1-3-0.5-2.5-3c1.1-4.9,4.7-7.5,9-9.5
			c1.6-0.8,3.3-1.4,5.1-1.7c1.4-0.2,2.5-1.3,2.7-2.7c0.5-2,0.8-4.2,3.4-4.7c0.2,0,0.7-0.2,0.5-0.5s-1-1.4-1.5-2.2s-1.1-0.8-1.9-0.3
			c-0.9,0.4-1.9,0.6-2.9,0.5c-11.1,0.3-37.3,0.1-48.5-0.1v-18c7.8,0.1,30.7,0.3,38.5,0.9S253.1,84,256,92.5c0.1,0.3,0.2,0.5,0.3,0.8
			c0.1,3,1.4,5.7,3.7,7.6c0.7,0.6,0.6,1.3-0.3,1.5c-2.5,0.7-2.6,2.7-3,4.7s0.1,1.3,1.1,1.4c2.3,0,4.6,0.4,6.8,1.1
			c1.1,0.3,2,1.1,2.4,2.1c0.7,1.9,1.1,3.9,1.2,5.9c0.2,1.5-0.9,2.9-2.4,3.1c-3.7,0.8-7.4,1.3-11.2,1.5c-1.8,0.1-2.9,0.7-3.5,2.5
			c-1.7,5.5-5.8,7.7-11.3,8.1s-29,0.8-35.7,0.8v-2.2C211.6,131.3,234.1,131.2,241.5,130.1z"/>
		<path class="st2" d="M252.6,99.3c1,0.1,2-0.1,2.9-0.5c0.8-0.5,1.4-0.7,1.9,0.3s1.1,1.4,1.5,2.2s-0.3,0.5-0.5,0.5
			c-2.6,0.5-2.9,2.7-3.4,4.7c-0.2,1.4-1.3,2.5-2.7,2.7c-1.8,0.3-3.5,0.9-5.1,1.7c-4.3,2-7.9,4.6-9,9.5c-0.5,2.5-0.1,3.1,2.5,3
			l8.5-0.6c-1,4.6-3.1,6.7-7.7,7.3c-7.4,1.1-29.9,1.2-37.4,1.3V99.2C204.1,99.2,241.5,99.6,252.6,99.3z"/>
		<path class="st2" d="M204.1,133.6v22.2l50.8,0.2c1.6,0,2,0.5,1.9,2s0,4.5,0,6.7s1.3,3.7,3.8,3.7h10.6c2.7,0,3.9-1.2,3.9-4
			c0-6.6,0.4-13.2-0.2-19.8c-0.3-3.3,0.2-6.4,0.2-9.6c0-2.3-0.4-4.6-1.2-6.8c-0.8-2.4-1.2-4.9-1-7.4c0.4-5.1-1.6-10.2-5.5-13.6
			c-0.5-0.3-0.8-0.8-0.8-1.4h6.8c1.6,0,2.1-0.8,2-2.4c-0.4-4-0.7-4.4-4.7-5l-3.5-0.5c-1.8-0.2-3.8-0.9-4.2,2.1l-5.1-9.5
			c-0.9-1.6-2-3.2-2.8-4.9c-1.7-3.6-4.6-5.4-8.3-6.4c-5.9-1.6-12-2.4-18.1-2.6c-3.2-0.2-21.4-0.3-24.6-0.3v4.9
			c7.8,0.1,30.7,0.3,38.5,0.9S253.1,84,256,92.5c0.1,0.3,0.2,0.5,0.3,0.8c0.1,3,1.4,5.7,3.7,7.6c0.7,0.6,0.6,1.3-0.3,1.5
			c-2.5,0.7-2.6,2.7-3,4.7s0.1,1.3,1.1,1.4c2.3,0,4.6,0.4,6.8,1.1c1.1,0.3,2,1.1,2.4,2.1c0.7,1.9,1.1,3.9,1.2,5.9
			c0.2,1.5-0.9,2.9-2.4,3.1c-3.7,0.8-7.4,1.3-11.2,1.5c-1.8,0.1-2.9,0.7-3.5,2.5c-1.7,5.5-5.8,7.7-11.3,8.1S210.8,133.6,204.1,133.6
			z M253.8,125.3h1.2l7.9-0.7c0.5-0.1,1.4-0.5,1.6,0.2s-0.6,1.1-1.2,1.4c-2.5,1.4-5.4,1.4-8.1,1.6h-1.3c-0.5,0-1.5,0.4-1.5-0.4
			c-0.2-0.9,0.3-1.8,1.2-2.1C253.7,125.3,253.7,125.3,253.8,125.3z"/>
	</g>
	<g>
		<circle class="st3" cx="164.7" cy="116" r="61"/>
		<path class="st4" d="M164.7,58.1c32,0,58,26,58,58s-26,58-58,58c-32,0-58-26-58-58c0,0,0-0.1,0-0.1c0-32,25.9-57.9,57.9-57.9
			C164.6,58.1,164.7,58.1,164.7,58.1 M164.7,52.1c-35.3-0.1-64,28.6-64.1,63.9c-0.1,35.3,28.6,64,63.9,64.1
			c35.3,0.1,64-28.6,64.1-63.9c0-0.1,0-0.1,0-0.2C228.5,80.7,200,52.2,164.7,52.1L164.7,52.1z"/>
	</g>
	<path class="st5" d="M168.6,130.4v7.1c-0.1,0.6,0.3,1.3,0.9,1.5l11.1,6.4c1,0.4,1.5,1.4,1.1,2.4c-0.1,0.2-0.1,0.3-0.2,0.5l-1.8,3.2
		c-0.4,1-1.6,1.4-2.5,0.9c-0.1-0.1-0.3-0.1-0.4-0.2l-7.2-4c-0.9-0.5-1-0.4-1,0.6v11.5c0,1.6-0.6,2.3-2.3,2.3h-3.2
		c-1.7,0-2.4-0.7-2.4-2.4v-11.3c0-1.1-0.1-1.1-1-0.6l-6.6,3.8c-1.4,0.8-2.3,0.6-3.1-0.7l-1.9-3.1c-0.6-0.8-0.5-2,0.4-2.7
		c0.1-0.1,0.3-0.2,0.4-0.2l10.6-6.1c0.9-0.4,1.4-1.3,1.3-2.2c-0.1-4.6-0.1-9.2-0.1-13.9c0-1.1-0.1-1.2-1.1-0.6l-12.3,7
		c-0.7,0.3-1.1,1-1,1.8v12.4c0,1.9-0.6,2.4-2.5,2.4h-3.5c-0.9,0.1-1.8-0.5-1.9-1.5c0-0.1,0-0.3,0-0.4v-8.2c0-1.2-0.1-1.2-1-0.7
		l-9.5,5.5c-1.8,1.1-2.6,0.9-3.6-0.9s-1.1-1.8-1.6-2.7s-0.6-2.3,0.8-3l10-5.8c0.9-0.5,0.9-0.6,0-1.1s-4.6-2.6-6.8-4
		s-1.5-1.6-0.8-2.9l1.8-3.2c0.3-0.9,1.4-1.4,2.3-1.1c0.2,0.1,0.4,0.2,0.6,0.4l10.9,6.3c0.5,0.4,1.2,0.4,1.7,0l12.7-7.3
		c0.8-0.5,0.8-0.6,0-1.1l-12.6-7.3c-0.5-0.4-1.2-0.4-1.7,0l-10.9,6.4c-1.6,1-2.5,0.7-3.4-1l-1.5-2.6c-0.7-0.8-0.7-2,0.1-2.7
		c0.2-0.2,0.4-0.3,0.7-0.4l6.9-4.1c1-0.6,0.9-0.6,0-1.2l-10.1-5.8c-1-0.4-1.4-1.5-1-2.5c0.1-0.2,0.1-0.3,0.2-0.4l1.8-3.1
		c0.4-1,1.6-1.5,2.6-1.1c0.2,0.1,0.3,0.2,0.5,0.3l9.9,5.7c0.9,0.6,1,0.5,1-0.6v-8c-0.1-1,0.6-1.9,1.6-2c0.1,0,0.3,0,0.4,0h3.5
		c1.8,0,2.4,0.6,2.4,2.4V99c-0.1,0.6,0.2,1.2,0.8,1.4l12.5,7.2c1,0.5,1.1,0.5,1.1-0.7V92.6c0-0.6-0.3-1.2-0.8-1.5l-11.1-6.3
		c-1.4-0.8-1.7-1.8-0.8-3.1c0.5-1,1.1-2,1.7-2.9c0.8-1.4,1.7-1.6,3-0.8l7,3.9c1,0.5,1,0.4,1-0.7v-11c0-2.1,0.6-2.6,2.6-2.6h3.3
		c1-0.1,1.9,0.6,2,1.6c0,0.1,0,0.3,0,0.4v11.6c0,1.2,0.1,1.2,1.1,0.6l6.8-3.8c0.7-0.7,1.9-0.6,2.5,0.1c0.2,0.2,0.3,0.4,0.4,0.6
		c0.7,1,1.3,2.1,1.8,3.2c0.6,0.9,0.4,2-0.4,2.6c-0.1,0.1-0.2,0.1-0.3,0.2l-11.1,6.5c-0.5,0.2-0.9,0.7-0.8,1.3v14.6
		c0,1,0.1,1.1,0.9,0.6l12.9-7.4c0.5-0.3,0.7-0.8,0.7-1.3V86.2c0-1.7,0.6-2.3,2.3-2.3h3.6c1-0.1,1.9,0.7,2,1.8c0,0.1,0,0.1,0,0.2V94
		c0,1.2,0.1,1.3,1.2,0.6l9.6-5.5c1.5-0.9,2.4-0.7,3.2,0.7l1.8,3.2c0.6,0.8,0.5,1.9-0.3,2.5c-0.1,0.1-0.3,0.2-0.5,0.3l-10,5.8
		c-1,0.5-1,0.6,0,1.1l6.7,4c1,0.4,1.4,1.5,1,2.5c-0.1,0.2-0.1,0.3-0.2,0.4c-0.5,1.1-1.1,2.1-1.7,3.1c-0.4,1-1.5,1.5-2.4,1.1
		c-0.2-0.1-0.4-0.2-0.6-0.3l-10.7-6.2c-0.6-0.5-1.5-0.5-2.1,0l-12.4,7.2c-0.9,0.5-0.9,0.6,0,1.1l12.7,7.4c0.5,0.3,1.1,0.2,1.6-0.1
		l10.6-6.3c1.8-1,2.6-0.8,3.6,1l1.6,2.6c0.7,0.8,0.6,2-0.2,2.7c-0.2,0.1-0.4,0.2-0.6,0.3l-7.1,4.2c-0.7,0.4-0.7,0.7,0,1l10,5.8
		c1.5,0.9,1.7,1.6,0.9,3.1l-1.7,3c-0.8,1.4-1.7,1.6-3.1,0.8l-8-4.6l-2.1-1.2c-0.6-0.4-0.8-0.2-0.8,0.5v7.9c0,1.7-0.6,2.3-2.4,2.3
		h-3.3c-1.6,0-2.2-0.6-2.2-2.2v-12.6c0-0.6-0.3-1.2-0.8-1.5l-12.8-7.3c-0.7-0.4-0.9-0.3-0.9,0.6V130.4z"/>
</g>
</svg>
