<?xml version="1.0" encoding="UTF-8"?><svg id="Layer_1" xmlns="http://www.w3.org/2000/svg" xmlns:xlink="http://www.w3.org/1999/xlink" viewBox="0 0 382.4 218.9"><defs><style>.cls-1{fill:#b70000;}.cls-2{fill:#6e6f72;}.cls-3{fill:url(#radial-gradient);}.cls-4{fill:#191919;}</style><radialGradient id="radial-gradient" cx="191.2" cy="1924.05" fx="191.2" fy="1924.05" r="186.9" gradientTransform="translate(0 -1006.28) scale(1 .58)" gradientUnits="userSpaceOnUse"><stop offset="0" stop-color="#fff"/><stop offset="1" stop-color="#cfcfcf"/></radialGradient></defs><g id="Layer_1-2"><rect class="cls-4" width="382.4" height="218.9"/><rect class="cls-3" width="382.4" height="218.9"/></g><g><path class="cls-2" d="m199.91,144.05c1.54-1.94,1.38-3.24-.55-4.94-.45-.4-.63-.71-.34-1.33.95-2,.23-3.75-1.87-4.61-.71-.29-.94-.65-.84-1.44.26-2.04-.8-3.37-2.9-3.65-.85-.11-1.19-.5-1.38-1.27-.52-2.07-1.89-2.94-3.9-2.51-.45.1-.9.3-1.2-.27-.29-.15-.52-.39-.57-.7,0-.05-.02-.09-.03-.14-.05-.07-.1-.15-.14-.23,0,0,0-.01-.01-.02-.04-.04-.07-.08-.11-.12-.05-.05-.28-.32-.35-.31.15.12.18.14.09.07-.03-.02-.07-.05-.1-.07-.07-.05-.14-.1-.21-.14-.13-.08-.26-.16-.39-.24-.16-.09-.32-.17-.48-.24-.04-.02-.1-.04-.15-.05.02,0,.06.02.11.03-.07-.02-.15-.06-.22-.09-.3-.11-.62-.21-.94-.28-.31.11-.6.21-.83.4-.98.81-1.69.76-2.33-.4-.47-.86-1.37-.74-2.17-.77-.28-.01-.52-.07-.7-.2-.1.05-.2.09-.3.14-.59.31-1.16.66-1.73,1.01-.02.11-.05.22-.1.32-.27.52-1.07.75-1.56.41-.06-.04-.12-.08-.19-.12-.03-.02-.07-.04-.11-.06,0,0-.01,0-.02,0-.06,0-.1,0-.11,0-.04,0-.08,0-.12,0,0,0,0,0,0,0-.02,0-.04.01-.05.01-.43.09-.87.22-1.29.36,0,0,0,0-.01,0-.02,0-.06.04-.11.07h0s-.06.07-.09.11c0,0,0,0,0,0-.05.06-.09.13-.14.19-.17.23-.35.46-.53.69-.07.08-.15.14-.24.19-.14.23-.41.43-.66.5-.25.07-.66.05-.88-.12-.06-.05-.13-.08-.2-.11-.1-.03-.21-.06-.31-.08-.6-.05-1.19.03-1.79.03-.26,0-.48-.1-.67-.25,0,0-.01,0-.02,0-1.26.53-2.4,1.27-2.14,3.06-.16-.05-.31-.1-.47-.15-.02-.19-.04-.38-.06-.58-.08.31-.28.56-.57.75-.16.11-.33.21-.48.33-.03.03-.11.1-.13.12-.07.07-.14.14-.21.21-.02.02-.1.11-.12.14-.03.05-.07.09-.1.14-.1.15-.19.31-.27.47-.01.02-.02.03-.02.04,0,.02,0,.03-.02.05-.03.08-.06.16-.08.24-.05.16-.08.33-.11.5,0,.05-.02.19-.02.2,0,.11,0,.23-.01.34,0,.09-.03.16-.05.24.02.02.04.04.05.06.17.26.18.59.12.88-.07.29-.28.52-.52.68-.24.16-.61.19-.88.12-.02,0-.04-.02-.06-.03-.05.03-.1.06-.15.09-.09.08-.18.16-.26.26-.03.05-.07.11-.1.16,0,.01,0,.02-.01.04,0,.02.02.03.03.05.17.25.18.59.12.88-.07.29-.28.52-.52.68-.01,0-.03,0-.04.01-.1.19-.27.37-.44.47-.23.14-.46.15-.7.13,0,0,0,0,0,0,.03,0,.06,0,.09.01-.03,0-.07,0-.1,0-.03.05-.06.1-.09.15-.06.17-.1.35-.14.53-.05.43-.05.86,0,1.29,0,.04.01.07.02.11.1.48-.06.93-.42,1.2-.03.06-.05.14-.1.19-.08.12-.19.22-.32.29-.32.18-.68.29-.99.48-.01.02-.03.05-.04.07-.1.17-.24.31-.41.41l-.27.12c-.06.02-.13.03-.2.04-.42,1.11-.52,2.22.16,3.48.62.04,1.08.51,1.11,1.13.03.6-.54,1.17-1.14,1.14-.25-.01-.49,0-.74.03.12.22.16.54.09,1.03-.17,1.25,0,2.68,1.57,3.35.87.37.4,1.03.16,1.62-.71,1.74.03,3.54,1.79,4.19.88.32,1.14.76,1.01,1.68-.24,1.74,1.02,3.34,2.74,3.49.93.08,1.45.26,1.59,1.36.21,1.71,1.98,2.91,3.66,2.48.93-.23,1.33-.04,1.73.82.79,1.68,2.77,2.29,4.32,1.35.8-.49,1.25-.5,1.85.31,1.05,1.41,3.33,1.52,4.51.21.7-.78,1.2-.78,2.06-.27,1.54.91,3.44.36,4.26-1.25.44-.87.88-1,1.77-.74,1.7.49,3.52-.57,3.77-2.25.16-1.08.67-1.27,1.61-1.33,1.73-.1,3.04-1.59,2.95-3.34-.04-.91.21-1.33,1.12-1.62,1.72-.54,2.61-2.49,1.9-4.15-.38-.88-.24-1.3.57-1.81,1.66-1.05,1.89-3.13.59-4.72-.43-.53-.54-.89-.07-1.49Zm-27.67,15.45c-5.09-1.79-8.38-5.32-9.74-10.52,4.46,8.62,14.49,12.65,24.35,7.44-4.31,3.64-9.14,5.01-14.61,3.08Zm5.43-4.26c-6.26-.02-10.85-4.72-10.81-11.09.03-6.24,4.68-10.85,10.9-10.81,6.01.04,10.84,4.84,10.87,10.8.03,6.08-4.94,11.12-10.96,11.1Zm14.72-7.8c.97-10.81-9.53-21.66-23.25-16.46,3.2-3.38,10.24-3.99,15.32-1.32,6.42,3.37,9.54,10.32,7.94,17.77Z"/><path class="cls-2" d="m60.73,141.85c-.04-.12-.06-.25-.07-.38-.46-.68-1.18-1.29-1.45-2.05-.29-.81.18-1.52.24-2.33.08-1.23-1.09-1.65-2.1-1.88-.61-.14-.95-.83-.8-1.4.23-.86.22-1.79-.36-2.52-.58-.72-1.33-.65-2.15-.71-.67-.05-1.41-.14-1.94-.62-.65-.59-.4-1.31-.75-1.99-.28-.56-1.04-1.37-1.61-1.65-.75-.36-1.45.03-2.22-.12-1.55-.31-1.35-2.23-2.78-2.72-1.56-.53-3.14.38-4.67.05-.87-.19-.97-.76-1.43-1.37-.47-.63-1.13-.48-1.78-.22-1.45.57-2.33,1.37-3.84.54-1.24-.68-2.99-.73-3.81.63-.01.02-.03.04-.05.06-.05.69-.44.85-1.35.63-1.98-.47-3.63.5-4.01,2.39-.18.87-.58,1.1-1.39,1.17-2.08.17-3.27,1.55-3.03,3.55.09.78-.05,1.12-.84,1.38-2.07.68-2.87,2.26-2.19,4.28.27.8.15,1.25-.57,1.73-1.58,1.08-1.93,3.02-.79,4.47.56.71.67,1.16.05,1.92-1.27,1.55-1,3.4.58,4.65.57.45.83.8.49,1.58-.85,1.98-.19,3.6,1.78,4.42.71.3.93.68.86,1.45-.18,2.07.95,3.52,2.91,3.7.92.08,1.28.4,1.43,1.33.28,1.82,1.98,2.9,3.83,2.44.87-.22,1.24,0,1.6.77.86,1.81,2.74,2.43,4.4,1.41.77-.47,1.17-.39,1.74.27,1.35,1.54,3.25,1.61,4.61.17.59-.63,1.03-.69,1.77-.25,1.78,1.05,3.57.57,4.48-1.21.4-.78.79-.94,1.63-.71,1.89.52,3.53-.43,3.9-2.26.19-.95.65-1.2,1.53-1.27,1.87-.17,3.17-1.62,3.02-3.42-.08-.96.32-1.31,1.15-1.6,1.75-.61,2.57-2.44,1.82-4.15-.4-.92-.22-1.44.64-1.78.88-.35,1.06-1.07,1.27-1.9.34-1.37-.51-2.23-.96-3.33-.45-1.11,1.73-1.7,1.2-3.15Zm-29.04,17.53c-4.23-1.58-7.25-4.48-8.74-8.89,6.35,8.33,14.15,10.42,23.66,5.97-4.39,3.68-9.37,4.98-14.92,2.91Zm5.8-4.14c-6.14.01-10.84-4.73-10.84-10.92,0-6.26,4.61-10.96,10.77-10.98,6.19-.02,10.97,4.76,11.01,11,.04,6.03-4.83,10.89-10.94,10.9Zm14.62-7.53c.4-6.41-1.81-11.49-6.89-15.09-5.07-3.6-10.61-3.9-16.77-1.31,4.72-4.15,11.72-4.36,17.08-.89,5.71,3.69,8.55,11,6.58,17.29Z"/><path class="cls-1" d="m191.24,99.9c0-1.31.52-2.6-.05-3.94-1.71-4.06-3.36-8.15-4.99-12.24-.38-.95-1-1.45-1.98-1.74-2.18-.66-4.37-1.19-6.66-.89-1.42.18-2.43-.21-3.12-1.56-.58-1.14-1.53-1.99-2.64-2.69-9.37-5.92-19.1-11.18-29.09-15.97-3.79-1.82-7.7-2.6-11.93-2.5-9.3.23-18.45,1.57-27.65,2.75-6.87.88-12.79,3.37-18.32,7.61-9.85,7.57-18.68,16.42-29.14,23.23-1.29.84-2.56,1.51-4.02,1.94-7.46,2.19-14.85,4.59-21.58,8.62-2.45,1.46-2.38,1.46-1.91,4.29.28,1.7,1.3,3.46.62,5.1-.77,1.85-1.24,3.44.13,5.14.13.16.21.5.12.66-.5.93-.45,1.85-.29,2.76.69-.43,1.5-.67,2.37-.71.71-.03,1.44.08,2.12.31.29.1.73.47,1,.52.27.05.61-.18.89-.31,1.19-.58,2.54-1.13,3.86-.64.6.22,1.11.65,1.48,1.18.29.41.14.4.49.47.28.05.75-.11,1.04-.14.82-.08,1.68-.12,2.51,0-.13-.07-.25-.14-.37-.22-.46-.31-1.15-.64-.88-1.32.27-.68,1-.37,1.55-.38.62-.02,1.21.45,1.96.06-.38-.91-1.37-.94-2-1.41-.36-.27-.92-.47-.75-1.03.17-.54.74-.49,1.19-.47.84.04,1.67.13,2.82.23-.79-1.02-1.77-1.17-2.48-1.7-.32-.24-.73-.46-.55-.95.15-.39.55-.39.89-.38.95.04,1.9.11,2.96-.16-.77-.44-1.55-.87-2.32-1.33-.35-.21-.72-.46-.6-.95.14-.58.63-.61,1.11-.59.84.04,1.64.54,2.69.14-.68-.81-1.65-.97-2.36-1.5-.32-.24-.73-.47-.62-.95.12-.5.58-.53.98-.51,1.2.05,2.38.52,3.57-.31.37-.26,1.07.23,1.13.8.09.82-.62.63-1.11.69-.86.11-1.68-.47-2.64-.14.24.75.98.76,1.45,1.09.54.38,1.53.6,1.24,1.43-.28.8-1.21.36-1.87.41-.54.04-1.09-.47-1.66.04.26.71,1.02.68,1.5,1.04.45.34,1.2.52,1.03,1.23-.18.75-.93.53-1.47.53-.67,0-1.33-.09-2.11.16.77.45,1.54.89,2.3,1.36.34.21.73.47.61.95-.15.59-.66.55-1.13.56-.83,0-1.63-.52-2.56-.22.33.84,1.15.83,1.66,1.25.47.38,1.41.54,1.18,1.29-.26.85-1.18.43-1.83.47-.61.04-1.21-.49-1.95-.01.62.86,1.75.89,2.43,1.55.3.29.66.6.27,1.01-.03.03-.07.06-.1.09.05.07.1.14.15.22.07.13.18.57.31.8.06-.1.48-.12.58-.13,1.52-.1,2.79.69,3.73,1.83.42.51,1.02,1.02,1.24,1.65.07.18.09.95.06.92,0,0,.61.03.8.04,2.86.15,4.57,2.34,4.39,4.99.8.3,1.54.74,2.08,1.42.84,1.08.81,2.24.53,3.51-.02.17-.06.34-.11.51-.08.16-.04.18.12.07.11.21.35.4.49.59.21.27.4.56.59.85.84-.06,1.67-.03,2.42.52.6.44,1.21.62,1.92.64,3.88.08,7.76.17,11.64.28,5.79.15,11.59.19,17.38.28,15.36.22,30.7.57,46.01,1.87,3.19.27,6.38.45,9.58.66.05-.14.11-.27.2-.39.24-.36.55-.66.93-.87.05-.03.11-.04.16-.07-8.96-.65-17.72-1.29-26.68-1.94,1.42-1.6,2.7-2.7,4.86-2.71,7.46,0,14.92-.18,22.37-.28.09,0,.19,0,.28,0,0-.07,0-.14.02-.21,0-.15.05-.29.14-.42.03-.07.07-.14.12-.2.09-.13.19-.26.3-.37.17-.15.36-.3.57-.4.18-.09.36-.17.54-.25-.02-.17-.03-.34-.03-.51-.02-.83.11-1.68.47-2.43.17-.34.43-.63.74-.86-.86.09-1.7.13-2.54.21-.39.04-.8-.19-.93-.65-.16-.56.19-.9.61-1.12,1.09-.6,2.21-1.16,3.62-1.89-1.51-.5-2.67.14-3.82-.03-.51-.07-1.15.05-1.36-.53-.27-.72.38-1.04.86-1.31.97-.55,1.98-1.04,3.31-1.72-1.54-.49-2.66.06-3.77.02-.57-.02-1.26.09-1.47-.62-.2-.71.44-1.02.93-1.29.99-.55,2.02-1.03,3.3-1.68-1.38-.52-2.41.02-3.45.05-.69.02-1.53.13-1.77-.71-.23-.78.55-1.06,1.08-1.36.93-.52,1.89-.97,2.72-1.82-1.11.06-2.22.14-3.34.17-.56.01-1.27.11-1.44-.63-.16-.71.48-1,.97-1.28.9-.5,1.84-.93,2.96-1.5-1.17-.74-2.15-.06-3.1-.12-.67-.05-1.55.24-1.82-.6-.26-.86.65-1.1,1.18-1.49.86-.63,2.06-.7,3.03-1.79-1.28.06-2.28.12-3.29.15-.91.03-1.21-.31-.63-1.13.43-.61.83-1.23,1.52-1.63.46-.27,1.76-.22.71-1.4-.19-.22.46-.58.87-.6.67-.04,1.45-.3,1.87.48.23.41-.09.75-.4,1.05-.92.89-2.29,1-3.45,1.99,1.22.52,2.21-.12,3.19-.02.61.06,1.41-.2,1.66.57.28.87-.54,1.2-1.11,1.53-.84.48-1.73.87-2.6,1.3.04.16.07.31.11.47.96-.08,1.91-.15,2.87-.24.69-.06,1.53-.29,1.78.58.24.83-.58,1.18-1.17,1.51-.89.49-1.81.9-2.63,1.71,1.16-.06,2.32-.14,3.48-.16.5-.01,1.13-.07,1.32.56.18.62-.35.97-.78,1.22-.98.57-2.01,1.07-3.28,1.74,1.42.53,2.51-.1,3.6,0,.57.05,1.28-.13,1.52.55.28.79-.43,1.09-.95,1.45-.93.63-2.18.72-3.2,1.77,1.36.23,2.46-.03,3.56-.14.6-.06,1.25-.08,1.5.55.27.68-.31,1.07-.82,1.34-.98.54-2,1.03-3.29,1.68,1.46.57,2.57-.1,3.67.07.47.07,1.03-.01,1.27.47.31-1.19.99-2.21,2-2.99.02-.11.04-.2.05-.27.15-.92.56-1.76.75-2.66.1-.46.51-.75.95-.81-.22-2.12-.42-4.24-.57-6.36-.34-5.01-.53-10.04-.74-15.06-.07-1.55,2.14-3.12,3.57-2.62.6.21.45.74.48,1.17.36,5.59.37,11.2.97,16.78.22,2.09.24,4.2.52,6.28.39-.02.78-.04,1.17-.03.34,0,.69.05,1.03.14.04-.06.09-.12.13-.18.14-.19.28-.39.44-.57.32-.37.75-.58,1.2-.74.48-.17,1-.32,1.5-.4.35-.05.69-.05,1.02,0,.36-.22.73-.45,1.09-.67-.03-.25.03-.52.14-.72.16-.28.39-.4.68-.52.47-.2.97-.34,1.48-.4,0-.02,0-.04.02-.06.03-.07.32-.09.45-.04.06.02.13.05.2.07,0,0,0,0,.01,0,.26.01.52.05.77.1.24-.05.48-.09.73-.11.41-.04.75.21.95.55.27.15.45.42.52.72.27.13.53.27.79.41.15-.05.31-.1.46-.13.62-.1,1.25-.06,1.87.07-1.45-1.09-2.95-2.08-4.75-2.61-.4-.12-.79-.37-.63-.87.15-.49.63-.52,1.02-.4.82.25,1.67.51,2.42.91,2.1,1.13,3.88,2.72,5.79,4.12.31.22.75.44.51.96-.05.1-.11.19-.18.28.24.32.41.67.47,1.06.03.18.02.36-.01.52.59-.39,1.08-.99,1.41-1.76.59-1.33-.69-1.53-1.29-2.09-.93-.87-2.08-4.04-1.33-4.68,1.83-1.56.99-3.38.88-5.13-.05-.76.11-1.38.6-1.92,1.99-2.22,2.4-4.94,2.42-7.76Zm-12.46-16.53c1.17-.07,2.29.15,3.67.77-4.33.72-8.35,1.38-12.37,2.06-6.57,1.1-13.14,2.23-19.71,3.32-2.99.49-6.02.14-9.03.21-1.01.02-1.92.19-2.79.76-14.7,9.52-29.76,18.42-44.97,27.08-.49.28-1.29.43-1.3,1.03-.01.8.9.79,1.45.99,8.19,3.07,16.4,6.11,24.61,9.14.31.12.65.16,1.18.29-.32-.85-.96-1.01-1.46-1.28-2.76-1.47-5.52-2.95-8.31-4.36-.97-.49-1.67-1.15-2.18-2.13-1.01-1.96-2.09-3.88-3.19-5.78-.56-.96-.38-1.55.59-2.11,6.18-3.56,12.33-7.15,18.49-10.74,1.58-.92,3.29-.48,4.94-.43,3.76.12,7.52.43,11.28.56,1.46.05,1.72.43,1,1.72-2.15,3.84-4.24,7.72-6.31,11.61-.46.87-1.14,1.45-1.96,1.91-3.34,1.87-6.67,3.74-10.01,5.6-.15-.11-.3-.22-.45-.33-.47.99-1.58,1.07-2.55,1.69,2.3,1.3,4.73,1.64,7.14,2.22-2.91,1.81-5.28,4.03-9.37,2.98-9.48-2.43-19.11-4.27-28.69-6.28-1.58-.33-2.7-1.02-3.65-2.34-3.87-5.35-7.8-10.67-11.78-15.94-.9-1.2-.98-1.65.65-2.15,8.28-2.5,16.77-4.1,25.14-6.18,8.15-2.03,16.32-3.98,24.49-5.97.38-.09.76-.18,1.29,0-2.42,1.68-4.83,3.37-7.25,5.05,2.06-.26,3.66-1.38,5.34-2.31,5.9-3.22,11.76-6.5,17.68-9.67,1.4-.75,1.56-1.4.61-2.64-.95-1.24-1.69-2.63-2.56-3.93-.73-1.1-.49-1.52.85-1.48,4.75.16,9.18,1.22,12.88,4.43.09.08.2.13.27.22,3.04,3.31,6.85,3.75,11.09,3.33,5.07-.5,10.17-.63,15.26-.92Zm-35.28-14.38c4.97,4.27,9.91,8.52,15.05,12.94-.82.15-1.12-.16-1.44-.39-2.44-1.76-4.89-3.52-7.31-5.3-2.14-1.57-3.48-4.04-6-5.2-.8-.37-.83-1.17-.3-2.05Zm-1.59-3.23c9.59,4.57,19.02,9.4,27.82,15.45-2.51,0-4.79.97-7.42-1.07-4.31-3.35-9.28-5.84-13.94-8.76-2.43-1.52-4.39-3.63-6.46-5.63Zm1.84,8.37c-2.32.16-4.28-.3-6.26-.37-.67-.02-.99-.52-1.31-1.01-.71-1.1-1.42-2.2-2.12-3.3,3.41,1.22,6.5,2.7,9.69,4.68Zm7.11-7.62c6.78,3.56,13.48,7.25,19.91,11.4.83.54,1.63,1.12,2.18,1.96.26.4.9.85.37,1.33-.44.4-1.12.27-1.58-.19-2.69-2.74-6.19-4.26-9.42-6.17-6.29-3.72-12.73-7.15-19.32-10.33-1.54-.74-1.54-.76-2.08-2.65,3.61,1.28,6.76,2.99,9.92,4.65Zm-18.01-5.3c.4-.58.94-.21,1.37.06,2.99,1.87,5.41,4.43,8.34,6.84-1.63-.07-2.77-.46-3.74-1.35-1.7-1.56-3.41-3.1-5.37-4.34-.41-.26-1.03-.59-.6-1.21Zm-7.29.29c.34-.4.75-.22,1.09.02,1.25.88,2.2,2.06,3.05,3.29,1.76,2.58,3.4,5.23,5.09,7.85.12.19.22.4.32.58-.13.66-.61.5-.95.4-.68-.18-.91-.85-1.26-1.37-2.27-3.32-3.96-7.08-7.15-9.73-.33-.27-.54-.65-.2-1.05Zm6.52,15.37c-1.25-.04-3.7-2.42-3.85-3.73-.03-.26.03-.43.26-.56.68-.39,3.47.54,3.81,1.28.24.52.45,1.06.69,1.58.61,1.35.54,1.47-.9,1.43Zm-6.57-9.46c1.1.05,2.35-.52,3.22.57.56.7.99,1.52,1.68,2.6-1.31-.26-2.26-.48-3.21-.63-1.17-.18-1.84-.88-2.14-1.96-.09-.33.11-.6.45-.58Zm-1.69.73c2.73,4.91,6.05,9.44,9.06,14.18.26.41,1.02.95.2,1.43-.66.39-1.1-.23-1.34-.75-1.6-3.39-4.41-5.97-6.18-9.26-.9-1.68-2.15-3.16-2.92-4.92-.24-.55-.4-1.13.39-1.34.48.03.63.35.8.65Zm-.94-3.49c-8.38.91-16.76,1.89-25.07,3.37,8.2-2.22,16.58-3.23,25.07-3.37Zm-20.28,5.17c5.47-1.03,11-1.56,16.53-2.13,1.27-.13,1.92.23,2.49,1.48,1.52,3.32,3.77,6.23,5.75,9.3.57.89.59,1.48.24,2.68-1.4,4.77-5.26,5.81-9.2,6.79-7.41,1.85-14.86,3.56-22.29,5.35-.96.23-1.71.45-2.11-.89-.29-.97-1.27-1.31-2.28-1.18-.96.12-1.6.69-1.84,1.61-.16.61-.22,1.25-.29,1.88-.08.76-.53,1.19-1.24,1.2-.9.02-.75-.76-.72-1.29.07-1.26-.35-2.02-1.72-2.03-.92,0-.79-.53-.61-1.17.55-1.98.53-2-1.54-2.01-2.59-.01-5.19,0-8.28,0,6.65-6.16,12.9-12.02,19.77-17.16,2.17-1.63,4.81-1.95,7.36-2.43Zm-8.87,1.62c-.15.14-.34.35-.55.52-6.54,5.19-12.66,10.84-18.8,16.49-.45.41-.91,1.34-1.67.47-.67-.77.23-1.11.63-1.5,5.71-5.43,11.5-10.75,17.62-15.72.59-.48,1.18-.96,2-.9.35.02.72.03.76.64Zm-30.66,17.33c5.98-5.28,12.04-10.48,18.32-15.42,2.77-2.18,5.62-4.27,8.45-6.38.46-.34.97-.64,1.5-.86.44-.19.79-.03.84.52-.23.65-.78,1-1.27,1.39-6.13,4.83-12.29,9.64-18.22,14.72-2.81,2.41-5.61,4.83-8.46,7.2-.51.42-.98,1.66-1.91.58-.8-.93.27-1.32.76-1.75Zm-8.06,19.73c-.7,2.27-1.49,4.87-2.29,7.47-.15.5-.41.84-1.01.65-.59-.19-.6-.59-.44-1.11.78-2.54,1.54-5.1,2.32-7.64.14-.47.4-.87.98-.77.65.1.61.58.43,1.41Zm4.24,20.26c-1.99-4.7-2.45-9.6-2.19-14.59.02-.32.17-.7.4-.93.43-.43.89-1.14,1.54-.91.52.18.25.93.25,1.42.02,5,.01,10,.01,15Zm61.69,11.2c-11.13-.18-22.26-.2-33.39-.52-5.27-.15-10.54-.07-16.32-.34,3.32-2.86,6.33-5.46,9.35-8.06-.08-.15-.15-.29-.23-.44-4.25,1.89-8.5,3.77-13.08,5.8.32-2.59.6-4.91.89-7.22.49-3.85.99-7.7,1.48-11.55.05-.43.39-1-.16-1.24-.51-.23-.8.36-1.09.68-2.02,2.21-4.02,4.45-6.22,6.52-.8-1.14-.61-2.01-.63-2.84-.03-2.09-.27-4.21.03-6.25.57-3.81-1.41-6.51-3.45-9.28-.52-.71-1.21-.82-1.99-.76-5.43.46-10.85.93-16.28,1.36-1.09.09-1.62.74-2.12,1.56-1.72,2.89-3.48,5.75-5.17,8.66-.6,1.03-1.01,1.15-1.55-.02-.34-.76-.57-1.45-.33-2.32.97-3.47,2.29-6.77,4-9.94.49-.92,1.08-1.58,2.05-2,6.57-2.8,13.29-5.15,20.25-6.82,1.42-.34,2.86-.38,4.31-.51,1.31-.12,2.82.23,3.76-1.19.09-.14.43-.14.65-.17,5.14-.87,10.34-1.1,15.88-1.33-5.81,3.55-11.68,5.63-17.98,6.8-8.43,1.57-16.79,3.52-25.17,5.32-.43.09-.93.07-1.26.5.32.56.83.26,1.24.25,7.85-.18,15.59-1.22,23.22-3.06,1.62-.39,2.47-.04,3.35,1.39,5.19,8.44,10.51,16.81,15.73,25.24.73,1.19,1.58,1.81,2.97,2.02,12.2,1.86,24.39,3.77,36.59,5.68,2.15.34,4.3.71,6.67,1.1-1.68,2.14-3.57,3.04-6,3Zm23.34-3.38c-.69.06-.61-.58-.61-1.01-.02-3.82-.02-7.64-.01-11.46,0-.4-.01-.92.52-.95.68-.04.62.57.63,1.01.02,1.91,0,3.82,0,5.73,0,1.85.01,3.7,0,5.55,0,.44.1,1.06-.52,1.12Zm13.06-24.34c-.54.2-1.13.18-1.32-.43-.93-2.91-1.81-5.85-2.65-8.6.14-.92.37-1.72,1.08-1.85.77-.14.71.76.85,1.25.84,2.77,1.63,5.54,2.44,8.32.15.52.27,1.05-.4,1.31Zm29.14-7.72c-.72.2-1.39.58-2.07.9-.83.38-.91.94-.16,1.4,1.81,1.12,1.66,2.88,1.69,4.62.02,1.19-.82,1.62-1.72,1.89-1.04.32-.98-.75-1.3-1.26-1.08-1.7-1.26-3.41-.1-5.19.94-1.45.91-2.99.43-4.66-.92-3.23-1.7-6.5-2.48-9.77-.28-1.2-.76-1.62-2.06-1.25-7.81,2.21-15.63,4.37-23.46,6.5-1.25.34-2.12,1-2.84,2.08-4.24,6.36-8.46,12.74-12.87,18.98-1.42,2-2.17,4.13-2.32,6.43-.21,3.23-1.8,5.41-4.37,7.12-.91.6-1.76,1.35-2.47,2.17-1.34,1.55-2.87,1.55-4.61.91-1.3-.48-2.62-.9-4.32-1.47,1.98-1.57,3.61-3.15,5.84-3.89.19-.04.37-.08.56-.12.44.15,1.07.43,1.32.08,1.45-2.03,3.28-.25,4.98-.72-.16-.79-.56-1.61-1.27-2.17-1.12-.89-.72-1.39.25-2.05,1.16-.79,2.2-1.74,3.17-2.79-1.37.19-2.33,1.14-3.48,1.69-.51.25-.93.61-1.56.11-1.09-.86-1.77-.24-2.31.79-.59,1.13-2.76,1.68-3.87,1.04-.51-.29-.46-.73-.46-1.2,0-.73.33-1.15,1.02-1.42,2.42-.97,4.8-2.04,7.24-2.98,1.38-.53,2.28-1.39,2.98-2.71,2.33-4.41,4.81-8.73,7.17-13.13.6-1.12,1.23-1.67,2.58-1.4.93.19,1.93.04,2.91.04l.07-.49c-6.13-1.14-12.26-2.28-18.95-3.52,3.14-1.69,5.5-3.76,8.63-4.39,10.85-2.19,21.7-4.37,32.55-6.55.4-.08.83-.27,1.19-.17,3.93,1.01,7.7-.16,11.5-.84.72-.13,1.34-.25,1.75.6.43.89.51,1.54-.64,1.83-.06.01-.12.03-.16.07-.84.66-2.52.36-2.54,1.94-.03,2.3,1.11,3.69,3.11,4.37,4.49,1.53,4.16.45,3.78,5.5-.13,1.73-.71,2.65-2.32,3.1Z"/><path class="cls-1" d="m158.47,129.77c-.9.61-2.06.73-2.97,1.64.58.32,1.16.29,1.76.22.05-.2.14-.4.23-.59.11-.21.26-.39.41-.57.24-.29.54-.54.86-.73.1-.06.2-.1.3-.14,0-.09.01-.18.02-.28-.17.17-.4.32-.61.46Z"/><path class="cls-1" d="m121.95,123.25c.15.11.3.22.45.33-.15-.11-.3-.22-.45-.33Z"/><path class="cls-1" d="m112.28,101.37c.99.58,2.06.38,2.9,1.42-1.96.42-3.65,1.36-5.62.75-1.69-.53-3.15-.44-4.24,1.26-.59.91-1.76,1.05-2.68,1.54-.28.15-.71.08-.64-.27.32-1.55-.68-.9-1.28-.77-2.27.49-4.52,1.04-6.78,1.52-1.52.32-2.36,1.96-4.13,1.93-1.08-.02-2.14.25-3.24-.1-1.5-.47-2.87-.28-3.79,1.2-.06.1-.13.2-.22.27-.9.73-2.02,1.74-2.99,1.25-.65-.32.46-1.57.68-2.43.75-2.96,2.66-4.22,5.7-4.83,8.56-1.72,17.05-3.83,25.57-5.79.51-.12,1.01-.26,1.53-.32.89-.1,1.96.06,2.27.8.27.64-.82.95-1.34,1.37-.49.4-1.03.73-1.7,1.19Z"/><path class="cls-2" d="m40.46,144.27c.01,1.51-1.52,2.98-3.09,2.95-1.41-.03-2.71-1.36-2.77-2.83-.07-1.57,1.36-3.06,2.93-3.06,1.44,0,2.91,1.49,2.93,2.94Z"/><path class="cls-2" d="m37.39,134.37c.62.1,1.14.18,1.65.25.94.13,1.36.58.97,1.55-.47,1.18-.86,2.4-1.39,3.56-.52,1.13-2,1.23-2.6.15-.68-1.2-1.21-2.5-1.78-3.77-.31-.7.01-1.13.69-1.28.84-.19,1.7-.32,2.46-.46Z"/><path class="cls-2" d="m37.49,154.14c-2.8-.13-3.02-.47-2.13-2.81.33-.87.66-1.73,1.01-2.59.25-.62.78-.81,1.4-.85.7-.04,1.04.4,1.3.96.49,1.05.92,2.13,1.5,3.13.7,1.22.17,1.67-.98,1.85-.8.13-1.6.23-2.09.3Z"/><path class="cls-2" d="m33.72,146.49c1.07-.05,1.9.98,1.6,1.98-.28.93-.69,1.83-1.05,2.74-.81,2.04-.99,2.09-2.7.79-3.23-2.45-3.14-3.32.47-4.86.58-.25,1.18-.46,1.68-.66Z"/><path class="cls-2" d="m45.87,139.65c-.02.07-.05.24-.14.39-.27.46-4.43,2.18-4.92,1.95-.73-.34-1.52-.76-1.15-1.82.47-1.31.97-2.6,1.47-3.89.13-.33.34-.6.75-.61.93-.04,3.95,2.91,3.97,3.99Z"/><path class="cls-2" d="m33.68,142.26c-1.46-.56-2.92-1.1-4.35-1.7-.66-.28-.49-.82-.21-1.32.69-1.23,1.74-2.14,2.82-3.01.53-.42.98-.28,1.26.31.63,1.3,1.32,2.58,1.82,3.93.41,1.1-.38,1.53-1.34,1.79Z"/><path class="cls-2" d="m41.44,146.29c1.32.54,2.82,1.14,4.3,1.78.37.16.37.56.21.91-.15.31-.29.64-.52.89-.92,1.04-1.51,2.55-3.23,2.5-.41-.01-2.42-4.19-2.33-4.73.13-.74.54-1.25,1.57-1.35Z"/><path class="cls-2" d="m29.33,141.77c1.1.44,2.64.86,3.96,1.65.83.5.79,1.6-.2,2.12-1.23.64-2.55,1.08-3.84,1.6-.4.16-.77.16-1.07-.25-.47-.65-.54-4.07-.1-4.76.21-.33.48-.48,1.25-.35Z"/><path class="cls-2" d="m47.22,144.6c-.03.2-.08.77-.18,1.34-.14.76-.57,1.11-1.37.81-1.24-.47-2.52-.86-3.71-1.43-1.06-.51-1.05-1.7-.02-2.29.65-.37,1.37-.61,2.06-.9,2.87-1.21,3.2-1,3.22,2.48Z"/><path class="cls-2" d="m180.51,144.19c.02,1.68-1.29,3.05-2.9,3.04-1.45-.02-2.86-1.47-2.84-2.94.02-1.63,1.3-3.06,2.72-3.04,1.69.02,3,1.3,3.03,2.94Z"/><path class="cls-2" d="m177.63,134.43c2.75.04,3.05.48,2.15,2.84-.31.81-.58,1.64-.97,2.41-.63,1.24-1.99,1.29-2.69.07-.57-1-.93-2.11-1.49-3.12-.66-1.19-.17-1.7.98-1.9.74-.13,1.48-.22,2.02-.3Z"/><path class="cls-2" d="m177.92,154.06c-.56-.03-.91-.04-1.26-.07-1.76-.16-1.95-.43-1.36-2.04.36-.98.74-1.94,1.1-2.92.25-.68.71-1.01,1.43-1.05.75-.05,1.18.31,1.47.96.43.95.89,1.88,1.32,2.83.69,1.51.48,1.89-1.19,2.16-.57.09-1.15.11-1.51.14Z"/><path class="cls-2" d="m175.67,147.91c-.55,1.53-1,3.14-1.85,4.59-.2.35-.55.39-.9.24-.21-.09-.44-.17-.61-.32-1.24-1.01-2.65-1.9-2.98-3.63-.07-.38,4.1-2.41,4.85-2.36.85.06,1.34.56,1.49,1.46Z"/><path class="cls-2" d="m186.07,139.63c0,.06,0,.12-.01.17-.25.95-4.92,2.46-5.68,1.83-.31-.26-.7-.54-.61-.98.34-1.64,1.06-3.15,1.71-4.68.07-.16.36-.29.56-.31.94-.08,4.1,3.04,4.04,3.97Z"/><path class="cls-2" d="m186.26,148.72c.02,1.02-2.46,3.72-3.51,3.78-.2.01-.52-.08-.59-.22-.74-1.42-1.56-2.82-2.09-4.31-.29-.83.4-1.79,1.28-1.6,1.55.34,3.03,1.05,4.53,1.64.28.11.42.38.37.71Z"/><path class="cls-2" d="m175.56,141.01c-.49.71-.92,1.44-1.92,1.15-.83-.24-1.64-.58-2.45-.9-2.6-1.01-2.67-1.37-.75-3.49.08-.09.16-.17.24-.25,1.95-2.03,2.19-2,3.4.49.48.99.97,1.97,1.47,3Z"/><path class="cls-2" d="m169.11,141.64c1.41.54,3.08.82,4.36,1.8.76.58.75,1.59-.29,2.11-1.29.64-2.63,1.18-3.94,1.78-.5.23-.78.07-.92-.41-.44-1.52-.61-3.05-.15-4.61.13-.44.34-.73.94-.68Z"/><path class="cls-2" d="m187.41,144.74c-.01.16-.02.62-.08,1.08-.12.9-.48,1.4-1.51.96-1.06-.45-2.16-.82-3.24-1.23-.61-.23-1.15-.52-1.17-1.32-.03-.79.44-1.13,1.07-1.39.53-.22,1.05-.47,1.59-.7,3.02-1.28,3.36-1.04,3.35,2.61Z"/></g><g><path class="cls-2" d="m356.02,131.35c-1.56-4.78-4.35-8.71-8.19-11.89-3.68-3.04-7.91-5.01-12.65-5.62-3.42-.44-6.89-.45-10.28.37l3.65,8.97c5.02-.79,9.54.48,13.37,3.74,3.91,3.33,6.18,7.59,5.93,12.85.17,3.74-.74,5.9-1.92,8.02-2.05,3.7-5.06,6.36-9.11,7.8-3.54,1.27-7.11,1.3-10.65.26-2.85-.84-5.3-2.44-7.35-4.65-2.9-3.11-4.46-6.79-4.54-11-.1-5.03,1.73-9.32,5.48-12.74.11-.1.21-.19.3-.27l-3.71-9.1c-5.56,3.78-9.07,9-10.76,15.5-.78,2.98-.7,6.02-.53,9.05.17,3.08,1.12,5.97,2.45,8.71,1.46,3.03,3.47,5.68,5.99,7.96,2.37,2.13,5,3.8,7.94,4.97,2.45.98,5.01,1.5,7.65,1.73,2.38.21,4.7,0,7.02-.37,3.28-.54,6.25-1.86,9.07-3.6,3.19-1.97,5.79-4.55,7.83-7.67,2.51-3.84,4-8.01,4.31-12.63.24-3.56-.2-6.99-1.3-10.37Z"/><g><path class="cls-1" d="m352.89,109.47c-2.14-2.3-4.92-3.61-7.67-4.98-3.56-1.76-7.22-3.26-11.19-3.78-2.62-.34-5.25-.23-7.87-.08-2.16.12-3.47-.62-4.14-2.68-1.29-3.98-3.13-7.7-5.21-11.32-.88-1.54-1.94-2.86-3.74-3.44-1.05-.34-1.84-1.17-2.67-1.86-.59-.48-.63-1.2.02-1.78.18-.16.39-.28.57-.43,1.49-1.18,1.54-1.59.35-3.06-.37-.45-.46-.98-.52-1.52-.18-1.42-.34-2.84-.5-4.26-.09-.74-.31-1.34-1.25-1.27-.84.07-1.53.2-1.64,1.27-.13,1.2-.17,2.38-.03,3.57.12,1.03.32,2.05-.78,2.85-.69.5-.53,1.94.09,2.6.98,1.04.91,1.4-.4,1.97-.53.23-1.09.4-1.63.6-.57.22-1.05.19-1.39-.42-.29-.52-.79-.66-1.32-.54-.77.18-1.29-.15-1.81-.67-1.47-1.48-3.81-1.17-4.85.66-.29.51-.66.75-1.2.79-2.44.19-4.89.36-7.33.58-.95.08-1.89.23-2.83.38-.88.14-1.23.69-1.3,1.57-.17,2.33-.06,2.49,2.24,2.47,2.97-.02,5.93.34,8.9.19.94-.05,1.45.69,2.13,1.1,1.71,1.05,2.51.97,3.73-.6.46-.59.86-1.23,1.27-1.86.85-1.29,2.94-1.2,3.63.21.52,1.07.92,2.2,1.37,3.31,1.69,4.17,3.38,8.34,5.14,12.68-1.48-.21-2.58-.86-3.73-1.34-1.82-.77-3.68-1.48-5.2-2.8-.76-.66-.7-.99.15-1.55.53-.36,1.17-.36,1.74-.57.65-.24,1.4-.51,1.34-1.33-.05-.72-.74-1.02-1.4-1.15-4.8-1-9.29-.32-13.38,2.48-3.6,2.46-7.22,4.91-10.8,7.4-1.71,1.19-3.36,2.46-5.03,3.7-.83.62-1.86.85-2.75,1.36-.22.13-.46.05-.7,0-4.63-1.15-9.27-2.3-13.9-3.46-5.46-1.37-10.93-2.73-16.44-3.86-.53-.11-.87-.31-1.09-.79-.29-.62-.66-1.2-.9-1.84-.43-1.12-1.2-1.61-2.4-1.73-3.43-.33-6.84-.79-10.27-1.12-1.49-.14-3-.09-4.5-.1-.37,0-.8.02-.93.47-.14.47.17.8.49,1.04.6.45,1.26.83,1.99,1.02,3.07.81,6.15,1.59,9.21,2.41,1.32.35,2.59.85,3.64,1.78.48.42.49.78-.09,1.11-.66.38-1.21.88-1.74,1.42-.32.33-.46.66-.21,1.09,1.81,3.09,3.72,6.11,5.71,9.09.49.74,1.03,1.44,1.49,2.2,1.31,2.16,3.23,3.29,5.71,3.71,2.7.46,5.36.25,8.02-.13,1.88-.27,3.79-.42,5.59-1.09.6-.22.77.29.96.68,1.1,2.27,2.25,4.53,3.77,6.56.55.73.86,1.53,1.11,2.39.16.56.03.92-.51,1.14-1.93.78-3.86,1.56-5.79,2.35-.12.05-.21.06-.3.06l-10.12,4.12s-.09.05-.14.07c-.38.15-.76.3-1.14.46l-.79.32h0c-1.22.48-2.45.96-3.66,1.47-.56.23-1,.23-1.52-.13-1.01-.7-2.19-.98-3.4-.97-3.04,0-6.25,2.56-5.84,6.79.24,2.47,2.1,4.67,4.54,5.2,2.53.55,5.38-.63,6.52-2.78.41-.78.99-1.26,1.79-1.57,2.04-.79,4.06-1.6,6.09-2.4.32-.13.56-.21.75-.26l10.04-4.09s.03-.02.05-.03c1.24-.49,2.46-1.01,3.69-1.52.6-.25.86-.05.97.59.2,1.14.42,2.29.73,3.4.49,1.75,1.38,2.15,3.07,1.6,2.05-.67,3.93-1.74,5.92-2.56,1.14-.47,2.27-.86,3.56-.41.52.18,1.15.1,1.73.05,1.73-.15,3.47-.28,5.18-.54,2.63-.4,4.48-2.48,4.59-5.13.03-.83.37-1.24,1.09-1.51,1.21-.45,2.5-.75,3.28-1.94.23-.35.47-.1.68.07.61.5,1.25.96,1.82,1.49.69.65,1.35.68,2.11.14,1.4-1,2.09-2.51,2.84-3.95,1.77-3.42,3.44-6.9,5.48-10.17,1.34-2.14,2.72-4.25,4.62-5.96.47-.43.71-.53.98.18.38,1,.79,1.99,1.22,2.97h0s.13.32.13.32c.11.26.22.52.34.77.04.08.05.15.07.23l4.44,10.89c.04.1.08.19.13.31,1.07,2.62,2.12,5.25,3.21,7.86.26.63.21,1.18-.08,1.76-1.29,2.54-.06,5.23,1.38,6.68,1.7,1.72,4.49,2.11,6.76,1.06,2.11-.98,3.74-3.47,3.52-5.68-.23-2.4-1.53-4.68-4.31-5.54-.47-.15-.77-.37-.95-.82-1.2-2.97-2.4-5.95-3.64-8.9-.03-.07-.05-.13-.07-.19l-4.25-10.42c-.02-.05-.05-.09-.07-.15-.49-1.31-1.07-2.59-1.61-3.88-.46-1.11-.43-1.23.75-1.55,1.62-.44,3.28-.64,4.95-.71,3.7-.17,7.42-.27,10.82,1.48,2.27,1.17,4.53,2.36,6.94,3.23,1.99.72,4,1.41,6.16,1.37,1.02-.02,1.92-.29,2.33-1.33.4-1.04.04-1.91-.7-2.69Zm-64.43,13.67c0,.45-.41.36-.69.4-1.22.16-2.44.26-3.67.2-1.26-.11-2.51.08-3.77.17-.35.02-.87.1-.92-.39-.04-.42.47-.48.77-.49,2.55-.11,5.1-.18,7.65-.26.26,0,.62.03.63.38Zm-.96-2.1c-.13.04-.27.04-.41.04-2.08.05-4.16-.11-6.23.21-.2,0-.41.02-.61,0-.38-.05-.98.11-.98-.44,0-.45.59-.32.94-.38,2.4-.38,4.83,0,7.24-.34.36-.05.97-.08.98.45,0,.42-.59.33-.93.45Zm.91-2.95c0,.51-.57.48-.97.49-1.23.01-2.46,0-3.68,0,0,.02,0,.03,0,.05-1.13,0-2.25.02-3.38,0-.4-.01-1.1.19-1.11-.34,0-.47.71-.33,1.12-.37,2.34-.24,4.7.07,7.04-.25.38-.05.97-.11.98.44Zm-8.54-2.7c1.81.08,3.59-.37,5.16-.22,1.02,0,1.8,0,2.59,0,.27,0,.61,0,.61.38,0,.37-.34.39-.61.38-2.59-.06-5.16.34-7.75.2-.28-.02-.71.1-.71-.35,0-.4.42-.41.71-.4Zm7.47,20.98c-2.38,1.35-5,1.22-6.98-.48-.61-.52-1.2-.66-1.94-.68-2.22-.05-4.42.35-6.64.21-1.42-.09-1.99-.54-2.16-1.94-.09-.71-.01-1.43-.01-2.15-.02,0-.03,0-.05,0,0-.48,0-.96,0-1.43.01-1.72.6-2.4,2.31-2.42,2.05-.03,4.09-.12,6.13-.21.83-.04,1.46-.24,2.12-.78,1.79-1.43,3.76-2.12,6.09-1.21,2.4.93,3.74,2.69,4.18,5.13.38,2.15-1.07,4.84-3.05,5.96Z"/><path class="cls-2" d="m262.63,140.13l-8.92,3.64s0,.04,0,.07c.01.17.02.34,0,.51-.37,5.53-2.85,9.72-7.86,12.28-4.5,2.29-9.02,2.02-13.15-.64-4.74-3.05-7.1-7.5-6.39-13.31.83-6.76,6.71-11.98,13.67-11.96,1.04-.1,2.18.18,3.3.45,2.59.62,4.78,2.01,6.65,3.86l9.06-3.69c-1.49-2.24-3.29-4.19-5.52-5.71-6.5-4.43-13.51-5.58-21.04-3.12-5.62,1.84-9.82,5.43-12.72,10.51-4.61,8.07-3.81,19.02,2.44,26.25,5.14,5.95,11.64,8.76,19.4,8.26,6.57-.42,12.03-3.33,16.23-8.46,3.95-4.83,5.56-10.4,5.21-16.58-.04-.79-.2-1.58-.37-2.36Z"/></g></g></svg>