<?xml version="1.0" encoding="utf-8"?>
<!-- Generator: Adobe Illustrator 22.1.0, SVG Export Plug-In . SVG Version: 6.00 Build 0)  -->
<svg version="1.1" id="Layer_1" xmlns="http://www.w3.org/2000/svg" xmlns:xlink="http://www.w3.org/1999/xlink" x="0px" y="0px"
	 viewBox="0 0 382.4 218.9" style="enable-background:new 0 0 382.4 218.9;" xml:space="preserve">
<style type="text/css">
	.st0{fill:#191919;}
	.st1{fill:url(#SVGID_1_);}
	.st2{fill:#BCBCBC;}
	.st3{fill:#545454;}
	.st4{fill:#FFFFFF;}
	.st5{fill:#B70000;}
</style>
<title>icon</title>
<g id="Layer_1_1_">
	<rect class="st0" width="382.4" height="218.9"/>
	
		<radialGradient id="SVGID_1_" cx="191.2" cy="-924.9473" r="186.8951" gradientTransform="matrix(1 0 0 -0.58 0 -426.8)" gradientUnits="userSpaceOnUse">
		<stop  offset="0" style="stop-color:#FFFFFF"/>
		<stop  offset="1" style="stop-color:#CFCFCF"/>
	</radialGradient>
	<rect class="st1" width="382.4" height="218.9"/>
	<path class="st2" d="M97.2,79.1c-3.9,0-7.1,3.2-7.1,7.1c0,3.9,3.2,7.1,7.1,7.1c3.9,0,7.1-3.2,7.1-7.1l0,0
		C104.3,82.3,101.1,79.1,97.2,79.1z M97.2,91.4c-2.9,0-5.2-2.3-5.2-5.2s2.3-5.2,5.2-5.2s5.2,2.3,5.2,5.2c0,0,0,0,0,0
		C102.4,89.1,100.1,91.4,97.2,91.4z"/>
	<path class="st2" d="M114.2,30.9c-5.4-0.1-9.7,4.2-9.8,9.6s4.2,9.7,9.6,9.8c5.4,0.1,9.7-4.2,9.8-9.6c0-0.1,0-0.1,0-0.2
		C123.8,35.2,119.5,30.9,114.2,30.9z M114.2,47.6c-3.9,0-7.1-3.2-7.1-7.1c0-3.9,3.1-7,7-7c0,0,0.1,0,0.1,0c3.9,0,7,3.1,7,7
		c0.1,3.9-3,7-6.9,7.1C114.3,47.6,114.2,47.6,114.2,47.6z"/>
	<path class="st3" d="M314.7,134.2c-5.4-0.1-9.7,4.2-9.8,9.6c-0.1,5.4,4.2,9.7,9.6,9.8c5.4,0.1,9.7-4.2,9.8-9.6c0-0.1,0-0.1,0-0.2
		C324.2,138.5,320,134.3,314.7,134.2z M314.7,150.9c-3.9,0-7.1-3.2-7.1-7.1v0c0-3.9,3.2-7.1,7.1-7.1s7.1,3.2,7.1,7.1
		S318.6,150.9,314.7,150.9L314.7,150.9z"/>
	<path class="st4" d="M266.4,50.2c-3.9-0.1-7,3-7.1,6.9c0,0,0,0.1,0,0.1c0,3.9,3.2,7.1,7.1,7.1l0,0c3.9,0,7-3.1,7-7c0,0,0-0.1,0-0.1
		C273.4,53.3,270.3,50.2,266.4,50.2L266.4,50.2z M266.4,62.4c-2.9,0.1-5.2-2.2-5.3-5.1c-0.1-2.9,2.2-5.2,5.1-5.3
		c2.9-0.1,5.2,2.2,5.3,5.1c0,0,0,0.1,0,0.1C271.5,60,269.2,62.3,266.4,62.4z"/>
	<path class="st3" d="M239.6,44.7c-3.9,0-7.1,3.2-7.1,7.1s3.2,7.1,7.1,7.1s7.1-3.2,7.1-7.1S243.5,44.7,239.6,44.7L239.6,44.7z
		 M239.6,57c-2.9,0-5.2-2.3-5.2-5.2c-0.4-2.8,1.6-5.5,4.4-5.9c2.8-0.4,5.5,1.6,5.9,4.4c0.1,0.5,0.1,1,0,1.4c0.1,2.8-2.2,5.1-5,5.2
		C239.7,57,239.6,57,239.6,57z"/>
</g>
<g id="Layer_2_1_">
	<g>
		<path class="st2" d="M89.3,176.5c-15.2-24.1,10.5-67.9,57.9-101.8v-0.2c-56.1,38.7-88.4,87-73.1,111.4
			c16.5,26.3,81.5,15.2,145.2-24.7C164,195.9,105.7,202.8,89.3,176.5z"/>
		<path class="st2" d="M305.2,41.5c-16-25.6-78.2-15.7-140.4,21.7l0,0c54-32.1,109.4-37.8,125.4-12.3s-15.3,75.6-70.8,110.3
			C283.2,121.4,321.6,67.7,305.2,41.5z"/>
	</g>
	<path class="st4" d="M291.7,119.3l-4.3,1.4l4.3,1.5c2.7,0.9,4.8,3,5.7,5.7l1.5,4.3l1.5-4.3c0.9-2.7,3-4.8,5.7-5.7l4.3-1.5l-4.3-1.4
		c-2.7-1-4.7-3-5.7-5.7l-1.5-4.4l-1.5,4.4C296.4,116.3,294.4,118.3,291.7,119.3z"/>
	<path class="st2" d="M282.1,160.1l-3.2,1.1l3.2,1.1c2,0.7,3.5,2.2,4.2,4.2l1.1,3.2l1.1-3.2c0.7-2,2.2-3.5,4.2-4.2l3.2-1.1l-3.2-1.1
		c-2-0.6-3.6-2.2-4.2-4.2l-1.1-3.1l-1.1,3.1C285.7,157.9,284.1,159.5,282.1,160.1z"/>
	<path class="st3" d="M111.6,69.8l-3.2,1.1l3.2,1.1c2,0.6,3.6,2.2,4.2,4.2l1.1,3.1l1.1-3.1c0.6-2,2.2-3.6,4.2-4.2l3.2-1.1l-3.2-1.1
		c-2-0.7-3.5-2.2-4.2-4.2l-1.1-3.2l-1.1,3.2C115.1,67.6,113.6,69.1,111.6,69.8z"/>
	<path class="st2" d="M251.3,70.1l-2.2,0.8l2.2,0.7c1.5,0.5,2.6,1.6,3,3.1l0.8,2.2l0.8-2.2c0.5-1.4,1.6-2.6,3-3.1l2.3-0.7l-2.3-0.8
		c-1.4-0.5-2.5-1.6-3-3l-0.8-2.3l-0.8,2.3C253.9,68.5,252.7,69.7,251.3,70.1z"/>
	<path class="st2" d="M100.4,146l-3.2,1.1l3.2,1.1c2,0.7,3.5,2.2,4.2,4.2l1.1,3.2l1.1-3.2c0.7-2,2.2-3.5,4.2-4.2l3.2-1.1L111,146
		c-2-0.6-3.6-2.2-4.2-4.2l-1.1-3.2l-1.1,3.2C104,143.8,102.4,145.4,100.4,146z"/>
	<g>
		<path class="st5" d="M246.6,91.9c-0.5-1-1.3-1.8-1.9-2.8s-1.3-1-2.4-0.3c-1.1,0.6-2.3,0.8-3.5,0.6c-12.3,0.4-39,0-44.9-0.1h-1.1
			c-5.8,0.1-31.3,0.5-43.5,0.1c-1.3,0-2.6,0.1-3.6-0.6s-1.7-0.9-2.4,0.3s-1.3,1.8-1.9,2.8s0.4,0.6,0.7,0.6c3.2,0.7,3.6,3.3,4.2,5.8
			c0.3,1.7,1.7,3.1,3.4,3.3c2.2,0.5,4.3,1.2,6.3,2.2c5.3,2.4,9.8,5.7,11.1,11.8c0.7,3.1,0.2,3.8-3,3.7l-10.6-0.7
			c1.2,5.7,3.9,8.2,9.5,9c8.9,1.3,17.9,1.5,29.8,1.6h1.1c13.2-0.1,22.2-0.3,31.1-1.6c5.6-0.8,8.3-3.3,9.5-9l-10.6,0.7
			c-3.1,0.1-3.6-0.6-3-3.7c1.4-6.1,5.9-9.4,11.1-11.8c2-1,4.2-1.7,6.4-2.2c1.7-0.2,3.1-1.6,3.3-3.3c0.6-2.5,1.1-5.1,4.3-5.8
			C246.2,92.5,246.8,92.3,246.6,91.9z"/>
		<path class="st5" d="M266.7,133.7c0-2.9-0.5-5.7-1.5-8.4c-1.1-2.9-1.5-6.1-1.3-9.2c0.6-6.8-2-12.3-6.8-16.9c-0.6-0.4-1-1.1-1-1.8
			h8.4c2,0,2.7-0.9,2.5-2.9c-0.5-5-0.8-5.4-5.8-6.3l-4.3-0.5c-2.2-0.3-4.7-1.1-5.3,2.6l-6.3-11.8c-1.1-2-2.5-4-3.4-6.1
			c-2.1-4.4-5.7-6.7-10.3-7.9c-7.4-1.9-14.9-3-22.5-3.3c-3.7-0.1-7.5-0.3-15.2-0.4h-1.1l-13.9,0.4c-7.6,0.3-15.1,1.4-22.5,3.3
			c-4.5,1.2-8.2,3.5-10.2,7.9c-1,2.1-2.3,4.1-3.4,6.1c-2.2,3.9-4.3,7.8-6.4,11.8c-0.6-3.7-3-2.9-5.2-2.6l-4.4,0.5
			c-5,0.9-5.3,1.3-5.8,6.3c-0.2,2,0.5,2.9,2.5,2.9h8.4c0,0.7-0.4,1.4-1,1.8c-4.8,4.6-7.3,10.1-6.8,16.9c0.2,3.1-0.2,6.3-1.3,9.2
			c-1,2.7-1.5,5.5-1.5,8.4c0.1,3.9,0.6,7.8,0.3,11.9c-0.8,8.1-0.3,16.4-0.2,24.6c0,3.4,1.4,5,4.8,5h13.2c3.1-0.1,4.6-1.6,4.7-4.6
			s0.1-5.6-0.1-8.3s0.5-2.6,2.5-2.6l46.9-0.2l48.2,0.2c2,0,2.5,0.7,2.4,2.6s-0.1,5.5,0,8.3s1.5,4.5,4.6,4.6h13.3
			c3.3,0,4.8-1.6,4.8-5c0-8.2,0.5-16.5-0.2-24.6C266.1,141.5,266.6,137.6,266.7,133.7z M255.1,116c-4.6,0.8-9.2,1.4-13.8,1.8
			c-2.3,0.2-3.6,0.9-4.4,3.1c-2.1,6.9-7.2,9.5-14.1,10.1s-16.7,1-28.9,0.9l0,0c-11.5,0.1-20.1-0.3-28.7-0.9
			c-6.9-0.6-11.9-3.2-14.1-10.1c-0.7-2.2-2-2.9-4.3-3.1c-4.7-0.3-9.3-0.9-13.9-1.8c-2.2-0.5-3-1.8-3-3.9c0.1-2.5,0.6-5,1.5-7.3
			c0.6-1.3,1.7-2.2,3-2.6c2.7-0.9,5.5-1.3,8.4-1.4c1.2-0.1,1.7-0.3,1.4-1.7s-0.6-5-3.7-5.8c-1.1-0.3-1.2-1.1-0.4-1.9
			c2.8-2.3,4.5-5.8,4.6-9.4c0-0.4,0.2-0.7,0.4-1c3.5-10.5,5.5-12.1,16.6-13c9.5-0.7,19-1,31.7-1s23.4,0.3,32.9,1
			c11.1,0.9,13.1,2.5,16.7,13c0.1,0.3,0.2,0.7,0.3,1c0.2,3.6,1.8,7,4.6,9.4c0.9,0.8,0.7,1.6-0.4,1.9c-3.1,0.8-3.2,3.3-3.7,5.8
			s0.2,1.6,1.4,1.7c2.9,0.1,5.7,0.5,8.4,1.4c1.4,0.4,2.5,1.3,3.1,2.6c0.9,2.3,1.3,4.8,1.4,7.3C258.1,114.2,257.3,115.5,255.1,116z"
			/>
	</g>
	<path class="st4" d="M247,143.5l-4.3,1.4l4.3,1.5c2.7,0.9,4.8,3,5.7,5.7l1.5,4.3l1.5-4.3c0.9-2.7,3-4.8,5.6-5.7l4.4-1.5l-4.4-1.4
		c-2.6-1-4.7-3.1-5.6-5.7l-1.5-4.4l-1.5,4.4C251.7,140.5,249.7,142.5,247,143.5z"/>
	<path class="st4" d="M149.9,32.7l-4.4,1.5l4.4,1.5c2.7,1,4.7,3,5.7,5.7l1.4,4.3l1.5-4.3c0.9-2.7,3-4.8,5.7-5.7l4.3-1.5l-4.3-1.5
		c-2.7-0.9-4.8-3-5.7-5.6l-1.5-4.4l-1.4,4.4C154.6,29.7,152.5,31.8,149.9,32.7z"/>
	<path class="st4" d="M132.3,128.6l-3.1,1.1l3.1,1c1.9,0.7,3.4,2.2,4,4.1l1.1,3l1-3c0.7-1.9,2.2-3.4,4.1-4.1l3-1l-3-1.1
		c-1.9-0.6-3.4-2.1-4.1-4l-1-3.1l-1.1,3.1C135.7,126.5,134.2,128,132.3,128.6z"/>
</g>
</svg>
