<?xml version="1.0" encoding="utf-8"?>
<!-- Generator: Adobe Illustrator 22.1.0, SVG Export Plug-In . SVG Version: 6.00 Build 0)  -->
<svg version="1.1" id="Layer_1" xmlns="http://www.w3.org/2000/svg" xmlns:xlink="http://www.w3.org/1999/xlink" x="0px" y="0px"
	 viewBox="0 0 382.4 218.9" style="enable-background:new 0 0 382.4 218.9;" xml:space="preserve">
<style type="text/css">
	.st0{fill:url(#SVGID_1_);}
	.st1{fill:#BB1920;}
	.st2{fill:#545454;}
	.st3{fill:#9B9B9B;}
	.st4{fill:#6E6F72;}
	.st5{fill:none;}
</style>
<title>icon</title>
<g id="Layer_1_1_">
	
		<radialGradient id="SVGID_1_" cx="191.2" cy="-924.9473" r="186.8951" gradientTransform="matrix(1 0 0 -0.58 0 -426.8)" gradientUnits="userSpaceOnUse">
		<stop  offset="0" style="stop-color:#FFFFFF"/>
		<stop  offset="1" style="stop-color:#CFCFCF"/>
	</radialGradient>
	<rect class="st0" width="382.4" height="218.9"/>
</g>
<g id="Layer_2_1_">
	<g>
		<path class="st1" d="M210.9,123.2c0.1-3.5-1.1-6.6-0.3-9.9c0.4-2.8,0.2-5.6-0.8-8.3c-0.9-3-1.4-6.1-1.3-9.2
			c0.3-4.3-1.3-8-4.2-11.7l3.3-0.2c2.6-0.2,3.5-1.1,3.4-3.7c-0.1-1.1-0.2-2.2-0.5-3.3c-0.2-1.9-1.8-3.5-3.7-3.7
			c-2.8-0.7-5.6-1-8.4-1.1c-1.2,0.1-2.4-0.7-2.8-1.8c-1.7-3.2-3.6-6.4-5.3-9.7c-1.6-3-4.2-5.2-7.4-6.3c-5.2-1.8-10.6-2.4-16-2.9
			c-3.6-0.4-7.2-0.5-10.8-0.8c2.3-7.2,12.7-11,18.8-6.8l71.1,48c2.2,1.3,2.8,4.2,1.5,6.3c-0.4,0.6-0.9,1.1-1.5,1.5l-33.8,23
			L210.9,123.2z"/>
		<path class="st2" d="M273.8,75.4c-0.3-0.4-0.5-0.9-0.7-1.4l-4.2-7.9c-2.2-3.9-2.3-8.6-0.3-12.6l8.2-17.8c0.7-1.7,1.5-2,3.2-1.2
			l23.8,10.9c2.5,1.2,2.6,1.4,1.4,3.9c-2.6,5.8-5.3,11.5-7.9,17.3c-1.8,4.2-5.6,7.3-10.1,8.1c-2.1,0.5-4.2,1.1-6.3,1.4
			s-4.4,1.5-5.1,4.1s-0.9,2-2.5,1.1s-2-1.2-1-2.7C272.9,77.6,273.4,76.5,273.8,75.4z"/>
		<path class="st3" d="M256.7,127.9c-6.2-4.1-14.8-3.6-21,1.4c-8.3,6.6-10.3,15.5-8.6,25.5c0.5,3.3,1.5,6.5,2.9,9.5
			c0.8,1.7,2.3,1.2,3.2,0.9s0-1.4-0.2-2c-2.4-5.1-3.6-10.7-3.3-16.4c0.5-8.1,5.9-15.3,13.2-17.7c9.5-3.2,18.3,3.5,17.8,13.6
			c-0.5,11.9-11.6,23.2-23.5,24.1c-6.6,0.5-13.3,0.1-19.9,0.1H89c0,1.1,0.1,2.1,0.3,3.2c14.5,0,132.3,0.1,146.9-0.2
			s26.6-12.4,27.6-26.7C264.3,136.9,262.2,131.5,256.7,127.9z"/>
		<path class="st2" d="M307.4,101.4c-0.7,0.7-1.5,0.5-2.2,0.7c-3.3,1-4.6,3.1-3.7,6.4c1.3,5.2,3.3,10.3,4.4,15.6
			c0.9,4,1.4,8.1,1.6,12.2c0,1.2-0.4,1.7-1.7,1.7H296c-1.4,0-1.4-0.5-1-1.6c0.8-2,0.8-4.2,0.1-6.2c-0.5-1.7-0.9-3.5-1.1-5.3
			c-0.7-4.1-1.5-4.8-5.7-5c-0.8-0.1-2.2,0.6-2.3-0.5s1.4-0.9,2.2-1.1c6.3-1.4,6.6-1.8,5.5-8.1c-0.5-2.8-1.2-5.4-1.7-8.2
			s-1.3-2.6-3.3-2.6c-3.9,0.1-3.9-0.1-3.2-3.8l1.2-7c0.2-1.2,0.6-1.8,1.9-1.6h2.1c1-0.3,2,0.3,2.2,1.2c0,0.2,0.1,0.3,0.1,0.5
			c0.6,3.8,2.8,5.2,6.5,4.5c1.3-0.3,1.7,0.3,1.7,1.6s0,3.1-0.1,4.6s0.5,1.5,1.6,1.6S305.8,100.5,307.4,101.4z"/>
		<path d="M170.3,134.3c5.3,0,10.7-0.1,16.1,0c0.7,0,2.1-0.6,2.2,0.8s0.7,2.9-0.7,3.9c-4.8,3.2-9.5,6.6-14.4,9.6s-9.5,1-13.5-2.6
			c-3.1-3-5.6-6.5-7.4-10.3c-0.7-1.5-0.2-1.7,1.2-1.7h16.5L170.3,134.3z"/>
		<path class="st3" d="M234.9,171.9c1.9-0.7,4.1-0.1,5.5,1.4c16,15.2,40.8,11.5,51.8-7.5c3.2-5.7,4.7-12.2,4.4-18.7
			c-0.1-1-0.4-2.1,1.4-2.1s1.6,0.4,1.7,1.7c0.8,17.6-9.4,32.4-26,37.7c-13.3,4.2-29.2-0.5-38-11.3
			C235.4,172.7,235.1,172.3,234.9,171.9z"/>
		<path class="st2" d="M269.3,99.6h-5.6c-1,0-1.4-0.4-1.4-1.4v-9.8c0-1,0.3-1.6,1.3-1.4c2.9,0.6,4.4-0.8,5.2-3.4s1.8-2.5,3.6-1.2
			l1.1,0.5c1.3,0.4,2,1.1,1.2,2.5s-0.2,1.6,1.1,1.6c3.9,0.2,3.8,0.2,2.8,4s-1.3,4.6-1.9,7c0,0.9-0.8,1.6-1.7,1.5c0,0-0.1,0-0.1,0
			L269.3,99.6L269.3,99.6z"/>
		<path class="st2" d="M310.2,41.5c0.1,2.3-1.7,3.6-3.7,2.7l-27.1-12.4c-1.6-0.8-1.8-1.7-1.1-3.2s1.6-1.8,3.2-1.1
			c8.9,4.2,17.8,8.2,26.7,12.3C309,40.2,310.1,40.4,310.2,41.5z"/>
		<path class="st2" d="M275.7,117.7c3.3-1.2,3.1-4,3.5-6.6c0.5-3.4,0.3-6.8-0.4-10.1c-0.2-0.9-0.2-1.8,0-2.7l3.3-11.8
			c0.3-1.1,0.9-1.8,2.1-1.6s1.2,1.1,1,2c-1.8,8.5-2.2,17.3-3.7,25.9c-0.2,1.2-0.6,2.3-1,3.4C279.7,118.3,278.2,118.8,275.7,117.7z"
			/>
		<path class="st2" d="M256.3,95.6v-3.3c0-3.2,0-3.1,3-3c1.1,0,1.6,0.3,1.6,1.5c-0.1,2.8-0.1,5.6-0.1,8.3c0,1-0.1,2.1,1.4,2
			s0.8,0.2,0.7,0.6s-0.4,0.5-0.8,0.5h-4.8c-0.8,0-1-0.4-1-1.2S256.3,97.4,256.3,95.6L256.3,95.6z"/>
		<path class="st2" d="M254.3,100.8c-0.1-2.6-1.3-3.2-3.5-2.4c-0.4,0.2-1.1,0.5-1.3-0.4s0.2-1,0.8-1.1h0.4c0.8-0.4,2.2-0.1,2.1-1.2
			s-1.4-0.4-2.2-0.4s-1.2-0.3-1.2-1.2s0.4-1.1,1.2-1.1h0.4c4.8,0.1,3.8-0.4,3.9,3.8v3.9L254.3,100.8z"/>
		<path class="st2" d="M307.1,142.8c-1.9,0-3.1-1-3-2.7s1.3-0.6,2-0.7s2.3,1.5,2.5,2.7S307.5,142.4,307.1,142.8z"/>
		<path class="st2" d="M305,97.8c-0.8-0.4-2.6,0.8-2.5-1.5s0.4-1.2,1.2-1.2h2.3c1,0,1.8,0,1.8,1.4s-0.9,1.2-1.8,1.3L305,97.8z"/>
		<path class="st2" d="M298.1,142.8c-1.5,0.3-1.9-0.3-2-1.8s0.7-1.7,2-1.7s2,0.2,2,1.8S299.4,143.1,298.1,142.8z"/>
		<path class="st2" d="M297,89.9h-1.3c-0.5,0.1-0.9-0.3-1-0.8c0,0,0,0,0,0c0.1-0.8,0.8-0.5,1.2-0.6h1c0.7,0.2,1.8-0.5,2.1,0.7
			S298.8,89.9,297,89.9z"/>
		<path class="st4" d="M164.5,106.3c-0.9-3-0.7-6.2-0.5-9.3c0.4-5.6-0.6-12,2.9-16.9c1.2-1.6,2.6-3.1,4.1-4.4
			c-7.9,0-15.8-0.3-23.6-0.2c-11.9,0.2-23.7,0.5-35.5,0.2c-1,0-2-0.1-2.9-0.5c-0.8-0.6-1.3-0.7-1.9,0.2s-1.1,1.5-1.5,2.3
			s0.3,0.4,0.5,0.5c2.6,0.5,2.9,2.6,3.4,4.6c0.2,1.4,1.3,2.5,2.7,2.7c1.8,0.4,3.5,1,5.2,1.7c4.2,2,7.8,4.6,8.9,9.5
			c0.5,2.6,0.1,3.1-2.5,3l-8.5-0.5c1,4.6,3.2,6.6,7.7,7.3c7.5,1,15.1,1.4,22.7,1.2c6.4,0.1,12.8,0.1,19.2-0.2
			C164.7,107.1,164.6,106.7,164.5,106.3z"/>
		<path class="st5" d="M110.8,101.6h-1.3l-7.9-0.7c-0.5,0-1.4-0.4-1.6,0.2s0.6,1.2,1.2,1.5c2.5,1.3,5.4,1.3,8.1,1.6h1.3
			c0.5-0.1,1.5,0.3,1.5-0.5C112.3,102.8,111.8,101.9,110.8,101.6C110.9,101.6,110.8,101.6,110.8,101.6z"/>
		<path class="st4" d="M206.9,75.2c-1.9-0.5-3.8-0.8-5.8-0.9c-1.8-0.3-3.7-0.9-3.9,2c-0.4-0.2-0.7-0.5-0.9-0.9h-0.1l0.6,0.9
			c0.8,2.1,1.8,4,3.2,5.8h6.2c1.1-0.1,2.7,0.5,2.9-1.4S208.4,75.7,206.9,75.2z"/>
		<path class="st4" d="M208.4,115.5c0.1-0.2,0.1-0.4,0.2-0.6c-0.1-0.2-0.1-0.4-0.1-0.6l-0.3,1.6c-0.3,0.7-0.4,1.5-0.2,2.2
			c-0.5,2.5-0.7,5.1-0.7,7.7c-0.1,4.5-2.4,6.5-6.8,6.6s-7-0.2-10.4,0.2h-0.4c0.7,0.2,0.9,0.8,0.9,2s-0.1,4.3-0.1,6.5
			s1.3,3.6,3.6,3.7h11.1c2.5-0.1,3.7-1.3,3.7-3.8v-20.3C208.9,119,207.9,117.4,208.4,115.5z"/>
		<path class="st4" d="M147.7,123.3c-1.2-4.4-2-8.9-2.2-13.4c-6.7,0.1-13.7-0.2-20.8-0.8c-5.5-0.4-9.6-2.5-11.3-8.1
			c-0.6-1.8-1.7-2.3-3.5-2.5c-3.8-0.3-7.5-0.7-11.2-1.4c-1.5-0.2-2.6-1.6-2.4-3.1c0.1-2.1,0.5-4.1,1.2-6c0.5-1,1.3-1.7,2.4-2
			c2.2-0.7,4.5-1.1,6.8-1.2c1,0,1.3-0.3,1.1-1.3s-0.5-4.1-3-4.7c-0.9-0.2-1-0.9-0.2-1.6c2.2-1.9,3.5-4.6,3.6-7.5l0.3-0.8
			c2.9-8.5,4.5-9.8,13.4-10.5s19.9-1,29.8-0.9c-0.6-1.1,0.5-1.7,0.8-2.6c0.3-0.8,0.7-1.6,1.1-2.4h1.4c-6.4-0.1-12.8,0.1-19.2,0.4
			c-6.1,0.2-12.2,1.1-18.1,2.7c-3.7,1-6.6,2.8-8.3,6.3c-0.8,1.7-1.9,3.3-2.8,5l-5.1,9.4c-0.4-3-2.4-2.3-4.2-2.1l-3.5,0.5
			c-4,0.7-4.3,1-4.7,5c-0.1,1.6,0.4,2.4,2,2.4h6.8c0,0.9-0.5,1.1-0.8,1.4c-3.9,3.8-5.9,8.2-5.5,13.7c0.2,2.5-0.1,5-1,7.4
			c-0.8,2.1-1.2,4.4-1.2,6.7c0,3.2,0.5,6.3,0.2,9.6c-0.6,6.6-0.2,13.2-0.2,19.9c0,2.7,1.2,3.9,3.9,4h10.6c2.5-0.1,3.8-1.3,3.8-3.7
			s0.1-4.5,0-6.7s0.3-2.1,1.9-2.1l43.7-0.2h-3C149.7,129,148.4,126.2,147.7,123.3z M112.1,103.6c0,0.8-1,0.4-1.5,0.5h-1.3
			c-2.7-0.3-5.6-0.3-8.1-1.6c-0.6-0.3-1.5-0.7-1.2-1.5s1.1-0.2,1.6-0.2l7.9,0.7h1.3C111.7,101.7,112.3,102.6,112.1,103.6
			C112.1,103.5,112.1,103.6,112.1,103.6z"/>
		<path class="st1" d="M156,132.1l13.2,0.3l20.5,0.2c-0.4-0.2-0.9-0.3-1.3-0.2L156,132.1z"/>
		<path class="st1" d="M274.9,76.4c0.1-2.9-1.9-4.9-2.9-7.2s-2.9-5.2-3.3-8.3c-0.2-2.6,0.2-5.2,1.3-7.6c0.5-1.1,1.6-0.8,2.4-0.8
			h25.2c4.2,0,4.2,0,2.4,3.8s-2.9,6.1-4.2,9.2c-1.7,3.9-5.1,6.7-9.2,7.6c-3.1,0.7-6.2,1.9-9.5,2.1c-1,0.1-1.1,1.2-2,1.3L274.9,76.4z
			"/>
		<path class="st1" d="M200.5,132.4c4.4-0.1,6.7-2.1,6.8-6.6c0-2.6,0.2-5.2,0.7-7.7c-0.2-0.7-0.1-1.5,0.2-2.2
			c0.8-3.9,0.6-8-0.8-11.7c-0.8-2.2-1.2-4.5-1-6.8c0.5-5.2-1.5-10.3-5.3-13.8c-0.4-0.4-1-0.7-1.1-1.4c-1.3-1.8-2.4-3.8-3.2-5.9
			c-2.5-3.6-4.6-7.4-6.3-11.4c-2-4.9-6.2-8.6-11.4-9.9l-2.1-0.4l-1.6-0.3c-6.7-1.1-13.6-1.7-20.4-1.8h-1.4c-0.4,0.8-0.8,1.6-1.1,2.4
			c-0.3,0.9-1.4,1.5-0.8,2.6l9.4,0.2c3.2,0,6.4,0,9.6,0.3l2.7,0.3h3.8c2.8,0.6,6.2-0.1,8.1,2c2.6,2.8,4.3,6.3,4.8,10.1
			c0.3,2.3,1.4,4.4,3.1,6c1.2,1.1,1.2,1.9-0.5,2.5s-2.7,3.6-2.4,5.1s0.8,0.6,1.3,0.7l5,0.6c2.6,0.3,4.6,2.3,4.9,4.8
			c1.1,5.5,0.6,6.4-4.8,7.2c-3.1,0.5-6.2,0.8-9.4,1.1c-0.9,0-1.7,0.5-2,1.4c-1.9,6.4-6.4,8.9-12.8,9.2s-15.6,0.8-23.9,0.7h-3.1
			c0.2,4.5,1,9,2.2,13.4c0.7,2.9,2,5.7,2.6,8.7h5.7l32.4,0.3c0.4-0.1,0.9,0,1.3,0.2h0.4C193.5,132.2,197,132.5,200.5,132.4z
			 M187.7,104c-0.4,0.1-0.8,0.1-1.2,0.1c-0.3,0-0.6-0.3-0.6-0.6c0,0,0,0,0,0c-0.1-0.9,0.6-1.8,1.5-1.9c0.1,0,0.1,0,0.2,0h2.5
			l4.7-0.4l3.3-0.3h0.4c-0.6,1.3-1.8,2.2-3.2,2.4C192.8,103.9,190.3,104.1,187.7,104z"/>
		<path class="st1" d="M170,134.1h16.2c0.8,0,2-0.6,2.1,0.6s0.8,3.1-0.6,4.1c-4.8,3.3-9.5,6.9-14.6,9.7s-9.2,0.9-13.1-2.3
			s-6-6.9-8-11.1c-0.7-1.3-0.1-1.4,1.1-1.4H170V134.1z"/>
		<path class="st1" d="M189.7,74.3l0.7,0.4c2.6,2.9,2.6,2.9-0.7,4.6c-0.5,1.6-1.1,3.2-1.6,4.9c-0.1,0.5-0.5,0.9-0.9,1.1
			c-4.3,0.6-8.3,2.4-11.6,5.2c-2.2,1.7-3.6,4.2-4,6.9c-0.2,1.5,0.2,2.2,1.9,2.1L183,99c0,0.2-0.1,0.4-0.2,0.6
			c-1.4,4.7-4.6,6.8-9.4,7.3c-9.4,0.8-18.9,1-28.3,0.8c-0.2-0.9-0.4-1.8-0.4-2.7c-0.1-6.2-0.3-12.4,0-18.7c0.1-3.7,0.6-7.3,1.6-10.8
			c4.6-0.5,9.3,0.1,13.9,0.1c8.5,0,17,0.2,25.6-0.1C187.2,75.5,188.7,75.7,189.7,74.3z"/>
	</g>
</g>
</svg>
