<?xml version="1.0" encoding="utf-8"?>
<!-- Generator: Adobe Illustrator 22.1.0, SVG Export Plug-In . SVG Version: 6.00 Build 0)  -->
<svg version="1.1" id="Layer_1" xmlns="http://www.w3.org/2000/svg" xmlns:xlink="http://www.w3.org/1999/xlink" x="0px" y="0px"
	 viewBox="0 0 382.4 218.9" style="enable-background:new 0 0 382.4 218.9;" xml:space="preserve">
<style type="text/css">
	.st0{fill:#191919;}
	.st1{fill:url(#SVGID_1_);}
	.st2{fill:#FFFFFF;stroke:#A3A3A3;stroke-width:3;stroke-miterlimit:10;}
	.st3{fill:#6E6F72;}
	.st4{fill:#B70000;}
	.st5{fill:#9B9B9B;}
</style>
<title>icon</title>
<g id="Layer_1_1_">
	<rect class="st0" width="382.4" height="218.9"/>
	
		<radialGradient id="SVGID_1_" cx="191.2" cy="-924.9473" r="186.8951" gradientTransform="matrix(1 0 0 -0.58 0 -426.8)" gradientUnits="userSpaceOnUse">
		<stop  offset="0" style="stop-color:#FFFFFF"/>
		<stop  offset="1" style="stop-color:#CFCFCF"/>
	</radialGradient>
	<rect class="st1" width="382.4" height="218.9"/>
</g>
<g id="Layer_2_1_">
	<g>
		<path class="st2" d="M183.7,94.1h-47.9c-1.8,0-2.1-0.6-2.1-2.3V59.3c0-1.5,0.4-1.9,1.9-1.9c32.1,0.1,64.2,0.1,96.3,0
			c1.7,0,2,0.5,2,2c-0.1,11-0.1,21.9,0,32.8c0,1.6-0.4,1.9-1.9,1.9H183.7z"/>
		<path class="st3" d="M185.1,186.1c-3.2,0.1-3.5,0.4-2.9,3.3c0.1,0.7,0.3,1.5,0.4,2.2s-0.1,1.5-1.1,1.7s-1.3-0.3-1.5-1.2l-0.6-2.9
			c-0.1-0.6-0.3-0.7-0.8-0.4c-1,0.6-2.2,0.9-3.4,0.8c-0.4-0.1-0.9,0.1-1,0.5l-1.3,2.3c-0.5,0.7-1.2,1-1.9,0.5
			c-0.6-0.3-0.8-1-0.5-1.6c0-0.1,0.1-0.1,0.1-0.2v-0.2c0.4-0.8,1.3-1.7,1.3-2.6s-1.1-1.4-1.5-2.3s-0.4-0.4-0.7-0.2l-2.7,1
			c-0.6,0.3-1.4,0.1-1.7-0.6c0,0,0-0.1-0.1-0.1c-0.3-0.6-0.2-1.3,0.4-1.6c0.1-0.1,0.3-0.1,0.4-0.2l2.9-1.1c0.6-0.1,1-0.6,0.9-1.2
			c0-0.7,0.1-1.5,0.3-2.2c0.4-0.9,0-1.3-0.8-1.6l-1.9-1c-0.7-0.3-0.9-1.1-0.6-1.7c0,0,0-0.1,0-0.1c0.3-0.6,1-0.9,1.6-0.6
			c0.1,0,0.2,0.1,0.2,0.1c0.8,0.3,1.6,0.8,2.4,1.2s0.8,0.3,1.1-0.2c0.8-0.9,1.8-1.6,2.9-2.1c0.6-0.3,0.7-0.5,0.3-1l-1.5-2
			c-0.6-0.9-0.6-1.7,0.1-2.1s1.5-0.2,2.1,0.5l1.9,2.7c0.3,0.5,0.6,0.6,1.2,0.4l2.6-0.6c0.7-0.1,0.8-0.3,0.5-0.9l-1.5-2.7
			c-0.4-0.6-0.2-1.4,0.4-1.8c0.1,0,0.1-0.1,0.2-0.1c0.9-0.4,1.4,0,1.8,0.7s1.3,2.4,1.8,3.5c0.2,0.6,0.8,1,1.5,0.9h0.4
			c1.5,0,1.5,0,1.7-1.5c0-0.4,0-0.8,0.1-1.2c0.1-0.7,0.7-1.2,1.5-1.2c0.7,0.1,1.2,0.7,1.1,1.5c0,0.6-0.1,1.3-0.2,1.9v0.4
			c0.4,1.4,1.9,0.8,2.7,1.5s0.7-0.1,0.9-0.4l1.5-2.5c0.5-0.9,1.1-1.3,2-0.8s0.8,1.2,0.3,2.2l-1.5,2.4c-0.4,0.3-0.4,0.9,0,1.3
			c0,0,0.1,0.1,0.1,0.1c1.4,1.2,1.3,1.2,2.8,0.2l2.1-1.3c0.8-0.5,1.5-0.4,1.9,0.4s0.2,1.3-0.4,1.8l-3,1.9c-0.5,0.3-0.7,0.6-0.4,1.2
			c0.4,0.8,0.5,1.7,0.5,2.6c0,0.7,0.3,0.9,0.8,1l2.8,0.8c0.7,0.1,1.1,0.7,1,1.4c0,0.1-0.1,0.2-0.1,0.3c-0.2,0.8-0.8,1-1.6,0.8
			l-3-0.8c-0.4-0.2-0.9-0.1-1.1,0.3c0,0,0,0,0,0c-0.3,0.5-0.7,0.9-1.2,1.2c-1.2,0.5-1.2,1.2-0.7,2.2s0,1.8-0.7,2
			c-0.7,0.3-1.4,0-1.7-0.7c-0.1-0.1-0.1-0.3-0.1-0.4c0-1.2-1-2.1-2.2-2c-0.1,0-0.2,0-0.3,0c-0.5,0-1-0.1-1.5-0.3
			c-0.5-0.4-1.3-0.4-1.7,0.1c-0.2,0.2-0.3,0.5-0.3,0.8c-0.1,0.6-0.4,1.1-0.7,1.6c-0.4,1-1.1,1.4-1.8,1c-0.7-0.3-1-1.1-0.7-1.8
			c0-0.1,0.1-0.2,0.1-0.3l0.8-1.8c0.4-0.7,0.2-1-0.5-1L185.1,186.1z"/>
		<path class="st3" d="M213.7,199c-0.8,0.1-1.3,0.9-1.1,1.6c0,0,0,0,0,0.1c0.1,0.4,0.1,0.9,0,1.3c0,0.7-0.5,1.2-1.2,1.2
			c0,0-0.1,0-0.1,0c-0.6,0-1.2-0.5-1.3-1.1c-0.1-0.3,0.2-0.9-0.4-0.8s-1.2-0.2-1.5,0.5s-0.3,0.7-0.5,1c-0.3,0.7-1.1,0.9-1.8,0.6
			c-0.7-0.3-0.9-1.1-0.6-1.8l0,0c0.7-0.9,0.3-1.5-0.4-2.1c-0.3-0.2-0.6-0.3-0.9-0.3c-0.6,0-1.1,0-1.7-0.2c-0.7-0.3-1.1-0.8-0.9-1.5
			s0.6-1,1.3-1.1s0.7,0.4,0.9-0.1c0.1-0.4-0.2-0.9-0.6-1l-0.8-0.6c-0.7-0.6-0.9-1.3-0.3-2c0.4-0.6,1.1-0.7,1.7-0.3
			c0.1,0.1,0.2,0.2,0.3,0.3c0.5,0.6,1.4,0.7,2,0.3c0.3-0.3,0.5-0.5,0.2-0.9l-0.3-0.8c-0.2-0.6,0-1.2,0.6-1.5c0,0,0.1,0,0.1,0
			c0.6-0.3,1.2-0.1,1.6,0.4c0.2,0.2,0.2,0.4,0.3,0.6s0.7,1.3,1.7,0.2c0-0.2-0.1-0.3-0.3-0.3l0,0c-0.7-0.2-1-1-0.8-1.6c0,0,0,0,0-0.1
			c0.3-0.9,1-1,1.8-0.8s0.9,0.5,1.1-0.1s1.5-1.2,1.2-2.3c-0.4-0.6-0.2-1.4,0.5-1.8c0,0,0,0,0,0c0.6-0.4,1.4-0.2,1.8,0.5c0,0,0,0,0,0
			c0.5,0.5,1.3,0.5,1.8,0c0,0,0,0,0.1-0.1l0.7-0.9c0.6-0.6,1.2-0.8,1.9-0.2s0.7,1.2,0.1,1.9l-0.3,0.4c-0.4,0.4-0.5,1-0.1,1.4
			c0.3,0.6,0.7,0.1,1,0s1.6-0.1,1.9,0.7c0.3,0.7,0,1.4-0.7,1.7c-0.1,0-0.2,0.1-0.3,0.1l-0.6,0.3c-0.4,0.1-0.8,0.2-0.9,0.8
			s0.4,0.6,0.7,0.8l0.4,0.2c0.7,0.4,1,1.2,0.6,1.9c0,0,0,0,0,0c-0.4,0.8-1.1,0.8-1.9,0.5s-0.6-0.7-1-0.2s0.2,0.7,0.4,0.9
			s0.6,1.3,0,1.9c-0.5,0.6-1.3,0.6-1.8,0.2c0,0,0,0-0.1-0.1c-0.2-0.2-0.3-0.6-0.7-0.3c-0.3,0.2-0.4,0.6-0.4,0.9l0.3,1.5
			c0.1,0.9,0,1.7-1,1.9s-1.4-0.4-1.6-1.3S213.7,199.2,213.7,199z"/>
		<path class="st3" d="M156.4,185.1c0.6-0.4,1.2-0.8,1.7-1.2c0.5-0.5,1.2-0.5,1.7,0c0,0,0.1,0.1,0.1,0.1c0.5,0.5,0.5,1.3,0,1.8
			c-0.1,0.1-0.1,0.1-0.2,0.2c-0.5,0.5-1.6,0.8-1.5,1.4s1,1,1.5,1.5c0.3,0.3,0.7,0.4,1.1,0.3l0.7-0.2c0.7-0.2,1.4,0.2,1.6,0.9
			c0,0,0,0,0,0.1c0.2,0.6-0.1,1.3-0.7,1.5c-0.1,0-0.2,0.1-0.3,0.1c-0.4,0.1-0.9,0-0.8,0.7s0.2,0.7,0.7,0.9l1.1,0.4
			c0.7,0.2,1,1,0.8,1.6c0,0,0,0,0,0.1c-0.3,0.7-1.1,1.1-1.8,0.8l-1.4-0.6c-0.6-0.3-1.3-0.2-1.7,0.3c-0.6,0.3,0,0.8,0,1.2
			s0.3,1,0.1,1.4c-0.3,0.7-1,1-1.7,0.7c-0.3-0.1-0.6-0.4-0.7-0.7c-0.2-0.5-0.4-1-0.5-1.5c-0.1-1.2-1.1-1.3-1.8-1.6s-0.5,0.3-0.7,0.5
			s-1.5,1.7-2.3,1.1s-0.7-1.1,0-2.5s0.7-0.6,0.2-1.2s-0.9-0.1-1.3,0.2l-0.7,0.4c-0.5,0.4-1.2,0.3-1.5-0.2c-0.1-0.1-0.1-0.2-0.2-0.2
			c-0.4-0.6-0.3-1.4,0.3-1.8l0.7-0.5c0.2-0.1,0.6-0.2,0.3-0.6s-0.3-0.7-0.8-0.6l-1.1,0.2c-0.6,0.3-1.3,0-1.6-0.6
			c0-0.1-0.1-0.2-0.1-0.3c-0.3-0.7,0.2-1.4,1.1-1.7h0.4c0.3,0,0.6,0,0.6-0.5s0-0.6-0.5-0.7s-1.5-0.9-1.1-1.9s1.1-1,2-0.7
			c0.5,0.1,1-0.3,1.1-0.9c0-0.1,0-0.2,0-0.3c0-0.2-0.1-0.3-0.2-0.5s-0.4-1.6,0.6-2s1.4,0,1.8,0.8s0.1,0.6,0.6,0.5s0.7-0.1,0.8-0.6
			l0.3-0.9c0.3-0.6,1-0.8,1.6-0.6c0.7,0.3,1.1,0.8,0.8,1.5c-0.3,0.8-0.2,1.8,0.3,2.5C156.1,183.8,156.3,184.4,156.4,185.1z"/>
		<path class="st3" d="M129.1,75.8c0,5.5,0,11.1,0.1,16.6c0,1.3-0.3,1.9-1.7,1.7h-4.2c-1.9,0.2-2.5-0.6-2.5-2.4
			c0.1-8.5,0-16.9,0-25.4c0-2.2,0.1-4.4,0-6.7s0.6-2.3,2.2-2.1s4.5-0.9,5.8,0.4s0.3,3.6,0.3,5.5C129.2,67.5,129.1,71.7,129.1,75.8z"
			/>
		<path class="st3" d="M238.4,75.6c0-5.5,0.1-11,0-16.5c0-1.3,0.3-1.8,1.6-1.7c1.5,0.1,2.9,0.1,4.4,0c1.8-0.1,2.4,0.7,2.3,2.4v31.8
			c0.1,1.8-0.5,2.7-2.4,2.5h-4.2c-1.3,0.1-1.7-0.3-1.7-1.7C238.5,86.8,238.4,81.2,238.4,75.6z"/>
		<path class="st3" d="M116.3,75.6v13.6c0,1.1-0.3,1.6-1.5,1.5c-1.3-0.1-2.7-0.1-4,0c-1.3,0.1-1.7-0.6-1.7-1.8V62.8
			c0-1.4,0.4-2,1.8-1.9s3.9-0.7,5,0.3s0.3,3.2,0.4,4.9L116.3,75.6z"/>
		<path class="st3" d="M251.3,75.6V62.5c-0.1-1.2,0.3-1.6,1.5-1.6c5.7-0.1,5.7-0.1,5.7,5.5v22.1c0,1.6-0.4,2.2-2.1,2.2
			c-5.1,0-5.1,0-5.1-5L251.3,75.6z"/>
		<path class="st4" d="M212.7,164.6v-14c0.1-0.9,0.5-1.4,1.4-1.4s1.2,0.6,1.2,1.4c0.1,3.4,0.1,6.8,0.1,10.2v3.4h0.2
			c0.8-0.6,1.6-0.7,2.2,0.2s0.1,1.5-0.5,2l-2.2,2.2c-0.4,0.6-1.2,0.7-1.8,0.3c-0.1,0-0.1-0.1-0.2-0.2l-2.3-2.2
			c-0.6-0.7-1.1-1.4-0.4-2.2S211.8,163.9,212.7,164.6z"/>
		<path class="st4" d="M155.7,164.4l0.7-0.4c0.6-0.3,1.2-0.1,1.6,0.4c0.4,0.5,0.4,1.1,0,1.6l-2.9,2.9c-0.5,0.5-1.3,0.4-1.8-0.1
			c-0.8-0.7-1.6-1.5-2.3-2.3c-0.6-0.6-1-1.4-0.4-2.1s1.4-0.6,2.1-0.1s0.3-0.8,0.3-1.2v-12.3c-0.1-0.6,0.2-1.2,0.8-1.5
			c0.9-0.5,1.8,0.2,1.8,1.5c0.1,3.1,0.1,6.2,0.1,9.3L155.7,164.4z"/>
		<path class="st4" d="M197.8,159.3v-8.8c-0.1-0.7,0.4-1.2,1.1-1.3c0.1,0,0.2,0,0.3,0c0.8,0,1.2,0.5,1.2,1.3v8.6h0.3
			c0.7-0.5,1.4-0.8,2.1,0c0.5,0.7,0.4,1.6-0.3,2.1c0,0-0.1,0.1-0.1,0.1l-2.3,2.2c-0.5,0.6-1.3,0.6-1.8,0.2c0,0,0,0-0.1-0.1l-2.6-2.5
			c-0.6-0.5-0.6-1.3-0.2-1.9C196,158.4,196.8,158.4,197.8,159.3z"/>
		<path class="st4" d="M170.7,159.1c0.5-0.1,0.7-0.5,1.2-0.5c0.5,0.1,0.9,0.4,1.2,0.8c0.2,0.5,0.2,1.1-0.2,1.5l-2.7,2.7
			c-0.5,0.5-1.3,0.6-1.8,0.1c0,0,0,0-0.1-0.1c-0.9-0.8-1.7-1.7-2.5-2.6c-0.6-0.6-0.8-1.3-0.2-1.9c0.5-0.6,1.3-0.6,1.8-0.2
			c0,0,0,0,0.1,0.1l0.4,0.2v-8.5c0-0.9,0.4-1.5,1.3-1.5s1.3,0.6,1.4,1.5v7.8C170.6,158.7,170.6,158.9,170.7,159.1z"/>
		<path class="st4" d="M182.9,155.3c0-1.5-0.1-2.9,0-4.3s0.4-1.9,1.3-1.8s1.3,0.6,1.3,1.9v4.1c0.4,0.1,0.5-0.2,0.7-0.3
			c0.5-0.3,1.2-0.2,1.6,0.2c0.5,0.4,0.5,1.2,0.1,1.7c0,0,0,0,0,0c-1,1-1.9,2-2.9,2.9c-0.5,0.5-1.4,0.4-1.8-0.1c0,0,0-0.1-0.1-0.1
			l-2.4-2.4c-0.6-0.6-0.8-1.2-0.2-1.9c0.4-0.5,1.1-0.7,1.7-0.3c0.1,0.1,0.2,0.1,0.2,0.2L182.9,155.3z"/>
		<path class="st3" d="M99.6,65.4h2.7c1.9-0.3,2.3,0.5,2.3,2.3s-0.5,2.5-2.4,2.3h-6.3c-1.6,0-2.7-0.6-2.7-2.3s1.1-2.3,2.6-2.3H99.6z
			"/>
		<path class="st3" d="M268.1,65.4h3.8c1.3-0.1,2.3,0.9,2.4,2.2c0.1,1.3-0.9,2.3-2.2,2.4h-8c-0.7,0-1-0.3-1.1-1
			c-0.4-3.3-0.2-3.6,3.2-3.6H268.1z"/>
		<path class="st3" d="M99.5,81.5h2.3c0.9,0,2.1-0.5,2.5,0.2s0.2,2.5,0.2,3.8s-0.6,0.5-1,0.5c-2.7,0-5.4,0.1-8,0
			c-1.2,0.1-2.2-0.9-2.3-2.1c0-0.1,0-0.1,0-0.2c-0.1-1.2,0.8-2.1,2-2.2c0.1,0,0.2,0,0.3,0H99.5z"/>
		<path class="st3" d="M268.2,86.1h-1.9c-3.5,0-3.4,0-3.3-3.3c0.1-1.1,0.5-1.3,1.4-1.3h7.4c1.3-0.2,2.4,0.7,2.6,2c0,0.1,0,0.2,0,0.3
			c0,1.6-1,2.3-2.6,2.3H268.2z"/>
		<g>
			<path class="st5" d="M195.9,43.6l5.8-13.2c0.4-0.8,1.3-1.2,2.1-0.8l0.9,0.4c0.8,0.4,1.2,1.3,0.8,2.1l-5.8,13.2
				c-0.4,0.8-1.3,1.2-2.1,0.8l-0.9-0.4C195.9,45.4,195.5,44.4,195.9,43.6z"/>
			<path class="st5" d="M185.4,15.3h1c0.9,0,1.6,0.7,1.6,1.6v25.2c0,0.9-0.7,1.6-1.6,1.6h-1c-0.9,0-1.6-0.7-1.6-1.6V16.9
				C183.8,16,184.5,15.3,185.4,15.3z"/>
			<path class="st5" d="M204.6,49.8L224,33.7c0.7-0.6,1.7-0.5,2.3,0.2l0.6,0.8c0.6,0.7,0.5,1.7-0.2,2.3L207.3,53
				c-0.7,0.6-1.7,0.5-2.3-0.2l-0.6-0.8C203.9,51.4,204,50.4,204.6,49.8z"/>
			<path class="st5" d="M167,30.1l0.9-0.4c0.8-0.4,1.8,0,2.1,0.8l5.8,13.1c0.4,0.8,0,1.8-0.8,2.1l-0.9,0.4c-0.8,0.4-1.8,0-2.1-0.8
				l-5.8-13.1C165.8,31.4,166.2,30.5,167,30.1z"/>
			<path class="st5" d="M144.8,34.4l0.6-0.8c0.6-0.7,1.6-0.8,2.3-0.2l19.4,16.1c0.7,0.6,0.8,1.6,0.2,2.3l-0.6,0.8
				c-0.6,0.7-1.6,0.8-2.3,0.2l-19.4-16.1C144.4,36.1,144.3,35.1,144.8,34.4z"/>
			<path class="st5" d="M166.1,123.7l5.8-13.2c0.4-0.8,1.3-1.2,2.1-0.8l0.9,0.4c0.8,0.4,1.2,1.3,0.8,2.1l-5.8,13.2
				c-0.4,0.8-1.3,1.2-2.1,0.8l-0.9-0.4C166.1,125.5,165.8,124.5,166.1,123.7z"/>
			<path class="st5" d="M185.4,112.3h1c0.9,0,1.6,0.7,1.6,1.6v25.2c0,0.9-0.7,1.6-1.6,1.6h-1c-0.9,0-1.6-0.7-1.6-1.6v-25.2
				C183.8,113,184.5,112.3,185.4,112.3z"/>
			<path class="st5" d="M145.1,119.3l19.4-16.1c0.7-0.6,1.7-0.5,2.3,0.2l0.6,0.8c0.6,0.7,0.5,1.7-0.2,2.3l-19.4,16.1
				c-0.7,0.6-1.7,0.5-2.3-0.2l-0.6-0.8C144.4,120.9,144.5,119.9,145.1,119.3z"/>
			<path class="st5" d="M196.8,110.4l0.9-0.4c0.8-0.4,1.8,0,2.1,0.8l5.8,13.1c0.4,0.8,0,1.8-0.8,2.1l-0.9,0.4
				c-0.8,0.4-1.8,0-2.1-0.8l-5.8-13.1C195.6,111.7,196,110.7,196.8,110.4z"/>
			<path class="st5" d="M204.4,103.9l0.6-0.8c0.6-0.7,1.6-0.8,2.3-0.2l19.4,16.1c0.7,0.6,0.8,1.6,0.2,2.3l-0.6,0.8
				c-0.6,0.7-1.6,0.8-2.3,0.2l-19.4-16.1C203.9,105.6,203.8,104.6,204.4,103.9z"/>
		</g>
		<g>
			<path class="st5" d="M150.1,67.4c-0.1-1.4,0.9-2.6,2.3-2.7c0.1,0,0.3,0,0.4,0c1.4-0.1,2.5,1,2.6,2.4c0,0.1,0,0.2,0,0.3v12.9
				c0,3.2,1.8,4.6,4.9,4.6s4.9-1.4,4.9-4.6V67.4c-0.1-1.4,0.9-2.6,2.3-2.7c0.1,0,0.3,0,0.4,0c1.4-0.1,2.5,1,2.6,2.4
				c0,0.1,0,0.2,0,0.3v12.4c0,6.5-3.9,9.4-10.2,9.4s-10.2-2.9-10.2-9.4V67.4z"/>
			<path class="st5" d="M186.8,87.2c-0.6,1.6-1.6,1.9-3.3,1.9s-2.7-0.3-3.3-1.9l-6.6-18.5c-0.2-0.5-0.3-1.1-0.3-1.6
				c0-1.8,1.4-2.4,2.7-2.4s2.2,0.8,2.7,2.4l4.9,16l0,0l5.1-16c0.5-1.6,1.2-2.4,2.5-2.4s2.7,0.6,2.7,2.4c0,0.5-0.1,1.1-0.3,1.6
				L186.8,87.2z"/>
			<path class="st5" d="M207.4,64.6c6.2,0,9.5,3.8,9.5,6.1c0.1,1.2-0.8,2.3-2,2.4c-0.1,0-0.3,0-0.4,0c-3.1,0-2.2-4.2-7.1-4.2
				c-3.3,0-6.1,2.9-6.1,8s1.7,8,6.3,8s4.1-4.5,6.7-4.5s2.6,0.7,2.6,2.1c0,3.4-4.1,6.7-9.3,6.7c-7.3,0-11.7-4.2-11.7-12.3
				S199.8,64.6,207.4,64.6z"/>
		</g>
	</g>
</g>
</svg>
