<?xml version="1.0" encoding="utf-8"?>
<!-- Generator: Adobe Illustrator 22.1.0, SVG Export Plug-In . SVG Version: 6.00 Build 0)  -->
<svg version="1.1" id="Layer_1" xmlns="http://www.w3.org/2000/svg" xmlns:xlink="http://www.w3.org/1999/xlink" x="0px" y="0px"
	 viewBox="0 0 382.4 218.9" style="enable-background:new 0 0 382.4 218.9;" xml:space="preserve">
<style type="text/css">
	.st0{fill:url(#SVGID_1_);}
	.st1{fill:#BCBCBC;}
	.st2{fill:#6E6F72;}
	.st3{fill:#B70000;}
	.st4{fill:#9B9B9B;}
	.st5{fill:#FFFFFF;}
</style>
<title>icon</title>
<g id="Layer_1_1_">
	
		<radialGradient id="SVGID_1_" cx="191.2" cy="-924.9473" r="186.8951" gradientTransform="matrix(1 0 0 -0.58 0 -426.8)" gradientUnits="userSpaceOnUse">
		<stop  offset="0" style="stop-color:#FFFFFF"/>
		<stop  offset="1" style="stop-color:#CFCFCF"/>
	</radialGradient>
	<rect class="st0" width="382.4" height="218.9"/>
</g>
<g id="Layer_2_1_">
	<g>
		<g>
			<g>
				<path class="st1" d="M365.5,188.7c-3.8-0.5-7.7-0.7-11.5-0.6c-0.5,0-1.1,0.1-1.2-0.6s-1.8-3.7-3-5.3l-11.1-14.6
					c-0.7-0.8-1-1.8-0.9-2.8c0.4-5.1,0.5-10.3,0.7-15.4c0-0.5,0.3-1.2-0.3-1.4s-0.9,0.4-1.2,0.7l-11.3,12c-0.2,0.3-0.6,0.5-0.6,1
					c0,2.5-0.4,5-0.2,7.6c0.1,1.2,0.6,2.3,1.3,3.2c3.8,4.9,7.6,9.9,11.3,14.9c0.3,0.3,0.9,0.6,0.5,1.2s-0.8,0.3-1.2,0.3
					c-2.7,0.1-5.4-0.1-8.1-0.7c-4.3-1.2-6.2-4.2-6.8-8.1s-0.5-6.8-0.7-10.2c0-1.3-0.1-2.6-0.4-3.8c-0.2-0.9,0.1-1.9,0.8-2.6
					c5.6-5.9,11.1-11.7,16.6-17.7c1.7-1.8,3.6-3.6,4.3-6.3c0.5-1.8,0.6-3.7,0.3-5.6c-1.1-8.6-4.1-16.9-8.8-24.2
					c-1.8-2.8-3.8-5.4-7-6.9c-3.7-1.8-8.1-1.1-11.1,1.6l-9,8.2c-0.6,0.6-1.6,0.9-2.4,0.6l-15.8-2.7c-1.1-0.2-2.3-0.1-3.3,0.4
					l-4.1,1.9c-1.5,0.7-2.4,2.3-2.2,4c0.2,0.8-0.3,1.7-1.1,2c-0.5,0.3-1,0.6-1.5,1c-0.5,0.4-1.2,0.4-1.8,0.2l-1.8-0.6
					c-0.9-0.4-1.9,0.1-2.2,0.9c0,0.1-0.1,0.2-0.1,0.3c-0.2,0.4-0.3,0.9-0.5,1.4c-0.8,2.3-0.5,2.9,1.8,3.6l4.2,1.4
					c0.7,0.3,1.5,0.3,2.3,0.1c1.1-0.2,2.1,0.5,3.1,0.8s1.8,0.4,2.2-1.1c0-0.4,0.2-0.8,0.4-1.1c0.7-1.4,0.6-1.6-0.9-2.1
					s-2.9-0.5-3.8-1.9s-1-0.5-0.6-1s1.1-1.3,1.9-0.9s3.8,0.8,5.6-0.2c1.3-0.7,2.8-0.8,4.1-0.3c0.8,0.2,1.6,0.3,2.4,0.3l12.8-1.1
					c0.5-0.1,1-0.4,1.4-0.7l12.7-9c2.2-1.8,5.4-1.5,7.2,0.7c0.6,0.7,1,1.6,1.1,2.6c0.4,1.9-0.3,3.8-1.9,4.9l-6,4.3
					c-0.6,0.3-0.9,1.1-0.6,1.7c0,0.1,0.1,0.1,0.1,0.2c1.8,3.7,3.4,7.5,4.6,11.5c0.3,1.2,0.6,2.3,0.8,3.5c0.5,1.5,0,3.2-1.2,4.2
					c-2.1,1.9-3.9,4.1-5.9,6.2s-1.3,1.2-2-0.3c-1.7-3.6-3.9-7-6.5-10.1c-2.1-2.5-4.7-4.5-7.5-6.1c-0.3-0.2-0.7-0.4-0.8-0.7
					c-0.6-1.8-2.2-1.7-3.5-1.8s-2.2,0.3-3.3,0.4c-0.6,0-1.2,0.6-1.2,1.2c-0.1,0.6,0.6,0.8,1.1,0.9s1.5,0.7,2.2,0.1s0.5-0.1,0.7-0.1
					c2.7,0.8,5.5,1.2,7.8,3.3c5,4.4,8.8,10,11.1,16.3c1.6,4.2,2.8,8.6,3.5,13c0.6,3.3,0.8,6.7,0.8,10.1c0.1,3,0.2,6,1.4,8.9
					c1.3,3,4.1,5.1,7.3,5.7c5.3,1.2,10.7,0.6,16.1,0.3c6-0.5,12-0.6,18-0.2c0.8,0.1,1.6,0.2,2.4,0.5L365.5,188.7z"/>
				<path class="st1" d="M319.2,170.3c-0.3-6-1.6-11.8-3.8-17.4c-0.3-0.9-0.7-0.9-1.3-0.3l-4.2,4.5c-0.9,1.2-1.5,2.6-1.7,4.1
					c-0.7,3.7-1.5,7.5-2.2,11.2s-1.6,7.7-2.3,11.6c-0.4,2.1-1.3,4.2-0.4,6.4c0.8,2.6,3.2,4.4,5.9,4.4c2.7,0.1,5.2-1.5,6.1-4.1
					c1-2.8,1.3-5.8,1.9-8.7s1.2-5.6,1.8-8.5C319.2,172.4,319.3,171.4,319.2,170.3z"/>
				<path class="st1" d="M304.1,84.8c-6.4,0.1-11.6,5.3-11.5,11.7c0.1,6.4,5.3,11.6,11.7,11.5c6.4-0.1,11.5-5.2,11.5-11.6
					C315.7,90,310.5,84.8,304.1,84.8z"/>
				<path class="st1" d="M288.6,132.2c1.5,0,2.9-0.7,3.6-2c0.7-0.9,1.7-1.4,2.8-1.4l13.4-1.2c0.9-0.1,1.8-0.4,2.5-1l14.3-10.2
					c1.9-1.2,2.5-3.8,1.2-5.7c-0.3-0.5-0.7-0.9-1.2-1.2c-1.5-1-3.5-0.9-5,0.2l-12.1,8.7c-1,0.8-2.2,1.2-3.5,1.3l-13.7,1.1
					c-1.1,0.1-2.2,0.6-2.9,1.5c-1.1,1.5-2.6,2.7-3.2,4.5c-0.7,2.1,0.4,4.5,2.6,5.2C287.8,132.1,288.2,132.2,288.6,132.2z"/>
				<path class="st2" d="M272.1,126.7c-0.5,0-0.7,0.5-0.9,1.1s-0.4,0.9-1.1,0.6s-1,0.1-1.4,0.5c-0.4,0.7-1.3,0.9-2,0.6l-2.9-1
					c-0.7-0.4-1.5-0.1-1.9,0.6c0,0,0,0,0,0c-0.3,0.6-0.1,1.4,0.5,1.8c0.1,0.1,0.2,0.1,0.4,0.1l9.3,3.1l7.3,2.4
					c0.9,0.3,1.8,0.5,2.2-0.6s-0.3-1.6-1.3-1.9l-2-0.7c-1.1-0.4-1.8-0.7-2.1-2.1s-1.2-2.1-1.3-3.5S273.3,126.8,272.1,126.7z"/>
				<path class="st1" d="M346.6,190.7h-4.8c-1.1,0-1.2,0.5-0.6,1.3c2,2.9,6,3.6,8.9,1.5c0.7-0.5,1.2-1.1,1.7-1.7
					c0.2-0.4,0.5-0.8,0.3-1.2s-0.7-0.4-1.2-0.4l-4.3,0.3V190.7z"/>
				<path class="st2" d="M261.1,122.9c-2,0-3.7,1.2-4.4,3.1c-0.1,0.4-0.3,1,0.2,1.2s0.7-0.4,0.8-0.7c0.5-1.6,2.1-2.7,3.8-2.6
					c0.5,0,1.2,0.1,1.2-0.5s-0.7-0.4-1.2-0.5H261.1z"/>
				<path class="st2" d="M261.7,125c-1.4,0.1-2.6,1.1-3.1,2.4c0,0.3-0.1,0.6,0.2,0.8s0.6-0.1,0.7-0.4c0.4-1,1.4-1.7,2.5-1.7
					c0.3,0,0.5-0.2,0.5-0.5c0,0,0-0.1,0-0.1C262.4,125,262,125,261.7,125z"/>
			</g>
			<g>
				<path class="st3" d="M155.5,126.8l-3.9-0.3c-0.9,0-1.2-0.4-1.4-1.3c-1-7.1-2.2-14.2-3.3-21.2c-0.2-1.1,0.4-1.2,1.2-1.2
					c3.5-0.1,6.9,0.1,10.4,0.4l4.9,0.7c0.8,0.1,1.1-0.2,1-1c0-0.5,0-0.9,0.1-1.4c0.2-2.3,0.2-2.3-2.2-2.6
					c-11.2-1.6-22.5-0.5-33.7,0.2l-18.8,1.3l-32,2h-2.5c-2.3,0-4.5,0.8-6.2,2.4l-23.2,19.7c-2.2,1.7-3.3,4.4-3.1,7.1l0.6,9.3
					c0.4,2.9-0.7,5.8-3,7.7c-2.9,2.2-4.4,5.9-3.9,9.5c0.4,4.3,0.5,8.6,0.7,12.8c0.1,1.1-0.2,1.6-1.4,1.7s-2.7,0.8-2.8,2.9
					s0,2.1,0.1,3.1c-0.2,1.4,0.8,2.6,2.2,2.8c0.2,0,0.4,0,0.5,0h9.6c0.7,0,1.5-0.2,1.9,0.7s0.7,0.3,1.1,0.3h2.4c2,0,2,0,2-2.1
					c0.1-10.6,5.7-18.7,15.3-22.2c11.8-4.2,24.8,2,29,13.8c0,0,0,0.1,0,0.1c0.9,2.8,1.4,5.7,1.3,8.7c-0.1,1.3,0.4,1.8,1.7,1.7
					s3.2,0.5,4.5-0.9s1-0.1,1.5-0.1h53.8c2.2,0,2.2,0,2.3-2.2c0.1-4.1,0.3-8.3,0.3-12.5c0-2.6,1.1-5.1,2.9-7c4-4.4,7.9-8.9,12-13.2
					c0.8-0.8,1-1.9,0.7-3l-3-11c-0.1-0.3,0-0.8-0.4-0.9s-0.6,0.3-0.8,0.6c-2,4.2-5.4,6-9.9,6.6c-2.9,0.4-5.7,1-8.5,1.8
					c-0.9,0.2-1.2,0.5-0.7,1.4c0.2,0.3,0.4,0.7,0.5,1.1c0.7,1.5,0.3,2.3-1.3,2.7l-12.8,3.8c-1,0.5-2.2,0-2.7-1c0,0,0-0.1,0-0.1
					c-1.3-2.4-2.6-4.8-3.8-7.3s-0.3-2.3,1.2-2.6s2-0.8,2-2.4c-0.1-3.3,2.3-5.6,5.9-6.4l11.7-2.6V126.8z M141.2,114.6h0.3
					c0.2,3.2,0.3,6.4,0.5,9.6c0.1,1.3-0.3,1.6-1.6,1.5c-4.4-0.3-8.6-1.2-13-1.8l-21.9-3.4l-14.6-2.2c-0.8-0.1-1.4-0.3-1.5-1.3
					c-0.3-3-0.7-5.9-1.1-8.9c-0.2-1.3,0.3-1.7,1.5-1.8l15.1-0.9l34.7-2.3c1.3-0.1,1.6,0.4,1.6,1.5V114.6z M84.2,111.9h0.3
					c0,1.3-0.1,2.5,0,3.7s-0.2,1.7-1.6,1.5l-14.1-2.2c-0.6-0.1-1.1-0.4-1.5-0.8c-0.7-0.5-0.7-0.9,0-1.5l5.3-4.4
					c0.6-0.6,1.4-0.9,2.3-0.9l8.2-0.6c0.9-0.1,1.1,0.3,1.1,1.1L84.2,111.9z M91,123.1l10.8,1.5c0.9,0.1,1.6,0.2,1.4,1.4
					s-0.3,2-1.9,1.7c-3.4-0.6-6.8-1-10.2-1.4c-1.1-0.2-1.4-0.6-1.2-1.6S90.1,122.8,91,123.1z M133.1,143.6c-0.1-0.6-0.1-1.1,0.4-1.2
					s0.6,0.4,0.8,0.7c1.2,2.3,2.4,4.5,3.5,6.8c0.3,1,1.5,1.6,2.5,1.3c0.1,0,0.1,0,0.2-0.1l12-3.5c0.6-0.2,1.4-0.7,1.7,0
					s-0.7,1.1-1.4,1.3h-0.1l-12.9,3.8c-0.9,0.5-2,0.2-2.4-0.7c-0.1-0.1-0.1-0.3-0.2-0.4l-3.4-6.4
					C133.5,144.7,133.3,144.2,133.1,143.6z M162.2,146.6c0,2.2-1.6,4-3.7,4.5c-0.3,0-0.8,0.3-1-0.2s0.5-0.6,0.8-0.7s2.9-1.7,2.9-3.7
					c0-0.4-0.1-1,0.6-0.9S162.1,146.3,162.2,146.6L162.2,146.6z M126.8,140.5c-0.1-2.1,1.3-4,3.3-4.6c0.4-0.1,0.8-0.4,1,0.1
					s-0.4,0.6-0.7,0.8c-1.7,0.4-2.8,2-2.7,3.7c0,0.4,0.2,1.1-0.4,1.1S126.9,140.9,126.8,140.5z M129.4,141.9l-0.2-0.3
					c-0.7-1.2,0.7-3.8,2.2-3.9s0.4,0,0.5,0.2c0.1,0.2,0,0.5-0.2,0.6c-1.2,0.4-2,1.6-1.7,2.9C130,141.7,129.7,141.9,129.4,141.9
					L129.4,141.9z M160,146.2c-0.1,1.2-0.8,2.3-2,2.8c-0.4,0.1-0.9,0.4-1.1,0s0.4-0.6,0.7-0.8c0.9-0.3,1.5-1.2,1.5-2.1
					c0-0.3-0.1-0.8,0.4-0.8S160,145.8,160,146.2L160,146.2z"/>
				<path class="st3" d="M217.1,181.4h7.1c0.9,0,1.7,0.2,2.5,0.7c1.4,0.7,3.3,0.4,4.9,0.1s0.4-1,0.4-1.6c-0.2-4.6,1.1-9.2,3.6-13.1
					c5-7.7,12.3-11.5,21.4-10.6c9.1,0.9,15.9,6.2,19.3,15.1c1,2.7,1.5,5.6,1.3,8.5c0,1.4,0.3,2.1,1.8,1.9s3.1,0.5,4.4-0.9
					s0.8-0.1,1.2-0.1h9.4c2.2,0,3.1-0.9,3.2-3.1v-3.1c-0.1-1.6-0.8-2.6-2.4-2.6s-1.6-0.7-1.5-1.9c0.2-3,0.3-6,0.5-9
					c0.1-2.5-0.5-5-1.9-7.1c-2.1-3.3-4.2-6.5-6.2-9.8c-1.5-2.4-3.8-4.2-6.5-5.1c-10.1-3.3-20.1-6.5-30.1-9.9
					c-5.5-1.9-10.8-4.2-16.2-6.3l-6-2.4c-0.7-0.3-1.5-0.2-2.1,0.2c-1.3,0.9-2.8,1-4.3,1.3s-0.8,0-0.9,0.4s0.4,0.5,0.5,0.7
					c1.9,2.3,3.7,4.7,5.5,7.1c0.2,0.2,0.4,0.6,0.2,0.8h-0.8l-15.5-1.1c-1.8-0.1-1.9-0.1-1.4,1.7s1.5,5.4,2.2,8.1
					c0.5,2.2,0.3,4.5-0.7,6.6c-2.8,6.2-5.5,12.6-8.3,18.8c-0.4,0.9-0.4,1.9,0.1,2.7c1.8,3.8,3.6,7.7,5.3,11.6c0.2,0.9,1.1,1.4,2,1.3
					L217.1,181.4z"/>
				<path class="st1" d="M189.4,156.2l-3.6,8.4c-0.8,1.7-0.8,3.6,0,5.3c3.9,8.5,7.8,17.1,11.8,25.5c1.4,3.1,5,4.6,8.2,3.2
					c0,0,0,0,0,0c3.2-1.4,4.7-5.1,3.3-8.3c0-0.1-0.1-0.2-0.1-0.2c-3.3-7.1-6.5-14.2-9.9-21.2c-0.5-1-0.5-2.3,0-3.3
					c2.9-6.5,5.6-13,8.5-19.4c1.3-2.8,0.6-5.3-0.1-7.9c-1.7-6.1-3.3-12.2-4.9-18.3v-0.7c0.7,0.1,1.3,0.5,1.7,1.1
					c2,2,4.4,2.2,7.1,1.6l10.2-2.1c2.8-0.5,4.2-2,4.2-4.3s-2.5-4.3-5.5-3.7l-9.5,1.9c-0.9,0.2-1.9,0-2.6-0.6l-7.3-5.8
					c-1.4-1.4-3.5-1.9-5.4-1.3c-6,1.5-12.1,2.8-18.1,4.2c-1.2,0.3-2.3,1-2.9,2.1c-2.9,4.3-5.9,8.5-8.6,12.9c-1.1,1.9-3,3.2-5.2,3.4
					l-17.1,3.8c-2.2,0.2-3.8,2.2-3.6,4.4c0.2,2.2,2.2,3.8,4.4,3.6c0.3,0,0.5-0.1,0.8-0.2l13.5-3l8.1-1.7c1.4-0.3,2.6-1.1,3.4-2.3
					c1.5-2.3,3-4.6,4.6-6.9c0.2-0.3,0.3-0.8,0.8-0.7s0.5,0.6,0.6,1c1.6,6,3.1,12,4.8,17.9c0.3,0.8,0.1,1.8-0.7,2.3
					c-4.2,4.7-8.3,9.3-12.6,13.9c-1.8,1.8-2.7,4.2-2.7,6.7c-0.2,8.2-0.5,16.3-0.7,24.5c-0.2,3.4,2.3,6.4,5.8,6.6
					c0.5,0,1.1,0,1.6-0.1c2.6-0.4,4.6-2.4,5-5c0.2-1.7,0.3-3.3,0.3-5l0.6-18.5c-0.1-0.7,0.1-1.4,0.6-2l10.4-11.5l0.6-0.5
					L189.4,156.2z"/>
				<path class="st3" d="M254.9,159.7c-10.9,0-19.8,8.9-19.8,19.8c0,10.9,8.9,19.8,19.8,19.8c10.9,0,19.8-8.9,19.8-19.8c0,0,0,0,0,0
					C274.7,168.6,265.8,159.7,254.9,159.7z M267.7,179.4c0.1,7.1-5.7,12.9-12.8,13c-7.1,0.1-12.9-5.7-13-12.8
					c-0.1-7.1,5.7-12.9,12.8-13c0.1,0,0.1,0,0.2,0c7-0.1,12.7,5.6,12.8,12.6C267.7,179.3,267.7,179.3,267.7,179.4L267.7,179.4z"/>
				<path class="st3" d="M75.6,159.7c-10.9,0-19.8,8.9-19.8,19.8c0,10.9,8.9,19.8,19.8,19.8c0,0,0,0,0,0c10.9,0,19.8-8.9,19.8-19.8
					S86.5,159.7,75.6,159.7L75.6,159.7z M88.4,179.5c-0.6,7.1-6.9,12.3-14,11.7c-6.2-0.5-11.2-5.5-11.7-11.7
					c0-7.1,5.8-12.9,12.9-12.9c0,0,0.1,0,0.1,0c7,0,12.7,5.7,12.7,12.7C88.4,179.4,88.4,179.4,88.4,179.5z"/>
				<path class="st1" d="M172.3,112.7c-2.2-0.4-3-2.3-4.3-3.5s0.1-0.8,0.4-1c0.7-0.4,1.4-0.9,2.1-1.5c-1.2-0.1-1.8,1.1-3,1.2
					s0.2-0.8,0.5-1l4.2-2.7c1.1-0.7,1.9-0.6,2.5,0.7s1,1.8,1.3,2.8c0.2,0.7,1,1.2,1.7,1c0.1,0,0.1,0,0.2-0.1c3.5-0.7,6.8-2,10.1-3
					c0.6-0.2,1-0.8,1-1.4c0.3-2.4-0.1-4.8-1.2-7c-0.4-1-0.9-1-1.8-0.5c-3.1,2-6.2,4-9.4,5.9L176,103c-0.4,0.3-0.9,0.3-1.3,0
					c0-0.1-0.1-0.1-0.1-0.2c-0.5-0.6,0.2-0.8,0.6-1l9.6-6.1c1.4-0.8,1.4-1,0.2-2c-3.5-2.6-7.4-3.4-11.5-1.7s-6.4,5-7,9.5
					c-0.2,1.1-0.1,2.2,0.2,3.2c0.3,0.7,0.2,1.6-0.3,2.2c-0.6,0.7-0.6,1.6,0,2.3l3.6,3.9C171,114.1,171.6,113.9,172.3,112.7z"/>
				<path class="st1" d="M184,181.4h3c0.9,0,1.2-0.3,0.8-1.2c-1.4-2.9-2.7-5.7-4-8.6c-0.5-1-0.9-2.1-1-3.3c0-0.3-0.1-0.7-0.3-0.8
					s-0.6,0.2-0.8,0.4c-1.1,0.9-1.7,2.3-1.7,3.7c0,2.8-0.1,5.6-0.2,8.4c-0.1,1,0.2,1.5,1.3,1.4L184,181.4z"/>
				<path class="st2" d="M224.5,108.5c0.1-0.7,0.2-1.6-1.2-1.9s-0.4-0.7-0.4-1.1s0-2.1-0.1-3.1c0.1-0.7-0.4-1.2-1.1-1.3c0,0,0,0,0,0
					c-0.7,0-1.2,0.5-1.2,1.2c0,0,0,0.1,0,0.1c0,0.8-0.1,1.7-0.1,2.5s0.1,1.5-1,2s-0.6,2.1-0.5,3.1s1,0.4,1.6,0.4
					c0.7-0.1,1.5-0.2,2.2-0.1C224.6,110.6,224.5,110.6,224.5,108.5z"/>
				<path class="st2" d="M254.9,173.6c-3.3,0-5.9,2.6-5.9,5.9c0,3.3,2.6,5.9,5.8,5.9c3.3-0.1,5.9-2.6,6-5.9
					C260.8,176.2,258.2,173.6,254.9,173.6L254.9,173.6z"/>
				<path class="st2" d="M75.6,173.6c-3.2-0.1-5.8,2.5-5.9,5.7c0,0.1,0,0.1,0,0.2c0,3.3,2.6,5.9,5.9,5.9s5.9-2.6,5.9-5.9
					c0.1-3.2-2.5-5.8-5.7-5.9C75.7,173.6,75.7,173.6,75.6,173.6z"/>
			</g>
		</g>
		<path class="st4" d="M67.7,90.5c-2.8,0.1-5.1-2.2-5.2-5c-0.1-2.8,2.2-5.1,5-5.2c2.8-0.1,5.1,2.2,5.2,5c0,0.1,0,0.1,0,0.2
			C72.6,88.2,70.4,90.4,67.7,90.5z M67.7,81.9c-2-0.3-3.8,1-4.1,3c-0.3,2,1,3.8,3,4.1c0.4,0.1,0.8,0.1,1.2,0c2-0.3,3.3-2.2,3-4.1
			C70.4,83.3,69.2,82.2,67.7,81.9z"/>
		<path class="st2" d="M21.6,128c-2.8,0-5-2.2-5-5s2.2-5,5-5s5,2.2,5,5S24.4,128,21.6,128z M21.6,119.5c-2,0-3.6,1.6-3.6,3.6
			c0,2,1.6,3.6,3.6,3.6c2,0,3.6-1.6,3.6-3.6c0,0,0-0.1,0-0.1C25.1,121.1,23.5,119.5,21.6,119.5z"/>
		<path class="st2" d="M90,92.1c-3.7,0.1-6.7-2.9-6.8-6.6s2.9-6.7,6.6-6.8c3.7-0.1,6.7,2.9,6.8,6.6c0,0.1,0,0.1,0,0.2
			C96.5,89.1,93.6,92,90,92.1z M90,80.7c-2.7-0.1-4.8,2-4.9,4.7c-0.1,2.7,2,4.8,4.7,4.9s4.8-2,4.9-4.7c0,0,0-0.1,0-0.1
			C94.7,82.9,92.6,80.8,90,80.7z"/>
		<path class="st4" d="M100.7,152.9c-4.7,0.5-9-2.9-9.5-7.6c-0.5-4.7,2.9-9,7.6-9.5c0.6-0.1,1.2-0.1,1.9,0c4.7,0,8.5,3.8,8.5,8.5
			C109.2,149,105.4,152.8,100.7,152.9z M100.7,138.2c-3.4,0-6.1,2.7-6.1,6.1l0,0c0,3.4,2.7,6.1,6.1,6.1s6.1-2.7,6.1-6.1
			C106.8,140.9,104.1,138.2,100.7,138.2z"/>
		<path class="st4" d="M18,148.5c-3.7,0-6.7-3-6.7-6.7c0-3.7,3-6.7,6.7-6.7s6.7,3,6.7,6.7c0,0,0,0.1,0,0.1
			C24.6,145.6,21.7,148.5,18,148.5z M18,137.2c-2.6,0-4.7,2.1-4.7,4.7s2.1,4.7,4.7,4.7s4.7-2.1,4.7-4.7l0,0
			C22.7,139.3,20.6,137.2,18,137.2z"/>
		<path class="st4" d="M75.6,74.4c-1.6-0.1-2.8-1.3-2.8-2.9c0.3-1.6,1.8-2.6,3.4-2.3c1.2,0.2,2.1,1.1,2.3,2.3
			C78.5,73.1,77.2,74.4,75.6,74.4z M75.6,69.5c-1.1,0-2,0.9-2,2s0.9,2,2,2s2-0.9,2-2S76.7,69.5,75.6,69.5z"/>
		<path class="st4" d="M33,136.2c-1.6-0.3-2.6-1.8-2.3-3.4c0.2-1.2,1.1-2.1,2.3-2.3c1.6-0.3,3.1,0.7,3.4,2.3
			c0.3,1.6-0.7,3.1-2.3,3.4C33.7,136.3,33.4,136.3,33,136.2z M33,131.3c-1.1,0-2,0.9-2,2c0,0,0,0.1,0,0.1c0,1.1,0.9,2,2,2
			c1.1,0.1,2-0.8,2.1-1.9c0,0,0-0.1,0-0.1C35.1,132.2,34.2,131.3,33,131.3L33,131.3z"/>
		<path class="st1" d="M34.6,93.5l-3.2,1.1l3.2,1.1c2,0.6,3.6,2.2,4.2,4.2l1.1,3.1l1.1-3.1c0.6-2,2.2-3.6,4.2-4.2l3.2-1.1l-3.2-1.1
			c-2-0.7-3.5-2.2-4.2-4.2l-1.1-3.2l-1.1,3.2C38.1,91.3,36.6,92.8,34.6,93.5z"/>
		<path class="st1" d="M119.3,66.9l-3.2,1.1l3.2,1.1c2,0.6,3.6,2.2,4.2,4.2l1.1,3.2l1.1-3.2c0.6-2,2.2-3.6,4.2-4.2l3.2-1.1l-3.2-1.1
			c-2-0.6-3.6-2.2-4.2-4.2l-1.1-3.2l-1.1,3.2C122.8,64.7,121.3,66.2,119.3,66.9z"/>
		<path class="st5" d="M36.5,124.3l-4.3,1.4l4.3,1.5c2.7,0.9,4.8,3,5.7,5.7l1.5,4.3l1.5-4.3c0.9-2.7,3-4.8,5.7-5.7l4.3-1.5l-4.3-1.4
			c-2.7-1-4.7-3-5.7-5.7l-1.5-4.4l-1.5,4.4C41.2,121.3,39.2,123.3,36.5,124.3z"/>
		<path class="st5" d="M70.7,137.6l-3,1.1l3,1c1.8,0.6,3.3,2.1,3.9,3.9l1,3l1.1-3c0.6-1.8,2.1-3.3,3.9-3.9l3-1l-3-1.1
			c-1.9-0.6-3.3-2-3.9-3.9l-1.1-3l-1,3C74,135.5,72.5,137,70.7,137.6z"/>
		<path class="st5" d="M68.1,101.5l-2.6,0.9l2.6,0.9c1.7,0.5,3,1.8,3.5,3.5l0.9,2.6l0.9-2.6c0.5-1.6,1.8-2.9,3.4-3.5l2.6-0.9
			l-2.6-0.9c-1.6-0.5-2.9-1.8-3.4-3.4l-0.9-2.6l-0.9,2.6C71,99.7,69.7,101,68.1,101.5z"/>
	</g>
</g>
</svg>
