<?xml version="1.0" encoding="utf-8"?>
<!-- Generator: Adobe Illustrator 22.1.0, SVG Export Plug-In . SVG Version: 6.00 Build 0)  -->
<svg version="1.1" id="Layer_1" xmlns="http://www.w3.org/2000/svg" xmlns:xlink="http://www.w3.org/1999/xlink" x="0px" y="0px"
	 viewBox="0 0 382.4 218.9" style="enable-background:new 0 0 382.4 218.9;" xml:space="preserve">
<style type="text/css">
	.st0{fill:#191919;}
	.st1{fill:url(#SVGID_1_);}
	.st2{fill:#FFFFFF;}
	.st3{fill:#BCBCBC;}
	.st4{fill:#6E6F72;}
	.st5{fill:#B70000;}
</style>
<title>icon</title>
<rect class="st0" width="382.4" height="218.9"/>
<radialGradient id="SVGID_1_" cx="191.2" cy="-924.9473" r="186.8951" gradientTransform="matrix(1 0 0 -0.58 0 -426.8)" gradientUnits="userSpaceOnUse">
	<stop  offset="0" style="stop-color:#FFFFFF"/>
	<stop  offset="1" style="stop-color:#CFCFCF"/>
</radialGradient>
<rect class="st1" width="382.4" height="218.9"/>
<g>
	<path class="st2" d="M192.6,41.3H92.5c-2.4,0-3.1,0.5-3.1,2.8v122.1c0,2.3,0.7,2.8,3.1,2.8h199.9c2.3,0,3.2-0.5,3.2-2.8
		c-0.1-40.7-0.1-81.4,0-122.1c0-2.3-0.8-2.8-3.2-2.8H192.6z"/>
	<path class="st3" d="M192.2,182.1H89.7c-10.2,0-16.6-6.2-16.6-16.4V44.5c0-10,6.4-16.3,16.4-16.3H295c9.9,0,16.3,6.3,16.3,16.1
		v121.8c0,9.6-6.5,16-16.1,16H192.2z M192.6,41.3H92.5c-2.4,0-3.1,0.5-3.1,2.8v122.1c0,2.3,0.7,2.8,3.1,2.8h199.9
		c2.3,0,3.2-0.5,3.2-2.8c-0.1-40.7-0.1-81.4,0-122.1c0-2.3-0.8-2.8-3.2-2.8L192.6,41.3z M83.3,105.1c0-5.3,0-10.7,0.1-16
		c0-1.6-0.2-2.9-2.2-2.9S79,87.5,79,89.1c0.1,10.7,0.1,21.4,0.1,32.1c-0.1,1.6,0.2,2.8,2.1,2.9s2.2-1.4,2.2-2.9
		C83.3,115.8,83.3,110.5,83.3,105.1z"/>
	<path class="st4" d="M210,50.3c5.9-0.1,11.4,3.7,10.9,11v7.6c0.1,1.8-0.6,2.3-2.3,2.2s-3.7,0.2-5-1.8s-2.4-1.4-3.8-1.3
		c-2.1,0.2-4.2-0.4-5.9-1.5c-5.5-3.1-11.2-5.8-17.5-7.1c-3.8-0.7-5.4-0.5-11.6-0.4c-11.7,0.2-19.5,1.3-28.3,6.1
		c-7.6,4.2-16,7.1-24.6,8.3c-3.2,0.6-6.2,1.5-9.2,2.8c-1.7,0.6-2.8,2.2-2.7,4v6.4c0.1,2.8,1.5,4.2,4.3,4.4h1.5
		c2.2,0.4,3-0.4,3.2-2.7c0.4-4.9,4.3-8,9.1-7.8c4.7,0.1,8.5,3.9,8.5,8.6c0,1.8,0.7,1.9,2.2,1.9h17.5c1.4-0.1,2.3,0.2,2.7,1.7
		c1.2,3.9,2.5,7.7,3.9,11.5c0.6,1.6,0,1.8-1.4,1.8h-46.6c-5.1,0.2-9.3-3.8-9.5-8.9c0-0.2,0-0.5,0-0.7c-0.1-12.1-0.1-24.2,0-36.3
		c0-5.8,4-9.6,10-9.6C131.3,50.4,194.4,50.6,210,50.3z M127.8,97.3c4.4-0.5,7.6-4.5,7.1-8.8c-0.4-3.7-3.3-6.6-7.1-7.1
		c-4.4,0-8,3.5-8.1,7.9C119.8,93.7,123.4,97.2,127.8,97.3z M109.3,86.6c0.6-1.9,0.6-3.9-0.1-5.7C108.4,83.2,108.4,84.9,109.3,86.6z"
		/>
	<path class="st5" d="M252.9,151.5h-16.6c-1.2-0.1-2.4,0.3-3.2,1.3l-8.5,8.6c-1.2,1.3-1.9,1.1-3.1,0L203.2,143
		c-1.2-1.3-1.9-1.3-3.1,0s-4.5,4.5-6.8,6.8c-0.8,1-2.1,1.6-3.4,1.5h-25.7c-1.4,0-2.8-0.6-3.7-1.6c-4.3-4.4-8.9-8.8-13.2-13.3
		c-1.3-1.4-2.1-1.2-3.3,0.1l-13.1,13.1c-0.8,1-2.1,1.5-3.4,1.5h-20c-1.5,0-2.2-0.4-2.2-2s0.9-2,2.3-2h18.1c1.3,0,2.5-0.5,3.4-1.5
		l15-15.1c1.2-1.2,1.9-1.2,3.1,0c5,5.2,10.1,10.2,15.1,15.3c0.9,0.9,2.2,1.5,3.5,1.4h22.5c1.2,0.1,2.4-0.4,3.2-1.3
		c2.9-3,5.9-5.8,8.7-8.8c1.2-1.1,1.8-1.1,3,0c6,6.2,12.1,12.2,18.1,18.3c1.3,1.3,2.1,1.6,3.5,0s4.4-4.4,6.6-6.6
		c0.8-0.9,2-1.5,3.2-1.4h35.3c1.5,0,2.3,0.3,2.2,2s-0.4,2-1.9,2L252.9,151.5z"/>
	<path class="st4" d="M215.7,79.4c0,2,0,4.1,0.1,6.1s-0.5,1.8,0.6,1.8s1.3-1,1.3-1.8v-5c0-1.1-0.2-2.1,1.5-2.1s1.7,0.9,1.7,2.1v16.2
		c0.2,4.9-3.7,9-8.6,9.2c-0.1,0-0.1,0-0.2,0h-39.3c-1,0.1-2-0.6-2.2-1.6c-1.2-3.8-2.5-7.6-3.9-11.4c-0.7-1.8,0.1-2.1,1.6-2.1h16.6
		c1.5,0,2-0.2,2.1-2c0.5-4.9,4.9-8.4,9.8-7.9c4.2,0.4,7.5,3.7,7.9,7.9c0.1,1.8,0.7,2.1,2.2,2h4.2c2.9-0.1,4.3-1.5,4.4-4.5
		s0-4.7,0-7.1L215.7,79.4z M195.9,97.3c4.3-0.1,7.8-3.5,7.9-7.8c0.1-4.4-3.3-8-7.7-8.1c0,0-0.1,0-0.1,0c-4.4-0.5-8.4,2.6-8.9,7
		s2.6,8.4,7,8.9C194.7,97.4,195.3,97.4,195.9,97.3L195.9,97.3z"/>
	<path class="st3" d="M194.7,125.9c-6.8,0-13.5-0.1-20.3,0c-1.4,0.2-2.8-0.8-3.1-2.2c-4.2-12.4-8.5-24.7-12.7-37.1
		c-0.4-1.5-1.1-2.9-2-4.2c-0.7-0.9-0.6-2.1,0.1-2.9c0.6-0.8,1.6-1.2,2.6-1c1.1,0.2,2,0.8,2,1.9c0.4,4.9,2.7,9.3,4.2,13.9
		c2.8,8.6,5.8,17.2,8.7,25.9c0.5,1.5,1.4,1.7,2.8,1.7h38.4c1.4-0.1,2.4-0.2,2.4,1.9s-1,2-2.4,2C208.5,125.8,201.6,125.9,194.7,125.9
		z"/>
	<path class="st3" d="M240.6,76.8h-27.9c-1.2-0.1-2.4,0.1-3.6,0.5c-1.3,0.5-2.8-0.2-3.4-1.5c-0.3-0.8-0.2-1.8,0.4-2.5
		c0.6-1,1.9-1.5,3-1c1.5,0.7,3.1,0.5,4.6,0.5h55.8c1.4,0,2.7-0.1,2.6,2.1s-0.6,2-2.1,2L240.6,76.8z"/>
	<path class="st5" d="M241,112.4c-2,0-4.1-0.1-6.1,0s-1.8-0.3-1.5-1.6c1.1-6.5,8.1-13.4,14.4-14.4c1.1-0.1,1.5,0.1,1.5,1.2
		c0,4.5-0.1,8.9-0.1,13.3c0.1,1.4-0.6,1.6-1.8,1.6L241,112.4L241,112.4z"/>
	<path class="st3" d="M241.2,118.2h5.9c1.5-0.1,2.3,0.4,2.2,2.1c-0.1,4,0,8,0,12c0.1,1.7-0.4,2-2,1.5c-7.4-2-11.8-7-13.9-14.2
		c-0.4-1.2,0.2-1.4,1.2-1.4L241.2,118.2z"/>
	<path class="st4" d="M255,126.3c0-2,0.1-4.1,0-6.1s0.7-2,2-2h12.3c1.3,0,2,0.2,1.5,1.8c-1.7,6.8-7.1,12.2-13.9,13.9
		c-1.5,0.4-1.9,0.1-1.9-1.4S255,128.4,255,126.3L255,126.3z"/>
	<path class="st4" d="M186.5,62.3c-1-0.5-2-0.8-3.1-0.9h-10.8c-1.3,0-1.4,0.8-1.4,1.8v6.6c-0.1,1.3,0.5,1.7,1.8,1.7h16
		c1.1,0,1.6-0.2,1.6-0.8C189.4,67.7,188.3,64.7,186.5,62.3z"/>
	<path class="st4" d="M158.6,71.4h-7.9c-0.9-0.1-2.2,0.6-2.5-0.9c-0.5-1.4,0.1-2.9,1.3-3.6c4.7-2.8,9.9-4.5,15.3-5.2
		c4.7-0.5,4.7-0.5,4.7,4.3s0,5.4-5.5,5.4H158.6z"/>
	<path class="st4" d="M198.2,67.7l-8.5-4.5c-0.5-0.3-1.1-0.8-1.7-0.5c1.4,2.4,2.6,5,3.6,7.6c1.2,1.3,7.5,1.5,7.8,0.2
		C199.8,69.4,199.3,68.2,198.2,67.7z"/>
</g>
</svg>
