<?xml version="1.0" encoding="utf-8"?>
<!-- Generator: Adobe Illustrator 22.1.0, SVG Export Plug-In . SVG Version: 6.00 Build 0)  -->
<svg version="1.1" id="Layer_1" xmlns="http://www.w3.org/2000/svg" xmlns:xlink="http://www.w3.org/1999/xlink" x="0px" y="0px"
	 viewBox="0 0 382.4 218.9" style="enable-background:new 0 0 382.4 218.9;" xml:space="preserve">
<style type="text/css">
	.st0{fill:url(#SVGID_1_);}
	.st1{fill:#B22229;}
	.st2{fill:#929397;}
	.st3{fill:#FDFDFD;}
	.st4{fill:#6E6F72;}
</style>
<title>icon</title>
<radialGradient id="SVGID_1_" cx="191.2" cy="110.565" r="155.7778" gradientTransform="matrix(1 0 0 -1 0 220)" gradientUnits="userSpaceOnUse">
	<stop  offset="0" style="stop-color:#FFFFFF"/>
	<stop  offset="1" style="stop-color:#CFCFCF"/>
</radialGradient>
<rect class="st0" width="382.4" height="218.9"/>
<g>
	<path class="st1" d="M60.6,129.3c-6.3,0-12.7-0.1-19,0c-1.4,0-2-0.2-2-1.8c0.1-10.6,0.1-21.1,0-31.6c0-1.3,0.2-1.7,1.6-1.7
		c2.4-0.2,4.7,0.6,6.4,2.3c7.4,7.2,20.5,6.6,27.5-1c1-1,5.1-1.8,6.3-1.3s0.4,0.9,0.4,1.3c0.1,10.8,0,21.5,0.1,32.3
		c0,1.5-0.8,1.5-1.9,1.5C73.6,129.2,67.1,129.3,60.6,129.3z M60.8,109.3c-3.8,0-6.8,3-6.8,6.8c0,3.8,3,6.8,6.8,6.8c0,0,0,0,0,0
		c3.8,0,6.8-3,6.8-6.8C67.6,112.3,64.6,109.3,60.8,109.3z"/>
	<path class="st2" d="M46.2,57.5c0-3.1,0-6.2-0.1-9.2s0.7-2.9,2.7-2.7s2.8-0.5,4.1-1.6c4.8-4.2,12-3.9,16.4,0.7c1,1,2.1,0.9,3.3,0.9
		s2.8,0.7,2.8,2.7c-0.1,6.1-0.1,12.1-0.1,18.2c0.1,1.3-0.4,2.6-1.3,3.5c-4.6,4.2-6.2,9.8-7.3,15.7c-0.6,3.2-0.9,6.5-0.9,9.8
		c0.1,1.1-0.4,1.5-1.4,1.6c-2.4,0.4-4.9,0.4-7.4,0.1c-1.3-0.2-1.4-1-1.4-2c0-4.9-0.6-9.9-2-14.6c-1-4.2-3.2-7.9-6.3-10.9
		c-0.8-0.7-1.2-1.7-1.1-2.8L46.2,57.5z M68.9,58.1c0.1-4.5-3.4-8.2-7.9-8.3c-0.1,0-0.2,0-0.3,0c-4.5,0-8.1,3.6-8.1,8.1
		c0,0.1,0,0.1,0,0.2c-0.5,4.5,2.7,8.6,7.2,9.1c4.5,0.5,8.6-2.7,9.1-7.2C69,59.3,69,58.7,68.9,58.1z"/>
	<path class="st1" d="M60.9,142.6h19.2c1.4,0,1.8,0.5,1.8,1.8c-0.1,3.9-1.2,5.1-5.1,5.1H44.7c-3.8,0-5-1.2-5.1-5.1
		c0-1.3,0.4-1.8,1.8-1.8H60.9z"/>
	<path class="st1" d="M60.9,133.9h19c1.5,0,2.1,0.3,2,1.9s0,2.2-1.9,2.2H41.5c-1.7,0-1.8-0.7-1.9-2.1s0.6-2,2.1-2L60.9,133.9z"/>
	<path class="st3" d="M60.8,109.3c3.8,0,6.8,3,6.8,6.8c0,3.8-3,6.8-6.8,6.8c-3.8,0-6.8-3-6.8-6.8C54,112.3,57,109.3,60.8,109.3
		C60.8,109.3,60.8,109.3,60.8,109.3z"/>
	<path class="st3" d="M68.9,58.1c0.5,4.5-2.7,8.6-7.2,9.1c-4.5,0.5-8.6-2.7-9.1-7.2c-0.1-0.6-0.1-1.2,0-1.8
		c-0.1-4.5,3.4-8.2,7.9-8.3c0.1,0,0.1,0,0.2,0c4.5-0.1,8.1,3.5,8.2,8C68.9,57.9,68.9,58,68.9,58.1z"/>
</g>
<g>
	<path class="st4" d="M336.2,149.7c0.1,31.4-25.6,57-57.2,57.1c-31.4,0-57-25.4-57.2-56.8c-0.1-31.4,25.4-57.3,56.4-57.5
		c31.6-0.4,57.6,25,58,56.6C336.2,149.3,336.2,149.5,336.2,149.7z M320.7,149.6c0-23-18.6-41.7-41.6-41.8s-41.7,18.6-41.8,41.6
		c0.1,23.7,18.5,41.9,42.5,41.9C302.2,191.4,320.7,172.4,320.7,149.6L320.7,149.6z"/>
	<path class="st3" d="M320.7,149.6c0,22.8-18.5,41.8-40.9,41.8c-24,0-42.4-18.2-42.5-41.9c0-23,18.7-41.7,41.8-41.6
		S320.7,126.6,320.7,149.6z M242,149.7c-0.1,20.2,16.3,37,36.1,37.1s37.7-16.1,37.9-36.6s-17.4-37.4-36.6-37.6S241.8,129,242,149.7
		L242,149.7z"/>
	<path class="st2" d="M242,149.7c-0.2-20.7,17.3-37.3,37.4-37.1s36.9,16.2,36.6,37.6s-16.8,36.6-37.9,36.6S241.9,169.9,242,149.7z
		 M286.1,139.4c4.4-3.1,8.5-6.6,12.2-10.5c1.6-1.6,1-6.4-0.7-7.2s-5.9,0.5-6.9,2.8c-2,4.7-3.6,9.6-4.8,14.6
		c-0.1,0.1-0.3,0.3-0.2,0.3S286,139.5,286.1,139.4z M276.8,137.7c0.6-5.6,1.5-11.1,1.2-16.7c-0.1-1.8-3.7-4.6-5.3-4.4
		s-4.2,4.3-3.5,6.1C271.1,128,273.7,133,276.8,137.7L276.8,137.7z M290.8,147.5c5.2,0.7,10.5,1.2,15.8,1.3c3.1,0,6.3-4,5-6.2
		c-1.4-2.3-4.2-3.3-6.7-2.3c-3.7,1.6-7.4,3.5-11,5.3C292.7,146,291.7,146.6,290.8,147.5L290.8,147.5z M268.7,142.7
		c-3.1-4.4-6.6-8.5-10.4-12.3c-1.6-1.6-6.1-1.1-7.2,0.6s0.1,5.8,1.9,6.6C258,139.8,263.3,141.5,268.7,142.7z M288.9,156.6
		c1.3,1.6,2.5,3.2,3.8,4.7l6.4,7.2c2,2,5.2,2.1,7.4,0.3c1.6-1.4,0.3-6.1-2.1-7.2C299.4,159.4,294.2,157.7,288.9,156.6L288.9,156.6z
		 M281.1,161.7c-0.2,1.4-0.4,2.8-0.5,4.3c-0.5,3.9-0.7,7.9-0.6,11.9c0.1,2.4,3.9,5.4,5.8,4.6c2.3-1.3,3.4-4,2.8-6.5
		C286.6,171,284.1,166.2,281.1,161.7L281.1,161.7z M266.9,152c-5.4-0.7-10.6-1.5-16-1.3c-2.2,0.1-5.2,3.1-5,5.2s4.1,4.2,6.1,3.6
		C257.3,157.7,262.1,154.9,266.9,152z M272,160.1c-4.5,3.1-8.7,6.6-12.5,10.5c-1.4,1.5-0.9,5.7,0.6,6.8s5.7,0.2,6.6-1.6
		C269.3,170.9,270.7,165.6,272,160.1z M284.1,149.7c0.1-2.7-2-5-4.7-5.1c-0.1,0-0.2,0-0.3,0c-2.6-0.2-5,1.7-5.2,4.4
		c0,0.2,0,0.4,0,0.6c0,2.8,2.2,5.1,5.1,5.2C281.8,154.8,284.1,152.5,284.1,149.7z"/>
	<path class="st3" d="M276.8,137.7c-3.1-4.7-5.7-9.7-7.6-15c-0.7-1.8,1.8-5.8,3.5-6.1s5.2,2.6,5.3,4.4
		C278.3,126.6,277.4,132.1,276.8,137.7z"/>
	<path class="st3" d="M290.8,147.5c0.9-0.9,1.9-1.5,3.1-1.9c3.6-1.8,7.3-3.7,11-5.3c2.5-1,5.3,0,6.7,2.3c1.3,2.2-1.9,6.2-5,6.2
		C301.3,148.7,296,148.2,290.8,147.5z"/>
	<path class="st3" d="M268.7,142.7c-5.4-1.2-10.7-2.9-15.7-5.1c-1.8-0.8-2.9-5.2-1.9-6.6s5.6-2.2,7.2-0.6
		C262.1,134.2,265.6,138.3,268.7,142.7z"/>
	<path class="st3" d="M288.9,156.6c5.3,1.1,10.5,2.8,15.5,5c2.4,1.1,3.7,5.8,2.1,7.2c-2.2,1.8-5.4,1.7-7.4-0.3l-6.4-7.2
		C291.4,159.8,290.2,158.2,288.9,156.6z"/>
	<path class="st3" d="M281.1,161.7c3,4.5,5.5,9.3,7.5,14.3c0.6,2.5-0.5,5.2-2.8,6.5c-1.9,0.8-5.7-2.2-5.8-4.6c-0.1-4,0.1-8,0.6-11.9
		C280.7,164.5,280.9,163.1,281.1,161.7z"/>
	<path class="st3" d="M266.9,152c-4.8,2.9-9.6,5.7-14.9,7.5c-2,0.6-6-1.9-6.1-3.6s2.8-5.1,5-5.2C256.3,150.5,261.5,151.3,266.9,152z
		"/>
	<path class="st3" d="M272,160.1c-1.3,5.5-2.7,10.8-5.3,15.7c-0.9,1.8-5.2,2.7-6.6,1.6s-2-5.3-0.6-6.8
		C263.3,166.7,267.5,163.2,272,160.1z"/>
	<path class="st3" d="M285.9,139.1c1.2-5,2.8-9.9,4.8-14.6c1-2.3,4.7-3.7,6.9-2.8s2.3,5.6,0.7,7.2c-3.7,3.9-7.8,7.4-12.2,10.5
		L285.9,139.1z"/>
	<path class="st3" d="M284.1,149.7c0,2.8-2.3,5.1-5.1,5.1c-2.8,0-5.1-2.3-5.1-5.2c-0.1-2.6,1.9-4.9,4.6-5c0.2,0,0.4,0,0.6,0
		c2.7-0.1,4.9,2.1,5,4.8C284.1,149.5,284.1,149.6,284.1,149.7z"/>
	<path class="st3" d="M286.1,139.4c-0.1,0.1-0.3,0.3-0.4,0s0.1-0.2,0.2-0.3L286.1,139.4z"/>
</g>
<g>
	<path class="st1" d="M158.5,161.9c-1.1,17-15.8,30-32.8,28.9c-15.7-1-28.1-13.6-28.9-29.3c0.1-17.1,14-30.7,31.4-30.7
		S158.6,144.9,158.5,161.9z M127.7,134.9c-14.4-0.3-27.3,11.9-26.9,27.6c0.4,14.9,12.7,26.6,27.6,26.2c14.9-0.4,26.6-12.7,26.2-27.6
		C154.2,146.5,142.3,134.9,127.7,134.9z"/>
	<path class="st3" d="M127.7,134.9c14.8,0.1,26.7,12.1,26.7,26.9c-0.1,14.8-12.1,26.7-26.9,26.7c-14.4-0.1-26.2-11.6-26.7-26
		C100.4,146.8,113.3,134.6,127.7,134.9z M151.5,161.8c0-13.1-10.7-23.8-23.8-23.8c-13.1,0-23.8,10.7-23.8,23.8
		c0,13.1,10.7,23.8,23.8,23.8C140.8,185.5,151.4,174.9,151.5,161.8L151.5,161.8z"/>
	<path class="st2" d="M151.5,161.8c-0.1,13.1-10.9,23.7-24,23.6s-23.7-10.9-23.6-24c0.1-13.1,10.7-23.6,23.8-23.6
		C140.9,137.9,151.6,148.6,151.5,161.8C151.5,161.8,151.5,161.8,151.5,161.8z M108.8,154.8c-1.9,0-1.9,0-2.2,1
		c-0.2,0.5-0.3,1.1-0.3,1.6c0.1,0.6,1.1,0.2,1.5,0.8c-1.8,0.3-1.7,0.3-2,1.8s0.2,1,0.9,1h2.2c0.5,0,0.7,0.3,0.7,0.8
		s-0.4,0.5-0.7,0.5h-2.4c-0.3,0-0.6,0-0.7,0.5s0.4,2.2,1.8,2.3c0.1,0.1,0.1,0.1,0.1,0.2c-0.2,0.6-1.8-0.1-1.3,1.3
		c0.1,0.7,0.3,1.4,0.6,2c0.4,0.6,1.1-0.5,1.8,0c0,0.3-0.3,0.5-0.6,0.5c-0.9,0.1-1,0.5-0.6,1.3s0.7,1.7,2.4,0.8l1.1-0.7
		c0.3-0.2,0.6-0.1,0.8,0.2c0,0,0.1,0.1,0.1,0.1c0.3,0.4,0.1,0.6-0.3,0.8c-0.5,0.3-1,0.6-1.5,0.9c-1,0.4-1,0.9-0.5,1.8
		c7,9.9,20.6,12.3,30.5,5.3c2.1-1.5,3.9-3.3,5.4-5.4c0.6-0.7,0.6-1.2-0.3-1.6l-1.8-1c-0.4-0.3-0.4-0.5-0.1-0.9s0.4-0.5,0.8-0.2
		l1.2,0.7c1.6,0.9,1.6,0.9,2.3-0.8s0.2-1.1-0.5-1.3s-0.7-0.2-0.5-0.6s1.5,1.1,1.9-0.3s0.3-1.3,0.4-1.9s-1.2-0.4-1.5-1.1
		s0.7-0.1,1-0.1s0.8-1.1,1-1.7s0-1.2-0.9-1.1h-1.8c-0.5,0-1,0.1-1-0.7s0.6-0.6,1.1-0.6h1.1c1.6,0,1.6,0,1.5-1.6s-0.4-1.3-1.3-1.1
		s-0.5,0.2-0.7-0.3s1.8,0,1.5-1.3c-0.1-0.7-0.3-1.3-0.6-1.9c-0.5-0.7-1.2,0.5-1.7,0s1.3-0.4,1.2-1.1c-0.1-0.8-0.4-1.5-0.9-2.1
		c-0.4-0.4-0.9,0.3-1.3,0.5c-0.5,0.2-0.9,0.5-1.3,0.8c-0.5,0.2-0.8,0.2-1.1-0.3s0-0.7,0.3-0.9l2-1.1c0.3-0.2,0.7-0.3,0.4-0.7
		c-0.3-0.6-0.7-1.2-1.2-1.7c-0.5-0.4-0.8,0.4-1.2,0.5s-0.4,0.2-0.5-0.1s1.5-0.7,0.7-1.7c-0.5-0.6-1.1-1.1-1.7-1.6
		c-0.6-0.3-0.7,1.1-1.4,0.9s-0.1-0.4,0.1-0.6s0.4-1.1-0.3-1.6s-1.3-1-2.1,0.4l-0.7,1.2c-0.2,0.5-0.5,0.7-1,0.4s-0.4-0.7-0.1-1.1
		l1.1-1.9c0.2-0.3,0.3-0.6-0.1-0.8c-0.6-0.3-1.2-0.6-1.9-0.8c-0.7,0-0.5,0.9-0.8,1.2h-0.4c-0.5-0.6,1.1-1.5-0.4-1.9
		c-0.7-0.2-1.3-0.3-2-0.4c-0.8-0.1-0.2,1.2-1,1.4c-0.2-1.7-0.5-1.9-1.9-2s-0.9,0.2-0.9,0.8c0.1,0.8,0.1,1.5,0,2.3
		c0,0.5-0.2,0.7-0.7,0.7s-0.5-0.3-0.5-0.7V141c0-0.6,0.1-1.5-1-1.2s-2.2-0.5-1.8,1.3c0.1,0.2,0.2,0.5-0.2,0.6s-0.3-0.3-0.3-0.5
		s-0.4-1.1-1.3-0.9s-1.8,0.4-1.6,2.2l-0.2,0.2c-0.2,0-0.4-0.3-0.4-0.5c-0.2-1-0.7-1-1.5-0.6s-1.5,0.6-0.7,2c0.1,0.3,0.3,0.7,0.5,1
		c0.2,0.4,0.8,0.8,0,1.3s-0.9-0.3-1.1-0.7c-0.4-0.5-0.7-1-1-1.6c-0.2-0.3-0.3-0.6-0.7-0.4c-0.6,0.4-1.2,0.9-1.7,1.4
		c-0.3,0.4,0.6,0.8,0.6,1.3v0.2h-0.3c-0.8-1.1-1.4-0.6-2.1,0.2s-1.4,1.2-0.1,1.9s0.3,0.3,0.1,0.5s-0.4,0.1-0.5-0.1s-0.6-0.8-1.1-0.4
		c-0.6,0.4-1.1,1-1.3,1.7c-0.1,0.8,0.7,0.7,1.1,1.1l0.3,0.2c0.5,0.4,1.8,0.4,1.3,1.4s-1.4-0.1-1.9-0.4s-1.8-0.9-2.5,0.8
		s-0.3,1.1,0.5,1.3C108.5,154.4,108.7,154.5,108.8,154.8z"/>
	<path class="st3" d="M108.8,154.8c-0.1-0.3-0.4-0.5-0.7-0.5c-0.8-0.2-0.8-0.6-0.5-1.3s0.7-1.7,2.5-0.8s1.3,1.5,1.9,0.4
		s-0.8-1-1.3-1.4l-0.3-0.2c-0.4-0.4-1.2-0.3-1.1-1.1c0.2-0.7,0.7-1.3,1.3-1.7c0.5-0.4,0.7,0.2,1.1,0.4s0.3,0.3,0.5,0.1
		s0-0.4-0.1-0.5s-0.5-1.3,0.1-1.9s1.3-1.3,2.1-0.2h0.3V146c0-0.5-0.9-0.9-0.6-1.3c0.5-0.5,1.1-1,1.7-1.4c0.4-0.2,0.5,0.1,0.7,0.4
		c0.3,0.6,0.6,1.1,1,1.6c0.2,0.4,0.3,1.2,1.1,0.7s0.2-0.9,0-1.3c-0.2-0.3-0.4-0.7-0.5-1c-0.8-1.4-0.8-1.4,0.7-2s1.3-0.4,1.5,0.6
		c0,0.2,0.2,0.5,0.4,0.5l0.2-0.2c-0.2-1.8-0.2-1.7,1.6-2.2s1.3-0.1,1.3,0.9s0,0.6,0.3,0.5s0.3-0.4,0.2-0.6c-0.4-1.8,1.1-1.1,1.8-1.3
		s1,0.6,1,1.2v1.8c0,0.4,0,0.7,0.5,0.7s0.7-0.2,0.7-0.7c0.1-0.8,0.1-1.5,0-2.3c0-0.6,0.3-0.8,0.9-0.8s1.7,0.3,1.9,2
		c0.8-0.2,0.2-1.5,1-1.4c0.7,0.1,1.3,0.2,2,0.4c1.5,0.4-0.1,1.3,0.4,1.9h0.4c0.3-0.3,0.1-1.2,0.8-1.2c0.7,0.2,1.3,0.5,1.9,0.8
		c0.4,0.2,0.3,0.5,0.1,0.8l-1.1,1.9c-0.3,0.4-0.4,0.8,0.1,1.1s0.8,0.1,1-0.4l0.7-1.2c0.8-1.4,0.8-1.4,2.1-0.4s1.1,0.9,0.3,1.6
		s-0.3,0.3-0.1,0.6s0.8-1.2,1.4-0.9c0.6,0.5,1.2,1,1.7,1.6c0.8,1-0.8,1-0.7,1.7s0.3,0.2,0.5,0.1s0.7-0.9,1.2-0.5
		c0.5,0.5,0.9,1.1,1.2,1.7c0.3,0.4-0.1,0.5-0.4,0.7l-2,1.1c-0.3,0.2-0.6,0.4-0.3,0.9s0.6,0.5,1.1,0.3c0.4-0.3,0.8-0.6,1.3-0.8
		c0.4-0.2,0.9-0.9,1.3-0.5c0.5,0.6,0.8,1.3,0.9,2.1c0.1,0.7-1,0.4-1.2,1.1s1.2-0.7,1.7,0c0.3,0.6,0.5,1.2,0.6,1.9
		c0.3,1.3-0.9,1-1.5,1.3s0.5,0.4,0.7,0.3s1.2,0.3,1.3,1.1s0.1,1.6-1.5,1.6h-1.1c-0.5,0-1-0.1-1.1,0.6s0.5,0.7,1,0.7h1.8
		c0.9-0.1,1,0.4,0.9,1.1s0.3,1.7-1,1.7s-0.7-0.2-1,0.1s1.6,0.1,1.5,1.1s-0.3,1.2-0.4,1.9s-1.3-0.1-1.9,0.3s0.2,0.5,0.5,0.6
		s0.9,0.5,0.5,1.3s-0.7,1.7-2.3,0.8l-1.2-0.7c-0.4-0.3-0.6-0.1-0.8,0.2s-0.3,0.6,0.1,0.9l1.8,1c0.9,0.4,0.9,0.9,0.3,1.6
		c-6.9,9.9-20.5,12.4-30.5,5.5c-2.1-1.5-3.9-3.3-5.4-5.4c-0.5-0.9-0.5-1.4,0.5-1.8c0.5-0.3,1-0.6,1.5-0.9c0.4-0.2,0.6-0.4,0.3-0.8
		c-0.1-0.3-0.5-0.5-0.8-0.4c0,0-0.1,0-0.1,0.1l-1.1,0.7c-1.7,0.9-1.6,0.9-2.4-0.8s-0.3-1.2,0.6-1.3c0.3,0,0.6-0.2,0.6-0.5
		c-0.7-0.5-1.4,0.6-1.8,0c-0.3-0.6-0.5-1.3-0.6-2c-0.5-1.4,1.1-0.7,1.3-1.3c0-0.1,0-0.1-0.1-0.2c-1.4-0.1-2-0.8-1.8-2.3
		s0.4-0.5,0.7-0.5h2.4c0.3,0,0.6,0,0.7-0.5s-0.2-0.8-0.7-0.8h-2.2c-0.7,0-1-0.2-0.9-1s0.2-1.5,2-1.8c-0.4-0.6-1.4-0.2-1.5-0.8
		c0-0.5,0.1-1.1,0.3-1.6C106.9,154.8,106.9,154.8,108.8,154.8z M141.9,153.3c-0.9-0.2-1.8-0.1-2.6,0.3l-7.3,3.8
		c-0.5,0.2-1,0.2-1.5,0c-3.9-2.3-8,0.1-8,4.7c0.1,0.5-0.3,1-0.8,1.1l-4.3,1.5c-0.5,0.2-0.7,0.4-0.5,1c0.6,1.2,1.2,2.3,2,3.3
		c0.4,0.6,0.8,0.5,1.3,0.1s2.2-1.9,3.3-2.9c0.4-0.4,0.9-0.5,1.4-0.2c3.9,2.2,7.9-0.2,7.9-4.6c-0.1-0.6,0.2-1.1,0.7-1.4
		c2.4-1.5,4.7-3.1,7-4.7C141.2,154.9,141.8,154.1,141.9,153.3z M138.3,176.2v-1.4c0-1.3-0.8-1.3-1.8-1.3s-1.7,0.2-1.7,1.4
		c0,0.9,0,1.9,0,2.8c0,0.5,0.3,1,0.7,1.2c1.6,0.7,2.8-0.1,2.8-1.9V176.2z M129.4,176.3L129.4,176.3v-1c0-1.6-0.2-1.7-1.8-1.8
		s-1.7,0.5-1.7,1.7c0,0.9,0,1.7,0.1,2.6c0,0.5,0.3,0.9,0.7,1.1c1.9,0.5,2.7-0.1,2.7-2V176.3z M121.5,176.2L121.5,176.2v0.6
		c-0.2,2.3,0.5,2.5,2.5,2s0.7-2.5,0.9-3.7c0.2-0.6-0.1-1.3-0.7-1.5c-0.1,0-0.2-0.1-0.3-0.1c-2-0.2-2.4,0.1-2.4,2.1V176.2z
		 M133.8,176.2v-1.5c0-1.1-0.7-1.2-1.5-1.2s-1.8-0.2-1.9,1.1c0,1,0,1.9,0,2.9c0,1.1,0.4,1.5,1.5,1.5s1.9-0.1,1.9-1.9V176.2z
		 M117.1,176.2v1.5c-0.1,1.3,0.8,1.3,1.7,1.3s1.7-0.1,1.6-1.3V175c0.1-1.1-0.3-1.5-1.4-1.5s-1.9,0.1-1.9,1.9L117.1,176.2z"/>
	<path class="st4" d="M141.9,153.3c-0.1,0.8-0.7,1.6-1.4,2c-2.3,1.6-4.6,3.2-7,4.7c-0.5,0.3-0.8,0.8-0.7,1.4c0,4.4-4,6.8-7.9,4.6
		c-0.5-0.3-1-0.2-1.4,0.2c-1.1,1-2.3,1.9-3.3,2.9s-0.9,0.5-1.3-0.1c-0.8-1-1.4-2.1-2-3.3c-0.2-0.6,0-0.8,0.5-1l4.3-1.5
		c0.5-0.1,0.9-0.6,0.8-1.1c0-4.6,4.1-7,8-4.7c0.5,0.2,1,0.2,1.5,0l7.3-3.8C140.1,153.2,141,153.1,141.9,153.3z M127.7,164.8
		c1.7-0.1,3.1-1.5,3-3.2c0,0,0,0,0,0c0.1-1.6-1.2-2.9-2.8-3c-0.1,0-0.1,0-0.2,0c-1.7,0-3.1,1.4-3.1,3.1
		C124.6,163.4,126,164.8,127.7,164.8C127.7,164.8,127.7,164.8,127.7,164.8z"/>
	<path class="st2" d="M138.3,176.2v0.8c0,1.8-1.2,2.6-2.8,1.9c-0.4-0.2-0.7-0.7-0.7-1.2c0-0.9,0-1.9,0-2.8c0-1.2,0.7-1.4,1.7-1.4
		s1.8,0,1.8,1.3V176.2z M135.6,176.2v0.8c0,0.6-0.1,1.2,1,1.2s0.8-0.7,0.9-1.3c0-0.6,0-1.3,0-1.9c0-0.7-0.5-0.7-1-0.7
		s-0.9,0.1-0.9,0.7V176.2z"/>
	<path class="st2" d="M129.4,176.3v0.6c0,1.9-0.8,2.5-2.7,2c-0.4-0.2-0.7-0.6-0.7-1.1c-0.1-0.9-0.1-1.7-0.1-2.6
		c0-1.2,0.5-1.8,1.7-1.7c1.2,0.1,1.8,0.2,1.8,1.8V176.3z M126.8,176.2v0.8c0,0.6-0.2,1.2,0.8,1.2c1,0,1.1-0.4,1-1.2v-1.9
		c0.1-0.8-0.4-0.8-0.9-0.8s-1,0.1-0.9,0.8L126.8,176.2z"/>
	<path class="st2" d="M121.5,176.2v-0.6c0-2,0.4-2.3,2.4-2.1c0.7,0.1,1.1,0.7,1.1,1.3c0,0.1,0,0.2-0.1,0.3c-0.2,1.2,1,3.2-0.9,3.7
		s-2.7,0.3-2.5-2V176.2L121.5,176.2z M122.3,176.2v1.3c-0.1,0.5,0.2,0.7,0.8,0.7s1,0.1,1.1-0.6v-2.8c-0.1-0.3-0.3-0.4-0.7-0.5
		S122.3,174.3,122.3,176.2z"/>
	<path class="st2" d="M133.8,176.2v0.9c0,1.8-0.1,1.8-1.9,1.9s-1.5-0.4-1.5-1.5c0-1,0-1.9,0-2.9c0.1-1.3,1-1.1,1.9-1.1
		s1.5,0.1,1.5,1.2V176.2z M133,176.3L133,176.3v-0.8c0-0.6,0.2-1.2-0.9-1.2s-0.9,0.5-0.9,1.2v2c0,0.7,0.4,0.7,0.8,0.7s1,0.1,1-0.6
		L133,176.3z"/>
	<path class="st2" d="M117.1,176.2v-0.8c0-1.8,0.1-1.9,1.9-1.9s1.5,0.4,1.4,1.5v2.7c0.1,1.2-0.7,1.3-1.6,1.3s-1.8,0-1.7-1.3
		L117.1,176.2z M119.6,176.2L119.6,176.2v-0.6c0-0.7,0.2-1.3-0.9-1.3s-0.8,0.7-0.9,1.3c0.1,0.6,0.1,1.2,0,1.8c0,0.6,0.3,0.8,0.9,0.8
		s1,0,0.9-0.8V176.2z"/>
	<path class="st3" d="M127.7,164.8c-1.7,0-3.1-1.4-3.1-3.1c0-1.7,1.4-3.1,3.1-3.1c0,0,0,0,0,0c1.6-0.1,2.9,1.2,3,2.8
		c0,0.1,0,0.1,0,0.2C130.8,163.3,129.4,164.7,127.7,164.8C127.7,164.8,127.7,164.8,127.7,164.8z"/>
	<path class="st3" d="M135.6,176.2V175c0-0.6,0.4-0.7,0.9-0.7s1,0,1,0.7c0,0.6,0,1.3,0,1.9c-0.1,0.6,0.1,1.3-0.9,1.3s-1-0.6-1-1.2
		V176.2z"/>
	<path class="st3" d="M126.8,176.2v-1.1c-0.1-0.7,0.3-0.8,0.9-0.8s1,0,0.9,0.8v1.9c0.1,0.8,0,1.2-1,1.2s-0.8-0.6-0.8-1.2V176.2z"/>
	<path class="st3" d="M122.3,176.2c0-1.9,0.1-2.1,1.2-1.9s0.6,0.2,0.7,0.5v2.8c-0.1,0.7-0.7,0.5-1.1,0.6s-0.9-0.2-0.8-0.7
		L122.3,176.2z"/>
	<path class="st3" d="M133,176.3v1.3c0,0.7-0.5,0.5-1,0.6s-0.8,0-0.8-0.7v-2c0-0.7-0.1-1.2,0.9-1.2s0.9,0.6,0.9,1.2L133,176.3
		L133,176.3z"/>
	<path class="st3" d="M119.6,176.2v1.2c0.1,0.8-0.4,0.8-0.9,0.8s-0.9-0.2-0.9-0.8c0.1-0.6,0.1-1.2,0-1.8c0.1-0.6-0.3-1.3,0.9-1.3
		s0.9,0.6,0.9,1.3V176.2z"/>
</g>
<g>
	<path class="st2" d="M303.1,60.1c-2.2,3.1-3.7,6.7-6.3,9.6s-4.3,3.1-7.7,1.2c-4-2.3-8.4-3.6-13-3.8c-4.4,0-8-3.7-7.9-8.1
		c0-0.2,0-0.3,0-0.5c0.2-5.5,0.6-11.1,0.9-16.6c0-2.8,2-5.3,4.8-5.8c4.5-1.1,9-0.5,13.5,0.2c6.5,1,12.7,2.8,18.7,5.5
		c3.2,1.4,4.4,4.1,3.2,7.5S305.1,56.5,303.1,60.1z"/>
	<path class="st2" d="M307,62.3c1.8-2.7,3.4-5.5,5.2-8.3c3.1-4.8,6.1-5.3,10.6-1.6c7.1,5.9,13,13.2,17.1,21.5
		c0.8,1.5,1.2,3.1,1.4,4.7c0.5,2.4-0.7,4.9-2.9,6l-14.2,8.1c-4.7,2.6-9.5,1.2-12-3.6s-5.4-6.9-9-9.5s-3.7-4.6-1.9-7.9
		s3.8-6.2,5.8-9.3L307,62.3z"/>
	<path class="st2" d="M334.7,100.5c-0.8-0.6-1.3-1.5-1.5-2.5c-0.3-1.8-2.4-3.4-1.6-4.9s2.8-1.8,4.3-2.6l2.4-1.4
		c2.2-1.3,2.2-1.3,3.5,1.1c3.5,6.5,2.1,9.4-5.1,10.6C336,100.9,335.3,100.8,334.7,100.5z"/>
	<path class="st2" d="M256.7,52.1c-2-1.1-2.6-8.7-0.7-9.7s5.6-1.4,8.5-1.1c0.7,0.1,0.7,0.7,0.7,1.3c-0.2,2.8-0.4,5.6-0.5,8.5
		c0,0.5-0.1,0.9-0.8,1l-6.2,0.3C257.3,52.4,257,52.3,256.7,52.1z"/>
</g>
<g>
	<path class="st2" d="M113.1,55.9c-2.2-0.4-2.3-0.6-2.3-2.8v-1.6c-0.1-0.9,0.5-1.7,1.4-1.8c0.1,0,0.2,0,0.3,0c1.6-0.1,2-0.6,1.3-2
		c-0.2-0.3-0.2-0.8,0.1-1.1c0.3-0.3,0.4-0.8,0.1-1.1c0,0,0,0-0.1-0.1c-0.4-0.3-0.4-0.9,0-1.3c0,0,0,0,0,0c0.3-0.2,0.4-0.6,0.2-0.9
		c-0.6-0.6-0.5-1.1,0-1.7c0.2-0.2,0.2-0.5,0-0.7c-0.5-0.6-0.6-1.1,0-1.7s0-0.7-0.1-1.1c-0.4-0.7-0.2-1.6,0.5-2.1
		c0.3-0.2,0.6-0.3,0.9-0.2h15.9c0.8-0.1,1.6,0.4,1.7,1.2c0.1,0.4,0,0.7-0.2,1.1c-0.2,0.4-0.4,0.7-0.1,1.1c0.5,0.5,0.5,1.2,0,1.7
		c0,0,0,0,0,0c-0.3,0.4-0.1,0.7,0.1,1c0.4,0.3,0.4,0.8,0.2,1.1c0,0,0,0.1-0.1,0.1c-0.4,0.3-0.4,0.8-0.2,1.1c0,0,0,0.1,0.1,0.1
		c0.4,0.3,0.4,0.8,0.2,1.1c-0.1,0.1-0.1,0.1-0.2,0.2c-0.3,0.4-0.4,0.7,0,1.1s0.3,0.8,0.1,1.3s-0.1,1.7,1,1.8s2.1,0.4,2.1,2.4v2
		c0,0.5-0.2,1.3-0.7,1.3c-2.3,0.1-0.9,1.9-1.3,2.8s0.4,0.4,0.7,0.4h1.3c2.2,0,3,1,2.4,3.2s-1,0.8-1.7,0.8h-26.6
		c-1.6,0-1.6-0.1-1.7-2.3s0.5-1.9,1.8-1.7h0.6c0.9-0.1,2.6,0.8,1.9-1.5C112.6,56.8,113,56.3,113.1,55.9z"/>
	<path class="st1" d="M123.4,64.5h7.7c2.1,0.1,2.8,0.9,2.4,3.1s-0.1,3.6-1.5,5s-0.2,0.8,0.1,1.2c0.6,0.5,0.7,1.4,0.1,2
		c-0.1,0.1-0.2,0.2-0.2,0.2c-0.8,0.7-0.8,1.2-0.2,1.9c0.4,0.6,0.4,1.4-0.1,1.9c-0.9,0.6-0.8,1.2-0.3,2.1s-0.7,1.6-0.9,2.4
		s1.1,1.7,0.2,2.6s-0.6,1-0.2,1.8s-0.3,2.4-0.9,3.4s-0.5,0.4-0.5,0.6c0,2-1.5,1.5-2.6,1.5h-7.1c-0.9,0-1.6,0.1-1.6-1.2
		s-0.9-1.3-1.3-2s0.4-2.6,0.1-3.4s-1.2-1.8-0.3-3c0.1-0.3,0-0.5-0.2-0.7l-0.4-0.3c-1.2-1.1,0.6-2.2,0.1-3.1s-1.6-1.6-0.6-2.8
		c0.4-0.3,0.4-0.9,0-1.3c0,0-0.1-0.1-0.1-0.1c-0.8-0.5-1-1.6-0.5-2.4c0.1-0.1,0.1-0.2,0.2-0.2c0.5-0.6,0.2-1.1-0.2-1.6
		s-1.3-4.1-1.3-6.1s1.3-1.4,2.3-1.4h7.8L123.4,64.5z M123.6,66.9h-6.9c-1,0-1.2,0.3-1,1.2c0.1,1.2,0.4,2.3,1.1,3.3
		c0.9,1,0.4,2.1,0.3,3.3s1.1,2,0.6,3.3c-0.1,0.4-0.1,0.8,0,1.2c0.4,2,0.7,3.9,0.9,5.9s-0.2,1,0.2,1.5c0.4,0.7,0.5,1.6,0.1,2.3
		c-0.4,1.1,0.1,2.3,1.1,2.7c0.2,0.1,0.5,0.2,0.8,0.2c1.8,0.1,3.5,0.1,5.3,0c1.1,0,2-0.9,2-2c0-0.3-0.1-0.5-0.2-0.8
		c-0.4-0.8-0.3-1.8,0.2-2.6c0.3-0.3,0.4-0.7,0.2-1.1c-0.4-0.8-0.4-1.7,0.2-2.4c0.3-0.3,0.4-0.7,0.2-1.1c-0.4-0.9-0.2-1.9,0.4-2.6
		c0.3-0.4,0.1-0.7,0.1-1.1c-0.2-2.2,0.4-4.4,0.7-6.5v-0.2c1.1-0.9,1-2.2,1.3-3.4s-0.1-1.1-1-1.1L123.6,66.9z"/>
	<path class="st4" d="M123.5,95.9h3.3c0.4,0,1.1-0.3,1.2,0.4c0.1,0.7,0.2,1-0.3,1.5c-0.8,0.7-0.9,2-0.2,2.8c0.1,0.1,0.1,0.1,0.2,0.2
		c0.7,1,0.5,2.4-0.5,3.1c-0.1,0-0.1,0.1-0.2,0.1c-2.2,1.2-4.9,1.2-7.1,0.1c-1.1-0.6-1.5-2-0.9-3.1c0-0.1,0.1-0.1,0.1-0.2
		c0.8-0.8,0.8-2.1,0-3c0,0,0,0,0,0c-0.3-0.4-0.4-1-0.3-1.5c0.2-0.7,0.8-0.4,1.3-0.4L123.5,95.9z"/>
	<path class="st4" d="M123.3,33.2h-6.4c-0.8,0-0.9-0.2-0.7-0.9c0.7-2.8,2.2-4.1,5.1-4.5c1.4-0.2,2.9-0.2,4.3,0
		c2.4,0.1,4.4,1.8,5,4.1c0.2,1,0.2,1.4-1,1.3H123.3z"/>
	<path class="st3" d="M123.6,66.9h6.6c0.9,0,1.2,0.2,1,1.1s-0.2,2.5-1.3,3.4v0.2c-0.3,2.1-0.9,4.3-0.7,6.5c0,0.4,0.2,0.7-0.1,1.1
		c-0.6,0.7-0.8,1.7-0.4,2.6c0.2,0.4,0.1,0.8-0.2,1.1c-0.6,0.7-0.6,1.6-0.2,2.4c0.2,0.4,0.1,0.8-0.2,1.1c-0.5,0.8-0.6,1.8-0.2,2.6
		c0.4,1,0,2.2-1,2.6c-0.2,0.1-0.5,0.2-0.8,0.2c-1.8,0.1-3.5,0.1-5.3,0c-1.2,0-2.1-1-2.1-2.1c0-0.3,0.1-0.5,0.2-0.8
		c0.4-0.7,0.3-1.6-0.1-2.3c-0.4-0.5-0.2-1-0.2-1.5s-0.5-3.9-0.9-5.9c-0.1-0.4-0.1-0.8,0-1.2c0.5-1.3-0.7-2.3-0.6-3.3
		s0.6-2.3-0.3-3.3c-0.7-1-1-2.1-1.1-3.3c-0.2-0.9,0-1.2,1-1.2L123.6,66.9z"/>
</g>
<g>
	<path class="st1" d="M191.7,110.4h-21c-2.3,0.1-3.7-0.7-3.8-3.2s0.6-4,3.5-4.3c0.6,0,1.2-0.2,1.8-0.4c3.4-2.2,7.2-3.7,11.2-4.4
		c2.7-0.6,2.2-2.4,2-4s-2-1-3.1-0.8s-4.9,1.4-6.9,3.2s-2.9,1-4.1-0.4s-1-2.7,0.1-4c1.2-1.4,2.8-2.4,4.5-3c2.6-1,5.2-1.8,7.8-2.6
		s1.7-0.7,1.8-2c0.2-3.3,0-3.5-3.2-2.6s-4.7,1.4-6.7,3.2c-1.2,1.1-3,1.1-4.1-0.1c0,0-0.1-0.1-0.1-0.1c-1.4-1.5-1.1-3,0.2-4.5
		c1.7-1.6,3.7-2.8,5.9-3.4c2-0.7,4-1.2,6-1.8s2.7-3.5,1.7-4.9s-0.9-0.4-1.4-0.2c-2.8,0.8-5.7,1.3-8,3.4s-3.1,1.3-4.4-0.1
		s-1.1-3.1,0.3-4.4c3.2-3.2,7.6-4,11.7-5.2c0.9-0.3,1.9-0.3,2.1-1.7c0.4-3.5-0.1-4-3.5-2.9s-4.4,1.2-6.2,2.8c-1,1.2-2.9,1.4-4.1,0.4
		c-0.2-0.2-0.4-0.4-0.5-0.6c-1.4-1.7-0.7-3.3,0.8-4.6s6.6-3.4,10.2-4.5l1.9-0.5c1.1-0.2,1.4-1,1.3-2s-1-1.2-1.8-1.2h-13
		c-3.1,0-3.4-0.4-3.5-3.8s0.8-3.8,3.5-3.6c1,0.1,2-0.1,3,0s3.4,0,3.3-2.6s1.3-2.2,2.8-2.2h24c1.9,0,3.1,0.7,3.1,2.6s0.9,2.4,2.5,2.2
		c0.9-0.1,1.9-0.1,2.8,0c4.2,0,5.3,1.6,4.3,5.7c-0.1,0.7-0.5,1.2-1.1,1.5c-5.1,2-9.7,5.4-15.4,6.1c-2.9,0.3-1.8,2.8-1.6,4.3
		s1.9,0.7,2.7,0.4c2.4-0.7,5-1,7-2.9c1.2-1.1,3-1.1,4.1,0.1c0,0,0.1,0.1,0.1,0.1c1.4,1.5,1.1,3.1-0.2,4.5c-1.1,1.1-2.4,1.9-3.9,2.4
		c-2.7,1-5.4,1.9-8.2,2.5c-1.1,0.2-1.7,0.5-1.8,1.9c-0.2,3.5-0.1,3.6,3.4,2.7c2.3-0.4,4.5-1.4,6.5-2.7c1.1-1.1,3-1.1,4.1,0
		c0.1,0.1,0.2,0.2,0.3,0.4c1.2,1.6,0.8,3.1-0.6,4.4s-4.6,2.7-7.2,3.5s-3.2,0.8-4.8,1.2s-1.6,0.6-1.7,1.8c-0.3,3.5,0,3.9,3.4,2.9
		c2.3-0.5,4.6-1.5,6.6-2.8c1-1.1,2.7-1.2,3.8-0.2c0.1,0.1,0.3,0.3,0.4,0.4c1.2,1.5,1,3.1-0.4,4.5c-1,1.1-2.3,1.9-3.7,2.3
		c-2.4,0.8-4.8,1.9-7.4,2.2s-2.8,1.9-2.7,4s0.4,1.7,1.7,1.4s5.8-1.2,8.1-3.1s3.2-1.2,4.4,0.3s0.9,3-0.4,4.4c-1.4,1.2-3,2.1-4.8,2.6
		l-7.1,2.1c-0.8,0.3-1.8,0.2-1.7,1.4s1.1,1,1.9,1h12.1c4,0.1,4.2,0.4,4.2,4.3s-1.1,3.2-3.3,3.2C206,110.3,198.8,110.4,191.7,110.4
		L191.7,110.4z"/>
	<path class="st2" d="M200,124.4c0.7,3.4,2.5,5.9,4.1,8.6c3.7,6,3.5,12.5-0.6,18c-3.7,4.5-9.6,6.4-15.3,5.1
		c-5.7-1.5-10.1-6.2-11.1-12c-0.8-4.6,0.7-8.4,3-12.2l2.9-5.3c0.8-1.5,0.8-2.4-1.3-2.2h-4.9c-2.4,0.1-3.4-1-3.4-3.3
		c0-6.7-0.5-5.4,5-5.4h29.2c2.1,0,2.7,0.5,2.6,2.6c0,6.2,0.1,6.3-6.2,6.2L200,124.4z M191.7,135.9c-3.1-0.1-5.6,2.4-5.7,5.5
		c0,0.1,0,0.1,0,0.2c0,3.2,2.6,5.8,5.9,5.8s5.8-2.6,5.8-5.9c0.1-3-2.3-5.6-5.4-5.6C192,135.9,191.9,135.9,191.7,135.9z"/>
	<path class="st2" d="M191.8,32.9h-5.5c-0.6,0-1.3-0.1-1.9-0.2c-3.9-2.2-1.9-5.9-2.2-9s1.4-3.4,3.5-3.4c4.1-0.1,8.3-0.2,12.4,0
		s3.6,1.9,3.3,8.6c-0.1,2.8-1.2,3.9-3.8,4H191.8z"/>
</g>
</svg>
