<?xml version="1.0" encoding="utf-8"?>
<!-- Generator: Adobe Illustrator 22.1.0, SVG Export Plug-In . SVG Version: 6.00 Build 0)  -->
<svg version="1.1" id="Layer_1" xmlns="http://www.w3.org/2000/svg" xmlns:xlink="http://www.w3.org/1999/xlink" x="0px" y="0px"
	 viewBox="0 0 382.4 218.9" style="enable-background:new 0 0 382.4 218.9;" xml:space="preserve">
<style type="text/css">
	.st0{fill:url(#SVGID_1_);}
	.st1{fill:#F5F4F7;}
	.st2{fill:#969799;}
	.st3{fill:#545454;}
	.st4{fill:#D62336;}
</style>
<title>icon</title>
<radialGradient id="SVGID_1_" cx="191.2" cy="-924.9473" r="186.8951" gradientTransform="matrix(1 0 0 -0.58 0 -426.8)" gradientUnits="userSpaceOnUse">
	<stop  offset="0" style="stop-color:#FFFFFF"/>
	<stop  offset="1" style="stop-color:#CFCFCF"/>
</radialGradient>
<rect class="st0" width="382.4" height="218.9"/>
<g>
	<path class="st1" d="M294.5,120.4c-0.3-3.8-1-7.5-3.5-10.4h-0.1c-0.5-0.8-1.2-1.5-2-2.1c-3.6-2.8-2.5-6.7-2.1-10.4l0.3-2.9
		c0.9-10.6,1.8-21.2,2.8-31.8s2-21.8,3.1-32.7c0.2-2.5-0.4-3.3-3.1-3.2c-13.8,0.3-27.7,0.2-41.6,0.5c-22.3,0.4-44.6,0-66.9,1.2
		c-11,0.4-21.6,4.6-30,11.8c-4.4,3.9-8.4,8.2-11.8,13c-11.2,15.7-22.3,31.6-33.4,47.5c-2.9,3.9-5.3,8.2-7.1,12.7
		c-3.8,10.4-4.3,21-3.2,31.8c1.3,13.3,4.3,26.4,8.7,39c2.3,7,7.6,10.3,14.9,10.8s11.9,0,17.9,0.1h123.2c9.9-0.2,16.8-4.9,20.4-14.1
		c4.7-12,7.7-24.5,10.9-37C294,136.3,295.3,128.5,294.5,120.4z M283.9,49.5L221,95.4c-2.5,1.8-2.5,1.8-3.3-1.2
		c-2.6-9.9-7.2-18.6-15.6-24.8c-4-2.8-8.7-4.6-13.6-5.1c8.1-3.8,15.1-2.3,22.1,4.4c4.7,4.5,8.1,10.2,10.1,16.4
		c0.6,2.1,0.9,2.8,3.1,1.3c18.6-13.1,37.4-26,56-39.1c3-2.1,6.2-1.5,10.1-2.7C287.8,47.1,285.7,48.2,283.9,49.5z M284.9,41
		l-59.5,41.4c-2,1.4-2.7,1.4-3.7-1.1c-4.1-9.5-10.3-17.1-20.3-21.1c-3.2-1.3-6.7-1.4-10.1-2.5c8.1-2.7,15.7-2.8,22.6,2.6
		c4.2,3.4,7.5,7.7,9.6,12.6c1.1,2.4,1.9,2.2,3.8,1l50.8-32.5c2.8-1.8,5.8-2.2,9.3-2.9C286.9,39.6,286,40.5,284.9,41z M280.9,36.1
		c-17.6,11.6-35.3,23-52.8,34.6c-1.9,1.2-2.7,1.1-3.7-0.9c-5.9-11.6-15.4-17.1-28.3-16.7H194v-0.6l88.8-18.4
		C282.4,35.6,281.5,35.7,280.9,36.1z M234.7,104.9c-1.9-0.2-3.8,0.1-5.7,0l-0.5,0.2h-47.4l-6.9-0.2c0-0.3-0.1-0.6-0.5-0.6
		c-3,0.3-6,0.5-9,0.6c-0.2,0-0.4,0.1-0.4,0.3h-30l-0.4-0.2c-0.8-0.1-1.6-0.1-2.4,0c-0.8,0.1-1.8,0.4-2.5,0c-0.3-0.1-0.6,0-0.8,0.2
		h-9.9c-0.5-0.5-0.4-0.8-0.2-1.1c10.3-16,20.5-32.1,30.9-48c5.7-8.5,12.8-15.5,22.9-18.7c5.8-1.8,11.8-2.8,17.9-2.8l79.8-0.7
		l0.8,0.3c-6.3,1.2-12.5,3.5-19,3.6c-19.4,0.3-38.8,0.4-58.2,0.6c-4.4,0-8.8,0.3-13.2,1c-10.7,1.5-18.9,6.9-25.3,15.4
		s-13.2,20.7-19.6,31.1l0.4,0.4c6.9-6.3,14.3-11.8,22.9-15.3c7.7-3.3,16.1-4.9,24.5-4.7c12,0.4,20.9,6,26.8,16.5
		c3.1,5.4,4.9,11.4,6.3,17.5c0.2,0.8,0.4,1.5,0.6,2.3l65.9-49.4c-0.6,5.4-1.1,10.3-1.6,15.1c-1.1,10.9-2.3,21.8-3.4,32.7
		c-0.3,0.5-0.4,1.1-0.3,1.7c0,1-0.6,1.9-1.5,2.3h-40.6L234.7,104.9z M272.8,131.4c-9.2,4.9-18.7,5-27.8,0.1c-6-3.2-5.8-8.7,0.1-12.1
		c4-2.3,8.4-3.1,12.9-3.4l5.3,0.6h0.2c3.1,0.3,6.1,1.3,8.8,2.8c0.8,0.5,1.6,1.1,2.4,1.7c0.6,1.1,1,2.2,1.4,3.4
		c0.2,0.8,0.3,1.5,0.3,2.3C276.3,129.1,274.5,130.5,272.8,131.4z"/>
	<path class="st2" d="M190.4,199.4h-67.5c-5.3,0-10.5-0.6-15-3.8c-3.3-2.3-5.7-5.7-7-9.5c-5.4-16.4-9.5-33-9.5-50.3
		c-0.3-13.9,4.1-27.5,12.5-38.6c10.8-14.8,21-30,31.6-44.9c6.5-9,14-17.1,24.2-22.2c7.1-3.3,14.8-5.3,22.6-5.7
		c12.8-0.9,25.7-0.3,38.6-0.7c16.1-0.4,32.2-0.2,48.3-0.5c8.6-0.2,17.3-0.2,25.9-0.5c2.3,0,2.5,0.7,2.3,2.8
		c-1.2,12.4-2.3,24.8-3.4,37.1l-3.6,38.4c0,1-0.3,2,0.5,2.8c7.6,6.9,8.7,15.9,7.7,25.3c-2.1,18.3-7.6,35.9-13.8,53.2
		c-4.3,11.8-13.5,17-25.8,17L190.4,199.4L190.4,199.4z M289.2,108.1c-4-2.8-2.9-6.8-2.4-10.7l0.3-2.9c0.9-10.6,1.8-21.2,2.8-31.8
		s2-21.8,3.1-32.7c0.2-2.5-0.4-3.3-3.1-3.2c-13.8,0.3-27.7,0.2-41.6,0.5c-22.3,0.4-44.6,0-66.9,1.2c-11,0.4-21.6,4.6-30,11.8
		c-4.4,3.9-8.4,8.2-11.8,13c-11.2,15.8-22.3,31.7-33.4,47.6c-2.9,3.9-5.3,8.2-7.1,12.7c-3.8,10.4-4.3,21-3.2,31.8
		c1.3,13.3,4.3,26.4,8.7,39c2.3,7,7.6,10.3,14.9,10.8s11.9,0,17.9,0.1h123.2c9.9-0.2,16.8-4.9,20.4-14.1c4.7-12,7.7-24.5,10.9-37
		c2.1-7.8,3.4-15.6,2.6-23.7c-0.3-4.3-1.2-8.6-4.8-11.7L289.2,108.1z"/>
	<path class="st3" d="M277.4,101.1c-0.5,1.4,0.4,3.3-1.6,3.9H118.3c-0.5-0.5-0.4-0.8-0.2-1.1c10.3-16,20.5-32.1,30.9-48
		c5.7-8.5,12.8-15.5,22.9-18.7c5.8-1.8,11.8-2.8,17.9-2.8l79.8-0.7l0.8,0.3c-6.3,1.2-12.5,3.5-19,3.6c-19.4,0.3-38.8,0.4-58.2,0.6
		c-4.4,0.1-8.8,0.5-13.2,1.2c-10.7,1.5-18.9,6.9-25.3,15.4s-13.2,20.7-19.6,31.1l-0.4,0.6l-0.2,0.6c0.4,0.2,0.4-0.1,0.5-0.3l0.5-0.5
		c6.9-6.3,14.3-11.8,22.9-15.3c7.7-3.3,16.1-4.9,24.5-4.7c12,0.4,20.9,6,26.8,16.5c3.1,5.4,4.9,11.4,6.3,17.5
		c0.2,0.8,0.4,1.5,0.6,2.3l65.9-49.4c-0.6,5.4-1.1,10.3-1.6,15.1C279.8,79.2,278.6,90.2,277.4,101.1z"/>
	<path class="st4" d="M193.9,52.5l88.8-18.4c-0.3,1.5-1.2,1.6-1.8,2c-17.6,11.6-35.3,23-52.8,34.6c-1.9,1.2-2.7,1.1-3.7-0.9
		c-5.9-11.6-15.4-17.1-28.3-16.7H194L193.9,52.5z"/>
	<path class="st3" d="M188.5,64.3c8.1-3.8,15.1-2.3,22.1,4.4c4.7,4.5,8.1,10.2,10.1,16.4c0.6,2.1,0.9,2.8,3.1,1.3
		c18.6-13.1,37.4-26,56-39.1c3-2.1,6.2-1.5,10.1-2.7c-2.1,2.5-4.2,3.6-6,4.9L221,95.4c-2.5,1.8-2.5,1.8-3.3-1.2
		c-2.6-9.9-7.2-18.6-15.6-24.8C198.1,66.6,193.4,64.8,188.5,64.3z"/>
	<path class="st2" d="M191.3,57.7c8.1-2.7,15.7-2.8,22.6,2.6c4.2,3.4,7.5,7.7,9.6,12.6c1.1,2.4,1.9,2.2,3.8,1l50.8-32.5
		c2.8-1.8,5.8-2.2,9.3-2.9c-0.5,1.1-1.4,2-2.5,2.5l-59.5,41.4c-2,1.4-2.7,1.4-3.7-1.1c-4.1-9.5-10.3-17.1-20.3-21.1
		C198.2,58.9,194.7,58.8,191.3,57.7z"/>
	<path class="st1" d="M135,86.8c-0.1,0.2-0.1,0.5-0.5,0.3l0.2-0.6L135,86.8z"/>
	<path class="st1" d="M134.7,86.5l0.4-0.6l0.4,0.4l-0.5,0.5L134.7,86.5z"/>
	<path class="st1" d="M264.4,122.6c-1.7,0.3-3.5,0.4-5.2,0.5c-1-0.2-2-0.2-3,0c-1.9-0.1-3.7-0.2-5.6-0.1c-2.4,0.1-3.1,1.3-2.6,3.7
		s1.8,1.6,3.1,1.6h15.2c1.5,0,2.7-0.3,3.3-1.8C269.1,123,267.7,121.8,264.4,122.6z"/>
</g>
</svg>
