<?xml version="1.0" encoding="utf-8"?>
<!-- Generator: Adobe Illustrator 22.1.0, SVG Export Plug-In . SVG Version: 6.00 Build 0)  -->
<svg version="1.1" id="Layer_1" xmlns="http://www.w3.org/2000/svg" xmlns:xlink="http://www.w3.org/1999/xlink" x="0px" y="0px"
	 viewBox="0 0 382.4 218.9" style="enable-background:new 0 0 382.4 218.9;" xml:space="preserve">
<style type="text/css">
	.st0{fill:url(#SVGID_1_);}
	.st1{fill:#9B9B9B;}
	.st2{fill:#FFFFFF;}
	.st3{fill:#BB1920;}
	.st4{fill:none;}
	.st5{fill:#6E6F72;}
</style>
<title>icon</title>
<g id="Layer_1_1_">
	
		<radialGradient id="SVGID_1_" cx="191.2" cy="-924.9473" r="186.8951" gradientTransform="matrix(1 0 0 -0.58 0 -426.8)" gradientUnits="userSpaceOnUse">
		<stop  offset="0" style="stop-color:#FFFFFF"/>
		<stop  offset="1" style="stop-color:#CFCFCF"/>
	</radialGradient>
	<rect class="st0" width="382.4" height="218.9"/>
	<g>
		<path class="st1" d="M183.3,38.4h75.5c6.6,0,12,5.4,12,12v114c0,6.6-5.4,12-12,12h-75.5c-6.6,0-12-5.4-12-12v-114
			C171.3,43.8,176.7,38.4,183.3,38.4z"/>
		<path class="st2" d="M184.6,46.3h72.8c3.6,0,6.6,3,6.6,6.6V162c0,3.6-3,6.6-6.6,6.6h-72.8c-3.6,0-6.6-3-6.6-6.6V52.9
			C178,49.3,181,46.3,184.6,46.3z"/>
		<g>
			<g>
				<polygon class="st3" points="198.5,100.5 193,110 187.7,106.9 186.5,108.9 191.9,112 191.9,112 193.9,113.2 200.5,101.7 				"/>
				<path class="st1" d="M194.1,118.7c-6.7,0.6-12.6-4.3-13.3-11c-0.6-6.7,4.3-12.6,11-13.3c0.7-0.1,1.5-0.1,2.2,0
					c6.7,0.6,11.7,6.5,11,13.3C204.6,113.5,200,118.2,194.1,118.7z M194.1,96.4c-5.6-0.1-10.2,4.5-10.3,10.1
					c-0.1,5.6,4.5,10.2,10.1,10.3c5.6,0.1,10.2-4.5,10.3-10.1c0-0.1,0-0.1,0-0.2C204.1,100.9,199.7,96.5,194.1,96.4z"/>
			</g>
			<g>
				<g>
					<polygon class="st3" points="198.5,66.2 193,75.8 187.7,72.6 186.5,74.6 191.9,77.7 191.9,77.7 193.9,78.9 200.5,67.4 					"/>
					<path class="st1" d="M194.1,84.4c-6.7,0.1-12.2-5.4-12.3-12.1c-0.1-6.7,5.4-12.2,12.1-12.3c6.7-0.1,12.2,5.4,12.3,12.1
						c0,0.1,0,0.1,0,0.2C206.1,79,200.8,84.3,194.1,84.4z M194.1,62.1c-5.6-0.6-10.6,3.5-11.2,9.1s3.5,10.6,9.1,11.2
						c0.7,0.1,1.3,0.1,2,0c5.6-0.6,9.7-5.6,9.1-11.2C202.8,66.4,198.9,62.6,194.1,62.1z"/>
				</g>
				<path class="st1" d="M212.4,70.3h45.3c0.6,0,1.1,0.5,1.1,1.1v0c0,0.6-0.5,1.1-1.1,1.1h-45.3c-0.6,0-1.1-0.5-1.1-1.1v0
					C211.3,70.8,211.8,70.3,212.4,70.3z"/>
				<path class="st1" d="M212.4,104.6h45.3c0.6,0,1.1,0.5,1.1,1.1v0c0,0.6-0.5,1.1-1.1,1.1h-45.3c-0.6,0-1.1-0.5-1.1-1.1v0
					C211.3,105.1,211.8,104.6,212.4,104.6z"/>
				<g>
					<polygon class="st3" points="198.5,134.8 193,144.3 187.7,141.2 186.5,143.2 191.9,146.3 191.9,146.3 193.9,147.4 200.5,135.9 
											"/>
					<path class="st1" d="M194.1,153c-6.7,0.1-12.2-5.4-12.3-12.1c-0.1-6.7,5.4-12.2,12.1-12.3c6.7-0.1,12.2,5.4,12.3,12.1
						c0,0,0,0.1,0,0.1C206.2,147.5,200.8,152.9,194.1,153z M194.1,130.6c-5.6-0.1-10.2,4.5-10.3,10.1c-0.1,5.6,4.5,10.2,10.1,10.3
						c5.6,0.1,10.2-4.5,10.3-10.1c0,0,0-0.1,0-0.1C204.2,135.2,199.7,130.7,194.1,130.6z"/>
				</g>
				<path class="st1" d="M212.4,138.9h45.3c0.6,0,1.1,0.5,1.1,1.1v0c0,0.6-0.5,1.1-1.1,1.1h-45.3c-0.6,0-1.1-0.5-1.1-1.1v0
					C211.3,139.4,211.8,138.9,212.4,138.9z"/>
			</g>
		</g>
		<path class="st1" d="M221,24.5L221,24.5c-5.1-0.5-9.6,3.1-10.1,8.2c-0.5,5.1,3.1,9.6,8.2,10.1c0.6,0.1,1.3,0.1,1.9,0l0,0
			c5.1,0.5,9.6-3.1,10.1-8.2c0.5-5.1-3.1-9.6-8.2-10.1C222.3,24.4,221.6,24.4,221,24.5z M221,37.3c-2,0-3.7-1.7-3.7-3.7
			s1.7-3.7,3.7-3.7s3.7,1.7,3.7,3.7c0,0,0,0.1,0,0.1C224.6,35.7,223,37.3,221,37.3z"/>
	</g>
</g>
<g id="Layer_2_1_">
	<g>
		<path class="st4" d="M136.7,117.9h-1.2l-7.9-0.6c-0.6-0.1-1.4-0.5-1.6,0.2s0.6,1.1,1.2,1.4c2.5,1.4,5.3,1.3,8.1,1.6h1.2
			c0.6-0.1,1.6,0.4,1.6-0.4C138.3,119.1,137.7,118.1,136.7,117.9z"/>
		<path class="st4" d="M149,122.8c-4.6-0.7-6.7-2.7-7.7-7.3l8.5,0.5c2.6,0.1,3-0.4,2.4-2.9c-1-5-4.7-7.6-8.9-9.5
			c-1.6-0.8-3.3-1.4-5.1-1.8c-1.4-0.2-2.5-1.2-2.7-2.6c-0.5-2-0.8-4.2-3.4-4.7c-0.2,0-0.7-0.2-0.5-0.5c0.4-0.8,0.9-1.5,1.5-2.2
			c0.5-1,1.1-0.8,1.9-0.3c0.9,0.4,1.9,0.6,2.9,0.5c11.1,0.3,22.2,0.1,33.4-0.1v-18c-7.8,0-15.6,0.3-23.4,0.9
			c-8.9,0.6-10.5,1.9-13.4,10.4c-0.1,0.3-0.3,0.5-0.3,0.8c-0.1,2.9-1.4,5.7-3.7,7.6c-0.7,0.6-0.6,1.3,0.3,1.5c2.5,0.7,2.6,2.7,3,4.7
			s-0.1,1.3-1.1,1.4c-2.3,0-4.6,0.4-6.8,1.1c-1.1,0.3-2,1.1-2.5,2.1c-0.7,1.9-1,3.9-1.1,5.9c-0.2,1.5,0.9,2.9,2.4,3.1
			c3.7,0.7,7.4,1.2,11.2,1.5c1.8,0.1,2.9,0.7,3.4,2.5c1.8,5.5,5.9,7.6,11.4,8.1c7,0.5,13.9,0.8,20.6,0.8v-2.2
			C163.8,124.2,156.4,123.7,149,122.8z"/>
		<path class="st5" d="M137.9,92c-1,0.1-2-0.1-2.9-0.5c-0.8-0.5-1.4-0.7-1.9,0.3c-0.6,0.7-1.1,1.4-1.5,2.2c-0.2,0.3,0.3,0.5,0.5,0.5
			c2.6,0.5,2.9,2.7,3.4,4.7c0.2,1.4,1.3,2.4,2.7,2.6c1.8,0.4,3.5,1,5.1,1.8c4.2,1.9,7.9,4.5,8.9,9.5c0.6,2.5,0.2,3-2.4,2.9l-8.5-0.5
			c1,4.6,3.1,6.6,7.7,7.3c7.4,0.9,14.8,1.4,22.3,1.3V91.9C171.3,91.9,149,92.3,137.9,92z"/>
		<path class="st5" d="M150.7,125.5c-5.5-0.5-9.6-2.6-11.4-8.1c-0.5-1.8-1.6-2.4-3.4-2.5c-3.8-0.3-7.5-0.8-11.2-1.5
			c-1.5-0.2-2.6-1.6-2.4-3.1c0.1-2,0.4-4,1.1-5.9c0.5-1,1.4-1.8,2.5-2.1c2.2-0.7,4.5-1.1,6.8-1.1c1-0.1,1.3-0.3,1.1-1.4
			s-0.5-4-3-4.7c-0.9-0.2-1-0.9-0.3-1.5c2.3-1.9,3.6-4.7,3.7-7.6c0-0.3,0.2-0.5,0.3-0.8c2.9-8.5,4.5-9.8,13.4-10.4
			s15.6-0.9,23.4-0.9V69c-3.2,0-6.4,0.1-9.5,0.3c-6.1,0.2-12.3,1-18.2,2.6c-3.6,1-6.6,2.8-8.2,6.4c-0.8,1.7-1.9,3.2-2.8,4.9
			l-5.1,9.5c-0.4-3-2.4-2.4-4.2-2.1l-3.5,0.4c-4,0.7-4.3,1.1-4.7,5.1c-0.1,1.6,0.4,2.3,2,2.3h6.8c0,0.6-0.3,1.1-0.8,1.4
			c-3.9,3.4-5.9,8.5-5.5,13.6c0.1,2.5-0.2,5-1.1,7.4c-0.8,2.2-1.1,4.5-1.1,6.8c0,3.2,0.5,6.3,0.2,9.6c-0.6,6.5-0.2,13.2-0.2,19.8
			c0,2.7,1.2,4,3.9,4h10.6c2.5,0,3.7-1.2,3.8-3.7s0.1-4.5,0-6.7s0.3-2,1.9-2l35.7-0.2v-22.1C164.6,126.3,157.7,126,150.7,125.5z
			 M138.1,120c0,0.8-1,0.3-1.6,0.4h-1.2c-2.8-0.3-5.6-0.2-8.1-1.6c-0.6-0.3-1.5-0.7-1.2-1.4s1-0.3,1.6-0.2l7.9,0.6h1.2
			C137.7,118,138.3,119,138.1,120z"/>
	</g>
</g>
</svg>
