<?xml version="1.0" encoding="utf-8"?>
<!-- Generator: Adobe Illustrator 22.1.0, SVG Export Plug-In . SVG Version: 6.00 Build 0)  -->
<svg version="1.1" id="Layer_1" xmlns="http://www.w3.org/2000/svg" xmlns:xlink="http://www.w3.org/1999/xlink" x="0px" y="0px"
	 viewBox="0 0 382.4 218.9" style="enable-background:new 0 0 382.4 218.9;" xml:space="preserve">
<style type="text/css">
	.st0{fill:url(#SVGID_1_);}
	.st1{fill:#B22229;}
	.st2{fill:#929397;}
	.st3{fill:#FDFDFD;}
	.st4{fill:#6E6F72;}
</style>
<title>icon</title>
<radialGradient id="SVGID_1_" cx="191.2" cy="110.565" r="155.7778" gradientTransform="matrix(1 0 0 -1 0 220)" gradientUnits="userSpaceOnUse">
	<stop  offset="0" style="stop-color:#FFFFFF"/>
	<stop  offset="1" style="stop-color:#CFCFCF"/>
</radialGradient>
<rect class="st0" width="382.4" height="218.9"/>
<g>
	<path class="st1" d="M187.2,68.8c10.7,0,21.4,0.1,32.1-0.1c3.8-0.2,7.4,1.5,9.7,4.5c2.3,2.9,4.8,5.6,7.5,8c2.6,2.2,5.9,3.4,9.3,3.4
		c5-0.1,10-0.5,15,0.3s6.7,3.1,6.8,7.6c0.1,15.6,0.1,31.2-0.1,46.8c0,6.4-4,10.3-10.4,9.9c-8.1-0.7-16,2.5-21.2,8.7
		c-1.7,1.8-3.6,3.4-5.4,5.1c-2.8,2.7-6.7,4.2-10.6,4.2c-13.5,0-27.1,0.1-40.6,0c-6.1,0-11.8-3.1-15-8.2c-3.1-4.6-6.5-9-9.8-13.4
		c-2.3-3.4-6.2-5.3-10.3-5c-5.3,0.2-10.7,0.1-16-0.1s-8.7-3-9.7-8.3c-0.4-2-0.5-4.1-0.5-6.1V95.4c0-7.7,2-12.8,11.3-12.7
		c2.2,0,4.2-0.9,5.8-2.4c2.2-1.9,4.3-3.8,6.3-5.8c3.9-3.9,9.2-6,14.7-5.8C166.5,69,176.8,68.8,187.2,68.8z M163.2,83.7
		c-8.5-0.1-15.5,5.3-17.2,12.9c-2,7.8,2,15.9,9.4,19.2c2.3,1.1,4.5,2.6,6.4,4.3c5.6,4.8,11.3,9.6,16.8,14.6s12.9,10.6,18.1,17.4
		s17.4,10.2,27,6.4c9.2-3.8,15-13,14.7-22.9c-0.2-10.1-6.9-19-16.6-21.9c-3.4-1-6.6-2.4-9.6-4.2c-6-3.3-12.1-6.4-18-9.8
		s-15.6-7.5-22.2-13.2C169.5,84.4,166.4,83.4,163.2,83.7z"/>
	<path class="st2" d="M192.3,34.4h26.6c4.2,0,5.5,1.3,5.6,5.5v7.2c-0.1,4.2-1.5,5.7-5.8,5.7c-10.5,0.1-20.9,0-31.4,0h-21.5
		c-4,0-5.4-1.4-5.5-5.3v-8.2c0.1-3.5,1.5-4.9,5.1-4.9L192.3,34.4z"/>
	<path class="st2" d="M102.9,125.9c0-3.3-0.1-6.6,0.1-9.9c0.2-4-0.9-8-3.1-11.3c-1.4-2.1-2-4.6-1.9-7.1c0.2-4,0.1-7.9,0-11.9
		s1.3-3.8,3.7-4s2.3,0,3.4,0c2.8,0,4.1,1.3,4.1,4.2c-0.1,7.1,0.1,14.1-0.1,21.2c-0.2,4.8,1,9.5,3.3,13.7c3.5,6.4,2.2,13.3,1.6,20
		c-0.4,3.9-4.3,2.9-7,2.9s-4.1-1.3-4.1-4.1C103,135,102.9,130.5,102.9,125.9z"/>
	<path class="st2" d="M292.2,116.2v22.5c0,3.5-1.4,5.2-4.4,5.2s-4.5-1.6-4.5-5c-0.1-15.4-0.1-30.8,0-46.2c0-3.4,1.5-5,4.5-5
		s4.4,1.7,4.4,5.3V116.2z"/>
	<path class="st2" d="M192.7,57.6c6.1,0,12.2,0.1,18.4,0c2.6-0.1,2.5,1.3,2.5,3.2s0.2,3.2-2.5,3.2c-12.5-0.1-25-0.1-37.5,0
		c-2.5,0-2.4-1.3-2.4-3s-0.5-3.5,2.4-3.4C179.9,57.7,186.3,57.6,192.7,57.6z"/>
	<path class="st2" d="M279.1,115.5c0,4.9-1.9,6.3-6.2,5.1c-0.8-0.2-1.3-0.9-1.2-1.7v-3.1c0-4.8,1.3-5.9,6-4.7
		C280.8,111.9,278.1,114.5,279.1,115.5z"/>
	<path class="st3" d="M163.2,83.7c3.2-0.3,6.3,0.7,8.8,2.8c6.6,5.7,14.8,8.9,22.2,13.2s12,6.5,18,9.8c3,1.8,6.2,3.2,9.6,4.2
		c9.7,2.9,16.4,11.8,16.6,21.9c0.3,9.9-5.5,19.1-14.7,22.9c-9.6,3.8-20.9,1.7-27-6.4s-12-11.8-18.1-17.4s-11.2-9.8-16.8-14.6
		c-1.9-1.7-4.1-3.2-6.4-4.3c-7.4-3.3-11.4-11.4-9.4-19.2C147.7,89,154.7,83.6,163.2,83.7z M209.1,112.8l-29.7-16.2
		c0.9,10.9-3.7,17.7-14,20.9l25.2,21.8C190.3,125.7,196.5,117.2,209.1,112.8z M214.4,129.5c-3.8-0.4-7.2,2.3-7.6,6.1
		c-0.4,3.8,2.3,7.2,6.1,7.6c0.6,0.1,1.1,0.1,1.7,0c3.8,0.4,7.2-2.3,7.6-6.1c0.4-3.8-2.3-7.2-6.1-7.6
		C215.5,129.4,214.9,129.4,214.4,129.5z M162.6,106.3c3.2-0.1,5.8-2.6,5.9-5.8c-0.1-3.2-2.7-5.8-5.9-5.8c-3.2-0.1-5.8,2.5-5.9,5.7
		c0,0,0,0.1,0,0.1c-0.1,3.1,2.3,5.7,5.4,5.8C162.3,106.3,162.4,106.3,162.6,106.3z"/>
	<path class="st1" d="M209.1,112.8c-12.6,4.4-18.8,12.9-18.5,26.5l-25.2-21.8c10.3-3.2,14.9-10,14-20.9L209.1,112.8z"/>
	<path class="st4" d="M214.4,129.5c3.8-0.5,7.2,2.2,7.7,6c0.5,3.8-2.2,7.2-6,7.7c-0.5,0.1-1.1,0.1-1.7,0c-3.8,0.5-7.2-2.2-7.7-6
		c-0.5-3.8,2.2-7.2,6-7.7C213.3,129.4,213.8,129.4,214.4,129.5z"/>
	<path class="st4" d="M162.6,106.3c-3.1,0.2-5.7-2.2-5.9-5.3c0-0.2,0-0.3,0-0.5c0-3.2,2.6-5.8,5.8-5.8c0,0,0.1,0,0.1,0
		c3.2,0,5.8,2.6,5.9,5.8C168.4,103.7,165.8,106.2,162.6,106.3z"/>
</g>
</svg>
