<?xml version="1.0" encoding="utf-8"?>
<!-- Generator: Adobe Illustrator 22.1.0, SVG Export Plug-In . SVG Version: 6.00 Build 0)  -->
<svg version="1.1" id="Layer_1" xmlns="http://www.w3.org/2000/svg" xmlns:xlink="http://www.w3.org/1999/xlink" x="0px" y="0px"
	 viewBox="0 0 382.4 218.9" style="enable-background:new 0 0 382.4 218.9;" xml:space="preserve">
<style type="text/css">
	.st0{fill:url(#SVGID_1_);}
	.st1{fill:#FDFDFD;}
	.st2{fill:#B22229;}
	.st3{fill:#929397;}
	.st4{fill:#6E6F72;}
	.st5{fill:#C6C7C8;}
</style>
<title>icon</title>
<radialGradient id="SVGID_1_" cx="191.2" cy="-924.9473" r="186.8951" gradientTransform="matrix(1 0 0 -0.58 0 -426.8)" gradientUnits="userSpaceOnUse">
	<stop  offset="0" style="stop-color:#FFFFFF"/>
	<stop  offset="1" style="stop-color:#CFCFCF"/>
</radialGradient>
<rect class="st0" width="382.4" height="218.9"/>
<g>
	<path class="st1" d="M274.5,173.5c3,0.1,6-0.2,9-0.7c30.3-5.4,48.9-33.7,40.9-62.1c-4.1-14.4-13.3-25-27.4-31.5
		c-3.3-1.6-5-0.8-6.1,2.6s-2.3,7-3.3,10.5s-0.5,4.7,2.6,6.6c13,7.9,18.3,23.1,12.5,36.1c-9.2,20.8-37.7,24.5-52.3,6.7
		c-2.7-3.3-4.8-3.7-8.7-1.7l-7.9,3.9c-4,2-4.7,4.5-2.1,8C242.2,166,256.5,173.1,274.5,173.5z M215.3,122.9c-0.4,1.7,0.1,3.3,0.1,5
		c0.1,1.7,0.3,3.3,0.6,5c0.6,3.5,4,5.9,7.5,5.3c0.2,0,0.4-0.1,0.7-0.2c5.4-1.2,10.6-3,15.7-5.2c1.8-0.7,3.1-2.3,3.5-4.2
		c0.4-1.6,0.6-3.2,0.6-4.9c0.5-12.2,6.5-21,17.8-26.4c4.4-2.1,9.1-2.4,13.8-2.8s5-1.6,5.8-5s2.1-9.5,3.1-14.2s-0.6-6.7-5.1-7.8
		c-3.7-0.7-7.4-0.7-11.1,0c-4,0.7-7.6,0.7-10.4-2.7c-0.8-0.8-1.7-1.4-2.7-2c-1.4-1-3.2-1.1-4.7-0.4c-2.8,1.1-5.4,2.5-8.2,3.6
		c-5,2-7.5,5.4-6.8,10.7c0.5,2.8-0.6,5.6-2.9,7.2c-1.4,0.9-2.6,2.1-3.4,3.5c-2.7,5.1-7.3,6.3-12.8,6.1c-1.6-0.2-3.1,0.8-3.6,2.3
		c-1,2.3-1.8,4.7-3,6.9c-2.8,5.5-2.3,10.1,3.1,14C215,118,215.9,120.5,215.3,122.9z M274.3,146.6c13.3,0,23.9-10.1,23.9-22.7
		s-10.6-22.7-23.8-22.7c-12.8-0.3-23.3,9.8-23.6,22.6c0,0.1,0,0.2,0,0.3C250.9,136.5,261.4,146.6,274.3,146.6z"/>
	<path class="st2" d="M274.5,173.5c-18-0.4-32.3-7.5-42.8-21.6c-2.6-3.5-1.9-6,2.1-8l7.9-3.9c3.9-2,6-1.6,8.7,1.7
		c14.6,17.8,43.1,14.1,52.3-6.7c5.8-13,0.5-28.2-12.5-36.1c-3.1-1.9-3.7-3.2-2.6-6.6s2.2-7,3.3-10.5s2.8-4.2,6.1-2.6
		c14.1,6.5,23.3,17.1,27.4,31.5c8,28.4-10.6,56.7-40.9,62.1C280.5,173.3,277.5,173.6,274.5,173.5z"/>
	<path class="st3" d="M215.3,122.9c0.6-2.4-0.3-4.9-2.4-6.2c-5.4-3.9-5.9-8.5-3.1-14c1.2-2.2,2-4.6,3-6.9c0.5-1.5,2-2.5,3.6-2.3
		c5.5,0.2,10.1-1,12.8-6.1c0.8-1.4,2-2.6,3.4-3.5c2.3-1.6,3.4-4.4,2.9-7.2c-0.7-5.3,1.8-8.7,6.8-10.7c2.8-1.1,5.4-2.5,8.2-3.6
		c1.5-0.7,3.3-0.6,4.7,0.4c1,0.6,1.9,1.2,2.7,2c2.8,3.4,6.4,3.4,10.4,2.7c3.7-0.7,7.4-0.7,11.1,0c4.5,1.1,6,3.5,5.1,7.8
		s-2.1,9.5-3.1,14.2s-2.2,4.7-5.8,5s-9.4,0.7-13.8,2.8c-11.3,5.4-17.3,14.2-17.8,26.4c0,1.7-0.2,3.3-0.6,4.9
		c-0.4,1.9-1.7,3.5-3.5,4.2c-5.1,2.2-10.3,4-15.7,5.2c-3.4,1-7.1-1-8-4.4c-0.1-0.2-0.1-0.4-0.2-0.7c-0.3-1.7-0.5-3.3-0.6-5
		C215.4,126.2,214.9,124.6,215.3,122.9z M235.5,120.4c0.1-3-2.2-5.5-5.2-5.6c-0.1,0-0.2,0-0.3,0c-3.2-0.1-5.8,2.3-6,5.5
		c0,2.8,2.9,5.6,5.8,5.6C232.9,125.9,235.3,123.4,235.5,120.4z M267.6,86.8c3.1,0.1,5.7-2.3,5.8-5.4c0,0,0,0,0,0
		c-0.2-3.1-2.9-5.6-6-5.5c-3,0-5.5,2.5-5.5,5.5c0,0,0,0.1,0,0.1C261.9,84.6,264.3,86.8,267.6,86.8z"/>
	<path class="st4" d="M274.3,146.6c-12.9,0-23.4-10.1-23.5-22.5c0.1-12.8,10.5-23,23.3-22.9c0.1,0,0.2,0,0.3,0
		c13.2,0,23.8,10.2,23.8,22.7S287.6,146.6,274.3,146.6z M274.4,129.8c3.3,0.1,6.1-2.6,6.2-5.9c-0.1-3.3-2.8-5.9-6.1-6
		c-3.3-0.1-6.1,2.6-6.2,5.9c0,3.3,2.7,6,6,6C274.3,129.8,274.4,129.8,274.4,129.8z M285.9,135.7c0.2-1.6-0.9-3.2-2.6-3.4
		c-0.1,0-0.3,0-0.4,0c-1.7-0.1-3.2,1.2-3.3,2.9c0,0.1,0,0.1,0,0.2c-0.1,1.6,1.2,2.9,2.8,3c0.1,0,0.3,0,0.4,0
		c1.5,0.2,2.9-0.9,3.1-2.5C285.9,135.8,285.9,135.8,285.9,135.7z M285.3,119.4c0,1.8,1.4,3.2,3.1,3.2c1.8,0,3.2-1.4,3.3-3.1l0,0
		c0-1.8-1.4-3.2-3.1-3.2C286.8,116.2,285.3,117.6,285.3,119.4z M263,120.5c-0.2-1.9-1-3.1-3-3.2s-3.5,1.2-3.4,3
		c-0.1,1.7,1.2,3,2.9,3.1c0.1,0,0.1,0,0.2,0C261.4,123.5,262.8,122.2,263,120.5z M277.7,109.8c0-1.7-1.3-3-3-3c0,0-0.1,0-0.1,0
		c-1.9,0-3.2,0.9-3.2,2.8c-0.2,1.6,1,3,2.6,3.2c0.2,0,0.3,0,0.5,0C276.5,112.8,277.4,111.6,277.7,109.8z M268.3,135.2
		c0-1.8-1.4-3.2-3.2-3.2l0,0c-1.8,0-3.2,1.4-3.2,3.2c0,0,0,0,0,0c0,1.8,1.4,3.2,3.2,3.2C266.9,138.4,268.3,137,268.3,135.2
		L268.3,135.2z"/>
	<path class="st1" d="M267.6,86.8c-3.3,0-5.7-2.2-5.7-5.3c-0.1-3,2.4-5.5,5.4-5.6c0,0,0.1,0,0.1,0c3.1-0.1,5.8,2.4,6,5.5
		C273.3,84.5,270.7,86.9,267.6,86.8C267.6,86.8,267.6,86.8,267.6,86.8z"/>
	<path class="st1" d="M274.4,129.8c-3.3,0.1-6-2.6-6.1-5.9c0,0,0-0.1,0-0.1c0.1-3.3,2.9-6,6.2-5.9c3.3,0.1,6,2.7,6.1,6
		C280.5,127.2,277.7,129.9,274.4,129.8z"/>
	<path class="st1" d="M285.9,135.7c0,1.5-1.3,2.8-2.9,2.7c-0.1,0-0.1,0-0.2,0c-1.6,0.2-3-1-3.2-2.6c0-0.1,0-0.3,0-0.4
		c0-1.7,1.4-3.1,3.1-3.1c0.1,0,0.1,0,0.2,0c1.7,0,3,1.3,3,3C285.9,135.4,285.9,135.6,285.9,135.7z"/>
	<path class="st1" d="M285.3,119.4c0-1.8,1.5-3.2,3.3-3.1c1.8,0,3.2,1.5,3.1,3.2s-1.5,3.2-3.3,3.1
		C286.7,122.6,285.3,121.2,285.3,119.4z"/>
	<path class="st1" d="M263,120.5c-0.2,1.7-1.6,3-3.3,2.9c-1.7,0.1-3-1.2-3.1-2.9c0-0.1,0-0.1,0-0.2c-0.1-1.8,1.4-3.1,3.4-3
		S262.8,118.6,263,120.5z"/>
	<path class="st1" d="M277.7,109.8c-0.3,1.8-1.2,3-3.2,3c-1.6,0.1-3-1.1-3.1-2.7c0-0.2,0-0.4,0-0.5c0-1.9,1.3-2.8,3.2-2.8
		c1.7-0.1,3,1.2,3.1,2.9C277.7,109.7,277.7,109.8,277.7,109.8z"/>
	<path class="st1" d="M268.3,135.2c0,1.8-1.4,3.2-3.2,3.2c-1.8,0-3.2-1.4-3.2-3.2c0-1.8,1.4-3.2,3.2-3.2l0,0
		C266.9,132,268.3,133.4,268.3,135.2z"/>
</g>
<g>
	<path class="st4" d="M73,107.6c0.1-13.6,0.2-27.3,0.2-41c0-6,1-11.7,4.4-16.9s8-8.1,14.4-8.1c10.4,0.1,20.9,0.1,31.4,0
		s15.1,4,18.5,12.8c1.3,3.6,1.9,7.3,1.9,11.1c0,14,0.1,28,0.1,42.1c0,20.4,0,40.9-0.1,61.4c-0.1,7-2.3,13.3-7.3,18.4
		c-2.8,2.8-6.6,4.4-10.6,4.3c-11.5,0.1-23.1,0.1-34.7,0c-7.1,0-13.3-5.1-16.1-12.9c-1.3-3.7-2-7.5-2-11.4
		C73.1,147.5,73.1,127.5,73,107.6z M126.6,106.8c0-5.2,0-10.4-0.1-15.7c0-2,0.4-2.7,2.3-1.4c1.9,1.3,4.9,3.1,7.4,4.6
		c0.6,0.3,1.3,1.2,2,0.1s-0.3-5.7-1.7-6.8c-3.2-2.3-8.2-3.2-9.6-6.8s-0.3-7.9-0.3-11.9c0-1.1,0-2.2-0.1-3.3s0.4-2.7,2.4-1.4
		c2.9,2.1,5.9,3.9,9.1,5.4c1.2-4.4,0-7.4-4.1-9.1c-1.3-0.6-2.4-1.7-3.7-2.2c-3-1.3-3.9-3.4-3.8-6.6c0.1-1.3,1.8-4.3-1.5-4.2
		s-1.3,2.9-1.6,4.4s0.7,4-1.7,5.3s-6.1,3.7-9.1,5.6s-2.3,0.9-2.2-1.2c0.1-4,0-8,0-12c0-1.2,0.1-2.2-1.6-2.3s-1.8,0.9-1.8,2.2
		s0.1,4.9,0,7.3s1,5.5-0.5,6.3s-3.8-1.9-5.9-2.9c-0.4-0.3-0.9-0.6-1.4-0.9c-4.2-1.6-6.2-4.5-5.4-9.2c0.2-1.1,0.7-2.8-1.6-2.8
		s-1.8,1.8-1.6,2.9c0.7,4.4-0.9,7.4-5.1,9c-0.8,0.4-1.5,1.1-2.3,1.4c-4.2,1.6-4.9,4.8-3.7,9.1l11-6.6c0,3.5-0.4,6.5,0.1,9.3
		c1.4,7.3-1.6,11.7-8.2,14.3c-2.7,1-3.7,3-3.4,5.9s0.5,2.8,2.5,1.5s5.8-3.6,8.9-5.5v19c-2.8,0.7-4.9,2.6-7.2,4.1
		c-4.8,2.9-4.7,2.9-3.7,9.1l11-6.8c0,3.6-0.4,6.6,0.1,9.5c1,6.8-1.2,11.2-7.8,14c-4.3,1.8-4.6,3.7-3.1,8.7l10.8-6.6
		c0,3.4-0.3,6.3,0.1,9.2c1,6.7-1.1,11.2-7.6,14.2c-4.8,2.2-4.6,2.9-3.4,8.8l6.3-3.8c1.3-0.8,2.6-2.7,3.9-2s0.6,3,0.7,4.6
		c0.1,4.4,0,8.9,0,13.4c0,1.1,0.3,1.9,1.7,1.9s1.7-0.7,1.7-1.9s0-2.2,0-3.3V165c1.3,1,2.8,1.9,4.3,2.6c7.2,2.8,10.5,7.8,8.9,15.7
		c-0.2,1.1-0.3,2.5,1.6,2.6s2-1.4,1.7-2.6c-1.8-8.2,2-13.1,9.4-16c0.4-0.2,0.8-0.4,1.1-0.7c1.8-1.3,2.4-0.8,2.4,1.4
		c-0.1,4.7-0.1,9.4,0,14.1c0.1,1.3-1.2,3.8,1.7,3.7s1.6-2.3,1.6-3.6c0.1-4.8,0-9.6,0.1-14.4c0-0.7-0.5-1.7,0.6-2.4l10.3,6.2
		c1.8-5.2,1.5-5.9-2.8-8.5l-6.5-4.1c-0.7-0.4-1.6-0.8-1.6-1.9v-17.7c2.9,1.8,5.1,3.3,7.4,4.6s2.8,2.7,3.9,1.8s0.4-3.3,0.4-5
		s-1-1.6-1.8-2.2c-2.7-1.7-5.4-3.5-8.2-5.1c-1.2-0.7-1.9-1.9-1.8-3.3c0.1-4.6,0.1-9.1,0-13.7c0-1.9,0.3-2.5,2.2-1.3s6.2,3.8,9.3,5.7
		c1.1-4.4,0.5-7.5-3.8-9.3C131.5,110.4,129.1,108.4,126.6,106.8z"/>
	<path class="st3" d="M171.2,107.5c0.2-1.4,0.2-2.6-1.9-2.6s-2.5-2.4-2.6-4.2s1.7-1.9,3-1.9h11.7c1.3,0,2.8-0.2,2.6,1.9
		s0.7,4.2-2.3,4.2s-2.7,0.8-2.3,2.6s0.5,4.5,3.8,4.1s4.5,0,6.7-0.1s2.7,0.8,2.9,2.8c0.6,9.4,0.7,9.4-8.8,9.4h-22.7
		c-1.4,0-2.9,0.2-3.5-1.7s-1.3-1-2.2-1c-1.5-0.1-3.1-0.1-4.6,0c-3.2,0.5-4-0.9-3.9-3.9s0.6-3.1,2.9-2.9c1.7,0.1,3.3,0.2,5,0.1
		c1.3,0,2.6,0.2,3.1-1.6s1.6-1.1,2.6-1.1s4.5-0.2,6.7,0S171.9,110.7,171.2,107.5z"/>
	<path class="st3" d="M157,133h5.3c2.2,0,4.7,0.7,4.5-3c-0.1-1.3,1.4-1.6,2.5-1.7h12.1c1.6,0,2.6,0.8,2.6,2.7v10.6
		c0,2.1-1,2.8-2.9,2.7h-11.7c-1.7,0.1-2.9-0.5-2.8-2.4s-1-2.3-2.7-2.3c-4.7,0.1-9.3-0.1-14,0.1c-3.1,0.2-2.6-1.8-2.7-3.6
		s0.2-3.5,2.8-3.3S154.7,133,157,133z"/>
	<path class="st2" d="M179.8,49.9c2.1-0.2,3.7-1.4,5.3-2.5s4-0.9,4.9,0.7s0.1,3.2-1.8,4.1s-4.1,2.1-6.2,3.2s-3.3,1.2-2.3,2.9
		s2.3-0.2,3.4-0.7c0.8-0.3,1.6-0.8,2.3-1.3c1.6-1,3.1-1,4.2,0.5s0.4,3.3-1.1,4.3c-2.2,1.4-4.6,2.5-7,3.5c-1.5,0.6-2.6,1.5-1.9,2.9
		s1.9,0,2.8-0.3c1.1-0.5,2.2-1.1,3.2-1.9c1.6-0.9,3.1-0.9,4.1,0.7s0.4,3-1.1,4.1c-2.2,1.5-4.6,2.7-7.1,3.6c-1.1,0.5-2.6,1-1.8,2.6
		s2,0.2,3-0.2s1.9-1.1,2.9-1.6s3.1-0.9,4.1,0.7s0.4,2.9-1.1,4c-2.2,1.4-4.6,2.7-7.1,3.7c-1.3,0.5-2.3,1.1-2,2.9s1.9,1.3,2.9,1.3
		c3.3,0.1,6.5,0.1,9.7,0s3.3,1.6,3.3,3.9s-0.3,4.4-3.2,4.4h-33.4c-2.8,0-3.6-1.5-3.6-4.1s0.5-4.2,3.4-4.2s2.5,0.1,2.1-2.1
		s0.8-2.8,2.7-3s4.3-0.8,6.5-1.2s1.3-1.2,1.3-2.2s-1.2-1-2-0.9l-5.2,0.6c-1.8,0.2-3.2-0.4-3.4-2.4s1.3-2.8,3.1-3.1l5.6-0.9
		c1.5-0.2,2.2-1,1.9-2.5s-1.7-0.7-2.5-0.7s-2.9,0.4-4.3,0.6s-3.5-0.4-3.8-2.4s1.2-2.9,3-3.3l6-0.9c1.4-0.2,1.8-1,1.6-2.3
		s-1.4-0.9-2.3-0.9c-1.9,0.3-3.7,0.5-5.6,0.6c-1.3,0.2-2.5-0.7-2.7-2.1c0-0.2,0-0.4,0-0.6c0-1.6,0.8-2.4,2.4-2.7l6.2-1
		c1.5-0.3,2.3-0.8,2-2.4s-1.6-0.9-2.5-0.9s-3.3,0.5-5,0.6s-2.9-0.5-3.1-2.3s0.9-2.9,2.7-3.2s4-0.5,5.9-0.9s2.2-0.3,1.9-1.8
		s-1.3-0.9-2.1-0.9h-8.7c-3.1,0-3.5-2-3.5-4.5s0.6-4.4,3.6-4.5h30c1.9,0.1,3.5,0.9,3.4,2.9s1.2,4.7-2.1,5.9s-7,3.4-10.5,4.9
		C179.4,47.3,179.1,48.3,179.8,49.9z"/>
	<path class="st5" d="M126.6,106.8c2.5,1.6,4.9,3.6,7.6,4.8c4.3,1.8,4.9,4.9,3.8,9.3c-3.1-1.9-6.3-3.7-9.3-5.7s-2.2-0.6-2.2,1.3
		c0.1,4.6,0.1,9.1,0,13.7c-0.1,1.4,0.6,2.6,1.8,3.3c2.8,1.6,5.5,3.4,8.2,5.1c0.8,0.6,1.9,1,1.8,2.2s0.9,4-0.4,5s-2.6-1.1-3.9-1.8
		s-4.5-2.8-7.4-4.6v17.7c0,1.1,0.9,1.5,1.6,1.9l6.5,4.1c4.3,2.6,4.6,3.3,2.8,8.5l-10.3-6.2c-1.1,0.7-0.6,1.7-0.6,2.4
		c-0.1,4.8,0,9.6-0.1,14.4c0,1.3,1.1,3.6-1.6,3.6s-1.6-2.4-1.7-3.7c-0.1-4.7-0.1-9.4,0-14.1c0-2.2-0.6-2.7-2.4-1.4
		c-0.3,0.3-0.7,0.5-1.1,0.7c-7.4,2.9-11.2,7.8-9.4,16c0.3,1.2,0.3,2.6-1.7,2.6s-1.8-1.5-1.6-2.6c1.6-7.9-1.7-12.9-8.9-15.7
		c-1.5-0.7-3-1.6-4.3-2.6v15.7c0,1.1-0.1,2.2,0,3.3s-0.4,1.9-1.7,1.9s-1.7-0.8-1.7-1.9c0-4.5,0.1-9,0-13.4c-0.1-1.6,0.9-3.8-0.7-4.6
		s-2.6,1.2-3.9,2l-6.3,3.8c-1.2-5.9-1.4-6.6,3.4-8.8c6.5-3,8.6-7.5,7.6-14.2c-0.4-2.9-0.1-5.8-0.1-9.2l-10.8,6.6
		c-1.5-5-1.2-6.9,3.1-8.7c6.6-2.8,8.8-7.2,7.8-14c-0.5-2.9-0.1-5.9-0.1-9.5l-11,6.8c-1-6.2-1.1-6.2,3.7-9.1c2.3-1.5,4.4-3.4,7.2-4.1
		H94l13.1,7.4v-7.4h3.1c0.1,1.5,0.2,2.9,0.2,4.3s0.3,3.1,2.7,1.7s6.4-4.4,10-5.9C124.3,107.4,125.7,108.1,126.6,106.8z M93.8,114
		c0,2.7,0.3,4.8-0.1,6.8c-1.9,9.4,2.2,15,10.7,18.3l0.6,0.3c1.5,1.2,2,0.7,2-1.1V124c0.1-1.1-0.4-2.2-1.4-2.8L93.8,114z M93.8,149
		L93.8,149c0,2.3,0,4.7-0.1,7c-0.1,1.2,0.5,2.4,1.6,3l9.6,6c1.5,0.9,2.1,0.6,2.1-1.2v-14.4c0-1.1-0.5-2.1-1.5-2.6
		c-3.4-2.1-6.7-4.1-9.9-6.3c-1.6-1-1.9-0.3-1.9,1.2S93.8,146.5,93.8,149z M110.4,140.5l11.8-7.2c0.5-0.3,0.8-0.8,0.9-1.3v-17.9
		l-11.5,7.2c-0.9,0.5-1.3,1.5-1.2,2.5L110.4,140.5z M110.4,166.1l11.8-7.3c0.7-0.4,1.1-1.2,1-2v-17.3l-12,7.6
		c-0.6,0.6-0.9,1.5-0.8,2.4V166.1z"/>
	<path class="st1" d="M110.2,107.5h-3.1l-0.3-9c0-0.9,0.2-1.9-0.7-2.4c-3.9-2.6-7.9-5-12.1-7.6v19h-3.7v-19
		c-3.1,1.9-6.1,3.6-8.9,5.5s-2.3,0.8-2.5-1.5s0.7-4.9,3.4-5.9c6.6-2.6,9.6-7,8.2-14.3c-0.5-2.8-0.1-5.8-0.1-9.3l-11,6.6
		c-1.2-4.3-0.5-7.5,3.7-9.1c0.8-0.3,1.5-1,2.3-1.4c4.2-1.6,5.8-4.6,5.1-9c-0.2-1.1-0.7-2.8,1.6-2.9s1.8,1.7,1.6,2.8
		c-0.8,4.7,1.2,7.6,5.4,9.2c0.5,0.3,1,0.6,1.4,0.9c2.1,1,4.1,3.8,5.9,2.9s0.4-4.1,0.5-6.3s0-4.9,0-7.3s0.2-2.2,1.8-2.2
		s1.6,1.1,1.6,2.3c0,4,0.1,8,0,12c-0.1,2.1,0.5,2.3,2.2,1.2s6-3.9,9.1-5.6s1.2-3.5,1.7-5.3s-1.6-4.3,1.6-4.4s1.6,2.9,1.5,4.2
		c-0.1,3.2,0.8,5.3,3.8,6.6c1.3,0.5,2.4,1.6,3.7,2.2c4.1,1.7,5.3,4.7,4.1,9.1c-3.2-1.5-6.2-3.3-9.1-5.4c-2-1.3-2.5-0.7-2.4,1.4
		c0.1,2.1,0.1,2.2,0.1,3.3c0,4-1,8.5,0.3,11.9s6.4,4.5,9.6,6.8c1.4,1.1,2.5,5.5,1.7,6.8s-1.4,0.2-2-0.1c-2.5-1.5-5-3-7.4-4.6
		s-2.3-0.6-2.3,1.4c0.1,5.3,0.1,10.5,0.1,15.7c-0.9,1.3-2.3,0.6-3.5,0.8V88.7L111.2,96c-1.1,0.6-0.9,1.6-0.9,2.6
		C110.3,101.6,110.2,104.5,110.2,107.5z M106.9,89.6V72.3c0.1-0.9-0.5-1.8-1.3-2.1L95.7,64c-1.4-0.9-2-0.6-1.9,1.1v15
		c-0.1,0.9,0.3,1.7,1.1,2.2L106.9,89.6z M123.2,63.1c-2.8,1.9-5.7,3.6-8.7,5.2c-3.5,1.7-4.6,4.1-4.3,7.9s0.1,8.7,0.1,13.5
		c4.2-2.6,7.7-4.9,11.4-7c1.1-0.6,1.7-1.8,1.5-3V63.1z"/>
	<path class="st4" d="M93.8,114l11.8,7.2c1,0.6,1.5,1.7,1.4,2.8v14.3c0,1.8-0.5,2.3-2,1.1l-0.6-0.3c-8.5-3.3-12.6-8.9-10.7-18.3
		C94.1,118.8,93.8,116.7,93.8,114z"/>
	<path class="st4" d="M93.8,149c0-2.5,0-4.9-0.1-7.3s0.3-2.2,1.9-1.2c3.2,2.2,6.5,4.2,9.9,6.3c1,0.5,1.5,1.5,1.5,2.6v14.4
		c0,1.8-0.6,2.1-2.1,1.2l-9.6-6c-1.1-0.6-1.7-1.8-1.6-3C93.8,153.7,93.8,151.3,93.8,149z"/>
	<path class="st4" d="M94,107.6v-19c4.2,2.6,8.2,5,12.1,7.6c0.9,0.5,0.7,1.5,0.7,2.4l0.3,9v7.4L94,107.6z"/>
	<path class="st4" d="M110.4,140.5v-16.7c-0.1-1,0.3-2,1.2-2.5l11.5-7.2V132c-0.1,0.5-0.4,1-0.9,1.3L110.4,140.5z"/>
	<path class="st4" d="M110.2,107.5c0-3,0.1-5.9,0.1-8.9c0-1-0.2-2,0.9-2.6l11.9-7.3v18.9c-3.6,1.5-6.7,3.9-10,5.9s-2.8,0.7-2.7-1.7
		S110.3,109,110.2,107.5z"/>
	<path class="st4" d="M110.4,166.1v-16.6c-0.1-0.9,0.2-1.8,0.8-2.4l12-7.6v17.3c0.1,0.8-0.3,1.6-1,2L110.4,166.1z"/>
	<path class="st4" d="M106.9,89.6l-12-7.3c-0.8-0.5-1.2-1.3-1.1-2.2v-15c-0.1-1.7,0.5-2,1.9-1.1l9.9,6.2c0.8,0.3,1.4,1.2,1.3,2.1
		L106.9,89.6z"/>
	<path class="st4" d="M123.2,63.1v16.6c0.2,1.2-0.4,2.4-1.5,3c-3.7,2.1-7.2,4.4-11.4,7c0-4.8,0.3-9.2-0.1-13.5s0.8-6.2,4.3-7.9
		C117.5,66.7,120.4,65,123.2,63.1z"/>
</g>
</svg>
