<svg xmlns="http://www.w3.org/2000/svg" xmlns:xlink="http://www.w3.org/1999/xlink" width="387.8" height="208.4" viewBox="0 0 387.8 208.4">
  <defs>
    <linearGradient id="Aluminum" x1="195.55" y1="104.52" x2="371.75" y2="104.52" gradientUnits="userSpaceOnUse">
      <stop offset="0.01" stop-color="#bbbcbe"/>
      <stop offset="0.29" stop-color="#989ca0"/>
      <stop offset="0.65" stop-color="#bfbec2"/>
      <stop offset="0.87" stop-color="#9ea0a4"/>
      <stop offset="1" stop-color="#a7a9ac"/>
      <stop offset="1" stop-color="#c3c6ca"/>
    </linearGradient>
  </defs>
  <title>logo</title>
  <g id="Layer_1" data-name="Layer 1">
    <path d="M283.6,0a103.6,103.6,0,0,0-72.3,29.2h0c0,.1-.1.1-.1.2l-3.3,3.3c-25.7,25.6-50.3,38.8-103.5,41.2H0v60.7H105.3c52.6,2.4,77,15.6,102.6,41.1q1.5,1.7,3.3,3.3v.2h0A104.2,104.2,0,1,0,283.6,0Z" style="fill: #4c4c4c"/>
    <circle cx="283.6" cy="104.5" r="88.1" style="fill: url(#Aluminum)"/>
  </g>
  <g id="Layer_2" data-name="Layer 2">
    <g>
      <path d="M248.7,102.2h0v-10c0-.5,0-.5-.4-.5h-4.2c-.3,0-.4.1-.4.4v19.7c0,.3-.1.6-.5.6s-.4-.3-.4-.6a2.2,2.2,0,0,1-.1-.8V92.8a1.3,1.3,0,0,1,.1-.6c0-.4-.1-.5-.4-.5h-4.3c-.3,0-.4.1-.4.4v19.4a5.8,5.8,0,0,0,.6,2.6,3.1,3.1,0,0,0,2.8,1.7h4.4a2,2,0,0,0,1.1-.2,4.1,4.1,0,0,0,2.1-3.8Z" style="fill: #fff"/>
      <path d="M272.8,103.8V95.7a4.2,4.2,0,0,0-.7-2.4,2.8,2.8,0,0,0-2.7-1.6h-4.3a2.5,2.5,0,0,0-1.7.6,4.3,4.3,0,0,0-1.6,3.5v15.7a4.8,4.8,0,0,0,.6,2.6,3,3,0,0,0,2.8,1.7h4.3a2.3,2.3,0,0,0,1.8-.6,4.1,4.1,0,0,0,1.5-3.3Z" style="fill: #fff"/>
      <path d="M234.7,115.8h2.2c.2,0,.5,0,.4-.4s-.3-2.3-.5-3.4-.5-4.2-.8-6.3-.3-2.6-.5-4-.3-2.5-.4-3.7-.5-4-.8-5.9c0-.3-.1-.4-.3-.4h-6.4c-.2,0-.4,0-.5.3-.3,2.8-.7,5.6-1,8.4s-.6,5.2-1,7.8-.5,4-.7,6c0,.3-.1.7-.1,1s-.1.6.4.6h4.1c.3,0,.5-.1.5-.4s.2-1.7.2-2.5.2-.5.5-.5h1.4c.4,0,.6.1.6.5a22.9,22.9,0,0,0,.2,2.5c0,.3.2.4.5.4Z" style="fill: #fff"/>
      <path d="M261.3,94.5a17.9,17.9,0,0,0-.2-2.3c0-.5,0-.5-.5-.5H250.4c-.5,0-.4,0-.5.5v.6c-.1.6-.1,1.2-.2,1.9s0,.5.3.5h2.4c.5,0,.6.1.6.6v19.6c0,.5,0,.5.5.5h3.7c.8,0,.8,0,.8-.8v-9.4h0V95.7c0-.4.1-.6.6-.6h2.1C261.3,95.2,261.4,95.1,261.3,94.5Z" style="fill: #fff"/>
      <g>
        <path d="M279.9,115.8h-3c-.5,0-.5,0-.6-.5s-.3-2.8-.5-4.1-.3-2.8-.5-4.2-.3-2.5-.5-3.7-.3-2.1-.3-3.1-.3-2-.4-2.9-.3-2.5-.4-3.7l-.3-1.5c0-.3.1-.4.4-.4h4.3c.2,0,.3.1.4.4s.2,2.3.3,3.4.3,2.7.3,4l.3,4.9c.1,1,.1,1.9.2,2.8a7.6,7.6,0,0,1,.1,1.5c0,.2,0,.4.2.4s.3-.2.3-.4l.3-4.6c.2-1.7.2-3.4.4-5.1a13.2,13.2,0,0,0,.2-2.8l.3-4.2c.1-.3.2-.3.4-.3h4.9c.4,0,.6.1.6.5.1,2.2.3,4.4.4,6.5s.2,2.9.4,4.3.2,3.3.4,4.9v.9a.3.3,0,0,0,.3.3c.2,0,.2-.2.2-.3s.2-2.7.2-4,.3-3.2.3-4.7.4-3.5.5-5.2.2-1.9.2-2.9.2-.3.4-.3h4.3c.4,0,.4.2.4.5l-.6,3.9c-.2,1.5-.3,3-.5,4.5s-.5,3.9-.8,5.9-.5,4.3-.7,6.5a24.2,24.2,0,0,0-.3,2.5c0,.3-.2.3-.4.3h-6.3c-.5,0-.5,0-.5-.5a35.4,35.4,0,0,0-.2-4.6c-.1-1.3-.1-2.6-.2-3.9s-.2-3.3-.2-5c0-.1,0-.3-.2-.3a.3.3,0,0,0-.3.3V103l-.3,6.5c-.1,1.1-.2,2.3-.2,3.5s-.1,1.7-.1,2.5-.2.3-.4.3Z" style="fill: #d72126"/>
        <path d="M295.8,103.8v-8a3.9,3.9,0,0,1,1.5-3.4,2.9,2.9,0,0,1,1.8-.7h4a3.1,3.1,0,0,1,2.9,1.5,4.8,4.8,0,0,1,.7,2.6v15.9a4.1,4.1,0,0,1-1.9,3.8,3.2,3.2,0,0,1-1.4.3h-4.1a3.3,3.3,0,0,1-3.1-1.9,5.4,5.4,0,0,1-.4-2.2Zm5.9,0V95.6c-.1-.2-.1-.4-.4-.5a.6.6,0,0,0-.5.3,1.3,1.3,0,0,0-.1.6v15.6c0,.4.2.8.5.8s.5-.2.5-.8Z" style="fill: #d72126"/>
        <path d="M307.4,103.7V92.1c0-.3.1-.4.4-.4h7.5a2.6,2.6,0,0,1,2.1,1.4,3.8,3.8,0,0,1,.9,2.5v10.7a3,3,0,0,1-.6,2,.9.9,0,0,1-.7.3c-.3.1-.4.2-.3.6s.7,3.2,1.1,4.8a5.7,5.7,0,0,0,.4,1.4c.1.4-.1.4-.3.4h-3.5c-.4,0-.6-.1-.7-.5-.3-2-.7-3.9-1-5.9,0-.1,0-.4-.2-.4s-.2.3-.2.4c0,2-.1,4,0,6,0,.3,0,.4-.3.4h-4.2c-.3,0-.4-.1-.4-.4V103.7Zm4.9-3.4v4.9a.4.4,0,0,0,.2.4h.5a1.1,1.1,0,0,0,.3-.8V95.6c-.2-.3-.4-.6-.7-.5s-.3.3-.3.6Z" style="fill: #d72126"/>
        <path d="M319,103.7c0-3.8.1-7.7,0-11.6,0-.3.1-.4.4-.4h4.2c.4,0,.5.1.5.5v4.2a11.3,11.3,0,0,0,0,2.6c0,.1-.1.3.1.3s.2-.1.2-.3l.6-3.9a29.1,29.1,0,0,0,.4-3.1c0-.2.2-.3.4-.3h4.3c.3,0,.4.1.3.4l-.9,3.7c-.3,1.7-.7,3.4-1.1,5a10.5,10.5,0,0,1-.5,1.9,3.3,3.3,0,0,0,0,1.4l.6,2.5.9,3.9a34,34,0,0,0,.7,3.4l.3,1.5c.1.3,0,.4-.3.4H326c-.4,0-.6-.1-.6-.5l-.6-4.3c-.1-.9-.3-1.9-.4-2.9v-.2c0-.1-.1-.1-.2-.1a.1.1,0,0,0-.1.1,7.6,7.6,0,0,0-.1,1.5c.1,1.8,0,3.6.1,5.4s0,1-1.1,1h-3.6c-.3,0-.4-.1-.4-.4V103.7Z" style="fill: #d72126"/>
        <path d="M336.5,91.7h2.2a2.5,2.5,0,0,1,2,.9,4,4,0,0,1,1.1,2,5.8,5.8,0,0,1,.2,1.9v3.6c0,.5-.1.6-.6.6s-2.6-.1-4,0-.4-.2-.4-.4V95.8c0-.3-.3-.7-.5-.7s-.5.3-.5.7v4.6a1.4,1.4,0,0,0,.7,1.3l3,1.4a3.9,3.9,0,0,1,2.1,2.6,11,11,0,0,1,.2,2.5c0,1.3.1,2.6,0,3.9a4,4,0,0,1-2.2,3.5l-1,.2h-4.4a2.9,2.9,0,0,1-2.7-1.5,4,4,0,0,1-.7-2.4v-4.6c0-.4.1-.4.5-.4h3.9c.6,0,.6.1.6.6v4.3a.4.4,0,0,0,.1.3c.1.4.5.4.7.1a.7.7,0,0,0,.2-.6v-4a1.7,1.7,0,0,0-1.1-1.7l-3-1.4a3.8,3.8,0,0,1-1.9-3.2c0-2-.1-4.1.1-6.1a3.5,3.5,0,0,1,2-3.2,2.4,2.4,0,0,1,1.4-.3Z" style="fill: #d72126"/>
        <path d="M259.8,119.2H210c-.2,0-.5.1-.6-.1s.2-.3.3-.5,2-2.7,2.9-4.1l3.6-5.2c1-1.3,1.9-2.8,2.9-4.1s.4-.5,0-1.1l-5.7-8.4-3.7-5.7c-.1-.1-.3-.2-.2-.4a.6.6,0,0,1,.5-.2h51c.2,0,.6.1.7-.1s-.2-.5-.4-.6l-7.2-7.2-5.5-5.5a.5.5,0,0,0-.7-.1,17.5,17.5,0,0,1-7.2,1.1,21.3,21.3,0,0,1-4.2-1,15.4,15.4,0,0,1-6.5-4.7,14,14,0,0,1-2.6-4.8,19.7,19.7,0,0,1-.7-2.6,12.2,12.2,0,0,1-.2-3.3c0-.2,0-.3.1-.4a.4.4,0,0,1,.5.1c2.5,2.6,5.1,5,7.7,7.5a11.4,11.4,0,0,0,1.1,1.1.8.8,0,0,0,.8.2l4.4-1.3,2.9-.8,2.1-.6a.8.8,0,0,0,.7-.7c.4-1.8.8-3.6,1.3-5.4s.6-2.8,1-4.2a.7.7,0,0,0-.2-.6L240.1,47l-.4-.3a.5.5,0,0,1-.2-.4h.3a15.9,15.9,0,0,1,7.2.7,15.6,15.6,0,0,1,10.4,15.9,13.4,13.4,0,0,1-1,4.4c-.2.3-.1.5.2.8l12.2,12.1,8.9,8.9a.9.9,0,0,0,.7.3h10.7a1,1,0,0,0,.8-.4l9.9-9.9c3.9-4,7.8-7.9,11.8-11.8a.6.6,0,0,0,.1-.6,14,14,0,0,1-1-5.7,13.6,13.6,0,0,1,.8-4.9,15.4,15.4,0,0,1,5-7.1,19.9,19.9,0,0,1,4.5-2.5,19.6,19.6,0,0,1,6.3-.9.5.5,0,0,1,.4.2l-.2.3-4.2,4.3L319,54.8c-.3.3-.3.5-.2,1,.6,2.2,1.3,4.3,1.8,6.5l.9,3.1c.1.2.2.4.4.4l4.8,1.1,5,1.3a.8.8,0,0,0,.8-.2c2.7-2.8,5.4-5.5,8-8.3a6,6,0,0,1,.8-.8c.2-.2.4-.2.5.1a22.4,22.4,0,0,1-.2,5.2,15.7,15.7,0,0,1-6.4,9.7,15,15,0,0,1-4.6,2.2,14.9,14.9,0,0,1-10.4-.6.8.8,0,0,0-1,.1l-5.4,5.5L306,88.9c0,.1-.2.1-.1.3h51.6c.2,0,.4-.1.5.1s0,.4-.2.6l-4.2,6-5.3,7.7a.5.5,0,0,0,0,.5c1.8,2.6,3.5,5.2,5.2,7.8s2.8,4.1,4.1,6.2l.5.6c.1.2,0,.3-.2.3H308l10.7,10.6a.6.6,0,0,0,.8.2,9,9,0,0,1,2.2-.6,12.7,12.7,0,0,1,4.3-.3,12.8,12.8,0,0,1,5.1,1.3,15,15,0,0,1,6.6,5.6,18.4,18.4,0,0,1,2.3,5.6,17,17,0,0,1,.2,3.9.6.6,0,0,1-.1.4.5.5,0,0,1-.4-.2l-8.7-8.4a.8.8,0,0,0-.9-.2l-4,1.1-4.3,1.2-1.2.4c-.3,0-.4.1-.4.4s-.7,2.7-1,4.1l-.9,3.4a22.5,22.5,0,0,1-.5,2.2.8.8,0,0,0,.3.9l3.3,3.1,5.1,5,.5.4c.2.3.1.4-.2.5a19.1,19.1,0,0,1-5.3-.3,13.9,13.9,0,0,1-4.4-1.7,14.8,14.8,0,0,1-5.6-5.5,15.5,15.5,0,0,1-1.9-10.7,10.4,10.4,0,0,1,1.1-3.4c.2-.3,0-.4-.2-.6l-3.3-3.3-7.4-7.3-7.7-7.7a.8.8,0,0,0-.7-.2H276.5a1.3,1.3,0,0,0-1,.4l-7.2,7.2c-3.1,3.1-6.2,6.3-9.4,9.4a18.9,18.9,0,0,1-2,2,.6.6,0,0,0-.2.7,15.2,15.2,0,0,1,1,8.9,15,15,0,0,1-1.5,4.2,15.5,15.5,0,0,1-4.7,5.5,15.8,15.8,0,0,1-4.7,2.3,16.9,16.9,0,0,1-5.5.6c-.1,0-.3.1-.4-.1a.5.5,0,0,1,.2-.4l8.6-8.8a.8.8,0,0,0,.2-.9c-.5-1.4-.8-2.8-1.2-4.2s-.9-3.2-1.3-4.8h-.1c0-1-.7-1.1-1.4-1.3l-3-.7-3.1-.7-2.8-.7c-.4-.1-.7-.1-.9.2l-8.4,8.8c-.2.2-.3.6-.7.4s-.2-.5-.2-.7-.1-2.1,0-3.2a7.1,7.1,0,0,1,.4-2,11.8,11.8,0,0,1,1-3,11.5,11.5,0,0,1,2.1-3.3,16.9,16.9,0,0,1,4.3-3.7,16,16,0,0,1,10-1.9,13.3,13.3,0,0,1,3.4,1,1,1,0,0,0,.9-.2l10.6-10.7Zm20.1-3.4h3.2c.2,0,.4,0,.4-.3s.1-1.7.1-2.5.1-2.4.2-3.5l.3-6.5v-1.2a.3.3,0,0,1,.3-.3c.2,0,.2.2.2.3,0,1.7.1,3.3.2,5s.1,2.6.2,3.9a35.4,35.4,0,0,1,.2,4.6c0,.5,0,.5.5.5H292c.2,0,.4,0,.4-.3a24.2,24.2,0,0,1,.3-2.5c.2-2.2.5-4.3.7-6.5s.5-3.9.8-5.9.3-3,.5-4.5l.6-3.9c0-.3,0-.5-.4-.5h-4.3c-.2,0-.4,0-.4.3s-.2,1.9-.2,2.9-.4,3.4-.5,5.2-.2,3.1-.3,4.7-.2,2.7-.2,4,0,.3-.2.3a.3.3,0,0,1-.3-.3v-.9c-.2-1.6-.3-3.3-.4-4.9s-.2-2.9-.4-4.3-.3-4.3-.4-6.5c0-.4-.2-.5-.6-.5h-4.9c-.2,0-.3,0-.4.3l-.3,4.2a13.2,13.2,0,0,1-.2,2.8c-.2,1.7-.2,3.4-.4,5.1l-.3,4.6c0,.2,0,.4-.3.4s-.2-.2-.2-.4a7.6,7.6,0,0,0-.1-1.5c-.1-.9-.1-1.8-.2-2.8l-.3-4.9c0-1.3-.2-2.6-.3-4s-.3-2.3-.3-3.4-.2-.4-.4-.4h-4.3c-.3,0-.4.1-.4.4l.3,1.5c.1,1.2.3,2.4.4,3.7s.3,1.9.4,2.9.2,2.1.3,3.1.4,2.4.5,3.7.3,2.8.5,4.2.4,2.7.5,4.1.1.5.6.5Zm-31.2-13.6h0v-10c0-.5,0-.5-.4-.5h-4.2c-.3,0-.4.1-.4.4v19.7c0,.3-.1.6-.5.6s-.4-.3-.4-.6a2.2,2.2,0,0,1-.1-.8V92.8a1.3,1.3,0,0,1,.1-.6c0-.4-.1-.5-.4-.5h-4.3c-.3,0-.4.1-.4.4v19.4a5.8,5.8,0,0,0,.6,2.6,3.1,3.1,0,0,0,2.8,1.7h4.4a2,2,0,0,0,1.1-.2,4.1,4.1,0,0,0,2.1-3.8Zm24.1,1.6V95.7a4.2,4.2,0,0,0-.7-2.4,2.8,2.8,0,0,0-2.7-1.6h-4.3a2.5,2.5,0,0,0-1.7.6,4.3,4.3,0,0,0-1.6,3.5v15.7a4.8,4.8,0,0,0,.6,2.6,3,3,0,0,0,2.8,1.7h4.3a2.3,2.3,0,0,0,1.8-.6,4.1,4.1,0,0,0,1.5-3.3Zm23,0v7.9a5.4,5.4,0,0,0,.4,2.2,3.3,3.3,0,0,0,3.1,1.9h4.1a3.2,3.2,0,0,0,1.4-.3,4.1,4.1,0,0,0,1.9-3.8V95.8a4.8,4.8,0,0,0-.7-2.6,3.1,3.1,0,0,0-2.9-1.5h-4a2.9,2.9,0,0,0-1.8.7,3.9,3.9,0,0,0-1.5,3.4Zm11.6-.1h0v11.7c0,.3.1.4.4.4H312c.3,0,.3-.1.3-.4-.1-2,0-4,0-6,0-.1,0-.4.2-.4s.2.3.2.4c.3,2,.7,3.9,1,5.9.1.4.3.5.7.5h3.5c.2,0,.4,0,.3-.4a5.7,5.7,0,0,1-.4-1.4c-.4-1.6-.7-3.2-1.1-4.8s0-.5.3-.6a.9.9,0,0,0,.7-.3,3,3,0,0,0,.6-2V95.6a3.8,3.8,0,0,0-.9-2.5,2.6,2.6,0,0,0-2.1-1.4h-7.5c-.3,0-.4.1-.4.4Zm11.6,0h0v11.7c0,.3.1.4.4.4H323c1.1,0,1.1,0,1.1-1s0-3.6-.1-5.4a7.6,7.6,0,0,1,.1-1.5.1.1,0,0,1,.1-.1c.1,0,.2,0,.2.1v.2c.1,1,.3,2,.4,2.9l.6,4.3c0,.4.2.5.6.5h4.1c.3,0,.4-.1.3-.4l-.3-1.5a34,34,0,0,1-.7-3.4l-.9-3.9-.6-2.5a3.3,3.3,0,0,1,0-1.4,10.5,10.5,0,0,0,.5-1.9c.4-1.6.8-3.3,1.1-5l.9-3.7c.1-.3,0-.4-.3-.4h-4.3c-.2,0-.4.1-.4.3a29.1,29.1,0,0,1-.4,3.1l-.6,3.9c0,.2,0,.3-.2.3s-.1-.2-.1-.3a11.3,11.3,0,0,1,0-2.6V92.2c0-.4-.1-.5-.5-.5h-4.2c-.3,0-.4.1-.4.4C319.1,96,319,99.9,319,103.7Zm-84.3,12.1h2.2c.2,0,.5,0,.4-.4s-.3-2.3-.5-3.4-.5-4.2-.8-6.3-.3-2.6-.5-4-.3-2.5-.4-3.7-.5-4-.8-5.9c0-.3-.1-.4-.3-.4h-6.4c-.2,0-.4,0-.5.3-.3,2.8-.7,5.6-1,8.4s-.6,5.2-1,7.8-.5,4-.7,6c0,.3-.1.7-.1,1s-.1.6.4.6h4.1c.3,0,.5-.1.5-.4s.2-1.7.2-2.5.2-.5.5-.5h1.4c.4,0,.6.1.6.5a22.9,22.9,0,0,0,.2,2.5c0,.3.2.4.5.4ZM336.5,91.7h-2a2.4,2.4,0,0,0-1.4.3,3.5,3.5,0,0,0-2,3.2c-.2,2-.1,4.1-.1,6.1a3.8,3.8,0,0,0,1.9,3.2l3,1.4a1.7,1.7,0,0,1,1.1,1.7v4a.7.7,0,0,1-.2.6c-.2.3-.6.3-.7-.1a.4.4,0,0,1-.1-.3v-4.3c0-.5,0-.6-.6-.6h-3.9c-.4,0-.5,0-.5.4v4.6a4,4,0,0,0,.7,2.4,2.9,2.9,0,0,0,2.7,1.5h4.4l1-.2a4,4,0,0,0,2.2-3.5c.1-1.3,0-2.6,0-3.9a11,11,0,0,0-.2-2.5,3.9,3.9,0,0,0-2.1-2.6l-3-1.4a1.4,1.4,0,0,1-.7-1.3V95.8c0-.4.2-.7.5-.7s.5.4.5.7v4.5c0,.2,0,.4.4.4s2.7,0,4,0,.6-.1.6-.6V96.5a5.8,5.8,0,0,0-.2-1.9,4,4,0,0,0-1.1-2,2.5,2.5,0,0,0-2-.9Zm-41.1-2.4h.6a1.3,1.3,0,0,0,1.2-.5l7.1-7.1,9.2-9.4a.8.8,0,0,0,.1-1.3c-.6-.6-1-.6-1.5-.2l-3.3,3.3L294.1,89H294a.2.2,0,0,0,.2.2Zm-28.4,0h1.3c.1-.1,0-.2-.1-.3l-9.4-9.3-5.6-5.5a.9.9,0,0,0-1.5.1.9.9,0,0,0,0,1.3l2.6,2.6,10.3,10.2A2.6,2.6,0,0,0,267,89.3Zm28.7,29.8.4.4c3.3,3.3,6.6,6.6,10,9.8,1.6,1.7,3.2,3.3,4.9,4.9s.8.5,1.1.2,1-1,.3-1.7l-2.7-2.6-10-10a2.7,2.7,0,0,0-2.5-1Zm-28.5.2c-.1-.2-.2-.2-.3-.2h-2.4l-.5.2-8.1,8.2-3.2,3.3a.8.8,0,0,0-.3,1,1,1,0,0,0,1.8.3c2.1-2,4.1-4.1,6.1-6.1Zm-5.9-24.8a17.9,17.9,0,0,0-.2-2.3c0-.5,0-.5-.5-.5H250.4c-.5,0-.4,0-.5.5v.6c-.1.6-.1,1.2-.2,1.9s0,.5.3.5h2.4c.5,0,.6.1.6.6v19.6c0,.5,0,.5.5.5h3.7c.8,0,.8,0,.8-.8v-9.4h0V95.7c0-.4.1-.6.6-.6h2.1C261.3,95.2,261.4,95.1,261.3,94.5Z" style="fill: #0b0808"/>
        <path d="M281.8,142.6a3.2,3.2,0,0,0,1.7-.3h.4a20.9,20.9,0,0,0,2.5,0l.6.2,1.1,1.2a1.3,1.3,0,0,1,.1.6c-.1.4-.1.8-.2,1.2s.1.5.5.5h.8c.5,0,.6.2.6.6s-.1.4.1.5l.4-.2a.3.3,0,0,1,.5,0c.3.1.3.3.3.5s0,.5.4.4a10,10,0,0,0,3.3-.8,19.8,19.8,0,0,0,3.1-1.2l.9-.2a1.7,1.7,0,0,1,1.4,1.3,8.5,8.5,0,0,1-.5,2.4c-.4,1.3-.9,2.6-1.4,3.8a22.1,22.1,0,0,1-1.8,3.4,39,39,0,0,0-2.5,3.6,4.9,4.9,0,0,0-.8,2.9l.3.9v.4c0,.2-.1.3-.3.4s-.4-.1-.4-.3a4.7,4.7,0,0,1-.1-3.3,12.2,12.2,0,0,1,2-3.5,22.9,22.9,0,0,0,3.1-5.5,23.2,23.2,0,0,0,1.3-3.7,5.7,5.7,0,0,0,.1-1.3c.1-.6-.2-.8-.8-.6l-2.9,1.1a9.9,9.9,0,0,1-4.5,1h-.4c-.5.2-.8.1-.9-.4s0-.3-.2-.3-.2.2-.3.3a6,6,0,0,0-.6,3c.3,2.6.5,5.2.8,7.8a14.7,14.7,0,0,1,0,2.1,7.4,7.4,0,0,0,.8,2.9,8.3,8.3,0,0,0,.8,1.2c.1.2.1.3,0,.4s-.3.1-.4,0-.4-.6-.6-.8a8.7,8.7,0,0,1-1.1-3.2,5.4,5.4,0,0,0-1-2,.4.4,0,0,0-.5-.2h-1.7a1,1,0,0,1-1.1-.9,22.8,22.8,0,0,0-.2-2.6,3.6,3.6,0,0,0-1.1-2.6.5.5,0,0,1,0-.7l.2-.2a1.9,1.9,0,0,0,.5-1.6l-.3-2.1a.7.7,0,0,0-.7-.7.5.5,0,0,0-.6.4,1.6,1.6,0,0,1-.5,1c-.1.2-.3.3-.5.1s-.1-.3,0-.4a2.3,2.3,0,0,0,.4-1.4,8.6,8.6,0,0,1-.1-1.6c0-.2.1-.4.2-.4s.4-.1.5.1a.5.5,0,0,0,.5.3c.1,0,.3,0,.3-.2a.2.2,0,0,0,0-.3,1.3,1.3,0,0,0-1.1-.6h-.5a.7.7,0,0,0-.8.3.9.9,0,0,1-1,.3,4.4,4.4,0,0,0-1.9.3,2.5,2.5,0,0,1-2.3-.6c-.2-.2-.1-.3.1-.4a.9.9,0,0,0,.4-.8c0-.2-.1-.4,0-.5a1,1,0,0,0-.4-1c-.3-.1-.2-.3,0-.5a2.6,2.6,0,0,1,1.9-.5,1,1,0,0,0,1-.4,11.4,11.4,0,0,1,1.1-1.1.4.4,0,0,0,0-.6l-.5-.4c-.3-.2-.2-.4,0-.7s.4-.4,0-.8a4,4,0,0,1,.1-4.8l5.4-6c.3-.3.5-.5.2-.9a.6.6,0,0,1,.4-.9l1.1-.3a.8.8,0,0,1,.9.4l7.5,6.5a1.4,1.4,0,0,1,.5,1,2,2,0,0,0,.1.7.9.9,0,0,1-1.2.9c-.3-.1-.4.1-.6.3l-2.5,2.7-3,3.3a3.8,3.8,0,0,1-4.5.8l-.3-.2c-.3-.1-.5-.2-.7.1s-.5.5-.8.2-.4-.2-.5,0l-.8.8c-.1.2,0,.4.3.4Z" style="fill: #0b0808"/>
        <path d="M283.2,78.1h-7.8a.7.7,0,0,1-.8-.5l-1.8-3-2.6-4.6c-1-1.8-2-3.6-3.2-5.4a1.8,1.8,0,0,1,0-2.1c1.2-1.8,2.2-3.6,3.2-5.4s2.4-4.3,3.7-6.4a7.5,7.5,0,0,1,.7-1.2.6.6,0,0,1,.7-.4h15.3a1.5,1.5,0,0,1,1.5.8c1.1,2.1,2.3,4,3.4,6l4.1,7.1c0,.1.1.2.2.3a.4.4,0,0,1,0,.5c-1.2,1.9-2.2,3.8-3.3,5.7l-3,5.1-1.8,3.2a.6.6,0,0,1-.6.3h-7.9Zm-.3-1.1a13.2,13.2,0,1,0-13.2-13.4A13.1,13.1,0,0,0,282.9,77Z" style="fill: #0b0808"/>
        <path d="M273.6,144.2h0c-.8,0-1.1-.3-.8-1.1s.2-.2.4-.2h1c.3,0,.4.1.4.4S274.6,144.2,273.6,144.2Z" style="fill: #0b0808"/>
        <path d="M274.2,140.4h.2a2.7,2.7,0,0,1,.8.7q.4.3,0,.6c-.6.6-.6.6-1.2,0s-.7-.5-.1-1.2S274,140.4,274.2,140.4Z" style="fill: #0b0808"/>
        <path d="M273.8,146.6c-.2,0-.3-.1-.3-.2l-.3-.4c-.2-.5-.2-.5.3-.7l.8-.4c.2-.1.3-.1.4.1l.4.6v.3Z" style="fill: #0b0808"/>
        <path d="M271.4,144.2c-1,0-.9.1-.9-.9s.1-.5.5-.4h.8c.3,0,.4.1.4.4S272.3,144.2,271.4,144.2Z" style="fill: #0b0808"/>
        <path d="M270.4,137.1l-.7.9-.4-.2-.8-.6V137c-.2-.4.3-.5.5-.8s.3-.2.4-.1l1,.8Z" style="fill: #0b0808"/>
        <path d="M272.9,140.8l-.3-.2-.7-.6c-.2-.1-.2-.3-.1-.5l.5-.5c.1-.2.3-.1.4,0l.9.7v.2C273.7,140.1,273.2,140.8,272.9,140.8Z" style="fill: #0b0808"/>
        <path d="M271.7,147.6h-.3c-.4-.7-.4-.8.3-1.2l.3-.2c.2-.1.3-.4.5-.1a1.2,1.2,0,0,1,.5,1h-.1l-1.1.6Z" style="fill: #0b0808"/>
        <path d="M272,138.4a2,2,0,0,1-.7.9c-.2.1-.4-.1-.5-.2l-.6-.5c-.1-.1-.2-.2-.1-.4a3.5,3.5,0,0,1,.5-.8.2.2,0,0,1,.3.1,3.9,3.9,0,0,1,1,.8Z" style="fill: #0b0808"/>
        <path d="M267.9,149.5l-.5-.2c0-.1-.1-.2-.1-.4s-.2-.5.2-.7l.8-.4c.1,0,.2-.1.2,0s.4.5.6.8-.1.4-.4.5Z" style="fill: #0b0808"/>
        <path d="M267,144.2h-.3c-.5,0-.7-.1-.7-.5s.2-.8.7-.8h.5c.2,0,.5,0,.6.2a3.1,3.1,0,0,1,.1,1H267Z" style="fill: #0b0808"/>
        <path d="M269.8,148.5h-.4c-.6-.7-.5-.9.3-1.3h.2c.2,0,.3-.4.6-.2a2,2,0,0,1,.5.9.4.4,0,0,1-.1.3Z" style="fill: #0b0808"/>
        <path d="M269.1,144.2c-1,.1-.8,0-.8-1s.2-.3.4-.3h.9c.3,0,.4.1.4.4S270.1,144.2,269.1,144.2Z" style="fill: #0b0808"/>
        <path d="M267.8,103.8v7.9c0,.4-.2.7-.5.7s-.5-.4-.5-.8V96a1.3,1.3,0,0,1,.1-.6c.1-.1.2-.3.4-.2a.4.4,0,0,1,.4.4.4.4,0,0,1,.1.3v7.9Z" style="fill: #0b0808"/>
        <path d="M301.7,103.8v7.8c0,.6-.1.8-.5.8s-.5-.4-.5-.8V96a1.3,1.3,0,0,1,.1-.6.6.6,0,0,1,.5-.3c.3.1.3.3.4.5v8.2Z" style="fill: #0b0808"/>
        <path d="M312.3,100.3V95.7c0-.3-.1-.6.3-.6s.5.2.7.5v9.1a1.1,1.1,0,0,1-.3.8h-.5a.4.4,0,0,1-.2-.4Z" style="fill: #0b0808"/>
        <path d="M270.7,63.8A12.3,12.3,0,0,1,283,51.5a12.3,12.3,0,1,1-12.3,12.3Zm12.7-8.7a8.8,8.8,0,1,0,8.8,8.7A8.6,8.6,0,0,0,283.4,55.1Z" style="fill: #0b0808"/>
      </g>
      <path d="M231.5,100V98.8c0-.1,0-.3-.2-.3s-.3.2-.3.3V99l-.3,4.7c-.1,1.5-.2,3-.2,4.5s0,.7.7.7h.5c.3,0,.4-.1.4-.3a6.6,6.6,0,0,1-.1-1.4C231.9,104.8,231.6,102.4,231.5,100Z" style="fill: #0b0808"/>
    </g>
  </g>
</svg>
