<svg xmlns="http://www.w3.org/2000/svg" xmlns:xlink="http://www.w3.org/1999/xlink" width="221.4" height="195.4" viewBox="0 0 221.4 195.4">
  <defs>
    <linearGradient id="Cast_Iron" data-name="Cast Iron" y1="97.7" x2="221.37" y2="97.7" gradientUnits="userSpaceOnUse">
      <stop offset="0.01" stop-color="#85878d"/>
      <stop offset="0.53" stop-color="#979899"/>
      <stop offset="1" stop-color="#5d5c62"/>
    </linearGradient>
    <linearGradient id="Aluminum" x1="22.59" y1="97.7" x2="198.79" y2="97.7" gradientUnits="userSpaceOnUse">
      <stop offset="0.01" stop-color="#bbbcbe"/>
      <stop offset="0.29" stop-color="#989ca0"/>
      <stop offset="0.65" stop-color="#bfbec2"/>
      <stop offset="0.87" stop-color="#9ea0a4"/>
      <stop offset="1" stop-color="#a7a9ac"/>
      <stop offset="1" stop-color="#c3c6ca"/>
    </linearGradient>
  </defs>
  <title>logo</title>
  <g style="isolation: isolate">
    <g id="Layer_1" data-name="Layer 1">
      <path d="M159.2,0h-97A13.7,13.7,0,0,0,50.3,6.9L1.8,90.8a14.1,14.1,0,0,0,0,13.8l48.5,83.9a13.7,13.7,0,0,0,11.9,6.9h97a13.7,13.7,0,0,0,11.9-6.9l48.4-83.9a13.6,13.6,0,0,0,0-13.8L171.1,6.9A13.7,13.7,0,0,0,159.2,0Z" style="fill: url(#Cast_Iron)"/>
      <circle cx="110.7" cy="97.7" r="88.1" style="fill: url(#Aluminum)"/>
      <path d="M159.2,0h-97A13.7,13.7,0,0,0,50.3,6.9L1.8,90.8a14.1,14.1,0,0,0,0,13.8l48.5,83.9a13.7,13.7,0,0,0,11.9,6.9h97a13.7,13.7,0,0,0,11.9-6.9l48.4-83.9a13.6,13.6,0,0,0,0-13.8L171.1,6.9A13.7,13.7,0,0,0,159.2,0Z" style="fill: #444;mix-blend-mode: difference"/>
    </g>
    <g id="Layer_2" data-name="Layer 2">
      <g>
        <path d="M75.8,95.4h0v-10c0-.5,0-.5-.5-.5H71.1c-.3,0-.4.1-.4.4V105c0,.3-.1.6-.4.6a.6.6,0,0,1-.5-.6V85.4c.1-.4-.1-.5-.4-.5H65.1c-.3,0-.4.1-.4.4,0,6.5.1,12.9,0,19.4a4.8,4.8,0,0,0,.7,2.6,3.1,3.1,0,0,0,2.7,1.7h4.4a2,2,0,0,0,1.1-.2,4.1,4.1,0,0,0,2.2-3.8Z" style="fill: #fff"/>
        <path d="M99.8,96.9v-8a3.9,3.9,0,0,0-.6-2.4,3,3,0,0,0-2.8-1.6H92.1a2.3,2.3,0,0,0-1.6.6A4,4,0,0,0,88.8,89v15.7a5.8,5.8,0,0,0,.6,2.6,3.3,3.3,0,0,0,2.9,1.7h4.3a2.7,2.7,0,0,0,1.7-.6,4.3,4.3,0,0,0,1.5-3.4Z" style="fill: #fff"/>
        <path d="M61.8,109h2.1c.3,0,.5,0,.4-.4a19.7,19.7,0,0,1-.4-3.4c-.4-2.1-.5-4.2-.8-6.3s-.4-2.7-.5-4-.3-2.5-.5-3.7-.5-4-.7-6c-.1-.2-.1-.3-.4-.3H54.6c-.2,0-.4,0-.4.3-.4,2.8-.7,5.6-1.1,8.4l-.9,7.8c-.3,2-.5,3.9-.8,5.9a3.7,3.7,0,0,1-.1,1.1c-.1.5-.1.6.5.6h4c.4,0,.5-.1.5-.4a22.9,22.9,0,0,0,.2-2.5.5.5,0,0,1,.6-.6h1.4c.3,0,.5.2.5.6s.2,1.6.2,2.5.2.4.5.4Z" style="fill: #fff"/>
        <path d="M88.4,87.7a17.9,17.9,0,0,1-.2-2.3c0-.5,0-.5-.5-.5H77.5c-.5,0-.5,0-.5.5a4.3,4.3,0,0,1-.1.5c-.1.7-.1,1.3-.2,2s.1.5.4.5h2.3c.5,0,.6.1.6.6v19.6c0,.4.1.5.6.5h3.6c.9,0,.9,0,.9-.8V98.8h0V88.9c-.1-.4.1-.6.5-.6h2.2C88.4,88.4,88.4,88.3,88.4,87.7Z" style="fill: #fff"/>
        <g>
          <path d="M107,109h-3.1c-.5,0-.5,0-.5-.6l-.6-4c-.1-1.4-.3-2.9-.5-4.3s-.3-2.4-.4-3.6-.3-2.1-.4-3.1-.3-2-.4-2.9-.3-2.5-.4-3.7-.1-1-.2-1.5,0-.4.3-.4h4.3c.3,0,.4.1.4.4l.3,3.4c.1,1.3.3,2.7.4,4s.2,3.3.3,4.9a26.4,26.4,0,0,0,.2,2.8v1.5c0,.2,0,.4.3.4s.2-.2.2-.4.2-3.1.4-4.6.2-3.4.4-5.1.1-1.9.2-2.8l.3-4.2c0-.3.1-.3.3-.3h5c.3,0,.5.1.5.5.1,2.2.3,4.3.5,6.5l.3,4.2c.2,1.7.2,3.3.4,5s0,.6.1.9,0,.3.2.3.2-.2.2-.3.2-2.7.3-4l.3-4.8c0-1.7.3-3.4.4-5.1s.3-2,.3-3,.1-.2.3-.2H122c.3,0,.3.2.3.5s-.4,2.6-.5,3.9l-.6,4.5c-.2,2-.5,3.9-.7,5.9s-.6,4.3-.8,6.5a19,19,0,0,0-.3,2.5c0,.2-.2.3-.4.3h-6.2c-.5,0-.5-.1-.6-.6s0-3-.1-4.5a25.5,25.5,0,0,1-.2-3.9c-.1-1.7-.3-3.3-.3-5,0-.2,0-.3-.2-.3s-.2.1-.3.3v1.2l-.3,6.5c0,1.1-.2,2.3-.2,3.5a20.8,20.8,0,0,0,0,2.5c0,.3-.2.3-.4.3Z" style="fill: #d72126"/>
          <path d="M122.8,97V89a3.9,3.9,0,0,1,1.5-3.4,2.9,2.9,0,0,1,1.8-.7h4.1a2.9,2.9,0,0,1,2.8,1.5,4.2,4.2,0,0,1,.8,2.6v15.9a4.1,4.1,0,0,1-1.9,3.7,2.8,2.8,0,0,1-1.5.4h-4a3.1,3.1,0,0,1-3.1-1.9,4.2,4.2,0,0,1-.5-2.2Zm6,0V89.1a.4.4,0,0,0-.1-.3c0-.2-.1-.5-.4-.5s-.3.1-.4.3-.2.3-.2.5v15.7c0,.4.3.8.6.8s.5-.3.5-.8Z" style="fill: #d72126"/>
          <path d="M134.4,96.9V85.3c0-.3.1-.4.4-.4h7.5a3,3,0,0,1,2.2,1.4,4.4,4.4,0,0,1,.8,2.5V99.5a3,3,0,0,1-.6,2,.9.9,0,0,1-.7.3c-.3,0-.4.2-.3.5s.7,3.3,1.1,4.9.2,1,.4,1.4-.1.4-.3.4h-3.5c-.4,0-.6-.1-.6-.5-.3-2-.8-3.9-1.1-5.9,0-.2,0-.4-.2-.4s-.2.3-.2.4c.1,2,0,4,.1,6,0,.3-.1.4-.4.4h-4.2a.4.4,0,0,1-.4-.4V96.9Zm4.9-3.4v4.9a.4.4,0,0,0,.2.4h.5a.8.8,0,0,0,.3-.8V88.8c-.1-.4-.3-.6-.7-.5s-.3.3-.3.5Z" style="fill: #d72126"/>
          <path d="M146.1,96.9V85.3c0-.3.1-.4.4-.4h4.2c.3,0,.4.1.4.4v4.3a22.6,22.6,0,0,0,0,2.6c0,.1,0,.3.1.3s.2-.1.2-.3l.6-3.9c.1-1,.4-2,.5-3.1a.3.3,0,0,1,.3-.3h4.4c.2,0,.3.1.3.4l-.9,3.7-1.2,5a12.9,12.9,0,0,1-.4,1.9,2.2,2.2,0,0,0,0,1.4c.2.8.3,1.6.5,2.5l.9,3.9c.2,1.1.5,2.3.7,3.4l.3,1.5c.1.3,0,.4-.3.4H153c-.4,0-.5-.1-.6-.5s-.4-2.9-.6-4.3-.3-1.9-.4-2.9v-.2c0-.1,0-.2-.1-.2s-.2.1-.2.2a3.8,3.8,0,0,0,0,1.5c.1,1.8,0,3.6,0,5.4s0,1-1,1h-3.6c-.3,0-.4-.1-.4-.4V96.9Z" style="fill: #d72126"/>
          <path d="M163.5,84.9h2.2a2.7,2.7,0,0,1,2.1.9,4.4,4.4,0,0,1,1,1.9,14.8,14.8,0,0,1,.3,1.9v3.7c0,.5-.2.6-.7.6s-2.6-.1-3.9,0-.5-.2-.5-.5V89c0-.3-.2-.7-.5-.7s-.5.3-.5.7v4.6a1.4,1.4,0,0,0,.8,1.3l2.9,1.4a4.1,4.1,0,0,1,2.2,2.6,10.7,10.7,0,0,1,.1,2.5,17,17,0,0,1,0,3.9,3.9,3.9,0,0,1-2.2,3.5l-.9.2h-4.5a3.2,3.2,0,0,1-2.7-1.5,4.8,4.8,0,0,1-.6-2.4c0-1.5-.1-3-.1-4.6s.1-.4.5-.4h4c.5,0,.5.1.5.6v4.6c.2.4.5.4.8.1a1.5,1.5,0,0,0,.1-.7v-4c.1-.9-.3-1.2-1-1.6l-3.1-1.4a3.5,3.5,0,0,1-1.8-3.2c-.1-2-.1-4.1,0-6.2a3.6,3.6,0,0,1,2-3.1,2.4,2.4,0,0,1,1.4-.3Z" style="fill: #d72126"/>
          <path d="M86.8,112.3H36.5c-.1-.2.2-.4.3-.5s1.9-2.7,2.9-4.1l3.6-5.2,2.8-4.1c.4-.6.4-.5,0-1.1l-5.6-8.4-3.8-5.7c-.1-.1-.2-.2-.1-.4s.3-.2.5-.2H88c.3,0,.7.1.8-.1s-.3-.5-.5-.7l-7.1-7.1-5.6-5.5a.6.6,0,0,0-.7-.2A14.8,14.8,0,0,1,67.7,70a14.3,14.3,0,0,1-4.1-.9A15.7,15.7,0,0,1,57,64.4a17.2,17.2,0,0,1-2.6-4.8,19.8,19.8,0,0,1-.6-2.6,18.4,18.4,0,0,1-.3-3.3c0-.2,0-.4.2-.4s.3,0,.4.1c2.5,2.6,5.2,5,7.7,7.5A11.4,11.4,0,0,1,62.9,62a.8.8,0,0,0,.8.2l4.5-1.3,2.8-.8a14.1,14.1,0,0,1,2.2-.6.9.9,0,0,0,.6-.7c.4-1.8.9-3.6,1.3-5.5s.7-2.7,1-4.1,0-.4-.2-.6l-8.8-8.4-.4-.3c-.1-.1-.2-.2-.1-.4s.1-.1.3-.1a14.8,14.8,0,0,1,7.2.7,15.4,15.4,0,0,1,8.5,7.2A14.6,14.6,0,0,1,84.4,56a12.3,12.3,0,0,1-1,4.3.7.7,0,0,0,.2.8L95.8,73.3l8.9,8.9a.9.9,0,0,0,.7.3h10.8a1.2,1.2,0,0,0,.8-.4l9.9-10,11.7-11.7a.5.5,0,0,0,.1-.6,15.5,15.5,0,0,1,4.8-17.7,15.8,15.8,0,0,1,4.6-2.5,16.4,16.4,0,0,1,6.2-.9l.4.2c.1.1,0,.2-.1.3l-4.2,4.3-4.3,4.4a1.1,1.1,0,0,0-.3,1.1c.6,2.1,1.3,4.3,1.9,6.5s.6,2.1.9,3.1.2.3.4.4l4.8,1.1,4.9,1.3a.8.8,0,0,0,.9-.3l8-8.2.7-.8c.3-.3.5-.2.5.1a18.2,18.2,0,0,1-.2,5.2,16,16,0,0,1-6.3,9.7,19.5,19.5,0,0,1-4.6,2.2,15.2,15.2,0,0,1-6.7.4,10.4,10.4,0,0,1-3.8-1.1c-.4-.2-.6-.1-.9.2l-5.5,5.5c-2.5,2.6-5.2,5.1-7.7,7.8-.1.1-.3.1-.2.3h51.7c.1,0,.3-.1.4.1s0,.4-.1.6l-4.2,6-5.3,7.6a.4.4,0,0,0,0,.6l5.2,7.8,4.1,6.2.4.6c.2.2.1.2-.1.3H135L145.7,123a.7.7,0,0,0,.8.2l2.3-.7a15.4,15.4,0,0,1,4.3-.2,12.8,12.8,0,0,1,5,1.3,15.6,15.6,0,0,1,8.9,11.2,25.6,25.6,0,0,1,.3,3.9c0,.1,0,.3-.2.3s-.2,0-.3-.2l-8.7-8.3c-.3-.3-.6-.4-.9-.2l-4.1,1.1-4.2,1.2-1.3.4a.4.4,0,0,0-.4.4c-.3,1.3-.6,2.7-1,4.1s-.5,2.2-.8,3.3a19.5,19.5,0,0,1-.6,2.3.8.8,0,0,0,.3.8l3.3,3.2,5.2,5,.5.4c.1.3.1.4-.2.5a19.6,19.6,0,0,1-5.4-.3,14.9,14.9,0,0,1-4.4-1.7,15.5,15.5,0,0,1-5.6-5.5,15,15,0,0,1-1.8-10.7,10.2,10.2,0,0,1,1-3.4c.2-.3,0-.4-.1-.6l-3.4-3.3c-2.4-2.5-4.9-4.9-7.3-7.3l-7.7-7.7a1,1,0,0,0-.7-.2h-15a1.3,1.3,0,0,0-1,.4l-7.1,7.1L86,129.3l-2.1,2a.6.6,0,0,0-.1.7,16,16,0,0,1,.9,8.9,12.4,12.4,0,0,1-1.5,4.2,14.2,14.2,0,0,1-4.6,5.4,17.4,17.4,0,0,1-4.7,2.4,17.2,17.2,0,0,1-5.5.6H68c-.1-.2.1-.3.2-.4l8.6-8.8a1,1,0,0,0,.2-.9c-.5-1.4-.9-2.8-1.3-4.2s-.9-3.2-1.3-4.8h0c0-1-.7-1.2-1.5-1.3l-2.9-.7-3.2-.8-2.8-.6c-.4-.2-.6-.1-.9.2l-8.4,8.8c-.2.2-.3.6-.7.4s-.2-.5-.2-.7v-3.2a14.2,14.2,0,0,1,.4-2,15.1,15.1,0,0,1,1-3,18.5,18.5,0,0,1,2.1-3.3,15.8,15.8,0,0,1,14.4-5.6,17.8,17.8,0,0,1,3.3.9.7.7,0,0,0,.9-.1l10.6-10.7C86.6,112.5,86.7,112.5,86.8,112.3ZM107,109h3.2c.2,0,.4,0,.4-.3a20.8,20.8,0,0,1,0-2.5c0-1.2.2-2.4.2-3.5l.3-6.5V95c.1-.2.1-.3.3-.3s.2.1.2.3c0,1.7.2,3.3.3,5a25.5,25.5,0,0,0,.2,3.9c.1,1.5.1,3,.1,4.5s.1.6.6.6H119c.2,0,.4-.1.4-.3a19,19,0,0,1,.3-2.5c.2-2.2.5-4.3.8-6.5s.5-3.9.7-5.9l.6-4.5c.1-1.3.3-2.6.5-3.9s0-.5-.3-.5h-4.4c-.2,0-.3,0-.3.2s-.3,2-.3,3-.4,3.4-.4,5.1l-.3,4.8c-.1,1.3-.3,2.6-.3,4s0,.3-.2.3-.2-.2-.2-.3,0-.6-.1-.9-.2-3.3-.4-5l-.3-4.2c-.2-2.2-.4-4.3-.5-6.5,0-.4-.2-.5-.5-.5h-5c-.2,0-.3,0-.3.3l-.3,4.2c-.1.9-.1,1.9-.2,2.8s-.3,3.4-.4,5.1-.3,3.1-.4,4.6,0,.4-.2.4-.3-.2-.3-.4v-1.5a26.4,26.4,0,0,1-.2-2.8c-.1-1.6-.3-3.2-.3-4.9s-.3-2.7-.4-4l-.3-3.4c0-.3-.1-.4-.4-.4h-4.3c-.3,0-.4.1-.3.4s.1,1,.2,1.5.3,2.4.4,3.7.3,1.9.4,2.9.2,2.1.4,3.1.3,2.4.4,3.6.4,2.9.5,4.3l.6,4c0,.6,0,.6.5.6ZM75.8,95.4h0v-10c0-.5,0-.5-.5-.5H71.1c-.3,0-.4.1-.4.4V105c0,.3-.1.6-.4.6a.6.6,0,0,1-.5-.6V85.4c.1-.4-.1-.5-.4-.5H65.1c-.3,0-.4.1-.4.4,0,6.5.1,12.9,0,19.4a4.8,4.8,0,0,0,.7,2.6,3.1,3.1,0,0,0,2.7,1.7h4.4a2,2,0,0,0,1.1-.2,4.1,4.1,0,0,0,2.2-3.8Zm24,1.5v-8a3.9,3.9,0,0,0-.6-2.4,3,3,0,0,0-2.8-1.6H92.1a2.3,2.3,0,0,0-1.6.6A4,4,0,0,0,88.8,89v15.7a5.8,5.8,0,0,0,.6,2.6,3.3,3.3,0,0,0,2.9,1.7h4.3a2.7,2.7,0,0,0,1.7-.6,4.3,4.3,0,0,0,1.5-3.4Zm23,.1v7.9a4.2,4.2,0,0,0,.5,2.2,3.1,3.1,0,0,0,3.1,1.9h4a2.8,2.8,0,0,0,1.5-.4,4.1,4.1,0,0,0,1.9-3.7V89a4.2,4.2,0,0,0-.8-2.6,2.9,2.9,0,0,0-2.8-1.5h-4.1a2.9,2.9,0,0,0-1.8.7,3.9,3.9,0,0,0-1.5,3.4Zm11.6-.1h0v11.7a.4.4,0,0,0,.4.4H139c.3,0,.4-.1.4-.4-.1-2,0-4-.1-6,0-.1,0-.4.2-.4s.2.2.2.4c.3,2,.8,3.9,1.1,5.9,0,.4.2.5.6.5h3.5c.2,0,.5,0,.3-.4s-.2-1-.4-1.4-.7-3.3-1.1-4.9,0-.5.3-.5a.9.9,0,0,0,.7-.3,3,3,0,0,0,.6-2V88.8a4.4,4.4,0,0,0-.8-2.5,3,3,0,0,0-2.2-1.4h-7.5c-.3,0-.4.1-.4.4Zm11.7,0h0v11.7c0,.3.1.4.4.4h3.6c1,0,1,0,1-1s.1-3.6,0-5.4a3.8,3.8,0,0,1,0-1.5c0-.1,0-.2.2-.2s.1.1.1.2v.2c.1,1,.3,2,.4,2.9s.5,2.8.6,4.3.2.5.6.5h4.1c.3,0,.4-.1.3-.4l-.3-1.5c-.2-1.1-.5-2.3-.7-3.4l-.9-3.9c-.2-.9-.3-1.7-.5-2.5a2.2,2.2,0,0,1,0-1.4,12.9,12.9,0,0,0,.4-1.9l1.2-5,.9-3.7c0-.3-.1-.4-.3-.4h-4.4a.3.3,0,0,0-.3.3c-.1,1.1-.4,2.1-.5,3.1l-.6,3.9c0,.2,0,.3-.2.3s-.1-.2-.1-.3a22.6,22.6,0,0,1,0-2.6V85.3c0-.3-.1-.4-.4-.4h-4.2c-.3,0-.4.1-.4.4ZM61.8,109h2.1c.3,0,.5,0,.4-.4a19.7,19.7,0,0,1-.4-3.4c-.4-2.1-.5-4.2-.8-6.3s-.4-2.7-.5-4-.3-2.5-.5-3.7-.5-4-.7-6c-.1-.2-.1-.3-.4-.3H54.6c-.2,0-.4,0-.4.3-.4,2.8-.7,5.6-1.1,8.4l-.9,7.8c-.3,2-.5,3.9-.8,5.9a3.7,3.7,0,0,1-.1,1.1c-.1.5-.1.6.5.6h4c.4,0,.5-.1.5-.4a22.9,22.9,0,0,0,.2-2.5.5.5,0,0,1,.6-.6h1.4c.3,0,.5.2.5.6s.2,1.6.2,2.5.2.4.5.4ZM163.5,84.9h-2a2.4,2.4,0,0,0-1.4.3,3.6,3.6,0,0,0-2,3.1c-.1,2.1-.1,4.2,0,6.2a3.5,3.5,0,0,0,1.8,3.2l3.1,1.4c.7.4,1.1.7,1,1.6v4a1.5,1.5,0,0,1-.1.7c-.3.3-.6.3-.8-.1v-4.6c0-.5,0-.6-.5-.6h-4c-.4,0-.5,0-.5.4s.1,3.1.1,4.6a4.8,4.8,0,0,0,.6,2.4,3.2,3.2,0,0,0,2.7,1.5h4.5l.9-.2a3.9,3.9,0,0,0,2.2-3.5,17,17,0,0,0,0-3.9,10.7,10.7,0,0,0-.1-2.5,4.1,4.1,0,0,0-2.2-2.6l-2.9-1.4a1.4,1.4,0,0,1-.8-1.3V89c0-.4.2-.7.5-.7s.5.4.5.7v4.4c0,.3.1.5.5.5s2.6,0,3.9,0,.7-.1.7-.6V89.6a14.8,14.8,0,0,0-.3-1.9,4.4,4.4,0,0,0-1-1.9,2.7,2.7,0,0,0-2.1-.9Zm-41.1-2.4h.7a1.6,1.6,0,0,0,1.1-.5c2.4-2.4,4.7-4.8,7.1-7.1l9.3-9.4a.9.9,0,0,0,0-1.3,1,1,0,0,0-1.5-.2l-3.2,3.3L121.2,82.2H121l.3.2ZM94,82.5h1.4c0-.2-.1-.2-.2-.3l-9.4-9.3-5.6-5.6a.9.9,0,0,0-1.4.1c-.5.5-.5,1,0,1.4l2.5,2.6L91.7,81.5A2.3,2.3,0,0,0,94,82.5Zm28.8,29.8.3.4c3.4,3.2,6.7,6.5,10,9.8l4.9,4.9c.4.4.8.5,1.2.2s1-1,.2-1.7l-2.6-2.6-10.1-10a2.4,2.4,0,0,0-2.5-1Zm-28.6.2-.2-.2H91.5a.5.5,0,0,0-.4.2l-8.2,8.2-3.2,3.2a.9.9,0,0,0-.2,1.1,1,1,0,0,0,1.8.3c2-2,4-4.1,6.1-6.1S91.9,114.7,94.2,112.5ZM88.4,87.7a17.9,17.9,0,0,1-.2-2.3c0-.5,0-.5-.5-.5H77.5c-.5,0-.5,0-.5.5a4.3,4.3,0,0,1-.1.5c-.1.7-.1,1.3-.2,2s.1.5.4.5h2.3c.5,0,.6.1.6.6v19.6c0,.4.1.5.6.5h3.6c.9,0,.9,0,.9-.8V98.8h0V88.9c-.1-.4.1-.6.5-.6h2.2C88.4,88.4,88.4,88.3,88.4,87.7Z" style="fill: #0b0808"/>
          <path d="M108.9,135.8a2.5,2.5,0,0,0,1.7-.4h2.8a.8.8,0,0,1,.7.2l1,1.2c.2.2.1.4.1.6s-.1.8-.2,1.2.1.5.5.5h.9c.4,0,.5.2.5.6s-.1.4.1.4.3,0,.5-.1.3-.2.5-.1.3.3.2.6,0,.4.4.4a8.9,8.9,0,0,0,3.3-.8,16.6,16.6,0,0,0,3.1-1.2l.9-.2a1.4,1.4,0,0,1,1.4,1.3,8.5,8.5,0,0,1-.5,2.4c-.4,1.3-.9,2.5-1.4,3.8a22.1,22.1,0,0,1-1.8,3.4c-.8,1.2-1.7,2.3-2.5,3.6a4.2,4.2,0,0,0-.7,2.9,2.9,2.9,0,0,0,.2.9c.1.1.1.2.1.4s-.2.3-.4.4-.3-.1-.4-.3a5.3,5.3,0,0,1-.1-3.3,15.1,15.1,0,0,1,2-3.5,20,20,0,0,0,3.1-5.5,23.2,23.2,0,0,0,1.3-3.7,6.9,6.9,0,0,0,.2-1.3c0-.6-.3-.8-.8-.6l-2.9,1.1a11.8,11.8,0,0,1-4.5,1c-.2-.1-.3,0-.5.1s-.7,0-.9-.4,0-.3-.2-.3l-.3.3a5,5,0,0,0-.5,3c.3,2.5.5,5.1.7,7.7a16.1,16.1,0,0,1,0,2.2,9,9,0,0,0,.8,2.8l.8,1.3a.3.3,0,0,1,0,.4h-.4c-.3-.2-.4-.6-.6-.9a10.4,10.4,0,0,1-1.1-3.1,4.8,4.8,0,0,0-.9-2.1l-.6-.2h-1.6c-.7,0-1.1-.3-1.1-1a21.1,21.1,0,0,1-.2-2.5,3.7,3.7,0,0,0-1.2-2.6.5.5,0,0,1,0-.7l.2-.2a2.1,2.1,0,0,0,.5-1.7,12.3,12.3,0,0,1-.2-2,.8.8,0,0,0-.8-.7c-.3,0-.5.1-.5.4a2.1,2.1,0,0,1-.6,1c-.1.2-.3.3-.5.1s-.1-.3,0-.5a2,2,0,0,0,.4-1.3,8.6,8.6,0,0,1,0-1.6.4.4,0,0,1,.2-.5.6.6,0,0,1,.5.2c.1.1.2.3.4.3s.3,0,.4-.2a.4.4,0,0,0-.1-.3.9.9,0,0,0-1-.6h-.5a1,1,0,0,0-.8.3,1.3,1.3,0,0,1-1,.4,6.8,6.8,0,0,0-2,.2,2.2,2.2,0,0,1-2.3-.5c-.1-.2-.1-.4.1-.5s.5-.4.4-.8v-.4a.9.9,0,0,0-.4-1c-.2-.1-.2-.3,0-.5a2.6,2.6,0,0,1,1.9-.5,1.1,1.1,0,0,0,1.1-.4l1-1.2c.2-.1.2-.3.1-.5a1,1,0,0,1-.5-.4c-.3-.2-.3-.4-.1-.7s.4-.4.1-.9a3.6,3.6,0,0,1,.1-4.7l5.3-6c.3-.3.5-.6.2-1s.1-.7.4-.8l1.1-.3a1,1,0,0,1,1,.4l7.5,6.5a1,1,0,0,1,.4,1c0,.2.1.4.1.6s-.4,1.2-1.2,1-.4.1-.5.2l-2.6,2.8-2.9,3.3a3.8,3.8,0,0,1-4.5.8l-.4-.2c-.2-.1-.5-.2-.7.1s-.4.5-.8.2-.3-.2-.4-.1l-.8.9c-.2.2,0,.4.3.4Z" style="fill: #0b0808"/>
          <path d="M110.2,71.3h-7.8c-.4.1-.6-.1-.8-.4l-1.8-3c-.8-1.6-1.7-3.1-2.6-4.6s-2-3.7-3.1-5.4a1.7,1.7,0,0,1,0-2.1c1.1-1.8,2.1-3.6,3.1-5.4s2.5-4.3,3.7-6.4l.7-1.2a.6.6,0,0,1,.8-.4h15.3a1.3,1.3,0,0,1,1.4.8l3.4,6,4.1,7c.1.2.2.2.2.4a.3.3,0,0,1,0,.5l-3.3,5.7-2.9,5.1L118.8,71c-.2.3-.4.3-.7.3Zm-.2-1.1A13.2,13.2,0,1,0,96.8,56.8,13.1,13.1,0,0,0,110,70.2Z" style="fill: #0b0808"/>
          <path d="M100.6,137.4h0c-.7,0-1-.3-.8-1.1s.2-.2.4-.2h1c.3,0,.4.1.4.4S101.7,137.4,100.6,137.4Z" style="fill: #0b0808"/>
          <path d="M101.3,133.5l.2.2.8.6a.5.5,0,0,1,0,.7c-.6.5-.6.6-1.3,0s-.7-.5-.1-1.2Z" style="fill: #0b0808"/>
          <path d="M100.8,139.8l-.3-.2c-.1-.2-.2-.3-.2-.4s-.2-.5.2-.7l.8-.4c.2-.1.3-.1.5.1l.3.6a.2.2,0,0,1,0,.3A4,4,0,0,1,100.8,139.8Z" style="fill: #0b0808"/>
          <path d="M98.4,137.4c-1,0-.8.1-.8-.9s.1-.5.4-.5h.8c.3,0,.5.1.5.4S99.4,137.4,98.4,137.4Z" style="fill: #0b0808"/>
          <path d="M97.4,130.2a2.2,2.2,0,0,1-.7.9c-.1.1-.2,0-.3-.1l-.8-.7c-.1,0-.1,0-.1-.1s.2-.5.4-.8.3-.2.5-.1l.9.8Z" style="fill: #0b0808"/>
          <path d="M99.9,134l-.3-.2-.7-.6c-.2-.2-.2-.3,0-.5l.4-.5c.2-.2.3-.1.5,0l.8.7c.1,0,.1.1.1.2S100.2,134,99.9,134Z" style="fill: #0b0808"/>
          <path d="M98.8,140.8c-.1,0-.2,0-.2-.1h-.1c-.5-.7-.5-.9.2-1.3l.4-.2c.1,0,.3-.3.5-.1a3.1,3.1,0,0,1,.5,1l-.2.2a3.3,3.3,0,0,0-1,.6Z" style="fill: #0b0808"/>
          <path d="M99,131.6l-.6.9c-.3.1-.4-.1-.6-.3l-.5-.4c-.2-.1-.3-.3-.2-.4s.4-.5.6-.8H98l.9.8Z" style="fill: #0b0808"/>
          <path d="M94.9,142.7l-.4-.2c-.1-.1-.1-.3-.2-.4s-.1-.5.2-.7l.8-.4h.3c.3.1.4.5.5.8s-.1.4-.3.5Z" style="fill: #0b0808"/>
          <path d="M94,137.4h-.3c-.5,0-.7-.1-.7-.5a.7.7,0,0,1,.7-.8h.5c.3,0,.5-.1.6.2a1.4,1.4,0,0,1,.1.9c0,.2-.2.2-.3.2Z" style="fill: #0b0808"/>
          <path d="M96.8,141.7c-.2,0-.3-.1-.3-.2s-.6-.8.3-1.2a.1.1,0,0,1,.1-.1c.2-.1.4-.4.6-.2a1.6,1.6,0,0,1,.5.9c0,.1,0,.2-.1.2A6,6,0,0,1,96.8,141.7Z" style="fill: #0b0808"/>
          <path d="M96.2,137.4c-1,.1-.9-.1-.9-1s.2-.3.5-.3h.8c.3,0,.4.1.5.4S97.1,137.4,96.2,137.4Z" style="fill: #0b0808"/>
          <path d="M94.8,97v7.8c0,.5-.2.8-.5.8s-.4-.4-.4-.8V89.1a1.1,1.1,0,0,1,.1-.5c.1-.1.2-.3.4-.3a.7.7,0,0,1,.4.5V97Z" style="fill: #0b0808"/>
          <path d="M128.8,97v7.8c0,.5-.2.8-.5.8s-.6-.4-.6-.8V89.1c0-.2.1-.3.2-.5s.2-.4.4-.3.4.3.4.5a.4.4,0,0,1,.1.3Z" style="fill: #0b0808"/>
          <path d="M139.3,93.5V88.8c0-.2,0-.5.3-.5s.6.1.7.5v9.1a.8.8,0,0,1-.3.8h-.5a.4.4,0,0,1-.2-.4Z" style="fill: #0b0808"/>
          <path d="M97.7,57A12.4,12.4,0,0,1,110,44.7a12.2,12.2,0,0,1,12.3,12.6A12.3,12.3,0,0,1,97.7,57Zm12.7-8.7a8.8,8.8,0,1,0,.2,17.6,8.8,8.8,0,1,0-.2-17.6Z" style="fill: #0b0808"/>
        </g>
        <path d="M58.6,93.2V92a.3.3,0,1,0-.6,0v.2a38.3,38.3,0,0,1-.3,4.7c-.1,1.5-.1,3-.2,4.5s0,.7.7.7h.5c.3,0,.4-.1.4-.4s-.1-.9-.1-1.3C59,98,58.7,95.6,58.6,93.2Z" style="fill: #0b0808"/>
      </g>
    </g>
  </g>
</svg>
