<svg xmlns="http://www.w3.org/2000/svg" width="376.6" height="193.2" viewBox="0 0 376.6 193.2">
  <title>logo</title>
  <g id="Layer_2" data-name="Layer 2">
    <g>
      <rect x="17.4" y="63.9" width="341.7" height="60" style="fill: #232323"/>
      <g>
        <path d="M129.6,91.1h0v-16c0-.9,0-.9-.8-.9h-6.7c-.5,0-.6.2-.6.6v31.7a.9.9,0,0,1-.7,1,.9.9,0,0,1-.8-.9,6.6,6.6,0,0,1,0-1.4V76a3.4,3.4,0,0,1,0-1c.1-.6-.1-.8-.6-.8h-6.9c-.5,0-.6.2-.6.7v31.2a7.7,7.7,0,0,0,1,4.2,5.1,5.1,0,0,0,4.4,2.7h7a4.1,4.1,0,0,0,1.9-.4,6.5,6.5,0,0,0,3.4-6Z" style="fill: #fff"/>
        <path d="M168.3,93.6V80.7a6.8,6.8,0,0,0-1.1-3.9,4.8,4.8,0,0,0-4.4-2.6h-6.9a4.3,4.3,0,0,0-2.7,1,6.8,6.8,0,0,0-2.6,5.6c-.1,8.4,0,16.8,0,25.2a7.7,7.7,0,0,0,1,4.2,5,5,0,0,0,4.5,2.8h7a4.4,4.4,0,0,0,2.7-.9,7,7,0,0,0,2.5-5.5Z" style="fill: #fff"/>
        <path d="M107.1,113h3.4c.4,0,.8-.1.7-.6a52.1,52.1,0,0,1-.8-5.5c-.5-3.4-.8-6.8-1.2-10.1s-.5-4.3-.8-6.5-.5-3.9-.8-5.9-.8-6.4-1.1-9.6c-.1-.5-.2-.6-.6-.6H95.6c-.3,0-.6,0-.7.5-.6,4.5-1.1,9-1.7,13.5s-1,8.3-1.6,12.5-.7,6.4-1.1,9.6c-.1.6-.1,1.2-.2,1.8s-.1.9.7.9h6.5c.6,0,.8-.2.8-.7s.4-2.7.4-4a.8.8,0,0,1,.9-.9h2.2a.8.8,0,0,1,.9.9c0,1.3.2,2.6.3,4s.3.7.8.7Z" style="fill: #fff"/>
        <path d="M149.9,78.7c-.1-1.2-.3-2.4-.3-3.6s0-.9-.9-.9H132.3c-.8,0-.7.1-.8.9v.8c-.2,1-.2,2.1-.3,3.1s0,.8.5.8h3.7c.9-.1,1.1.1,1.1.9,0,10.1-.1,20.2-.1,30.3a4.1,4.1,0,0,1,0,1.1c0,.8.1.9.9.9h5.9c1.3,0,1.3,0,1.3-1.3V96.6h0V80.7c0-.7.2-.9,1-.9h3.4C149.8,79.8,150,79.7,149.9,78.7Z" style="fill: #fff"/>
        <g>
          <path d="M179.7,112.9h-4.8c-.9,0-.9,0-1-.8s-.5-4.4-.8-6.6-.5-4.5-.8-6.7-.5-4-.8-5.9l-.6-5c-.1-1.6-.4-3.2-.5-4.7s-.5-4-.7-5.9-.3-1.6-.4-2.4.1-.7.5-.7h7a.5.5,0,0,1,.6.6c.1,1.9.4,3.7.5,5.6s.5,4.3.6,6.4.3,5.3.5,7.9.1,3,.2,4.5a19.5,19.5,0,0,1,.2,2.3c0,.3,0,.7.3.7s.4-.4.5-.7c.1-2.4.2-4.8.5-7.3s.3-5.5.7-8.2.2-3.1.3-4.6.3-4.5.5-6.7c0-.4.2-.5.5-.5h8c.6,0,.8.2.9.8.2,3.5.4,7,.7,10.5s.3,4.6.5,6.8.3,5.3.7,7.9a7.6,7.6,0,0,0,.1,1.5c0,.2,0,.6.4.5s.3-.3.3-.5c0-2.1.3-4.3.4-6.4s.4-5.1.5-7.7.5-5.4.7-8.2.4-3.2.4-4.8.3-.4.6-.4h7c.6,0,.5.3.5.8l-.9,6.3c-.3,2.5-.5,4.9-.8,7.3s-.9,6.3-1.2,9.4-1,7-1.3,10.5c-.1,1.3-.4,2.6-.5,4s-.3.4-.6.4h-10c-.8,0-.8,0-.9-.8a59.4,59.4,0,0,0-.3-7.3c-.2-2.1-.2-4.2-.3-6.3s-.4-5.3-.4-8c0-.3,0-.6-.3-.6s-.4.3-.4.6,0,1.3-.1,1.9c-.1,3.4-.3,6.9-.5,10.4,0,1.9-.3,3.7-.2,5.6s-.2,2.7-.2,4.1-.3.4-.6.4Z" style="fill: #d72126"/>
          <path d="M205.2,93.7V80.8a6.7,6.7,0,0,1,2.4-5.5,5.2,5.2,0,0,1,2.9-1.1h6.6a5,5,0,0,1,4.5,2.5,6.6,6.6,0,0,1,1.2,4.1c0,8.6.1,17.1,0,25.6a6.8,6.8,0,0,1-3,6,3.8,3.8,0,0,1-2.3.6h-6.6a5,5,0,0,1-4.9-3.1,6.9,6.9,0,0,1-.8-3.5Zm9.6,0V81a1.1,1.1,0,0,0-.1-.5c-.1-.4-.2-.7-.6-.8s-.6.3-.8.5a2.9,2.9,0,0,0-.2.9v25.1c0,.7.4,1.4.9,1.4s.8-.5.8-1.4Z" style="fill: #d72126"/>
          <path d="M223.9,93.5V74.9c0-.5.2-.7.6-.7h12.1a4.7,4.7,0,0,1,3.4,2.2,6.8,6.8,0,0,1,1.4,4.1V97.8a4,4,0,0,1-1,3.1,1.4,1.4,0,0,1-1.1.5c-.5.1-.6.3-.5.9l1.8,7.7a21,21,0,0,0,.6,2.4c.3.5-.1.5-.5.5h-5.6c-.6,0-.9-.2-1-.8-.5-3.2-1.3-6.3-1.7-9.5,0-.3,0-.6-.3-.6s-.3.4-.3.6c0,3.2-.1,6.4,0,9.6a.5.5,0,0,1-.5.7h-6.8c-.4,0-.6-.1-.6-.5V93.5Zm7.9-5.4v7.8c0,.2-.1.5.2.6a1,1,0,0,0,.9-.1,1.3,1.3,0,0,0,.5-1.2V81.1a1.7,1.7,0,0,0-.1-.7,1.1,1.1,0,0,0-1.1-.8c-.5.1-.4.6-.4,1Z" style="fill: #d72126"/>
          <path d="M242.6,93.6V74.9c0-.5.1-.7.6-.7H250c.5,0,.7.2.7.8v6.8a29.4,29.4,0,0,0,0,4.2c0,.2-.1.5.2.5s.3-.3.3-.5c.3-2.1.7-4.2,1-6.3s.6-3.3.7-4.9.2-.6.5-.6h7c.5,0,.6.2.5.6-.5,2-.9,4-1.4,6l-1.8,8.1c-.3,1-.4,2.1-.8,3.1a3.8,3.8,0,0,0,0,2.1l.9,4c.4,2.1.9,4.3,1.4,6.4s.7,3.6,1.1,5.5l.6,2.3c.1.5-.1.7-.5.7h-6.7c-.6,0-.8-.2-.9-.9-.2-2.3-.6-4.5-.9-6.8s-.5-3.1-.7-4.7v-.3a.3.3,0,0,0-.3-.3c-.2,0-.2.2-.2.3a9.7,9.7,0,0,0-.1,2.4c.2,2.9.1,5.7.1,8.6s0,1.6-1.6,1.6h-5.9c-.4,0-.6-.2-.6-.7V93.6Z" style="fill: #d72126"/>
          <path d="M270.6,74.2h3.6a4.1,4.1,0,0,1,3.3,1.5,7.9,7.9,0,0,1,1.7,3.1,10.5,10.5,0,0,1,.3,3.1v5.9c0,.8-.2.9-.9.9-2.2-.1-4.3-.1-6.4,0s-.7-.3-.8-.7.1-2.7.1-4V80.9c-.1-.6-.5-1.1-.9-1.1s-.8.4-.8,1.1v7.4a2,2,0,0,0,1.3,2l4.7,2.3a6.2,6.2,0,0,1,3.4,4.2,12.9,12.9,0,0,1,.3,3.9,44.2,44.2,0,0,1,0,6.3c-.3,2.4-1.1,4.5-3.5,5.6a2.9,2.9,0,0,1-1.6.3h-7.2a4.8,4.8,0,0,1-4.3-2.5,6.9,6.9,0,0,1-1-3.7V99.4c0-.7,0-.8.8-.8H269c.8,0,.9.2.9,1-.1,2.3-.1,4.6-.1,6.9a1.4,1.4,0,0,0,.2.6.7.7,0,0,0,1.2.1,2,2,0,0,0,.3-1.1c0-2.1-.1-4.3,0-6.4s-.6-2-1.7-2.6-3.4-1.4-5-2.3a5.6,5.6,0,0,1-2.9-5.1c-.1-3.3-.2-6.6,0-9.9a5.8,5.8,0,0,1,3.3-5.1,6.4,6.4,0,0,1,2.3-.5Z" style="fill: #d72126"/>
          <path d="M147.4,118.4a3.8,3.8,0,0,0-1.5-.1H67.4c-.3,0-.8.2-.9-.1s.3-.5.4-.8l4.7-6.6,5.8-8.3c1.5-2.2,3-4.5,4.6-6.7s.6-.7,0-1.7c-3.1-4.4-6.1-9-9.1-13.5s-4.1-6.1-6.1-9.1c-.1-.2-.4-.4-.2-.7a.7.7,0,0,1,.8-.4h81.9c.4,0,1,.3,1.2-.1s-.4-.7-.7-1L138.3,57.7l-8.9-8.8a1,1,0,0,0-1.2-.3,25.1,25.1,0,0,1-11.5,1.8,21.9,21.9,0,0,1-6.7-1.6,24.2,24.2,0,0,1-10.5-7.6,22.7,22.7,0,0,1-4.2-7.6c-.5-1.4-.7-2.8-1.1-4.2a24.5,24.5,0,0,1-.3-5.4c0-.2-.1-.5.2-.6a.6.6,0,0,1,.7.3c4,4.1,8.3,7.9,12.4,12,.6.6,1.2,1.1,1.7,1.7a1.1,1.1,0,0,0,1.3.3l7.2-2,4.5-1.4,3.5-.9a1.2,1.2,0,0,0,1-1.1l2.1-8.8c.6-2.2,1.1-4.4,1.7-6.6a.9.9,0,0,0-.4-1L115.7,2.4l-.7-.5c-.1-.2-.3-.4-.2-.6s.3-.2.5-.3a27,27,0,0,1,11.6,1.2,24.8,24.8,0,0,1,13.6,11.5,23.9,23.9,0,0,1,3,14.1,21.6,21.6,0,0,1-1.6,7,1.1,1.1,0,0,0,.3,1.3l19.6,19.5,14.4,14.3a1.3,1.3,0,0,0,1,.4h17.3a1.5,1.5,0,0,0,1.3-.6l15.9-16,18.9-18.8a.9.9,0,0,0,.2-1,24.6,24.6,0,0,1-1.6-9.3,22.7,22.7,0,0,1,1.3-7.7,24.3,24.3,0,0,1,8-11.4,27.8,27.8,0,0,1,7.3-4.1A29,29,0,0,1,255.9,0a.7.7,0,0,1,.6.3c.1.2-.1.3-.2.4l-6.8,7-6.9,7.2a1.3,1.3,0,0,0-.4,1.6c1,3.5,2.1,6.9,3,10.5.4,1.7.9,3.3,1.4,5a.9.9,0,0,0,.7.6c2.5.6,5.1,1.1,7.6,1.8l8.1,2a1.1,1.1,0,0,0,1.3-.3l12.8-13.3,1.3-1.3c.4-.4.7-.3.7.2a28.8,28.8,0,0,1-.3,8.3,25.2,25.2,0,0,1-10.2,15.6,24.6,24.6,0,0,1-7.3,3.5,26.4,26.4,0,0,1-10.8.8,20.8,20.8,0,0,1-6-1.8,1.2,1.2,0,0,0-1.6.3l-8.7,8.8L221.7,69.7c-.1.1-.4.2-.3.5s.4.1.6.1h82.5c.3,0,.6-.1.7.2s0,.7-.2,1c-2.3,3.2-4.6,6.4-6.8,9.7s-5.7,8.2-8.5,12.2c-.3.4-.3.6,0,.9l8.4,12.5,6.6,10,.7.9c.2.4.1.5-.3.5H225.7c-.3,0-.6-.1-.9.1L242,135.5a1.1,1.1,0,0,0,1.4.2l3.5-1a27.2,27.2,0,0,1,7-.4,23.1,23.1,0,0,1,8.1,2.1,24.5,24.5,0,0,1,10.6,9,26.7,26.7,0,0,1,3.6,9.1,25.1,25.1,0,0,1,.4,6.1c.1.3.1.6-.1.7s-.5-.2-.6-.3l-14-13.5a1.7,1.7,0,0,0-1.5-.4l-6.5,1.9-6.8,1.9-2,.6a.9.9,0,0,0-.7.6c-.5,2.2-1,4.5-1.6,6.7s-.9,3.6-1.3,5.4-.5,2.3-.9,3.5a1.4,1.4,0,0,0,.5,1.5l5.3,5,8.2,8,.8.7c.3.4.2.7-.2.7a28.3,28.3,0,0,1-8.7-.4,22.1,22.1,0,0,1-7-2.7,24,24,0,0,1-9-8.9,24.7,24.7,0,0,1-3-17.2,17,17,0,0,1,1.7-5.4c.3-.5,0-.7-.3-1l-5.4-5.3L211.8,131l-12.4-12.4a1.5,1.5,0,0,0-1.2-.4h-24a2.1,2.1,0,0,0-1.6.7c-3.8,3.9-7.7,7.7-11.5,11.5s-10,10.2-15.1,15.2l-3.3,3.3a.9.9,0,0,0-.2,1.1,25,25,0,0,1,1.5,14.3,23.4,23.4,0,0,1-2.4,6.7,24.5,24.5,0,0,1-7.5,8.8,25.6,25.6,0,0,1-7.6,3.7,26.2,26.2,0,0,1-8.8,1c-.2,0-.5.1-.6-.2s.1-.4.3-.6l13.8-14.2a1.2,1.2,0,0,0,.3-1.4c-.8-2.2-1.3-4.5-2-6.8l-2.1-7.6h0c0-1.5-1.2-1.8-2.4-2.1l-4.7-1.1c-1.7-.4-3.5-.7-5.1-1.2s-3-.6-4.5-1.1a1.4,1.4,0,0,0-1.5.4c-4.4,4.8-8.9,9.5-13.4,14.2-.3.3-.5.9-1.2.6s-.3-.8-.3-1.2V157a18,18,0,0,1,.6-3.2,19.6,19.6,0,0,1,1.7-4.8,26.2,26.2,0,0,1,3.3-5.3,28.6,28.6,0,0,1,7-6,26,26,0,0,1,16.1-3,16.7,16.7,0,0,1,5.4,1.5,1.2,1.2,0,0,0,1.4-.3l17.1-17.1Zm32.3-5.5h5.2c.3,0,.6,0,.6-.4s.2-2.7.2-4.1.2-3.7.2-5.6c.2-3.5.4-7,.5-10.4.1-.6,0-1.3.1-1.9s.1-.6.4-.6.3.3.3.6c0,2.7.3,5.3.4,8s.1,4.2.3,6.3a59.4,59.4,0,0,1,.3,7.3c.1.8.1.8.9.8h10c.3,0,.6,0,.6-.4s.4-2.7.5-4c.3-3.5.9-7,1.3-10.5s.8-6.3,1.2-9.4.5-4.8.8-7.3l.9-6.3c0-.5.1-.8-.5-.8h-7c-.3,0-.6.1-.6.4s-.4,3.2-.4,4.8-.6,5.5-.7,8.2-.4,5.2-.5,7.7-.4,4.3-.4,6.4c0,.2,0,.5-.3.5s-.4-.3-.4-.5a7.6,7.6,0,0,1-.1-1.5c-.4-2.6-.4-5.2-.7-7.9s-.3-4.5-.5-6.8-.5-7-.7-10.5c-.1-.6-.3-.8-.9-.8h-8c-.3,0-.5.1-.5.5-.2,2.2-.4,4.5-.5,6.7s-.1,3.1-.3,4.6-.4,5.5-.7,8.2-.4,4.9-.5,7.3c-.1.3-.1.8-.5.7s-.3-.4-.3-.7a19.5,19.5,0,0,0-.2-2.3c-.1-1.5-.1-3-.2-4.5s-.4-5.3-.5-7.9-.5-4.3-.6-6.4-.4-3.7-.5-5.6a.5.5,0,0,0-.6-.6h-7c-.4,0-.6.2-.5.7s.3,1.6.4,2.4.5,3.9.7,5.9.4,3.1.5,4.7l.6,5c.3,1.9.6,3.9.8,5.9s.6,4.5.8,6.7.6,4.4.8,6.6.1.8,1,.8ZM129.6,91.1h0v-16c0-.9,0-.9-.8-.9h-6.7c-.5,0-.6.2-.6.6v31.7a.9.9,0,0,1-.7,1,.9.9,0,0,1-.8-.9,6.6,6.6,0,0,1,0-1.4V76a3.4,3.4,0,0,1,0-1c.1-.6-.1-.8-.6-.8h-6.9c-.5,0-.6.2-.6.7v31.2a7.7,7.7,0,0,0,1,4.2,5.1,5.1,0,0,0,4.4,2.7h7a4.1,4.1,0,0,0,1.9-.4,6.5,6.5,0,0,0,3.4-6Zm38.7,2.5V80.7a6.8,6.8,0,0,0-1.1-3.9,4.8,4.8,0,0,0-4.4-2.6h-6.9a4.3,4.3,0,0,0-2.7,1,6.8,6.8,0,0,0-2.6,5.6c-.1,8.4,0,16.8,0,25.2a7.7,7.7,0,0,0,1,4.2,5,5,0,0,0,4.5,2.8h7a4.4,4.4,0,0,0,2.7-.9,7,7,0,0,0,2.5-5.5Zm36.9.1v12.7a6.9,6.9,0,0,0,.8,3.5,5,5,0,0,0,4.9,3.1h6.6a3.8,3.8,0,0,0,2.3-.6,6.8,6.8,0,0,0,3-6c.1-8.5,0-17,0-25.6a6.6,6.6,0,0,0-1.2-4.1,5,5,0,0,0-4.5-2.5h-6.6a5.2,5.2,0,0,0-2.9,1.1,6.7,6.7,0,0,0-2.4,5.5Zm18.7-.2h0v18.9c0,.4.2.5.6.5h6.8a.5.5,0,0,0,.5-.7c-.1-3.2,0-6.4,0-9.6,0-.2-.1-.6.3-.6s.3.3.3.6c.4,3.2,1.2,6.3,1.7,9.5.1.6.4.8,1,.8h5.6c.4,0,.8,0,.5-.5a21,21,0,0,1-.6-2.4l-1.8-7.7c-.1-.6,0-.8.5-.9a1.4,1.4,0,0,0,1.1-.5,4,4,0,0,0,1-3.1V80.5a6.8,6.8,0,0,0-1.4-4.1,4.7,4.7,0,0,0-3.4-2.2H224.5c-.4,0-.6.2-.6.7Zm18.7.1h0v18.7c0,.5.2.7.6.7h5.9c1.6,0,1.6,0,1.6-1.6s.1-5.7-.1-8.6a9.7,9.7,0,0,1,.1-2.4c0-.1,0-.3.2-.3a.3.3,0,0,1,.3.3v.3c.2,1.6.5,3.2.7,4.7s.7,4.5.9,6.8c.1.7.3.9.9.9h6.7c.4,0,.6-.2.5-.7l-.6-2.3c-.4-1.9-.7-3.7-1.1-5.5s-1-4.3-1.4-6.4l-.9-4a3.8,3.8,0,0,1,0-2.1c.4-1,.5-2.1.8-3.1l1.8-8.1c.5-2,.9-4,1.4-6,.1-.4,0-.6-.5-.6h-7c-.3,0-.5.2-.5.6s-.5,3.3-.7,4.9-.7,4.2-1,6.3c0,.2,0,.5-.3.5s-.2-.3-.2-.5a29.4,29.4,0,0,1,0-4.2V75c0-.6-.2-.8-.7-.8h-6.8c-.5,0-.6.2-.6.7ZM107.1,113h3.4c.4,0,.8-.1.7-.6a52.1,52.1,0,0,1-.8-5.5c-.5-3.4-.8-6.8-1.2-10.1s-.5-4.3-.8-6.5-.5-3.9-.8-5.9-.8-6.4-1.1-9.6c-.1-.5-.2-.6-.6-.6H95.6c-.3,0-.6,0-.7.5-.6,4.5-1.1,9-1.7,13.5s-1,8.3-1.6,12.5-.7,6.4-1.1,9.6c-.1.6-.1,1.2-.2,1.8s-.1.9.7.9h6.5c.6,0,.8-.2.8-.7s.4-2.7.4-4a.8.8,0,0,1,.9-.9h2.2a.8.8,0,0,1,.9.9c0,1.3.2,2.6.3,4s.3.7.8.7ZM270.6,74.2h-3.1a6.4,6.4,0,0,0-2.3.5,5.8,5.8,0,0,0-3.3,5.1c-.2,3.3-.1,6.6,0,9.9a5.6,5.6,0,0,0,2.9,5.1c1.6.9,3.3,1.5,5,2.3s1.7,1,1.7,2.6,0,4.3,0,6.4a2,2,0,0,1-.3,1.1.7.7,0,0,1-1.2-.1,1.4,1.4,0,0,1-.2-.6c0-2.3,0-4.6.1-6.9,0-.8-.1-1-.9-1h-6.3c-.8,0-.8.1-.8.8v7.4a6.9,6.9,0,0,0,1,3.7,4.8,4.8,0,0,0,4.3,2.5h7.2a2.9,2.9,0,0,0,1.6-.3c2.4-1.1,3.2-3.2,3.5-5.6a44.2,44.2,0,0,0,0-6.3,12.9,12.9,0,0,0-.3-3.9,6.2,6.2,0,0,0-3.4-4.2l-4.7-2.3a2,2,0,0,1-1.3-2V80.9c0-.7.4-1.1.8-1.1s.8.5.9,1.1V84c0,1.3-.1,2.6-.1,4s.1.8.8.7,4.2-.1,6.4,0c.7,0,.9-.1.9-.9V81.9a10.5,10.5,0,0,0-.3-3.1,7.9,7.9,0,0,0-1.7-3.1,4.1,4.1,0,0,0-3.3-1.5Zm-66.1-3.9h1.1a2.2,2.2,0,0,0,1.9-.7l11.4-11.5,14.9-15a1.5,1.5,0,0,0,0-2.2c-.9-.9-1.6-1-2.3-.2l-5.3,5.2L202.5,69.8c0,.1-.2.2-.1.3s.2.2.3.2Zm-45.6.1h1.7l.5-.2c.1-.2-.1-.3-.2-.4l-15.2-15-9-8.9c-.7-.8-1.5-.7-2.3.1a1.4,1.4,0,0,0,0,2.2l4.1,4.1,16.6,16.5C156.2,69.9,157.3,70.7,158.9,70.4Zm46.2,47.9c.3.3.5.4.6.6l16.1,15.8,7.9,7.9a1.3,1.3,0,0,0,1.8.3c.9-.7,1.6-1.6.4-2.8s-2.8-2.8-4.2-4.2l-16.2-16c-1.2-1.2-2.3-1.9-4-1.7Zm-45.8.2-.4-.2h-4a.9.9,0,0,0-.7.3l-13.1,13.2-5.2,5.2a1.4,1.4,0,0,0-.3,1.7c.6,1.4,1.8,1.6,2.8.5l9.8-9.8Zm-9.4-39.8c-.1-1.2-.3-2.4-.3-3.6s0-.9-.9-.9H132.3c-.8,0-.7.1-.8.9v.8c-.2,1-.2,2.1-.3,3.1s0,.8.5.8h3.7c.9-.1,1.1.1,1.1.9,0,10.1-.1,20.2-.1,30.3a4.1,4.1,0,0,1,0,1.1c0,.8.1.9.9.9h5.9c1.3,0,1.3,0,1.3-1.3V96.6h0V80.7c0-.7.2-.9,1-.9h3.4C149.8,79.8,150,79.7,149.9,78.7Z" style="fill: #0b0808"/>
          <path d="M182.8,156a4.1,4.1,0,0,0,2.7-.5h4.6a1.5,1.5,0,0,1,1,.3,17.1,17.1,0,0,1,1.8,2,1,1,0,0,1,.1.9,13.8,13.8,0,0,0-.3,2c0,.6.2.8.8.8h1.4c.7,0,.8.2.8.9s-.1.6.2.7.5,0,.7-.2.6-.2.9-.1a.8.8,0,0,1,.3.9c-.1.7,0,.7.7.7a19.6,19.6,0,0,0,5.3-1.3,41.4,41.4,0,0,0,4.9-1.9,4.2,4.2,0,0,1,1.6-.4,2.3,2.3,0,0,1,2.1,2.1,10.1,10.1,0,0,1-.8,3.9,43.1,43.1,0,0,1-2.2,6,36,36,0,0,1-2.9,5.5c-1.3,2-2.8,3.8-4,5.9a7.2,7.2,0,0,0-1.2,4.6,3.7,3.7,0,0,0,.4,1.4c0,.2.1.4.1.6a.7.7,0,0,1-.6.7c-.4.1-.5-.2-.7-.5a8,8,0,0,1-.1-5.3,21.2,21.2,0,0,1,3.3-5.6,38,38,0,0,0,4.9-8.8,47.6,47.6,0,0,0,2.1-6,15.2,15.2,0,0,0,.3-2.1c0-1-.5-1.3-1.4-1L205,164a19.7,19.7,0,0,1-7.2,1.5,1.2,1.2,0,0,0-.8.2.9.9,0,0,1-1.4-.7c-.1-.2-.1-.4-.3-.4s-.4.2-.5.4a8.8,8.8,0,0,0-.9,4.8c.5,4.2.8,8.4,1.2,12.5.1,1.2,0,2.3,0,3.5a12.7,12.7,0,0,0,1.3,4.6,13.7,13.7,0,0,0,1.3,2c.1.2.2.5,0,.7s-.5,0-.7-.1a10.1,10.1,0,0,1-.9-1.3,15.8,15.8,0,0,1-1.8-5,8.7,8.7,0,0,0-1.5-3.4.9.9,0,0,0-.9-.3h-2.7a1.6,1.6,0,0,1-1.7-1.6c-.1-1.3-.3-2.7-.4-4.1a6.2,6.2,0,0,0-1.8-4.2.7.7,0,0,1,0-1.1l.3-.3a3,3,0,0,0,.8-2.7,31.1,31.1,0,0,1-.4-3.2,1.1,1.1,0,0,0-1.2-1.1c-.5,0-.8.1-.9.6a3,3,0,0,1-.8,1.6c-.3.3-.6.4-.9.2s-.1-.5.1-.8a3,3,0,0,0,.5-2.1v-2.7c0-.3,0-.5.3-.6a.5.5,0,0,1,.8.2c.2.2.4.5.8.5a.5.5,0,0,0,.5-.3c.1-.2.1-.4-.1-.5a2,2,0,0,0-1.6-1.1h-.9a1.7,1.7,0,0,0-1.3.5,1.4,1.4,0,0,1-1.5.6,8.8,8.8,0,0,0-3.2.4,3.5,3.5,0,0,1-3.6-.9c-.3-.3-.2-.6.1-.7a1,1,0,0,0,.6-1.3v-.8a1.2,1.2,0,0,0-.6-1.5c-.4-.2-.4-.6,0-.9a3.6,3.6,0,0,1,3-.7,1.8,1.8,0,0,0,1.7-.7l1.7-1.9a.5.5,0,0,0,.1-.8l-.8-.6c-.5-.4-.4-.7-.1-1.1s.7-.7.1-1.5a6,6,0,0,1,.2-7.6l8.6-9.6c.4-.5.7-.9.3-1.6a1,1,0,0,1,.6-1.4l1.8-.5a1.7,1.7,0,0,1,1.5.7l12.1,10.5a2.1,2.1,0,0,1,.7,1.5c0,.4.1.8.1,1.1a1.3,1.3,0,0,1-1.9,1.5.9.9,0,0,0-.9.5l-4,4.4-4.8,5.2a6.2,6.2,0,0,1-7.3,1.4l-.5-.3a.7.7,0,0,0-1.1.1c-.4.5-.8.8-1.3.3a.6.6,0,0,0-.7-.1,8.3,8.3,0,0,0-1.3,1.4c-.3.3,0,.6.5.6Z" style="fill: #0b0808"/>
          <path d="M185,52.4H172.4a1.2,1.2,0,0,1-1.3-.7c-.9-1.7-1.9-3.3-2.8-4.9l-4.2-7.4c-1.7-2.9-3.3-5.8-5.1-8.7a2.7,2.7,0,0,1,0-3.3c1.8-2.9,3.4-5.8,5.1-8.7L170,8.5l1.1-1.9a1.1,1.1,0,0,1,1.3-.7h24.5a2.4,2.4,0,0,1,2.4,1.4l5.5,9.6c2.2,3.7,4.3,7.5,6.5,11.3l.4.5a.8.8,0,0,1,0,.9c-1.9,3-3.5,6.1-5.3,9.1s-3.2,5.5-4.8,8.2-1.9,3.4-2.9,5.1a1,1,0,0,1-1,.5H185Zm-.4-1.7a21.3,21.3,0,1,0-21.2-21.6A21.3,21.3,0,0,0,184.6,50.7Z" style="fill: #0b0808"/>
          <path d="M169.5,158.6h.1c-1.3.1-1.7-.5-1.4-1.7a.7.7,0,0,1,.7-.4h1.6c.5,0,.7.2.7.7S171.2,158.6,169.5,158.6Z" style="fill: #0b0808"/>
          <path d="M170.6,152.4l.3.2,1.3,1.1c.4.4.4.7,0,1s-.9,1-2,.1-1.2-.9-.2-1.9S170.3,152.5,170.6,152.4Z" style="fill: #0b0808"/>
          <path d="M169.9,162.5c-.2,0-.4-.2-.6-.4l-.3-.6c-.3-.8-.3-.8.4-1.2l1.3-.6c.3-.2.5-.1.7.2l.6,1a.3.3,0,0,1,0,.4A8.8,8.8,0,0,1,169.9,162.5Z" style="fill: #0b0808"/>
          <path d="M166,158.6c-1.6,0-1.3.2-1.4-1.4s.2-.8.8-.7h1.3a.6.6,0,0,1,.7.7C167.5,158.6,167.5,158.6,166,158.6Z" style="fill: #0b0808"/>
          <path d="M164.4,147.1a5.7,5.7,0,0,1-1.2,1.5l-.5-.2a6.9,6.9,0,0,0-1.3-1.1v-.2c-.3-.7.4-.9.6-1.3a.5.5,0,0,1,.8-.2l1.6,1.3Z" style="fill: #0b0808"/>
          <path d="M168.5,153.1l-.5-.2-1.2-1a.5.5,0,0,1-.1-.8l.8-.9c.2-.3.5-.2.7,0l1.3,1.2.2.3C169.8,152.1,168.9,153.1,168.5,153.1Z" style="fill: #0b0808"/>
          <path d="M166.6,164.1c-.2,0-.3-.1-.3-.2s-.1-.1-.2-.2-.7-1.3.4-1.9l.6-.4c.2-.1.5-.5.8-.1a2.2,2.2,0,0,1,.7,1.6c.1.1-.1.2-.2.2l-1.7.9Z" style="fill: #0b0808"/>
          <path d="M167,149.3a3.8,3.8,0,0,1-1.1,1.4c-.4.2-.6-.1-.8-.4l-.9-.7c-.3-.2-.4-.4-.3-.7a4.8,4.8,0,0,1,.9-1.1c.1-.2.4-.1.5,0l1.5,1.3C166.9,149.2,166.9,149.3,167,149.3Z" style="fill: #0b0808"/>
          <path d="M160.4,167.2a.7.7,0,0,1-.7-.4l-.3-.6c-.3-.5-.2-.8.3-1.1l1.4-.7h.3c.6.3.7.9.9,1.4s-.1.6-.5.8A4.6,4.6,0,0,0,160.4,167.2Z" style="fill: #0b0808"/>
          <path d="M158.9,158.7h-.5c-.8,0-1-.2-1-.9s.3-1.3,1.1-1.3h.8a.9.9,0,0,1,.9.4,2,2,0,0,1,.1,1.5c0,.2-.3.2-.4.2h-1Z" style="fill: #0b0808"/>
          <path d="M163.5,165.5c-.4.1-.5,0-.6-.2s-.9-1.4.4-2h.3c.3-.1.5-.7,1-.3a2.1,2.1,0,0,1,.7,1.4c.1.1,0,.3-.1.4A8.5,8.5,0,0,1,163.5,165.5Z" style="fill: #0b0808"/>
          <path d="M162.4,158.6c-1.6.2-1.3-.1-1.3-1.5a.5.5,0,0,1,.6-.6h1.4c.5,0,.7.2.7.7S163.9,158.6,162.4,158.6Z" style="fill: #0b0808"/>
          <path d="M160.2,93.7v12.6c0,.7-.3,1.2-.8,1.2s-.7-.6-.7-1.2V81.1a1.5,1.5,0,0,1,.2-.9c.1-.2.3-.5.6-.4a1,1,0,0,1,.7.7V93.7Z" style="fill: #0b0808"/>
          <path d="M214.8,93.7v12.5c0,.9-.3,1.4-.8,1.4s-.9-.7-.9-1.4V81.1a2.9,2.9,0,0,1,.2-.9c.2-.2.4-.6.8-.5s.5.4.6.8a1.1,1.1,0,0,1,.1.5Z" style="fill: #0b0808"/>
          <path d="M231.8,88.1V80.6c0-.4-.1-.9.4-1a1.1,1.1,0,0,1,1.1.8,1.7,1.7,0,0,1,.1.7V95.2a1.3,1.3,0,0,1-.5,1.2,1,1,0,0,1-.9.1c-.3-.1-.2-.4-.2-.6Z" style="fill: #0b0808"/>
          <path d="M164.9,29.4a19.8,19.8,0,1,1,19.6,19.7A19.7,19.7,0,0,1,164.9,29.4Zm20.4-14a14.2,14.2,0,1,0,14.2,14A14,14,0,0,0,185.3,15.4Z" style="fill: #0b0808"/>
        </g>
        <path d="M102,87.5V85.7c-.1-.3-.1-.6-.5-.6s-.4.3-.4.6a.4.4,0,0,0-.1.3c0,2.5-.2,5-.4,7.5s-.2,4.9-.3,7.3,0,1.1,1,1.1h.9a.5.5,0,0,0,.6-.6c-.1-.7-.1-1.4-.2-2.1C102.6,95.3,102.1,91.4,102,87.5Z" style="fill: #0b0808"/>
      </g>
      <polygon points="325.5 63.9 341.7 93.9 324.3 123.9 359.1 123.9 359.1 63.9 325.5 63.9" style="fill: #4c4c4c"/>
      <polygon points="342.9 63.9 359.1 93.9 341.7 123.9 376.6 123.9 376.6 63.9 342.9 63.9" style="fill: #cf2d37"/>
      <polygon points="34.9 93.9 51.1 63.9 17.4 63.9 17.4 123.9 52.3 123.9 34.9 93.9" style="fill: #4c4c4c"/>
      <polygon points="17.5 93.9 33.6 63.9 0 63.9 0 123.9 34.9 123.9 17.5 93.9" style="fill: #cf2d37"/>
    </g>
  </g>
</svg>
