<svg xmlns="http://www.w3.org/2000/svg" width="210" height="169.7" viewBox="0 0 210 169.7">
  <title>logo</title>
  <g id="Layer_2" data-name="Layer 2">
    <g>
      <path d="M55.5,80h0V65.9c0-.7,0-.7-.7-.7H48.9c-.4,0-.6.1-.6.5.1,8.9.1,17.7.1,26.5v1.4a.7.7,0,0,1-.7.8c-.4,0-.6-.4-.7-.8V66.8a2.8,2.8,0,0,1,.1-.9c.1-.5-.1-.7-.6-.7H40.4c-.4,0-.5.1-.5.6V93.2a7,7,0,0,0,.9,3.7,4.5,4.5,0,0,0,3.9,2.4h6.2a3.2,3.2,0,0,0,1.6-.4,5.7,5.7,0,0,0,3-5.3Z" style="fill: #fff"/>
      <path d="M89.5,82.2V70.9a5.9,5.9,0,0,0-1-3.4,4.2,4.2,0,0,0-3.9-2.3h-6a3.8,3.8,0,0,0-2.4.8,6.1,6.1,0,0,0-2.3,5V93.1a6.8,6.8,0,0,0,.9,3.7,4.5,4.5,0,0,0,4,2.5h6.1a3.6,3.6,0,0,0,2.4-.9,5.7,5.7,0,0,0,2.2-4.7Z" style="fill: #fff"/>
      <path d="M35.7,99.3h3c.4,0,.7-.1.6-.6a39.3,39.3,0,0,1-.6-4.8c-.5-3-.7-5.9-1.2-8.9s-.4-3.8-.7-5.7l-.6-5.2c-.4-2.8-.7-5.6-1-8.4-.1-.4-.2-.5-.5-.5H25.6c-.3,0-.5,0-.6.4L23.5,77.5c-.5,3.6-.9,7.3-1.4,11s-.6,5.6-1,8.4a7.7,7.7,0,0,1-.2,1.5c-.1.8-.1.9.7.9h5.7c.5,0,.7-.2.7-.7s.3-2.3.3-3.5.3-.7.8-.7h2c.5,0,.7.2.7.7s.2,2.4.3,3.5.3.7.7.7Z" style="fill: #fff"/>
      <path d="M73.3,69.1,73,65.9c0-.7,0-.7-.7-.7H57.9c-.7,0-.7,0-.7.7s-.1.5-.1.8a24.5,24.5,0,0,0-.2,2.7c-.1.4,0,.7.4.7h3.3c.8-.1.9.1.9.8V98.5c0,.7.1.8.8.8h5.1c1.2,0,1.2,0,1.2-1.2V84.8h0V70.9c0-.6.2-.8.8-.8h3C73.3,70.1,73.4,70,73.3,69.1Z" style="fill: #fff"/>
      <g>
        <path d="M99.5,99.2H95.3c-.8,0-.8,0-.9-.7s-.4-3.9-.7-5.8-.4-4-.7-6-.4-3.4-.7-5.1-.4-2.9-.5-4.4-.4-2.8-.5-4.1l-.6-5.2-.3-2.1c-.1-.4,0-.6.4-.6h6.1c.4,0,.5.1.6.5s.3,3.3.4,4.9.5,3.8.5,5.7.3,4.6.5,6.9.1,2.6.2,3.9a14.8,14.8,0,0,1,.1,2.1c0,.2,0,.6.3.6s.4-.3.4-.6c.2-2.2.3-4.3.5-6.4s.3-4.9.6-7.3a26.1,26.1,0,0,0,.2-4c.2-2,.3-3.9.5-5.9,0-.4.2-.4.5-.4h7c.5,0,.7.1.7.7.2,3.1.4,6.2.7,9.2s.2,4,.4,6,.3,4.6.6,7c.1.4,0,.8.1,1.2s0,.5.3.5.3-.3.3-.5c0-1.9.3-3.7.4-5.6s.3-4.5.4-6.7.5-4.8.6-7.2.4-2.8.4-4.2.2-.4.5-.4h6.1c.5,0,.5.3.5.7s-.5,3.7-.8,5.6-.5,4.2-.7,6.3-.8,5.5-1.1,8.3-.8,6.1-1.1,9.2c-.1,1.2-.4,2.3-.4,3.5s-.3.4-.6.4h-8.8c-.7,0-.7,0-.7-.7s-.1-4.3-.3-6.4-.1-3.7-.2-5.6-.4-4.7-.4-7c0-.2,0-.5-.3-.5s-.4.3-.4.5v1.7c-.1,3-.3,6-.4,9.1s-.3,3.3-.3,5-.2,2.3-.1,3.5-.3.4-.6.4Z" style="fill: #d72126"/>
        <path d="M121.9,82.3V70.9a5.6,5.6,0,0,1,2.1-4.7,4.2,4.2,0,0,1,2.6-1h5.7a4.5,4.5,0,0,1,4,2.1,6.2,6.2,0,0,1,1.1,3.7V93.5a5.7,5.7,0,0,1-2.7,5.2,3.6,3.6,0,0,1-2,.6h-5.8a4.5,4.5,0,0,1-4.3-2.7,6.7,6.7,0,0,1-.7-3.1Zm8.4,0V70.7c-.1-.3-.2-.6-.6-.7s-.5.2-.7.5a1.4,1.4,0,0,0-.2.7v22c0,.7.4,1.3.8,1.3s.7-.4.7-1.2Z" style="fill: #d72126"/>
        <path d="M138.3,82.2V65.8c0-.5.2-.6.6-.6h10.5a4,4,0,0,1,3.1,1.9,6,6,0,0,1,1.2,3.6V85.9a3.6,3.6,0,0,1-.9,2.7,1.1,1.1,0,0,1-.9.5c-.5,0-.6.2-.5.7.6,2.3,1,4.6,1.6,6.8a12.9,12.9,0,0,0,.6,2.1c.2.5-.2.5-.5.5h-5c-.5,0-.7-.1-.8-.7-.5-2.7-1.1-5.5-1.5-8.3,0-.2,0-.5-.3-.5s-.3.3-.3.5c.1,2.9,0,5.7.1,8.5,0,.3-.1.5-.5.5h-5.9c-.4,0-.6-.1-.6-.5V82.2Zm6.9-4.8v6.8c0,.2,0,.5.3.6a.6.6,0,0,0,.7-.1,1.5,1.5,0,0,0,.4-1.1V71.2c0-.2.1-.4,0-.5s-.5-.8-1-.7-.4.5-.4.8Z" style="fill: #d72126"/>
        <path d="M154.8,82.2V65.8c0-.4.1-.6.5-.6h6c.4,0,.6.1.6.6-.1,2,0,4,0,6a24.1,24.1,0,0,0,0,3.8c0,.1-.1.3.1.4s.3-.2.3-.4c.3-1.9.6-3.7.8-5.6s.6-2.9.7-4.3.2-.5.5-.5h6.1c.4,0,.5.2.4.5L169.6,71c-.6,2.4-1.1,4.7-1.6,7.1a26.8,26.8,0,0,1-.7,2.7,4.1,4.1,0,0,0,0,1.9c.3,1.2.5,2.3.8,3.5l1.2,5.6c.4,1.6.7,3.2,1,4.8s.3,1.4.5,2,0,.7-.4.7h-5.9c-.5,0-.7-.1-.8-.7s-.5-4-.8-6l-.6-4.1v-.3l-.2-.2c-.2,0-.2.1-.2.2a7.4,7.4,0,0,0-.1,2.1c.1,2.5,0,5.1.1,7.6s0,1.4-1.5,1.4h-5.1c-.4,0-.5-.1-.5-.5V82.2Z" style="fill: #d72126"/>
        <path d="M179.4,65.2h3.1a3.6,3.6,0,0,1,2.9,1.3,6.1,6.1,0,0,1,1.5,2.7,8.3,8.3,0,0,1,.3,2.7v5.2c0,.7-.2.8-.9.8s-3.7-.1-5.6,0-.6-.2-.6-.6V71.1c0-.6-.4-1-.7-1a.8.8,0,0,0-.7.9v6.5a1.7,1.7,0,0,0,1.1,1.8l4.1,2a5.3,5.3,0,0,1,3,3.7,13.8,13.8,0,0,1,.3,3.5c0,1.8.1,3.7,0,5.5s-1,4-3.1,4.9a3.5,3.5,0,0,1-1.4.3h-6.3a4,4,0,0,1-3.8-2.1,6.3,6.3,0,0,1-.9-3.3V87.3c0-.6,0-.7.7-.7s3.7,0,5.5,0,.8.2.8.9v6a1.3,1.3,0,0,0,.1.6c.3.4.8.5,1.1,0s.2-.5.2-.9V87.6c.1-1.4-.5-1.8-1.5-2.3s-2.9-1.3-4.3-2.1a4.8,4.8,0,0,1-2.6-4.4q-.1-4.3,0-8.7a5.2,5.2,0,0,1,2.9-4.5,4.8,4.8,0,0,1,2-.4Z" style="fill: #d72126"/>
        <path d="M71.1,104a3,3,0,0,0-1.3-.1H.8c-.2,0-.6.1-.8-.2s.3-.4.4-.6l4.1-5.8L9.6,90c1.4-2,2.7-4,4.1-5.9s.5-.7-.1-1.5c-2.7-3.9-5.3-7.9-8-11.9s-3.5-5.3-5.3-8c-.1-.2-.3-.4-.1-.6s.4-.3.6-.3h72c.3,0,.9.2,1-.1s-.3-.7-.6-.9L63.1,50.7l-7.8-7.8a.8.8,0,0,0-1-.2,21,21,0,0,1-10.2,1.5,20.1,20.1,0,0,1-5.9-1.3A21.1,21.1,0,0,1,29,36.2a20.7,20.7,0,0,1-3.6-6.7c-.4-1.2-.7-2.5-1-3.7a18.6,18.6,0,0,1-.3-4.7c0-.2-.1-.4.2-.5s.4,0,.6.2c3.6,3.6,7.3,7,10.9,10.5l1.5,1.6a1.1,1.1,0,0,0,1.2.2l6.3-1.8,3.9-1.1a17.7,17.7,0,0,1,3.1-.8,1.3,1.3,0,0,0,.9-1c.6-2.6,1.2-5.2,1.9-7.7s.9-3.9,1.4-5.9a.7.7,0,0,0-.3-.8L43.3,2.1l-.6-.5a.4.4,0,0,1-.2-.5c0-.1.2-.2.4-.2a25,25,0,0,1,10.2,1,21.9,21.9,0,0,1,12,10.2,21.1,21.1,0,0,1,2.6,12.3,18.1,18.1,0,0,1-1.4,6.1,1,1,0,0,0,.3,1.2L83.8,48.8,96.4,61.4a1.1,1.1,0,0,0,.9.4h15.2a1.7,1.7,0,0,0,1.2-.6l13.9-14,16.6-16.6a.6.6,0,0,0,.2-.8,18.9,18.9,0,0,1-1.4-8.2,19.8,19.8,0,0,1,1.1-6.8,21.5,21.5,0,0,1,7.1-10,23.5,23.5,0,0,1,6.4-3.6A23.7,23.7,0,0,1,166.4,0a.7.7,0,0,1,.6.3c0,.1-.1.2-.2.4l-6,6.1-6,6.2a1.3,1.3,0,0,0-.4,1.5c.9,3,1.8,6.1,2.6,9.2.4,1.5.8,2.9,1.3,4.4s.2.5.6.5l6.7,1.6c2.3.7,4.7,1.1,7,1.8.5.1.9.1,1.2-.3L185.1,20l1.1-1.2c.3-.3.6-.2.6.3a25.5,25.5,0,0,1-.2,7.3,22.4,22.4,0,0,1-9,13.6,21.7,21.7,0,0,1-6.5,3.1,21.4,21.4,0,0,1-9.4.7,16.8,16.8,0,0,1-5.3-1.5,1.1,1.1,0,0,0-1.4.2l-7.6,7.7c-3.7,3.7-7.4,7.3-11,11-.1.2-.3.2-.3.4s.4.2.5.2h72.5c.3,0,.5-.1.7.2s-.1.5-.2.8l-6,8.5-7.5,10.8a.6.6,0,0,0,0,.8c2.5,3.6,5,7.2,7.4,10.9s3.8,5.9,5.8,8.8l.6.8c.2.3.1.4-.2.5H139.9c-.3,0-.5-.1-.8.1l15.2,15c.3.4.6.4,1.1.2a16.7,16.7,0,0,1,3.2-.8,20.2,20.2,0,0,1,6-.4,22.4,22.4,0,0,1,7.2,1.8,21.7,21.7,0,0,1,9.3,7.9,23.2,23.2,0,0,1,3.2,8,32.7,32.7,0,0,1,.4,5.4c0,.2,0,.5-.2.6s-.4-.2-.5-.3l-12.3-11.8a1.1,1.1,0,0,0-1.3-.3l-5.7,1.6c-2,.6-4,1-6,1.7l-1.8.5c-.3.1-.5.2-.6.5-.4,2-.9,3.9-1.4,5.9s-.7,3.1-1.1,4.7-.5,2.1-.8,3.1a1.5,1.5,0,0,0,.4,1.3l4.7,4.4,7.2,7.1.7.6c.3.3.2.6-.2.6a27.7,27.7,0,0,1-7.6-.3,22.2,22.2,0,0,1-6.2-2.4,20.7,20.7,0,0,1-7.9-7.9,21.5,21.5,0,0,1-2.6-15.1,13.6,13.6,0,0,1,1.5-4.7c.2-.4,0-.6-.3-.9l-4.7-4.7c-3.4-3.4-6.9-6.8-10.3-10.3l-10.9-10.8a1.3,1.3,0,0,0-1-.3H94.7a1.3,1.3,0,0,0-1.4.6L83.2,114.6,69.9,127.9,67,130.8a.6.6,0,0,0-.2.9,21,21,0,0,1,1.3,12.6,17.3,17.3,0,0,1-2.1,5.9,20.2,20.2,0,0,1-6.5,7.7,24.6,24.6,0,0,1-6.7,3.3,25.4,25.4,0,0,1-7.7.9c-.3,0-.5,0-.6-.2s.1-.4.3-.5c4-4.2,8-8.4,12.1-12.5a1.1,1.1,0,0,0,.3-1.2c-.7-2-1.2-4-1.8-6s-1.2-4.4-1.9-6.7h0c0-1.4-1-1.7-2-1.9l-4.2-1-4.5-1-3.9-1a1.3,1.3,0,0,0-1.3.4L25.8,142.9c-.3.3-.5.9-1,.6s-.3-.7-.3-1.1-.1-3,0-4.5a27.4,27.4,0,0,1,.5-2.8,15,15,0,0,1,1.5-4.2,20.5,20.5,0,0,1,2.9-4.7,23.8,23.8,0,0,1,6.2-5.2,22.3,22.3,0,0,1,14.1-2.7,19.3,19.3,0,0,1,4.7,1.3.9.9,0,0,0,1.3-.2l14.9-15Zm28.4-4.8H104c.3,0,.6,0,.6-.4s.1-2.4.1-3.5.2-3.4.3-5,.3-6.1.4-9.1V79.5c0-.2.1-.5.4-.5s.3.3.3.5c0,2.3.2,4.7.4,7s.1,3.7.2,5.6.2,4.2.3,6.4,0,.7.7.7h8.8c.3,0,.6,0,.6-.4s.3-2.3.4-3.5c.3-3.1.8-6.1,1.1-9.2s.7-5.5,1.1-8.3.4-4.2.7-6.3.5-3.8.8-5.6,0-.7-.5-.7h-6.1c-.3,0-.5.1-.5.4s-.3,2.8-.4,4.2-.5,4.8-.6,7.2-.3,4.5-.4,6.7-.4,3.7-.4,5.6c0,.2,0,.5-.3.5s-.3-.3-.3-.5,0-.8-.1-1.2c-.3-2.4-.3-4.7-.6-7s-.3-4-.4-6-.5-6.1-.7-9.2c0-.6-.2-.7-.7-.7h-7c-.3,0-.5,0-.5.4-.2,2-.3,3.9-.5,5.9a26.1,26.1,0,0,1-.2,4c-.3,2.4-.4,4.9-.6,7.3s-.3,4.2-.5,6.4c0,.3,0,.6-.4.6s-.3-.4-.3-.6a14.8,14.8,0,0,0-.1-2.1c-.1-1.3-.2-2.6-.2-3.9s-.4-4.6-.5-6.9-.4-3.8-.5-5.7-.3-3.2-.4-4.9-.2-.5-.6-.5H90.8c-.4,0-.5.2-.4.6l.3,2.1.6,5.2c.1,1.3.4,2.7.5,4.1s.3,2.9.5,4.4.5,3.4.7,5.1.5,4,.7,6,.5,3.8.7,5.8.1.7.9.7ZM55.5,80h0V65.9c0-.7,0-.7-.7-.7H48.9c-.4,0-.6.1-.6.5.1,8.9.1,17.7.1,26.5v1.4a.7.7,0,0,1-.7.8c-.4,0-.6-.4-.7-.8V66.8a2.8,2.8,0,0,1,.1-.9c.1-.5-.1-.7-.6-.7H40.4c-.4,0-.5.1-.5.6V93.2a7,7,0,0,0,.9,3.7,4.5,4.5,0,0,0,3.9,2.4h6.2a3.2,3.2,0,0,0,1.6-.4,5.7,5.7,0,0,0,3-5.3Zm34,2.2V70.9a5.9,5.9,0,0,0-1-3.4,4.2,4.2,0,0,0-3.9-2.3h-6a3.8,3.8,0,0,0-2.4.8,6.1,6.1,0,0,0-2.3,5V93.1a6.8,6.8,0,0,0,.9,3.7,4.5,4.5,0,0,0,4,2.5h6.1a3.6,3.6,0,0,0,2.4-.9,5.7,5.7,0,0,0,2.2-4.7Zm32.4.1V93.5a6.7,6.7,0,0,0,.7,3.1,4.5,4.5,0,0,0,4.3,2.7h5.8a3.6,3.6,0,0,0,2-.6,5.7,5.7,0,0,0,2.7-5.2V71a6.2,6.2,0,0,0-1.1-3.7,4.5,4.5,0,0,0-4-2.1h-5.7a4.2,4.2,0,0,0-2.6,1,5.6,5.6,0,0,0-2.1,4.7Zm16.4-.1h0V98.7c0,.4.2.5.6.5h5.9c.4,0,.5-.2.5-.5-.1-2.8,0-5.6-.1-8.5,0-.2,0-.5.3-.5s.3.3.3.5c.4,2.8,1,5.6,1.5,8.3.1.6.3.7.8.7h5c.3,0,.7,0,.5-.5a12.9,12.9,0,0,1-.6-2.1c-.6-2.2-1-4.5-1.6-6.8-.1-.5,0-.7.5-.7a1.1,1.1,0,0,0,.9-.5,3.6,3.6,0,0,0,.9-2.7V70.7a6,6,0,0,0-1.2-3.6,4,4,0,0,0-3.1-1.9H138.9c-.4,0-.6.1-.6.6Zm16.5,0h0V98.7c0,.4.1.5.5.5h5.1c1.5,0,1.5,0,1.5-1.4s0-5.1-.1-7.6a7.4,7.4,0,0,1,.1-2.1c0-.1,0-.2.2-.2l.2.2v.3l.6,4.1c.3,2,.6,4,.8,6s.3.7.8.7h5.9c.4,0,.5-.2.4-.7s-.3-1.3-.5-2-.6-3.2-1-4.8l-1.2-5.6c-.3-1.2-.5-2.3-.8-3.5a4.1,4.1,0,0,1,0-1.9,26.8,26.8,0,0,0,.7-2.7c.5-2.4,1-4.7,1.6-7.1l1.2-5.3c.1-.3,0-.5-.4-.5h-6.1c-.3,0-.5.1-.5.5s-.5,2.9-.7,4.3-.5,3.7-.8,5.6c0,.2,0,.4-.3.4s-.1-.3-.1-.4a24.1,24.1,0,0,1,0-3.8c0-2-.1-4,0-6,0-.5-.2-.6-.6-.6h-6c-.4,0-.5.2-.5.6ZM35.7,99.3h3c.4,0,.7-.1.6-.6a39.3,39.3,0,0,1-.6-4.8c-.5-3-.7-5.9-1.2-8.9s-.4-3.8-.7-5.7l-.6-5.2c-.4-2.8-.7-5.6-1-8.4-.1-.4-.2-.5-.5-.5H25.6c-.3,0-.5,0-.6.4L23.5,77.5c-.5,3.6-.9,7.3-1.4,11s-.6,5.6-1,8.4a7.7,7.7,0,0,1-.2,1.5c-.1.8-.1.9.7.9h5.7c.5,0,.7-.2.7-.7s.3-2.3.3-3.5.3-.7.8-.7h2c.5,0,.7.2.7.7s.2,2.4.3,3.5.3.7.7.7ZM179.4,65.2h-2.8a4.8,4.8,0,0,0-2,.4,5.2,5.2,0,0,0-2.9,4.5q-.1,4.4,0,8.7a4.8,4.8,0,0,0,2.6,4.4c1.4.8,2.9,1.4,4.3,2.1s1.6.9,1.5,2.3v5.6c0,.4,0,.7-.2.9s-.8.4-1.1,0a1.3,1.3,0,0,1-.1-.6v-6c0-.7,0-.9-.8-.9s-3.7.1-5.5,0-.7.1-.7.7v6.5a6.3,6.3,0,0,0,.9,3.3,4,4,0,0,0,3.8,2.1h6.3a3.5,3.5,0,0,0,1.4-.3c2.1-.9,2.8-2.8,3.1-4.9s0-3.7,0-5.5a13.8,13.8,0,0,0-.3-3.5,5.3,5.3,0,0,0-3-3.7l-4.1-2a1.7,1.7,0,0,1-1.1-1.8V71a.8.8,0,0,1,.7-.9c.3,0,.7.4.7,1v6.2c0,.4.1.7.6.6s3.8,0,5.6,0,.9-.1.9-.8V71.9a8.3,8.3,0,0,0-.3-2.7,6.1,6.1,0,0,0-1.5-2.7,3.6,3.6,0,0,0-2.9-1.3Zm-58.1-3.4h1a1.8,1.8,0,0,0,1.6-.7c3.3-3.4,6.7-6.7,10-10L147,37.8a1.2,1.2,0,0,0,0-1.9c-.7-.7-1.4-.8-2-.2l-4.6,4.6-20.8,21c-.1.1-.2.2-.2.3s.2.2.3.2Zm-40,0h1.5c.1,0,.3,0,.3-.2s-.1-.2-.1-.3L69.7,48.1l-8-7.8c-.6-.7-1.3-.6-2,.1a1.3,1.3,0,0,0,0,2L63.3,46c4.9,4.8,9.8,9.6,14.6,14.5C78.9,61.4,79.8,62.1,81.3,61.8Zm40.5,42.1.6.5,14,13.9,7,6.9a1.1,1.1,0,0,0,1.6.3c.8-.6,1.4-1.4.4-2.4l-3.8-3.7c-4.7-4.7-9.5-9.3-14.1-14.1-1.1-1-2.1-1.7-3.6-1.4S122.6,103.8,121.8,103.9Zm-40.2.2-.4-.2H77.7a.6.6,0,0,0-.6.3L65.6,115.8l-4.5,4.6a1.2,1.2,0,0,0-.4,1.5,1.5,1.5,0,0,0,2.6.4l8.6-8.7Zm-8.3-35L73,65.9c0-.7,0-.7-.7-.7H57.9c-.7,0-.7,0-.7.7s-.1.5-.1.8a24.5,24.5,0,0,0-.2,2.7c-.1.4,0,.7.4.7h3.3c.8-.1.9.1.9.8V98.5c0,.7.1.8.8.8h5.1c1.2,0,1.2,0,1.2-1.2V84.8h0V70.9c0-.6.2-.8.8-.8h3C73.3,70.1,73.4,70,73.3,69.1Z" style="fill: #0b0808"/>
        <path d="M102.2,137.1a3.9,3.9,0,0,0,2.4-.5h4.1a1.1,1.1,0,0,1,.8.3,12.9,12.9,0,0,1,1.6,1.7,1.2,1.2,0,0,1,.1.8,12.2,12.2,0,0,0-.3,1.7c0,.6.2.7.7.7a4.8,4.8,0,0,0,1.2,0c.6.1.8.3.8.9s-.1.5.2.6a.4.4,0,0,0,.5-.2.8.8,0,0,1,.8-.1.7.7,0,0,1,.3.8c-.1.6,0,.7.6.6a16,16,0,0,0,4.7-1.1,38.3,38.3,0,0,0,4.3-1.7,3.1,3.1,0,0,1,1.3-.3,1.9,1.9,0,0,1,1.9,1.8,8.1,8.1,0,0,1-.7,3.5,54.4,54.4,0,0,1-1.9,5.2,27.7,27.7,0,0,1-2.6,4.8c-1.1,1.8-2.4,3.4-3.5,5.2a6.9,6.9,0,0,0-1.1,4c.1.5.3.9.4,1.3a1.1,1.1,0,0,1,.1.5c0,.4-.2.5-.5.6s-.5-.1-.6-.4a7.5,7.5,0,0,1-.1-4.7,20,20,0,0,1,2.8-4.9,29.5,29.5,0,0,0,4.4-7.7,36.8,36.8,0,0,0,1.8-5.3,11.3,11.3,0,0,0,.3-1.8q0-1.4-1.2-.9l-4.1,1.6a15.2,15.2,0,0,1-6.3,1.4.8.8,0,0,0-.7.1.8.8,0,0,1-1.3-.5c0-.2,0-.4-.2-.5a.4.4,0,0,0-.4.4,9,9,0,0,0-.9,4.3c.5,3.6.8,7.3,1.1,11,.1,1,0,2,0,3a10.4,10.4,0,0,0,1.2,4,7.8,7.8,0,0,0,1.1,1.8c.1.2.2.4,0,.6s-.4.1-.6-.1a2.8,2.8,0,0,1-.8-1.1,14.6,14.6,0,0,1-1.6-4.4,6.7,6.7,0,0,0-1.3-3,.8.8,0,0,0-.8-.3,9,9,0,0,1-2.3.2,1.5,1.5,0,0,1-1.6-1.4l-.3-3.6a5.5,5.5,0,0,0-1.6-3.8.6.6,0,0,1,0-.9l.3-.3a2.5,2.5,0,0,0,.7-2.3,28.9,28.9,0,0,1-.4-2.9c0-.6-.4-.9-1-1a.8.8,0,0,0-.8.6,3.1,3.1,0,0,1-.7,1.4c-.2.2-.5.4-.8.2s-.1-.5.1-.7a3.2,3.2,0,0,0,.5-1.9,17.7,17.7,0,0,1-.1-2.3.6.6,0,0,1,.3-.6.6.6,0,0,1,.7.2c.2.2.3.4.7.4s.3,0,.4-.2a.5.5,0,0,0,0-.5,1.9,1.9,0,0,0-1.5-.9h-.7a1.1,1.1,0,0,0-1.2.4,1.4,1.4,0,0,1-1.3.6,5.3,5.3,0,0,0-2.8.3,3.2,3.2,0,0,1-3.2-.8c-.3-.3-.2-.5.1-.6a1,1,0,0,0,.5-1.2v-.6c.1-.6.1-1.1-.5-1.4s-.3-.5,0-.8a3.5,3.5,0,0,1,2.6-.6,1.4,1.4,0,0,0,1.5-.6l1.6-1.6c.2-.3.2-.5,0-.7s-.5-.4-.7-.6-.4-.6,0-1,.5-.6,0-1.3a5.3,5.3,0,0,1,.1-6.6c2.5-2.9,5.1-5.7,7.6-8.5.4-.4.7-.8.3-1.4s0-1,.5-1.2l1.6-.4c.6-.2,1,.2,1.4.5l10.5,9.3a1.9,1.9,0,0,1,.7,1.3,3.4,3.4,0,0,0,.1,1,1.2,1.2,0,0,1-1.7,1.3c-.4-.2-.6.1-.8.4l-3.5,3.9-4.2,4.6a5.6,5.6,0,0,1-6.4,1.2l-.5-.3a.7.7,0,0,0-1,.1c-.3.4-.6.7-1.1.3a.5.5,0,0,0-.6-.1,13.6,13.6,0,0,0-1.2,1.2c-.2.3,0,.6.5.6Z" style="fill: #0b0808"/>
        <path d="M104.2,46.1H93.7c-.2,0-.4-.1-.6,0a1,1,0,0,1-1.1-.6c-.8-1.5-1.7-2.9-2.5-4.3l-3.7-6.5c-1.5-2.5-2.9-5.1-4.5-7.6a2.6,2.6,0,0,1,0-3c1.6-2.5,3-5.1,4.5-7.6s3.4-6,5.2-9l.9-1.7A1,1,0,0,1,93,5.2h21.6a2,2,0,0,1,2.1,1.2l4.8,8.4c1.9,3.3,3.8,6.6,5.8,9.9l.3.5c.1.3.2.5,0,.8-1.7,2.6-3.1,5.4-4.7,8s-2.8,4.8-4.1,7.2l-2.6,4.5a1,1,0,0,1-.9.4Zm-.4-1.6a18.7,18.7,0,1,0-18.6-19A18.6,18.6,0,0,0,103.8,44.5Z" style="fill: #0b0808"/>
        <path d="M90.6,139.3h0q-1.6.1-1.2-1.5a.6.6,0,0,1,.6-.3h1.4a.5.5,0,0,1,.6.6C92.1,139.3,92.1,139.3,90.6,139.3Z" style="fill: #0b0808"/>
        <path d="M91.5,133.9l.3.2,1.1.9c.3.3.4.6,0,.9s-.8.8-1.8.1-1-.8-.1-1.7S91.2,133.9,91.5,133.9Z" style="fill: #0b0808"/>
        <path d="M90.9,142.7a.5.5,0,0,1-.5-.3l-.3-.6c-.3-.6-.3-.7.4-1l1.1-.5c.2-.2.4-.1.6.1l.5.9c.1.2.1.3,0,.4A10.4,10.4,0,0,1,90.9,142.7Z" style="fill: #0b0808"/>
        <path d="M87.5,139.3c-1.4,0-1.2.2-1.2-1.2s.1-.7.6-.7h1.2c.4,0,.6.1.6.6S88.8,139.3,87.5,139.3Z" style="fill: #0b0808"/>
        <path d="M86,129.2c0,.2-.8,1.3-1,1.3s-.3,0-.4-.1l-1.2-1a.3.3,0,0,1-.1-.2c-.3-.6.4-.8.6-1.2a.5.5,0,0,1,.7-.1l1.3,1.1Z" style="fill: #0b0808"/>
        <path d="M89.6,134.5l-.4-.2-1-.9c-.3-.2-.3-.4-.1-.7l.6-.7a.4.4,0,0,1,.7,0l1.2,1v.2C90.8,133.6,90,134.5,89.6,134.5Z" style="fill: #0b0808"/>
        <path d="M88,144.2c-.2,0-.2-.1-.3-.2v-.2c-.7-.9-.7-1.1.3-1.7l.5-.3c.2-.1.4-.5.7-.1a1.9,1.9,0,0,1,.7,1.4.2.2,0,0,1-.2.2l-1.5.8Z" style="fill: #0b0808"/>
        <path d="M88.3,131.2a3.4,3.4,0,0,1-.9,1.2c-.4.1-.5-.1-.8-.3a2.7,2.7,0,0,0-.8-.7c-.1-.2-.3-.3-.2-.6a3.9,3.9,0,0,1,.8-1,.4.4,0,0,1,.5,0l1.3,1.2C88.3,131,88.3,131.1,88.3,131.2Z" style="fill: #0b0808"/>
        <path d="M82.5,146.8a.5.5,0,0,1-.6-.3c-.1-.1-.1-.3-.2-.5s-.2-.7.2-1l1.2-.6h.3c.5.2.6.7.8,1.1s-.1.6-.5.7Z" style="fill: #0b0808"/>
        <path d="M81.2,139.4h-.4c-.7,0-.9-.2-.9-.8s.3-1.1.9-1.1h.8c.3,0,.6-.1.8.3a2,2,0,0,1,.1,1.3c-.1.2-.3.2-.4.3Z" style="fill: #0b0808"/>
        <path d="M85.2,145.4a.6.6,0,0,1-.5-.2c-.8-1-.7-1.3.4-1.8h.2c.3-.1.5-.5.9-.2a2.4,2.4,0,0,1,.7,1.2c0,.1,0,.3-.1.3A7.9,7.9,0,0,1,85.2,145.4Z" style="fill: #0b0808"/>
        <path d="M84.3,139.3c-1.4.2-1.2,0-1.2-1.3a.6.6,0,0,1,.6-.6h1.2c.4,0,.6.1.6.6S85.6,139.3,84.3,139.3Z" style="fill: #0b0808"/>
        <path d="M82.4,82.3V93.4c0,.6-.3,1-.7,1s-.7-.5-.7-1V71.2a.8.8,0,0,1,.2-.7c.2-.2.3-.5.6-.4a.6.6,0,0,1,.5.6c.1.1.1.2.1.4V82.3Z" style="fill: #0b0808"/>
        <path d="M130.3,82.3v11c0,.8-.2,1.2-.7,1.2s-.8-.6-.8-1.3v-22a1.4,1.4,0,0,1,.2-.7c.2-.3.3-.6.7-.5s.5.4.6.7V82.3Z" style="fill: #0b0808"/>
        <path d="M145.2,77.4V70.8c0-.3-.1-.8.4-.8s.8.2,1,.7,0,.3,0,.5V83.6a1.5,1.5,0,0,1-.4,1.1.6.6,0,0,1-.7.1c-.3-.1-.3-.4-.3-.6Z" style="fill: #0b0808"/>
        <path d="M86.5,25.8a17.4,17.4,0,1,1,17.2,17.3A17.3,17.3,0,0,1,86.5,25.8Zm17.9-12.3a12.5,12.5,0,1,0,12.5,12.3A12.5,12.5,0,0,0,104.4,13.5Z" style="fill: #0b0808"/>
      </g>
      <path d="M31.2,76.9V75.3c0-.3-.1-.5-.4-.5s-.4.2-.4.5v.2c-.1,2.2-.2,4.4-.4,6.6l-.3,6.4c0,1,0,1.1,1,1h.7c.4,0,.6-.1.5-.5s-.1-1.3-.1-1.9C31.7,83.7,31.4,80.3,31.2,76.9Z" style="fill: #0b0808"/>
    </g>
  </g>
</svg>
