<svg xmlns="http://www.w3.org/2000/svg" width="100" height="100" viewBox="0 0 100 100">
  <title>man</title>
  <g id="Layer_2" data-name="Layer 2">
    <g>
      <path d="M36.4,61.8A13.6,13.6,0,0,1,32.8,53c0-.4-.2-.7-.2-1s-.1-1.2-1.1-1.2-1.3-.7-1.6-1.5a31.3,31.3,0,0,1-1-4.4c-.2-1.9-1.2-3.6-.9-5.7s.9-2.3,2.2-2.1c1.7,2.3,1,5.3,2,7.8-.3-3.6.8-7.1.6-10.7a8.2,8.2,0,0,1,.3-3.8c1.1-2.9,2.1-5.8,3.4-8.6s2.8-3.5,5.5-2.4a14.3,14.3,0,0,0,6.8.7c1.6-.2,3.1-1,4.7-.6a31.6,31.6,0,0,0,6.1.3,5.7,5.7,0,0,1,5.7,3.6,26.2,26.2,0,0,1,1.3,4.8c.4,2,0,4,.4,5.9a37.4,37.4,0,0,1,.8,8.2c0,.4-.2.8.3,1.1s.2-2.1.4-3.2a9.6,9.6,0,0,1,1.1-3.1c1.6,0,2.1.6,2.3,2.3s-.6,3-.9,4.5a45.2,45.2,0,0,1-1.1,5.3c-.4,1-1,1.7-2.1,1.6s-.7.6-.7,1.1a14.2,14.2,0,0,1-1.7,7c-.6,1-1.3,1.9-2,2.9L62.1,63a42.2,42.2,0,0,1-6,5.2c-3.8,2.6-8.1,2.9-12,.2A44,44,0,0,1,36.4,61.8Z" style="fill: #f2d8bd"/>
      <path d="M73.9,78.4a65.4,65.4,0,0,1,7.5,2.4c3.5,1.2,7,2.6,10.4,4.1A9.7,9.7,0,0,1,97,90.2a71.1,71.1,0,0,1,2.9,8.9c.3,1-.3.9-.9.9H.6c-.3-.6-1-1.2-.3-2a3.1,3.1,0,0,0,.1-1l.2-.8a51.6,51.6,0,0,1,2.9-7.4,7.8,7.8,0,0,1,3.3-3.2,112.5,112.5,0,0,1,17-6.5l1.7-.6c.5.1.7.5,1.1.8,7.4,7,15.9,11.1,26.3,10C61.3,88.4,68.1,84.4,73.9,78.4Z" style="fill: #777"/>
      <path d="M73.9,78.4c-5.8,6-12.6,10-21,10.8-10.4,1.1-18.9-3-26.3-10-.4-.3-.6-.7-1.1-.8a28.5,28.5,0,0,0,10-5.7,2,2,0,0,0,.7-1.6,72.2,72.2,0,0,0,.2-9.3,44,44,0,0,0,7.7,6.6c3.9,2.7,8.2,2.4,12-.2a42.2,42.2,0,0,0,6-5.2l1.3-1.2c0,3.1-.1,6.1.2,9.1a2.9,2.9,0,0,0,1.2,2.2,25.5,25.5,0,0,0,7.9,4.7Z" style="fill: #ecc8a5"/>
      <path d="M69.6,37.1a9.6,9.6,0,0,0-1.1,3.1c-.2,1.1-.3,2.1-.4,3.2s-.3-.7-.3-1.1a37.4,37.4,0,0,0-.8-8.2c-.4-1.9,0-3.9-.4-5.9a26.2,26.2,0,0,0-1.3-4.8,5.7,5.7,0,0,0-5.7-3.6,31.6,31.6,0,0,1-6.1-.3c-1.6-.4-3.1.4-4.7.6a14.3,14.3,0,0,1-6.8-.7c-2.7-1.1-4.4.1-5.5,2.4s-2.3,5.7-3.4,8.6a8.2,8.2,0,0,0-.3,3.8c.2,3.6-.9,7.1-.6,10.7-1-2.5-.3-5.5-2-7.8-1.7-5.1-1.6-10.4-1.1-15.7a23.2,23.2,0,0,1,1.5-6.3,15.9,15.9,0,0,1,7.1-7.4,1.9,1.9,0,0,0,1.1-.9c.5-.8,1.5-.8,2.3-.8a6.3,6.3,0,0,0,3.2-1.2c1.8-1.2,3.9-1,5.9-.5a7.4,7.4,0,0,0,3.6.5,2,2,0,0,1,1.8.3h.1c1.3-.9,2.2.4,3.2.6a3.3,3.3,0,0,1,3,2.7c.2.6.4.5.8.4s2.7-.6,4,.1c-.9.9-.9.9.2,1.4a6.3,6.3,0,0,1,3.6,4.5,29.4,29.4,0,0,1,.8,9.8c-.4,3.2-.2,6.6-1.1,9.8Z" style="fill: #1e1e1c"/>
    </g>
  </g>
</svg>
