<svg xmlns="http://www.w3.org/2000/svg" width="100" height="100" viewBox="0 0 100 100">
  <title>man</title>
  <g id="Layer_2" data-name="Layer 2">
    <g>
      <path d="M22.9,79.7c-.7-2.6-1.4-5.1-2.2-7.6a14.2,14.2,0,0,1,.4-8.4c1.1-2.9,2.4-5.7,3.6-8.5a29.2,29.2,0,0,0,2.4-13c-.3-6.1-.2-12.1,1.8-17.9a38.9,38.9,0,0,1,9-14.6,11.9,11.9,0,0,1,6.8-3.8,4,4,0,0,1,1.1,0A8.5,8.5,0,0,0,50,5.6,16.2,16.2,0,0,1,63.9,9.3,36.3,36.3,0,0,1,75.8,27.8a26.9,26.9,0,0,1,.6,6.3,97,97,0,0,0,5.2,27.2,15.5,15.5,0,0,1,.1,8.8c-.8,3.3-2,6.6-2.3,10.1H79c-3.8-1.2-7.6-2.3-11.3-3.8a8,8,0,0,1-5-5.6,20.6,20.6,0,0,1-.8-6v-.4a1.4,1.4,0,0,0-.1-1.1,2.9,2.9,0,0,1,.8-1.3,21.9,21.9,0,0,0,5.6-11q.9-5.7,1.5-11.4c.1-.9-.1-1.2-.9-1.6A68.2,68.2,0,0,1,47.5,24.1a57.8,57.8,0,0,1-5.2-5.7,30.1,30.1,0,0,1-2.2,5.5,103.5,103.5,0,0,1-8.7,13.8,2.4,2.4,0,0,0-.5,1.8c.3,2.6.7,5.3.9,7.9.6,5.7,2.4,10.8,6.5,15a1.3,1.3,0,0,1,.5.9c-.3,1.9-.1,3.8-.4,5.7-.7,3.8-2.5,6.5-6.4,7.8-2.4.8-4.8,1.7-7.3,2.4A4.1,4.1,0,0,1,22.9,79.7Z" style="fill: #1e1e1c"/>
      <path d="M84.5,82.2c4.4,1.7,8.4,3.8,11.5,7.5a19.1,19.1,0,0,1,3.8,9.7c0,.5-.1.6-.5.6H1.6c-.7,0-.8-.1-.7-.8A17.8,17.8,0,0,1,10.3,85a48.9,48.9,0,0,1,5.1-2.6c.3-.1.5-.3.9-.1a37.5,37.5,0,0,0,7.3,4.2,65.3,65.3,0,0,0,42.9,3.6A51,51,0,0,0,84.5,82.2Z" style="fill: #d72126"/>
      <path d="M84.5,82.2a51,51,0,0,1-18,7.9,65.3,65.3,0,0,1-42.9-3.6,37.5,37.5,0,0,1-7.3-4.2c.7-.8,1.8-.8,2.7-1.3s2.7-.7,3.9-1.3a4.1,4.1,0,0,0,1.8-.5c2.5-.7,4.9-1.6,7.3-2.4,3.9-1.3,5.7-4,6.4-7.8.3-1.9.1-3.8.4-5.7.3-.1.6.2.8.4a25.7,25.7,0,0,0,6.5,4.4c2.3,1.1,4.6,1.8,7.1.7A26.2,26.2,0,0,0,60.6,64c.4-.3.7-.8,1.2-.7a1.4,1.4,0,0,1,.1,1.1l-.3.2c0,.2.2.2.3.2a20.6,20.6,0,0,0,.8,6,8,8,0,0,0,5,5.6c3.7,1.5,7.5,2.6,11.3,3.8h.4Z" style="fill: #ecc8a5"/>
      <path d="M61.8,63.3c-.5-.1-.8.4-1.2.7a26.2,26.2,0,0,1-7.4,4.8c-2.5,1.1-4.8.4-7.1-.7a25.7,25.7,0,0,1-6.5-4.4c-.2-.2-.5-.5-.8-.4a1.3,1.3,0,0,0-.5-.9c-4.1-4.2-5.9-9.3-6.5-15-.2-2.6-.6-5.3-.9-7.9a2.4,2.4,0,0,1,.5-1.8,103.5,103.5,0,0,0,8.7-13.8,30.1,30.1,0,0,0,2.2-5.5,57.8,57.8,0,0,0,5.2,5.7A68.2,68.2,0,0,0,68.8,38c.8.4,1,.7.9,1.6q-.6,5.7-1.5,11.4a21.9,21.9,0,0,1-5.6,11A2.9,2.9,0,0,0,61.8,63.3Z" style="fill: #f2d8bd"/>
      <path d="M61.9,64.8c-.1,0-.3,0-.3-.2l.3-.2Z" style="fill: #f2d8bd"/>
    </g>
  </g>
</svg>
